<svg width="43" height="44" viewBox="0 0 43 44" fill="none" xmlns="http://www.w3.org/2000/svg">
<circle cx="22.5" cy="22" r="20.1" fill="url(#paint0_linear_86_1709)" stroke="url(#paint1_linear_86_1709)" stroke-width="0.2"/>
<circle cx="23" cy="22" r="17" fill="url(#paint2_linear_86_1709)"/>
<path d="M28.25 16H26.75V15.25C26.75 15.0511 26.671 14.8603 26.5303 14.7197C26.3897 14.579 26.1989 14.5 26 14.5C25.8011 14.5 25.6103 14.579 25.4697 14.7197C25.329 14.8603 25.25 15.0511 25.25 15.25V16H20.75V15.25C20.75 15.0511 20.671 14.8603 20.5303 14.7197C20.3897 14.579 20.1989 14.5 20 14.5C19.8011 14.5 19.6103 14.579 19.4697 14.7197C19.329 14.8603 19.25 15.0511 19.25 15.25V16H17.75C17.1533 16 16.581 16.2371 16.159 16.659C15.7371 17.081 15.5 17.6533 15.5 18.25V27.25C15.5 27.8467 15.7371 28.419 16.159 28.841C16.581 29.2629 17.1533 29.5 17.75 29.5H28.25C28.8467 29.5 29.419 29.2629 29.841 28.841C30.2629 28.419 30.5 27.8467 30.5 27.25V18.25C30.5 17.6533 30.2629 17.081 29.841 16.659C29.419 16.2371 28.8467 16 28.25 16ZM29 27.25C29 27.4489 28.921 27.6397 28.7803 27.7803C28.6397 27.921 28.4489 28 28.25 28H17.75C17.5511 28 17.3603 27.921 17.2197 27.7803C17.079 27.6397 17 27.4489 17 27.25V22H29V27.25ZM29 20.5H17V18.25C17 18.0511 17.079 17.8603 17.2197 17.7197C17.3603 17.579 17.5511 17.5 17.75 17.5H19.25V18.25C19.25 18.4489 19.329 18.6397 19.4697 18.7803C19.6103 18.921 19.8011 19 20 19C20.1989 19 20.3897 18.921 20.5303 18.7803C20.671 18.6397 20.75 18.4489 20.75 18.25V17.5H25.25V18.25C25.25 18.4489 25.329 18.6397 25.4697 18.7803C25.6103 18.921 25.8011 19 26 19C26.1989 19 26.3897 18.921 26.5303 18.7803C26.671 18.6397 26.75 18.4489 26.75 18.25V17.5H28.25C28.4489 17.5 28.6397 17.579 28.7803 17.7197C28.921 17.8603 29 18.0511 29 18.25V20.5Z" fill="#383A69"/>
<defs>
<linearGradient id="paint0_linear_86_1709" x1="12.1552" y1="7.51724" x2="34.5" y2="37" gradientUnits="userSpaceOnUse">
<stop stop-color="white"/>
<stop offset="1" stop-color="#C6C8DE"/>
</linearGradient>
<linearGradient id="paint1_linear_86_1709" x1="22.5" y1="43" x2="22.5" y2="0.999999" gradientUnits="userSpaceOnUse">
<stop stop-opacity="0.2"/>
<stop offset="1" stop-opacity="0"/>
</linearGradient>
<linearGradient id="paint2_linear_86_1709" x1="11.8384" y1="7.57576" x2="23" y2="39" gradientUnits="userSpaceOnUse">
<stop stop-color="#DDE1E7"/>
<stop offset="1" stop-color="#FAFBFC"/>
</linearGradient>
</defs>
</svg>
