<svg width="23" height="36" viewBox="0 0 23 36" fill="none" xmlns="http://www.w3.org/2000/svg">
<path d="M3.89693 0.457642C3.89693 0.457642 -3.01889 5.0963 -2.57829 17.8642C-2.13769 30.6244 0.0731676 32.3697 4.03855 32.5171C8.00393 32.6645 10.1282 26.8623 10.2148 18.446C10.3643 4.66967 3.89693 0.457642 3.89693 0.457642Z" fill="#FC3B77"/>
<path d="M4.18804 32.9748C4.13296 32.9748 4.07789 32.9748 4.02281 32.9748C-0.422504 32.8119 -2.60976 30.5158 -3.05036 17.8797C-3.49095 5.01096 3.33831 0.271465 3.62942 0.0775417C3.78678 -0.0310556 3.99134 -0.0310556 4.1487 0.0775417C4.42407 0.255952 10.8363 4.58433 10.6869 18.4538C10.616 24.9541 9.3572 29.6781 7.14634 31.7569C6.28088 32.5636 5.28953 32.9748 4.18804 32.9748ZM3.89693 1.0394C2.66168 2.04781 -2.49174 6.93468 -2.11409 17.8487C-1.66562 30.8726 0.623916 31.9276 4.05429 32.0517C4.95909 32.0827 5.77734 31.7569 6.49331 31.0898C8.49174 29.2049 9.67978 24.5973 9.74272 18.4382C9.87647 6.64768 5.0771 2.00127 3.89693 1.0394Z" fill="#AF1049"/>
<path d="M3.62155 34.6192C3.62155 34.6192 1.63886 18.2288 7.94099 10.2701C14.2431 2.3115 22.5358 6.50801 22.5358 6.50801C22.5358 6.50801 17.8859 5.74008 16.926 12.062C15.9662 18.3839 18.3973 37.5746 3.62155 34.6192Z" fill="#FC3B77"/>
<path d="M6.49331 35.3794C5.56491 35.3794 4.57356 35.2786 3.52714 35.0614C3.33045 35.0226 3.18096 34.8597 3.15736 34.6658C3.07868 33.9909 1.22187 17.9961 7.5712 9.98315C14.0386 1.81508 22.6617 6.05038 22.7482 6.08916C22.9528 6.19 23.0472 6.43047 22.9764 6.63991C22.9056 6.8571 22.6853 6.98897 22.4571 6.95018C22.4414 6.95018 20.978 6.73299 19.6326 7.71037C18.4603 8.55587 17.705 10.0452 17.3902 12.1241C17.225 13.2256 17.1621 14.7226 17.0913 16.468C16.8552 22.2469 16.5248 30.1667 12.0087 33.6574C10.5138 34.8054 8.6727 35.3794 6.49331 35.3794ZM4.04642 34.2314C7.11487 34.7821 9.59323 34.3477 11.4264 32.936C15.6042 29.7091 15.919 22.0375 16.1471 16.4369C16.2179 14.6683 16.2809 13.1402 16.454 11.9922C16.808 9.6496 17.6971 7.95859 19.0818 6.9657C19.5539 6.62439 20.0417 6.4072 20.4902 6.25982C17.7915 5.53842 12.5987 5.11954 8.29504 10.5572C5.10858 14.5753 4.13297 20.8817 3.86546 25.4583C3.64516 29.6237 3.94414 33.1609 4.04642 34.2314Z" fill="#AF1049"/>
<path d="M3.417 34.5029C3.417 34.5029 4.786 18.0582 -1.81511 10.3245C-8.41621 2.59082 -16.5358 7.09761 -16.5358 7.09761C-16.5358 7.09761 -11.9174 6.16677 -10.7215 12.4421C-9.52557 18.7175 -11.2408 38.0013 3.417 34.5029Z" fill="#FC3B77"/>
<path d="M0.143984 35.3794C-1.84657 35.3794 -3.56963 34.8675 -4.9937 33.8435C-9.63572 30.5158 -10.2573 22.6192 -10.7136 16.8558C-10.8474 15.1183 -10.9654 13.6212 -11.1778 12.5275C-11.5712 10.4563 -12.3895 8.99804 -13.6011 8.19132C-14.9937 7.26824 -16.4256 7.53973 -16.4414 7.54749C-16.6696 7.59403 -16.8898 7.46992 -16.9685 7.26048C-17.0472 7.05105 -16.9607 6.81058 -16.7561 6.70198C-16.6696 6.65544 -8.21951 2.10987 -1.44532 10.0375C5.20299 17.8177 3.94414 33.8668 3.88906 34.5494C3.87333 34.7511 3.73171 34.914 3.53501 34.9605C2.32337 35.2398 1.19827 35.3794 0.143984 35.3794ZM-14.5138 6.77179C-14.0574 6.89591 -13.5696 7.10534 -13.0818 7.42338C-11.6499 8.36973 -10.7057 10.0297 -10.2573 12.3568C-10.037 13.4971 -9.91896 15.0174 -9.78521 16.786C-9.34461 22.371 -8.73879 30.0271 -4.45082 33.1066C-2.57042 34.4563 -0.0763168 34.7977 2.9764 34.1383C3.04721 33.0601 3.21243 29.5152 2.81117 25.3497C2.37844 20.7886 1.15893 14.5287 -2.16916 10.6348C-6.66955 5.35227 -11.8387 5.95732 -14.5138 6.77179Z" fill="#AF1049"/>
<path d="M3.68451 0.496403C2.7561 4.10338 2.85838 8.17578 2.7089 11.8836C2.54367 15.8629 2.50433 19.8422 2.56728 23.8215C2.57514 24.5119 3.66877 24.5119 3.65304 23.8215C3.55075 19.9431 3.54289 16.0646 3.66877 12.1784C3.78679 8.35419 4.44769 4.37488 4.18805 0.558459C4.16444 0.294722 3.75532 0.209396 3.68451 0.496403Z" fill="#AF1049"/>
<path d="M-10.4461 8.03618C-5.52085 12.0155 -4.06531 18.0737 -3.27852 24.0155C-2.6963 28.4525 -1.56334 33.3393 3.06294 35.232C3.78678 35.5268 4.10149 34.371 3.38552 34.0763C-2.15343 31.788 -1.7443 24.5895 -2.73565 19.7569C-3.71912 14.9709 -5.93785 10.4253 -10.1629 7.67936C-10.3832 7.53973 -10.6507 7.87328 -10.4461 8.03618Z" fill="#AF1049"/>
<path d="M17.3588 6.69419C15.3131 7.67157 14.0228 9.79697 12.9685 11.6974C11.7175 13.9547 10.8521 16.4137 10.081 18.8571C9.28639 21.3781 8.63336 23.9379 7.7679 26.4356C7.3037 27.7698 6.80803 29.0963 6.19434 30.3684C5.60425 31.594 4.72306 33.7892 3.06295 33.6573C2.03226 33.572 2.03226 35.3251 3.06295 35.232C5.47837 35.0226 6.6192 32.8196 7.53974 30.8648C8.72778 28.3516 9.53029 25.691 10.2777 23.0148C11.749 17.7323 12.9292 10.689 17.6263 7.15185C17.9017 6.95017 17.6814 6.53905 17.3588 6.69419Z" fill="#AF1049"/>
<path d="M2.56727 34.6813C2.22895 35.0226 2.29976 35.6121 2.71675 35.8681C3.19669 36.1629 3.83398 35.8371 3.95987 35.3174C3.90479 35.4027 3.85759 35.488 3.80251 35.5811C3.81038 35.5656 3.82612 35.5578 3.83398 35.5423C3.99921 35.3717 4.07002 35.139 4.00708 34.9063C3.94413 34.6735 3.76317 34.5339 3.54287 34.4486C2.99213 34.2469 2.44138 34.7744 2.44138 35.2863C2.44138 35.6432 2.71675 35.9379 3.07081 35.9845C3.44846 36.031 3.7317 35.8061 3.86546 35.4725C3.91266 35.3484 3.77104 35.6121 3.84972 35.5035C3.81038 35.5578 3.75531 35.6199 3.83398 35.5346C3.56648 35.5656 3.29897 35.6044 3.03147 35.6354C3.0472 35.6432 3.06294 35.6509 3.07081 35.6587C2.96852 35.488 2.87411 35.3174 2.77183 35.1467C2.77183 34.9218 3.03933 34.852 3.20456 34.9373C3.13375 34.8985 3.2439 34.9838 3.25963 34.9993C3.28324 35.0614 3.28324 35.0691 3.2675 35.0148C3.2911 35.0769 3.28324 35.139 3.2439 35.1933C3.33044 34.9916 3.32258 34.7744 3.13375 34.6348C2.96852 34.5262 2.72462 34.5262 2.56727 34.6813Z" fill="#AF1049"/>
</svg>
