<svg width="25" height="39" viewBox="0 0 25 39" fill="none" xmlns="http://www.w3.org/2000/svg">
<g clip-path="url(#clip0_86_1666)">
<path d="M22.9866 0.495789C22.9866 0.495789 15.3792 5.521 15.8639 19.3529C16.3485 33.1765 18.7805 35.0672 23.1424 35.2269C27.5043 35.3865 29.8411 29.1008 29.9363 19.9832C30.1007 5.05881 22.9866 0.495789 22.9866 0.495789Z" fill="#FC3B77"/>
<path d="M23.3069 35.7227C23.2463 35.7227 23.1857 35.7227 23.1251 35.7227C18.2353 35.5462 15.8293 33.0588 15.3446 19.3697C14.86 5.42856 22.3722 0.294108 22.6924 0.0840239C22.8655 -0.0336232 23.0905 -0.0336232 23.2636 0.0840239C23.5665 0.277301 30.62 4.96638 30.4556 19.9916C30.3777 27.0336 28.9929 32.1512 26.561 34.4034C25.609 35.2773 24.5185 35.7227 23.3069 35.7227ZM22.9866 1.12604C21.6279 2.21848 15.9591 7.5126 16.3745 19.3361C16.8678 33.4454 19.3863 34.5882 23.1597 34.7227C24.155 34.7563 25.0551 34.4034 25.8426 33.6807C28.0409 31.6386 29.3478 26.647 29.417 19.9748C29.5641 7.20167 24.2848 2.16806 22.9866 1.12604Z" fill="#AF1049"/>
<path d="M22.6837 37.5042C22.6837 37.5042 20.5027 19.7479 27.4351 11.126C34.3674 2.50419 43.4894 7.0504 43.4894 7.0504C43.4894 7.0504 38.3745 6.21847 37.3186 13.0672C36.2628 19.9159 38.937 40.7059 22.6837 37.5042Z" fill="#FC3B77"/>
<path d="M25.8427 38.3277C24.8214 38.3277 23.7309 38.2185 22.5799 37.9832C22.3635 37.9412 22.1991 37.7647 22.1731 37.5546C22.0866 36.8235 20.0441 19.4958 27.0283 10.8151C34.1424 1.96638 43.6279 6.55462 43.7231 6.59663C43.9481 6.70588 44.0519 6.96638 43.974 7.19327C43.8962 7.42857 43.6538 7.57142 43.4028 7.52941C43.3855 7.52941 41.7758 7.29411 40.2958 8.35294C39.0063 9.2689 38.1755 10.8823 37.8293 13.1344C37.6475 14.3277 37.5783 15.9496 37.5004 17.8403C37.2408 24.1008 36.8773 32.6807 31.9095 36.4622C30.2652 37.7059 28.24 38.3277 25.8427 38.3277ZM23.1511 37.084C26.5264 37.6807 29.2526 37.2101 31.2691 35.6807C35.8647 32.1849 36.2109 23.8739 36.4619 17.8067C36.5397 15.8908 36.609 14.2353 36.7994 12.9916C37.1888 10.4538 38.1668 8.62184 39.69 7.54621C40.2093 7.17647 40.7459 6.94117 41.2392 6.78151C38.2707 6 32.5586 5.54621 27.8246 11.437C24.3194 15.7899 23.2463 22.6218 22.952 27.5798C22.7097 32.0924 23.0386 35.9244 23.1511 37.084Z" fill="#AF1049"/>
<path d="M22.4587 37.3782C22.4587 37.3782 23.9646 19.5631 16.7034 11.1849C9.44217 2.80677 0.51062 7.68912 0.51062 7.68912C0.51062 7.68912 5.59087 6.68072 6.90637 13.479C8.22187 20.2774 6.33517 41.1681 22.4587 37.3782Z" fill="#FC3B77"/>
<path d="M18.8584 38.3277C16.6688 38.3277 14.7734 37.7731 13.2069 36.6639C8.10073 33.0588 7.41702 24.5042 6.91505 18.2605C6.76792 16.3782 6.6381 14.7563 6.40443 13.5714C5.9717 11.3277 5.07162 9.74792 3.73881 8.87397C2.20694 7.87397 0.631807 8.16808 0.614498 8.17649C0.363514 8.22691 0.121185 8.09245 0.0346393 7.86556C-0.0519067 7.63867 0.0432939 7.37817 0.268314 7.26052C0.363514 7.2101 9.65856 2.28573 17.1102 10.874C24.4233 19.3025 23.0386 36.6891 22.978 37.4286C22.9607 37.6471 22.8049 37.8235 22.5885 37.874C21.2557 38.1765 20.0181 38.3277 18.8584 38.3277ZM2.73488 7.33615C3.23684 7.47061 3.77343 7.6975 4.31001 8.04203C5.88515 9.06724 6.9237 10.8656 7.41702 13.3866C7.65934 14.6219 7.78916 16.2689 7.93629 18.1849C8.42095 24.2353 9.08735 32.5294 13.8041 35.8656C15.8726 37.3277 18.6161 37.6975 21.9741 36.9832C22.0519 35.8151 22.2337 31.9748 21.7923 27.4622C21.3163 22.521 19.9748 15.7395 16.3139 11.521C11.3635 5.79834 5.67744 6.4538 2.73488 7.33615Z" fill="#AF1049"/>
<path d="M22.753 0.537821C21.7317 4.44538 21.8443 8.85715 21.6798 12.874C21.4981 17.1849 21.4548 21.4958 21.524 25.8067C21.5327 26.5546 22.7357 26.5546 22.7184 25.8067C22.6059 21.605 22.5972 17.4034 22.7357 13.1933C22.8655 9.05043 23.5925 4.7395 23.3069 0.605048C23.2809 0.319334 22.8309 0.226897 22.753 0.537821Z" fill="#AF1049"/>
<path d="M7.2093 8.7059C12.6271 13.0168 14.2282 19.5799 15.0936 26.0168C15.7341 30.8235 16.9803 36.1177 22.0692 38.1681C22.8655 38.4874 23.2117 37.2353 22.4241 36.916C16.3312 34.437 16.7813 26.6387 15.6908 21.4034C14.609 16.2185 12.1684 11.2941 7.52086 8.31935C7.27853 8.16808 6.98428 8.52943 7.2093 8.7059Z" fill="#AF1049"/>
<path d="M37.7947 7.2521C35.5445 8.31092 34.1251 10.6134 32.9654 12.6723C31.5893 15.1176 30.6373 17.7815 29.7892 20.4286C28.915 23.1597 28.1967 25.9328 27.2447 28.6387C26.7341 30.084 26.1888 31.521 25.5138 32.8992C24.8647 34.2269 23.8954 36.605 22.0692 36.4622C20.9355 36.3697 20.9355 38.2689 22.0692 38.1681C24.7262 37.9412 25.9811 35.5546 26.9937 33.437C28.3006 30.7143 29.1833 27.8319 30.0055 24.9328C31.6239 19.2101 32.9221 11.5798 38.0889 7.7479C38.3918 7.52941 38.1495 7.08403 37.7947 7.2521Z" fill="#AF1049"/>
<path d="M21.524 37.5714C21.1519 37.9412 21.2298 38.5798 21.6885 38.8571C22.2164 39.1765 22.9174 38.8235 23.0559 38.2605C22.9953 38.3529 22.9434 38.4454 22.8828 38.5462C22.8915 38.5294 22.9088 38.521 22.9174 38.5042C23.0992 38.3193 23.1771 38.0672 23.1078 37.8151C23.0386 37.563 22.8395 37.4118 22.5972 37.3193C21.9914 37.1008 21.3856 37.6723 21.3856 38.2269C21.3856 38.6134 21.6885 38.9328 22.0779 38.9832C22.4933 39.0336 22.8049 38.7899 22.952 38.4286C23.004 38.2941 22.8482 38.5798 22.9347 38.4622C22.8915 38.521 22.8309 38.5882 22.9174 38.4958C22.6232 38.5294 22.3289 38.5714 22.0347 38.605C22.052 38.6134 22.0693 38.6219 22.0779 38.6303C21.9654 38.4454 21.8616 38.2605 21.7491 38.0756C21.7491 37.8319 22.0433 37.7563 22.2251 37.8487C22.1472 37.8067 22.2683 37.8992 22.2856 37.916C22.3116 37.9832 22.3116 37.9916 22.2943 37.9328C22.3203 38 22.3116 38.0672 22.2683 38.1261C22.3635 37.9076 22.3549 37.6723 22.1472 37.521C21.9654 37.4034 21.6971 37.4034 21.524 37.5714Z" fill="#AF1049"/>
</g>
<defs>
<clipPath id="clip0_86_1666">
<rect width="44" height="39" fill="white"/>
</clipPath>
</defs>
</svg>
