<svg width="70" height="70" viewBox="0 0 70 70" fill="none" xmlns="http://www.w3.org/2000/svg">
<g filter="url(#filter0_ddd_86_1715)">
<circle cx="31" cy="31" r="17" fill="url(#paint0_linear_86_1715)"/>
</g>
<circle cx="31" cy="31" r="13.25" fill="url(#paint1_linear_86_1715)"/>
<circle cx="31" cy="31" r="13.25" stroke="url(#paint2_linear_86_1715)" stroke-width="1.5" style="mix-blend-mode:overlay"/>
<path d="M35.9888 37.5234L39.6729 33.7368C39.856 33.5537 39.9731 33.2754 39.9731 33.0264C39.9731 32.4624 39.5703 32.0596 39.0063 32.0596C38.7354 32.0596 38.5083 32.1475 38.3252 32.3379L36.8384 33.8833L36.2085 34.623L36.2451 33.2754V24.5742C36.2451 24.0103 35.8276 23.5928 35.2637 23.5928C34.707 23.5928 34.2896 24.0103 34.2896 24.5742V33.2754L34.3262 34.623L33.6963 33.8833L32.2095 32.3379C32.0264 32.1475 31.792 32.0596 31.5283 32.0596C30.9644 32.0596 30.5615 32.4624 30.5615 33.0264C30.5615 33.2754 30.6787 33.5537 30.8618 33.7368L34.5459 37.5234C34.9414 37.9409 35.5859 37.9482 35.9888 37.5234ZM25.8521 23.915L22.168 27.6943C21.9849 27.8774 21.8677 28.1484 21.8677 28.3975C21.8677 28.9688 22.2705 29.3716 22.8345 29.3716C23.1055 29.3716 23.3325 29.2764 23.5156 29.0933L25.0024 27.5405L25.6323 26.8081L25.5957 28.1558V36.8569C25.5957 37.4209 26.0132 37.8384 26.5771 37.8384C27.1338 37.8384 27.5513 37.4209 27.5513 36.8569V28.1558L27.5146 26.8081L28.1445 27.5405L29.6313 29.0933C29.8145 29.2764 30.0415 29.3716 30.3125 29.3716C30.8765 29.3716 31.2793 28.9688 31.2793 28.3975C31.2793 28.1484 31.1621 27.8774 30.979 27.6943L27.2949 23.915C26.8921 23.4902 26.2549 23.4902 25.8521 23.915Z" fill="#383A69"/>
<defs>
<filter id="filter0_ddd_86_1715" x="0" y="0" width="70" height="70" filterUnits="userSpaceOnUse" color-interpolation-filters="sRGB">
<feFlood flood-opacity="0" result="BackgroundImageFix"/>
<feColorMatrix in="SourceAlpha" type="matrix" values="0 0 0 0 0 0 0 0 0 0 0 0 0 0 0 0 0 0 127 0" result="hardAlpha"/>
<feOffset dx="4" dy="4"/>
<feGaussianBlur stdDeviation="9"/>
<feColorMatrix type="matrix" values="0 0 0 0 0 0 0 0 0 0 0 0 0 0 0 0 0 0 1 0"/>
<feBlend mode="overlay" in2="BackgroundImageFix" result="effect1_dropShadow_86_1715"/>
<feColorMatrix in="SourceAlpha" type="matrix" values="0 0 0 0 0 0 0 0 0 0 0 0 0 0 0 0 0 0 127 0" result="hardAlpha"/>
<feOffset dy="1"/>
<feGaussianBlur stdDeviation="0.1"/>
<feColorMatrix type="matrix" values="0 0 0 0 1 0 0 0 0 1 0 0 0 0 1 0 0 0 0.2 0"/>
<feBlend mode="normal" in2="effect1_dropShadow_86_1715" result="effect2_dropShadow_86_1715"/>
<feColorMatrix in="SourceAlpha" type="matrix" values="0 0 0 0 0 0 0 0 0 0 0 0 0 0 0 0 0 0 127 0" result="hardAlpha"/>
<feOffset dx="-4" dy="-4"/>
<feGaussianBlur stdDeviation="5"/>
<feComposite in2="hardAlpha" operator="out"/>
<feColorMatrix type="matrix" values="0 0 0 0 1 0 0 0 0 1 0 0 0 0 1 0 0 0 0.5 0"/>
<feBlend mode="normal" in2="effect2_dropShadow_86_1715" result="effect3_dropShadow_86_1715"/>
<feBlend mode="normal" in="SourceGraphic" in2="effect3_dropShadow_86_1715" result="shape"/>
</filter>
<linearGradient id="paint0_linear_86_1715" x1="14" y1="14" x2="14" y2="48" gradientUnits="userSpaceOnUse">
<stop stop-color="#B6B8CD"/>
<stop offset="0.673611" stop-color="white"/>
<stop offset="1" stop-color="#B0B8CE"/>
</linearGradient>
<linearGradient id="paint1_linear_86_1715" x1="17" y1="17" x2="17" y2="45" gradientUnits="userSpaceOnUse">
<stop stop-color="#E1E4E6"/>
<stop offset="1" stop-color="#F4F7FA"/>
</linearGradient>
<linearGradient id="paint2_linear_86_1715" x1="31" y1="17" x2="31" y2="45" gradientUnits="userSpaceOnUse">
<stop stop-color="white"/>
<stop offset="1"/>
</linearGradient>
</defs>
</svg>
