<svg width="74" height="74" viewBox="0 0 74 74" fill="none" xmlns="http://www.w3.org/2000/svg">
<g filter="url(#filter0_dd_88_311)">
<rect x="14" y="14" width="46.9798" height="46.9798" rx="23.4899" fill="#EAECF0"/>
<rect x="14" y="14" width="46.9798" height="46.9798" rx="23.4899" fill="url(#paint0_linear_88_311)" fill-opacity="0.5" style="mix-blend-mode:soft-light"/>
<rect x="13.5" y="13.5" width="47.9798" height="47.9798" rx="23.9899" stroke="white" stroke-opacity="0.4"/>
</g>
<mask id="path-3-outside-1_88_311" maskUnits="userSpaceOnUse" x="30.0078" y="29.8994" width="15" height="15" fill="black">
<rect fill="white" x="30.0078" y="29.8994" width="15" height="15"/>
<path fill-rule="evenodd" clip-rule="evenodd" d="M31.3621 42.6581C31.8346 43.1306 32.6007 43.1306 33.0733 42.658L37.0644 38.6668L40.9793 42.5817C41.4518 43.0542 42.2179 43.0541 42.6905 42.5816C43.163 42.109 43.1631 41.3429 42.6906 40.8704L38.7757 36.9555L42.7665 32.9648C43.239 32.4923 43.2391 31.7262 42.7666 31.2537C42.2941 30.7812 41.528 30.7813 41.0555 31.2538L37.0647 35.2445L33.1505 31.3303C32.678 30.8578 31.9119 30.8579 31.4393 31.3304C30.9668 31.803 30.9667 32.5691 31.4392 33.0416L35.3534 36.9558L31.3623 40.947C30.8897 41.4196 30.8897 42.1857 31.3621 42.6581Z"/>
</mask>
<g filter="url(#filter1_ii_88_311)">
<path fill-rule="evenodd" clip-rule="evenodd" d="M31.3621 42.6581C31.8346 43.1306 32.6007 43.1306 33.0733 42.658L37.0644 38.6668L40.9793 42.5817C41.4518 43.0542 42.2179 43.0541 42.6905 42.5816C43.163 42.109 43.1631 41.3429 42.6906 40.8704L38.7757 36.9555L42.7665 32.9648C43.239 32.4923 43.2391 31.7262 42.7666 31.2537C42.2941 30.7812 41.528 30.7813 41.0555 31.2538L37.0647 35.2445L33.1505 31.3303C32.678 30.8578 31.9119 30.8579 31.4393 31.3304C30.9668 31.803 30.9667 32.5691 31.4392 33.0416L35.3534 36.9558L31.3623 40.947C30.8897 41.4196 30.8897 42.1857 31.3621 42.6581Z" fill="#FFD217"/>
<path fill-rule="evenodd" clip-rule="evenodd" d="M31.3621 42.6581C31.8346 43.1306 32.6007 43.1306 33.0733 42.658L37.0644 38.6668L40.9793 42.5817C41.4518 43.0542 42.2179 43.0541 42.6905 42.5816C43.163 42.109 43.1631 41.3429 42.6906 40.8704L38.7757 36.9555L42.7665 32.9648C43.239 32.4923 43.2391 31.7262 42.7666 31.2537C42.2941 30.7812 41.528 30.7813 41.0555 31.2538L37.0647 35.2445L33.1505 31.3303C32.678 30.8578 31.9119 30.8579 31.4393 31.3304C30.9668 31.803 30.9667 32.5691 31.4392 33.0416L35.3534 36.9558L31.3623 40.947C30.8897 41.4196 30.8897 42.1857 31.3621 42.6581Z" fill="url(#paint1_linear_88_311)" fill-opacity="0.4" style="mix-blend-mode:soft-light"/>
</g>
<path d="M33.0733 42.658L32.3662 41.9509L32.3662 41.9509L33.0733 42.658ZM31.3621 42.6581L32.0692 41.951L31.3621 42.6581ZM37.0644 38.6668L37.7716 37.9597L37.0644 37.2526L36.3573 37.9597L37.0644 38.6668ZM40.9793 42.5817L41.6864 41.8746H41.6864L40.9793 42.5817ZM42.6906 40.8704L41.9835 41.5775L42.6906 40.8704ZM38.7757 36.9555L38.0686 36.2484L37.3615 36.9555L38.0686 37.6627L38.7757 36.9555ZM42.7665 32.9648L42.0594 32.2577V32.2577L42.7665 32.9648ZM42.7666 31.2537L43.4737 30.5466L43.4737 30.5466L42.7666 31.2537ZM41.0555 31.2538L41.7626 31.9609L41.7626 31.9609L41.0555 31.2538ZM37.0647 35.2445L36.3576 35.9517L37.0647 36.6588L37.7718 35.9517L37.0647 35.2445ZM33.1505 31.3303L32.4434 32.0374L33.1505 31.3303ZM31.4393 31.3304L30.7322 30.6233L31.4393 31.3304ZM31.4392 33.0416L30.7321 33.7487H30.7321L31.4392 33.0416ZM35.3534 36.9558L36.0606 37.6629L36.7677 36.9558L36.0606 36.2487L35.3534 36.9558ZM31.3623 40.947L30.6552 40.2399L30.6552 40.2399L31.3623 40.947ZM32.3662 41.9509C32.284 42.033 32.1511 42.0329 32.0692 41.951L30.655 43.3653C31.5181 44.2284 32.9174 44.2281 33.7804 43.3651L32.3662 41.9509ZM36.3573 37.9597L32.3662 41.9509L33.7804 43.3651L37.7716 39.3739L36.3573 37.9597ZM41.6864 41.8746L37.7716 37.9597L36.3573 39.3739L40.2722 43.2888L41.6864 41.8746ZM41.9834 41.8745C41.9012 41.9566 41.7683 41.9565 41.6864 41.8746L40.2722 43.2888C41.1353 44.1519 42.5346 44.1517 43.3976 43.2887L41.9834 41.8745ZM41.9835 41.5775C42.0654 41.6594 42.0655 41.7923 41.9834 41.8745L43.3976 43.2887C44.2606 42.4257 44.2608 41.0264 43.3977 40.1633L41.9835 41.5775ZM38.0686 37.6627L41.9835 41.5775L43.3977 40.1633L39.4828 36.2484L38.0686 37.6627ZM42.0594 32.2577L38.0686 36.2484L39.4828 37.6627L43.4736 33.6719L42.0594 32.2577ZM42.0595 31.9608C42.1413 32.0426 42.1415 32.1756 42.0594 32.2577L43.4736 33.6719C44.3365 32.8089 44.3368 31.4097 43.4737 30.5466L42.0595 31.9608ZM41.7626 31.9609C41.8447 31.8788 41.9777 31.8789 42.0595 31.9608L43.4737 30.5466C42.6106 29.6835 41.2113 29.6837 40.3484 30.5467L41.7626 31.9609ZM37.7718 35.9517L41.7626 31.9609L40.3484 30.5467L36.3576 34.5374L37.7718 35.9517ZM32.4434 32.0374L36.3576 35.9517L37.7718 34.5374L33.8576 30.6232L32.4434 32.0374ZM32.1464 32.0375C32.2286 31.9554 32.3615 31.9555 32.4434 32.0374L33.8576 30.6232C32.9945 29.7601 31.5952 29.7603 30.7322 30.6233L32.1464 32.0375ZM32.1463 32.3345C32.0644 32.2526 32.0643 32.1197 32.1464 32.0375L30.7322 30.6233C29.8692 31.4863 29.869 32.8856 30.7321 33.7487L32.1463 32.3345ZM36.0606 36.2487L32.1463 32.3345L30.7321 33.7487L34.6463 37.6629L36.0606 36.2487ZM32.0694 41.6541L36.0606 37.6629L34.6463 36.2487L30.6552 40.2399L32.0694 41.6541ZM32.0692 41.951C31.9874 41.8692 31.9872 41.7363 32.0694 41.6541L30.6552 40.2399C29.7922 41.1029 29.7919 42.5021 30.655 43.3653L32.0692 41.951Z" fill="white" fill-opacity="0.4" mask="url(#path-3-outside-1_88_311)"/>
<defs>
<filter id="filter0_dd_88_311" x="0" y="0" width="73.98" height="73.9798" filterUnits="userSpaceOnUse" color-interpolation-filters="sRGB">
<feFlood flood-opacity="0" result="BackgroundImageFix"/>
<feColorMatrix in="SourceAlpha" type="matrix" values="0 0 0 0 0 0 0 0 0 0 0 0 0 0 0 0 0 0 127 0" result="hardAlpha"/>
<feOffset dx="5" dy="5"/>
<feGaussianBlur stdDeviation="3.5"/>
<feColorMatrix type="matrix" values="0 0 0 0 0.682353 0 0 0 0 0.682353 0 0 0 0 0.752941 0 0 0 0.5 0"/>
<feBlend mode="normal" in2="BackgroundImageFix" result="effect1_dropShadow_88_311"/>
<feColorMatrix in="SourceAlpha" type="matrix" values="0 0 0 0 0 0 0 0 0 0 0 0 0 0 0 0 0 0 127 0" result="hardAlpha"/>
<feOffset dx="-5" dy="-5"/>
<feGaussianBlur stdDeviation="4"/>
<feColorMatrix type="matrix" values="0 0 0 0 0.950608 0 0 0 0 0.95735 0 0 0 0 0.970833 0 0 0 1 0"/>
<feBlend mode="normal" in2="effect1_dropShadow_88_311" result="effect2_dropShadow_88_311"/>
<feBlend mode="normal" in="SourceGraphic" in2="effect2_dropShadow_88_311" result="shape"/>
</filter>
<filter id="filter1_ii_88_311" x="29.0078" y="28.8994" width="16.1133" height="16.1131" filterUnits="userSpaceOnUse" color-interpolation-filters="sRGB">
<feFlood flood-opacity="0" result="BackgroundImageFix"/>
<feBlend mode="normal" in="SourceGraphic" in2="BackgroundImageFix" result="shape"/>
<feColorMatrix in="SourceAlpha" type="matrix" values="0 0 0 0 0 0 0 0 0 0 0 0 0 0 0 0 0 0 127 0" result="hardAlpha"/>
<feOffset dx="1" dy="1"/>
<feGaussianBlur stdDeviation="1"/>
<feComposite in2="hardAlpha" operator="arithmetic" k2="-1" k3="1"/>
<feColorMatrix type="matrix" values="0 0 0 0 0.65098 0 0 0 0 0.670588 0 0 0 0 0.741176 0 0 0 1 0"/>
<feBlend mode="normal" in2="shape" result="effect1_innerShadow_88_311"/>
<feColorMatrix in="SourceAlpha" type="matrix" values="0 0 0 0 0 0 0 0 0 0 0 0 0 0 0 0 0 0 127 0" result="hardAlpha"/>
<feOffset dx="-1" dy="-1"/>
<feGaussianBlur stdDeviation="1"/>
<feComposite in2="hardAlpha" operator="arithmetic" k2="-1" k3="1"/>
<feColorMatrix type="matrix" values="0 0 0 0 0.980392 0 0 0 0 0.984314 0 0 0 0 1 0 0 0 1 0"/>
<feBlend mode="normal" in2="effect1_innerShadow_88_311" result="effect2_innerShadow_88_311"/>
</filter>
<linearGradient id="paint0_linear_88_311" x1="19.4352" y1="16.5" x2="55.9352" y2="57.5" gradientUnits="userSpaceOnUse">
<stop/>
<stop offset="1" stop-color="white"/>
</linearGradient>
<linearGradient id="paint1_linear_88_311" x1="49.7771" y1="36.9559" x2="37.664" y2="23.6435" gradientUnits="userSpaceOnUse">
<stop/>
<stop offset="1" stop-color="white"/>
</linearGradient>
</defs>
</svg>
