<svg width="180" height="181" viewBox="0 0 180 181" fill="none" xmlns="http://www.w3.org/2000/svg">
<g filter="url(#filter0_d_69_1254)">
<path d="M101.679 109.43C101.83 108.512 101.937 106.906 101.138 105.405C98.8027 106.319 97.7518 108.589 95.3457 109.216C94.1972 109.686 92.9964 110.082 91.6965 110.353C89.7475 110.761 87.4913 110.914 85.2133 110.841C83.7883 110.923 82.3604 110.936 80.9324 110.857C79.7316 110.791 78.5394 110.597 77.3386 110.549C76.6894 110.523 76.0315 110.514 75.3808 110.445C75.3692 110.466 75.359 110.486 75.3459 110.504C75.324 110.533 75.3037 110.562 75.2833 110.593C74.2571 112.154 75.4361 114.424 75.768 116.325C76.1086 118.281 75.5438 118.687 74.7287 119.157C74.4958 119.293 74.2411 119.432 73.982 119.616C73.9733 119.622 73.9645 119.628 73.9558 119.635C73.9412 119.645 73.9267 119.655 73.9121 119.667C73.8874 119.685 73.8626 119.704 73.8364 119.724C74.0402 119.947 74.26 120.164 74.4987 120.37C76.8946 122.446 79.5089 124.328 82.0023 126.228C85.0081 128.518 88.142 130.263 91.0255 132.822C91.6339 133.361 92.2118 133.958 92.7737 134.57C94.8654 133.719 94.7766 124.326 96.9163 123.28C99.3006 122.115 102.608 121.523 105.027 120.624C105.049 120.126 101.021 120.755 100.998 120.235C100.953 119.23 103.867 120.112 104.03 119.321C104.306 117.976 102.552 114.792 102.493 113.32C102.432 111.808 101.394 111.158 101.679 109.43Z" fill="#5F8E49"/>
<path d="M92.1492 120.072C92.5932 119.755 97.7707 117.828 98.3282 117.78C95.9541 116.055 88.0328 118.388 85.5467 116.964C89.877 118.382 96.861 115.08 99.0808 110.47C97.8275 113.071 89.6703 115.322 79.0955 112.532C77.9164 112.221 76.9485 111.525 76.605 110.523C76.1959 110.508 75.7869 110.488 75.3808 110.445C75.3692 110.466 75.359 110.486 75.3459 110.504C75.324 110.533 75.3037 110.562 75.2833 110.593C74.2047 112.195 74.0271 115.556 74.359 117.457C74.5569 118.589 74.7127 118.991 74.7287 119.157C74.7491 119.36 74.5613 119.214 73.982 119.616C73.9733 119.622 73.9645 119.628 73.9558 119.635C73.9412 119.645 73.9267 119.655 73.9121 119.667C73.8874 119.685 73.8626 119.704 73.8364 119.724C74.0402 119.947 74.26 120.164 74.4987 120.37C76.8946 122.446 79.5089 124.328 82.0023 126.228C85.0081 128.518 80.2148 131.718 83.0998 134.277C83.7068 134.816 92.2118 133.958 92.7751 134.569C94.8668 133.717 94.778 124.325 96.9177 123.279C99.302 122.113 98.6004 122.676 101.02 121.775C101.041 121.275 92.337 121.471 92.1492 120.072Z" fill="#415E34"/>
<path d="M65.7273 126.346C66.1669 123.605 69.7389 126.47 71.244 126.813C73.4449 127.316 75.5511 126.517 77.9455 127.31C80.5612 128.176 80.9382 129.195 83.733 128.515C85.4782 128.09 88.5292 126.041 90.0764 127.777C91.1303 128.959 91.647 129.609 93.9731 129.797C95.3078 129.905 96.7212 129.428 98.0036 129.124C100.836 128.454 101.688 127.088 103.458 124.796C104.923 122.899 107.594 121.182 109.835 120.4C111.293 119.892 112.789 119.633 114.33 119.578C115.513 119.536 118.172 119.874 118.747 119.544L127.306 119.146C128.733 119.557 130.737 119.655 131.773 120.805C130.695 122.533 130.65 124.627 128.906 125.776C127.043 127.005 124.584 126.739 122.503 127.482C120.182 128.312 118.268 129.749 115.705 130.522C113.117 131.302 110.734 131.716 108.155 131.979C102.838 132.52 97.4316 134.021 92.0997 134.763C87.2075 135.444 81.8727 135.633 76.9499 134.329C75.0635 133.83 72.2498 134.106 70.5963 133.114C69.7811 132.625 69.3998 132.176 68.6749 131.515C67.9413 130.843 66.3008 129.155 68.1523 128.665C67.3125 127.685 65.3503 128.692 65.7273 126.346Z" fill="#662828"/>
<path d="M94.1856 128.093C94.7096 130.07 97.3209 133.254 94.19 134.481C98.6863 134.766 103.311 135.236 107.635 135.321C111.961 135.406 114.351 135.498 119.67 134.614C126.628 133.459 135.277 132.552 140.885 128.402C144.47 125.75 146.213 121.972 145.85 118.018C145.475 113.921 141.804 112.147 137.211 111.145C132.439 110.104 126.578 109.516 122.021 110.879C107.565 115.204 103.135 116.818 94.9614 124.117C94.4025 124.617 94.3501 125.36 94.2191 125.889C93.9687 126.883 94.0677 127.646 94.1856 128.093Z" fill="#5F8E49"/>
<path d="M94.2176 125.889C96.7343 126.216 100.154 126.583 101.19 126.549C104.56 126.439 108.11 125.195 111.378 124.265C116.07 122.93 120.504 120.764 125.113 119.046C128.647 117.729 137.898 114.354 139.77 119.62C137.526 111.07 122.466 117.78 116.797 119.62C112.481 121.022 107.868 122.8 103.482 123.974C100.974 124.646 97.2307 124.415 94.9585 124.117C94.5815 124.766 94.3501 125.36 94.2176 125.889Z" fill="#415E34"/>
<path d="M112.025 129.141C111.756 126.378 108.014 129.016 106.49 129.266C104.261 129.629 102.209 128.7 99.7707 129.344C97.107 130.047 96.6674 131.039 93.9207 130.187C92.2045 129.656 89.2875 127.42 87.6354 129.055C86.5103 130.17 85.9557 130.786 83.6224 130.828C82.2832 130.853 80.9019 130.288 79.6413 129.905C76.8553 129.06 76.0897 127.643 74.4652 125.246C73.1203 123.261 70.5599 121.38 68.3721 120.462C66.9486 119.864 65.4711 119.512 63.9369 119.362C62.7579 119.245 60.0825 119.419 59.5294 119.052L51.0128 118.12C49.563 118.442 47.5572 118.415 46.4509 119.499C47.4204 121.291 47.3359 123.383 49.0055 124.64C50.7886 125.982 53.2587 125.87 55.2907 126.742C57.5556 127.713 59.3766 129.269 61.886 130.199C64.4202 131.139 66.7739 131.702 69.3314 132.124C74.605 132.994 79.9077 134.829 85.1828 135.902C90.0226 136.887 95.3355 137.408 100.33 136.413C102.244 136.032 105.034 136.484 106.746 135.596C107.59 135.157 107.999 134.735 108.762 134.119C109.536 133.494 111.277 131.912 109.459 131.307C110.36 130.379 112.257 131.506 112.025 129.141Z" fill="#9B4342"/>
<path d="M83.5132 129.111C82.8684 131.052 80.0649 134.066 83.1144 135.486C78.6093 135.49 73.9645 135.671 69.6429 135.487C65.3198 135.303 62.9297 135.245 57.675 134.031C50.8017 132.445 42.2268 131.002 36.8848 126.511C33.4714 123.641 31.9649 119.761 32.5718 115.838C33.2007 111.771 36.9736 110.231 41.6198 109.515C46.448 108.773 52.333 108.552 56.7973 110.197C70.9573 115.413 78.0897 113.473 82.9848 125.094C83.2759 125.787 83.5176 126.372 83.6165 126.908C83.8058 127.918 83.6588 128.673 83.5132 129.111Z" fill="#5F8E49"/>
<path d="M83.618 126.91C81.0867 127.079 77.6501 127.233 76.618 127.135C73.2615 126.816 69.7957 125.351 66.5905 124.219C61.9893 122.594 57.6983 120.158 53.2049 118.155C49.7595 116.62 40.7333 112.676 38.5398 117.815C41.3083 109.421 55.9239 117.056 61.4682 119.246C65.6895 120.914 70.1829 122.975 74.4871 124.421C76.9485 125.248 80.6995 125.251 82.9848 125.094C83.3254 125.766 83.519 126.374 83.618 126.91Z" fill="#415E34"/>
<path d="M109.989 74.4595C109.859 74.8772 109.724 75.3007 109.583 75.7287C109.258 76.716 109.052 77.8172 108.884 78.9535C108.797 79.5421 108.72 80.1409 108.643 80.7368C107.414 84.5853 105.858 89.5584 104.373 94.5884C104.311 94.7009 104.251 94.8133 104.193 94.9273C104.159 94.9901 104.127 95.0543 104.097 95.1186C102.458 98.4194 101.466 103.341 100.8 107.638C100.107 112.097 99.7634 115.883 99.4068 116.487C96.3224 116.473 92.3865 116.477 88.4753 116.46C87.0969 116.466 85.7141 116.47 84.3676 116.471H84.356C80.7592 116.438 77.7942 116.368 77.359 116.371C76.3386 108.266 76.5613 101.719 72.6137 94.6512C72.5788 94.5869 72.5424 94.5227 72.506 94.4584C72.4274 94.3197 72.3459 94.1824 72.26 94.0436C72.1698 93.8976 72.0781 93.7472 71.9878 93.5938C70.5774 88.5769 70.7055 79.3625 70.1116 77.7749C68.2892 72.9084 64.0883 73.4298 63.0505 69.0658C63.0345 68.9971 63.0185 68.927 63.0025 68.8584C61.9937 64.3819 66.4901 62.0363 67.2033 61.1702C72.8903 54.2634 92.0794 52.3545 108.241 62.416C109.648 63.2953 112.302 66.9918 109.989 74.4595Z" fill="#9B4342"/>
<path d="M106.676 108.799C106.909 110.333 110.183 114.818 110.183 114.818C110.183 114.818 101.397 119.188 99.5087 120.513C96.647 122.519 94.909 126.025 91.1289 125.384C88.043 124.862 83.9848 122.874 81.1537 121.726C78.4026 120.612 73.8204 114.82 70.6778 114.368C75.0664 106.042 69.8743 106.293 70.5104 97.7972C70.966 91.698 70.1698 84.5283 68.9544 79.5304C68.5745 77.9647 68.1538 76.6123 67.7157 75.5739C66.2193 72.0131 60.9311 70.6373 62.0913 66.7508C64.1859 59.7389 72.6952 57.3275 78.554 55.3383L79.7519 56.2395C79.3458 60.0748 80.6893 66.9977 83.7184 69.9801C86.8654 73.0778 92.2511 72.2629 94.353 68.4859C95.9905 65.543 94.7256 56.9171 98.0109 56.0072C100.581 55.296 109.054 59.825 111.081 61.5149C116.07 65.6759 111.111 76.2968 108.816 83.5016C108.379 84.8715 108.038 86.1188 107.881 87.1748C107.162 92.0237 106.392 96.4783 106.392 101.592C106.392 104.035 106.328 106.508 106.676 108.799Z" fill="#511849"/>
<path d="M110.183 114.82C110.183 114.82 101.397 119.189 99.5087 120.514C96.647 122.521 94.909 126.026 91.1289 125.385C88.043 124.864 83.9848 122.876 81.1537 121.728C78.4026 120.613 73.8204 114.821 70.6778 114.37C75.0664 106.043 69.8743 106.295 70.5104 97.7987C70.966 91.6995 70.1698 84.5298 68.9544 79.5319C69.7389 76.2092 68.4726 71.7488 68.5832 69.0249C69.9005 71.4654 69.5628 76.237 70.3794 79.085C71.1989 81.9447 72.6006 86.9046 74.1203 89.5964C77.4114 95.4282 86.1857 92.9074 92.2599 92.6036C96.8319 92.3757 101.363 91.8485 104.781 88.3389C106.175 86.9075 105.695 76.2326 109.287 73.6796C108.851 75.0496 108.041 86.1218 107.884 87.1763C107.165 92.0252 106.395 96.4798 106.395 101.593C106.395 104.038 106.331 106.509 106.679 108.802C106.909 110.333 110.183 114.82 110.183 114.82Z" fill="#3A2034"/>
<path d="M98.3952 58.6829L107.938 71.7268C109.271 79.5114 105.803 83.2474 107.942 87.5837C108.241 88.1884 108.545 88.7916 108.855 89.405C109.066 89.8227 109.28 90.2463 109.497 90.6757C112.021 90.5077 114.849 91.6893 117.469 91.847C120.277 92.0135 118.174 95.5947 121.019 96.6974C126.207 95.2953 127.67 93.3864 128.003 92.4925C128.092 92.2559 128.162 92.0237 128.214 91.7915C128.294 91.4424 128.337 91.0992 128.345 90.7618C128.347 90.6815 128.348 90.6012 128.347 90.5223C128.341 90.1338 128.292 89.7511 128.21 89.3758C128.168 89.183 128.117 88.9917 128.059 88.8033C127.947 88.4425 127.808 88.0862 127.648 87.7342C127.597 87.6217 127.545 87.5107 127.49 87.3982C127.424 87.2624 127.354 87.1266 127.281 86.9922C126.715 85.926 126.015 84.8978 125.408 83.8828C123.379 80.49 121.201 76.2282 118.823 73.072C116.229 69.6295 114.445 64.2373 111.241 61.6595C108.906 59.7798 101.165 56.3315 98.3952 58.6829Z" fill="#511849"/>
<path d="M127.281 87.0171C127.274 87.1748 127.337 87.3165 127.491 87.3968C127.425 87.261 127.356 87.1251 127.283 86.9908C127.281 87.001 127.281 87.0083 127.281 87.0171ZM108.19 86.1188C108.286 86.0239 108.509 85.9932 108.712 86.1919C108.862 86.3394 108.862 86.5643 108.709 86.7878C108.641 86.89 108.471 87.0317 108.289 87.1923C108.165 87.3165 108.031 87.4464 107.941 87.5823C108.239 88.1869 108.544 88.7901 108.854 89.4035C109.132 89.1114 109.427 88.8325 109.737 88.5681C110.637 87.8057 111.664 87.1748 112.774 86.7381L112.787 86.7585C113.469 86.5614 114.168 86.3978 114.877 86.2795C115.715 86.1466 116.565 86.075 117.412 86.0706C118.724 86.0677 120.028 86.2357 121.232 86.5906C121.856 86.814 122.468 87.0653 123.056 87.3501C123.816 87.7239 124.538 88.149 125.203 88.6207C126.469 89.5218 127.526 90.6012 128.214 91.7886C128.294 91.4395 128.337 91.0963 128.345 90.7589C128.326 90.6581 128.324 90.5778 128.347 90.5194C128.341 90.1309 128.292 89.7482 128.21 89.3729C128.069 89.405 127.923 89.4225 127.769 89.4123C127.587 89.3977 127.359 89.3291 127.396 89.1713C127.43 89.0326 127.658 88.9274 127.92 88.8427C127.966 88.8281 128.011 88.8135 128.059 88.8004C127.947 88.4396 127.808 88.0832 127.648 87.7312C127.506 87.7634 127.329 87.74 127.145 87.6626C127.016 87.61 126.824 87.4713 126.612 87.3267C126.389 87.1909 126.15 87.0419 125.919 86.9893C125.734 86.944 125.538 86.909 125.375 86.9177C125.212 86.928 125.085 86.9762 125.043 87.0915C125.016 87.1646 125.06 87.239 125.089 87.3062C125.115 87.3749 125.126 87.4348 125.04 87.4727C125.035 87.3603 125.016 87.258 124.931 87.1982C124.711 87.1689 124.423 87.2128 124.198 87.2084C123.976 87.2011 123.826 87.1339 123.858 86.871C123.878 86.7089 124.147 86.5117 124.182 86.335C124.244 86.0487 124.057 85.6705 123.839 85.5054C123.599 85.3097 123.251 85.2936 123.008 85.3827C123.057 85.2396 123.078 85.076 123.063 84.9081C123.04 84.559 122.861 84.2128 122.602 84.0128C122.334 83.82 121.97 83.7367 121.626 83.7659C121.283 83.7849 120.966 83.9105 120.768 84.077C120.567 84.245 120.463 84.4641 120.347 84.6817C120.232 84.8964 120.104 85.1067 119.88 85.2542C119.737 85.3448 119.519 85.4207 119.424 85.2746C119.34 85.1476 119.424 84.9358 119.548 84.7226C119.67 84.5079 119.835 84.2917 119.88 84.1471C119.974 83.8463 119.897 83.5118 119.702 83.2285C119.606 83.0882 119.479 82.9568 119.338 82.8575C119.197 82.7582 119.038 82.6837 118.877 82.6457C118.731 82.6092 118.571 82.599 118.412 82.6063C118.255 82.6136 118.1 82.634 117.963 82.6822C117.688 82.7757 117.488 82.9393 117.475 83.1657C117.463 83.3263 117.543 83.5147 117.669 83.6505C117.795 83.7893 117.966 83.8652 118.156 83.8243C117.973 83.6053 118.069 83.4753 118.219 83.4665C118.369 83.4563 118.562 83.5658 118.557 83.8243C118.552 84.0142 118.369 84.1705 118.073 84.2362C117.939 84.2669 117.693 84.2654 117.427 84.2713C117.161 84.2888 116.874 84.3063 116.664 84.3954C116.497 84.4641 116.327 84.5458 116.216 84.6437C116.105 84.7445 116.053 84.8526 116.111 84.965C116.148 85.0366 116.238 85.0716 116.309 85.1081C116.382 85.1476 116.436 85.1885 116.402 85.2659C116.312 85.1812 116.22 85.1111 116.111 85.1111C115.931 85.2118 115.756 85.4076 115.59 85.5288C115.424 85.6485 115.263 85.6807 115.084 85.4558C114.971 85.317 115.014 85.0118 114.904 84.8526C114.727 84.594 114.3 84.4027 114.014 84.3954C113.67 84.3764 113.391 84.5809 113.298 84.8029C113.204 85.0278 113.296 85.2776 113.648 85.39C113.707 85.3477 113.469 85.2338 113.622 85.2162C114.025 85.2557 114.143 85.7333 113.966 85.8881C113.862 85.9786 113.731 85.9655 113.59 85.9479C113.449 85.9319 113.296 85.9071 113.155 85.9626C113.134 85.9699 113.073 86.0356 113.001 86.1291C112.788 86.1641 112.603 86.1948 112.449 86.2035C112.273 86.2094 112.142 86.1977 112.066 86.1466C111.832 85.9859 111.554 85.6544 111.699 85.4163C111.897 85.1096 112.223 85.1768 112.376 85.3345C112.53 85.4952 112.539 85.7376 112.161 85.7829C112.395 85.9231 112.624 85.8574 112.816 85.7289C112.909 85.6617 112.992 85.5726 113.056 85.4791C113.12 85.3886 113.164 85.2893 113.175 85.1972C113.209 84.9343 113.021 84.6218 112.723 84.3779C112.423 84.1281 112.02 83.9689 111.677 83.9689C111.337 83.9806 111.015 84.1296 110.8 84.3531C110.577 84.5678 110.458 84.8496 110.455 85.0921C110.452 85.336 110.558 85.5638 110.651 85.7975C110.746 86.0283 110.826 86.262 110.79 86.5059C110.763 86.6592 110.673 86.8447 110.49 86.7892C110.33 86.741 110.216 86.5336 110.13 86.2985C110.043 86.0648 109.98 85.8034 109.896 85.6675C109.717 85.3842 109.394 85.1753 109.031 85.076C108.851 85.0264 108.657 85.0001 108.478 85.0074C108.299 85.0147 108.129 85.0512 107.986 85.1169C107.855 85.1739 107.737 85.2615 107.632 85.3579C107.529 85.4558 107.437 85.5638 107.381 85.6807C107.266 85.9129 107.26 86.1524 107.433 86.3335C107.555 86.4621 107.762 86.5584 107.96 86.5862C108.158 86.6169 108.34 86.5745 108.437 86.4314C108.132 86.3686 108.094 86.2138 108.19 86.1188ZM121.45 85.0307C121.851 84.9343 122.041 85.171 122.03 85.3696C122.018 85.5711 121.829 85.7449 121.504 85.5551C121.57 85.7888 121.797 85.8778 122.044 85.8997C122.169 85.9085 122.303 85.8954 122.427 85.8662C122.527 85.8457 122.619 85.8136 122.696 85.7698C122.699 85.8457 122.725 85.929 122.785 86.0166C122.862 86.0181 122.765 85.8019 122.897 85.8764C123.184 86.1305 122.906 86.5424 122.648 86.5555C122.497 86.5628 122.404 86.4796 122.308 86.3876C122.21 86.297 122.11 86.1933 121.955 86.1539C121.932 86.1466 121.824 86.1626 121.682 86.1919C121.567 86.1291 121.465 86.0706 121.382 86.0151C121.242 85.9158 121.153 85.8311 121.137 85.7508C121.091 85.504 121.148 85.1096 121.45 85.0307Z" fill="#E0943B"/>
<path d="M108.302 88.8485C109.999 85.9523 116.022 85.7829 119.024 86.0852C122.674 86.4518 129.533 89.4868 127.804 93.493C125.99 97.6964 117.191 104.069 112.81 102.802C109.184 101.754 105.843 93.0461 108.302 88.8485Z" fill="#3A2034"/>
<path d="M75.375 58.382L71.1261 70.8242C69.7928 78.6088 67.9675 82.9466 65.8278 87.2814C65.5294 87.8861 65.2251 88.4892 64.9151 89.1027C64.704 89.5204 64.4901 89.9439 64.2732 90.3733C61.7492 90.2054 58.921 91.3869 56.3009 91.5447C53.4931 91.7112 55.5964 95.2924 52.7507 96.3951C47.563 94.993 46.1001 93.084 45.7668 92.1902C45.678 91.9536 45.6081 91.7214 45.5557 91.4892C45.4757 91.1401 45.4335 90.7969 45.4247 90.4595C45.4233 90.3792 45.4218 90.2988 45.4233 90.22C45.4291 89.8315 45.4786 89.4488 45.5601 89.0735C45.6023 88.8807 45.6533 88.6893 45.7115 88.5009C45.8236 88.1402 45.9618 87.7838 46.122 87.4318C46.1729 87.3194 46.2253 87.2084 46.2806 87.0959C46.3461 86.9601 46.416 86.8242 46.4888 86.6899C47.055 85.6237 47.7551 84.5955 48.3621 83.5804C50.3912 80.1876 52.5688 75.9258 54.9472 72.7696C57.5411 69.3272 59.3256 63.9349 62.5294 61.3571C64.8627 59.4789 72.605 56.0321 75.375 58.382Z" fill="#511849"/>
<path d="M46.4859 86.6914C46.4145 86.8272 46.3447 86.9616 46.2777 87.0974C46.432 87.0156 46.4946 86.8739 46.4873 86.7177C46.4888 86.7089 46.4873 86.7001 46.4859 86.6914ZM65.3329 86.1261C65.4319 86.2693 65.6123 86.3102 65.8103 86.281C66.0083 86.2518 66.215 86.1554 66.3372 86.0283C66.5104 85.8486 66.5046 85.6077 66.3896 85.3754C66.3343 85.2586 66.2426 85.1505 66.1378 85.0527C66.033 84.9563 65.9137 84.8701 65.7841 84.8117C65.6415 84.746 65.4712 84.7109 65.2921 84.7021C65.1131 84.6948 64.9195 84.7197 64.739 84.7708C64.3765 84.8716 64.052 85.0789 63.8744 85.3623C63.7899 85.4996 63.7274 85.7596 63.64 85.9932C63.5527 86.2269 63.4406 86.4358 63.2805 86.484C63.0985 86.5395 63.0068 86.354 62.9806 86.2006C62.9442 85.9567 63.0243 85.7245 63.1189 85.4923C63.2121 85.2586 63.3183 85.0322 63.3154 84.7868C63.3125 84.5444 63.1932 84.264 62.9704 84.0478C62.755 83.8244 62.4333 83.6739 62.0927 83.6637C61.7507 83.6637 61.346 83.8214 61.0476 84.0727C60.7478 84.3166 60.5614 84.6291 60.5949 84.892C60.6066 84.984 60.6502 85.0833 60.7143 85.1739C60.7783 85.2674 60.8598 85.3565 60.9545 85.4236C61.1466 85.5522 61.3751 85.6179 61.6095 85.4777C61.231 85.4309 61.2397 85.1899 61.394 85.0293C61.5483 84.8716 61.8729 84.8044 62.0709 85.1111C62.2165 85.3491 61.9384 85.6807 61.7041 85.8413C61.6298 85.8925 61.4988 85.9041 61.3213 85.8983C61.167 85.8895 60.9821 85.8589 60.7696 85.8238C60.6968 85.7303 60.6357 85.6661 60.6153 85.6573C60.4741 85.6018 60.3213 85.6266 60.1801 85.6427C60.0389 85.6602 59.9079 85.6734 59.8045 85.5828C59.627 85.428 59.7463 84.9504 60.1481 84.911C60.3023 84.9285 60.0636 85.0424 60.1219 85.0848C60.4741 84.9723 60.5658 84.724 60.4727 84.4977C60.3795 84.2771 60.1 84.0712 59.7565 84.0902C59.4697 84.0975 59.0433 84.2888 58.8657 84.5473C58.7565 84.7051 58.7973 85.0103 58.6866 85.1505C58.5076 85.3754 58.346 85.3433 58.1801 85.2235C58.0142 85.1009 57.8395 84.9051 57.659 84.8058C57.5498 84.8044 57.4581 84.8745 57.3679 84.9606C57.3344 84.8832 57.3883 84.8409 57.461 84.8029C57.5324 84.7664 57.6226 84.7313 57.659 84.6598C57.7172 84.5473 57.6648 84.4392 57.5542 84.3385C57.4421 84.2406 57.2733 84.1588 57.1059 84.0902C56.8977 84.0011 56.6095 83.9836 56.3431 83.966C56.0768 83.9602 55.8308 83.9617 55.6983 83.931C55.4014 83.8653 55.2194 83.7104 55.2151 83.5191C55.2092 83.2606 55.4028 83.1511 55.5528 83.1613C55.7027 83.1715 55.7987 83.3 55.6153 83.5191C55.806 83.5615 55.9763 83.4841 56.103 83.3453C56.2281 83.2095 56.3067 83.0225 56.2966 82.8604C56.282 82.634 56.084 82.4705 55.8089 82.377C55.6721 82.3288 55.5164 82.3083 55.3592 82.301C55.2005 82.2952 55.0404 82.304 54.8948 82.3405C54.7347 82.3799 54.5761 82.4529 54.4334 82.5522C54.2922 82.6516 54.1656 82.783 54.0695 82.9232C53.8745 83.2051 53.7973 83.5396 53.8919 83.8419C53.9385 83.9865 54.103 84.2026 54.2238 84.4173C54.3475 84.6306 54.4319 84.8423 54.3475 84.9694C54.2544 85.114 54.0346 85.0395 53.8919 84.949C53.6663 84.8015 53.5397 84.5911 53.4247 84.3764C53.3082 84.1588 53.2049 83.9397 53.004 83.7718C52.8061 83.6053 52.4887 83.4797 52.1452 83.4607C51.8017 83.4315 51.4363 83.5162 51.17 83.7075C50.9109 83.9091 50.7318 84.2552 50.7085 84.6028C50.694 84.7708 50.7129 84.9344 50.7639 85.0775C50.5208 84.9884 50.1729 85.0059 49.9327 85.2002C49.7144 85.3652 49.5281 85.7435 49.5892 86.0298C49.6256 86.2065 49.8949 86.4036 49.9138 86.5658C49.9473 86.8287 49.7959 86.8958 49.5732 86.9031C49.349 86.9075 49.0608 86.8637 48.841 86.8929C48.7551 86.9543 48.7377 87.0565 48.7318 87.1675C48.6445 87.1295 48.6562 87.0696 48.6824 87.001C48.71 86.9338 48.7537 86.8593 48.7289 86.7863C48.6882 86.6724 48.5615 86.6227 48.3971 86.6125C48.234 86.6037 48.0375 86.6388 47.8527 86.6841C47.6212 86.7366 47.3825 86.8856 47.1598 87.0214C46.9473 87.166 46.7552 87.3062 46.6271 87.3574C46.4407 87.4348 46.2661 87.4581 46.1234 87.426C45.9633 87.778 45.825 88.1344 45.713 88.4951C45.7595 88.5097 45.8061 88.5229 45.8512 88.5375C46.1132 88.6222 46.3418 88.7273 46.3752 88.8661C46.4145 89.0238 46.186 89.0925 46.0026 89.1071C45.8483 89.1173 45.7028 89.0998 45.5616 89.0676C45.4801 89.443 45.4306 89.8256 45.4247 90.2141C45.448 90.2726 45.4451 90.3529 45.4262 90.4537C45.4364 90.7911 45.4786 91.1343 45.5572 91.4833C46.2472 90.2959 47.3025 89.2166 48.5688 88.3155C49.234 87.8437 49.956 87.4187 50.7158 87.0448C51.3039 86.76 51.9152 86.5088 52.5397 86.2853C53.7435 85.9304 55.0477 85.7625 56.3591 85.7654C57.2063 85.7698 58.0564 85.8413 58.8948 85.9743C59.6037 86.0911 60.3023 86.2561 60.985 86.4533L60.9981 86.4329C62.1073 86.8696 63.1349 87.5005 64.0345 88.2629C64.3445 88.5272 64.6386 88.8047 64.918 89.0983C65.2281 88.4849 65.5323 87.8817 65.8307 87.277C65.7404 87.1412 65.6065 87.0112 65.4828 86.8871C65.3023 86.7264 65.1305 86.5848 65.0621 86.4825C64.9078 86.2591 64.9078 86.0341 65.0592 85.8866C65.263 85.688 65.4857 85.7187 65.5818 85.8136C65.6764 85.9129 65.6385 86.0692 65.3329 86.1261ZM52.6328 85.4514C52.6168 85.5317 52.528 85.6164 52.3883 85.7157C52.3053 85.7712 52.202 85.8311 52.0884 85.8925C51.9473 85.8633 51.8395 85.8472 51.8148 85.8545C51.6605 85.8939 51.5601 85.9962 51.4625 86.0882C51.3665 86.1802 51.2733 86.2634 51.1219 86.2561C50.8628 86.243 50.5863 85.8311 50.873 85.577C51.0055 85.5025 50.908 85.7187 50.9851 85.7172C51.0448 85.6296 51.071 85.5463 51.0739 85.4704C51.151 85.5127 51.2442 85.5463 51.3432 85.5668C51.4669 85.5945 51.6023 85.6091 51.726 85.6004C51.9749 85.5784 52.202 85.4908 52.266 85.2557C51.9414 85.4455 51.7507 85.2717 51.7406 85.0702C51.7289 84.8716 51.9196 84.6335 52.3199 84.7313C52.6226 84.8102 52.6794 85.2031 52.6328 85.4514Z" fill="#E0943B"/>
<path d="M65.4668 88.5477C63.7696 85.6515 57.7463 85.482 54.7449 85.7844C51.0943 86.151 44.2355 89.1859 45.9648 93.1921C47.7784 97.3955 54.9967 99.5074 59.378 98.2412C63.0039 97.194 67.9267 92.7452 65.4668 88.5477Z" fill="#3A2034"/>
<path d="M85.9295 80.3381C85.7723 80.3249 85.5685 80.4476 85.6194 80.5995C85.8218 80.4535 85.8829 80.7529 85.6311 80.7572C85.5394 80.7587 85.4579 80.6886 85.4171 80.5659C85.3822 80.4564 85.4113 80.1614 85.3385 79.9802C85.2803 79.8357 85.19 79.6779 85.078 79.7144C85.0066 79.7378 84.9979 79.8619 84.9237 79.8225C84.9659 79.7875 85.0037 79.7524 85.0081 79.7042C84.9251 79.5333 84.6544 79.3347 84.8931 79.2237C84.9659 79.1901 85.1085 79.2398 85.1915 79.2091C85.3254 79.1594 85.4448 79.0075 85.4739 78.8951C85.5452 78.6249 85.2148 78.3503 85.0416 78.6147C85.0561 78.6453 85.1318 78.5621 85.1245 78.6293C85.0663 78.7914 84.8334 78.7812 84.7781 78.6789C84.7141 78.5606 84.8494 78.454 84.8291 78.3138C84.8276 78.3007 84.7927 78.2481 84.7461 78.1823V78.4336C84.7315 78.324 84.7199 78.1999 84.7097 78.0655C84.7053 77.9983 84.701 77.9282 84.6966 77.8567L84.6951 77.8304V77.8158V77.734C84.6937 77.6259 84.6937 77.5163 84.6922 77.4068C84.6908 77.1877 84.6893 76.9657 84.6879 76.7437C84.6777 74.9911 84.6748 73.1231 84.6733 71.3661H84.404C84.4026 73.1216 84.3997 74.9896 84.3895 76.7437C84.388 76.9672 84.3866 77.1877 84.3851 77.4068C84.3836 77.5163 84.3836 77.6259 84.3822 77.734V77.8158V77.8304L84.3807 77.8567C84.3764 77.9282 84.372 77.9983 84.3676 78.0655C84.3589 78.1999 84.3458 78.324 84.3312 78.4336V78.1823C84.2861 78.2481 84.2512 78.3007 84.2483 78.3138C84.2279 78.454 84.3633 78.5606 84.2992 78.6789C84.2439 78.7797 84.011 78.7914 83.9528 78.6293C83.9455 78.5635 84.0227 78.6453 84.0358 78.6147C83.8625 78.3503 83.5336 78.6263 83.6034 78.8951C83.6326 79.0075 83.7519 79.1609 83.8858 79.2091C83.9688 79.2398 84.11 79.1901 84.1842 79.2237C84.4244 79.3347 84.1537 79.5333 84.0707 79.7042C84.0736 79.7524 84.1129 79.7875 84.1551 79.8225C84.0809 79.8619 84.0721 79.7363 84.0008 79.7144C83.8887 79.6794 83.7985 79.8357 83.7403 79.9802C83.6675 80.1614 83.6981 80.4564 83.6617 80.5659C83.6209 80.6886 83.5409 80.7587 83.4477 80.7572C83.1973 80.7529 83.257 80.452 83.4593 80.5995C83.5117 80.4491 83.3065 80.3249 83.1493 80.3381C82.9295 80.3556 82.8232 80.6419 82.864 80.8551C82.9091 81.0888 83.2308 81.3312 83.5336 81.2933C83.6791 81.2757 83.995 81.0829 84.1071 81.1706C84.1711 81.2202 84.1216 81.3137 84.0649 81.3692C83.8858 81.543 83.6224 81.5109 83.423 81.6336C83.225 81.7548 83.0634 82.0557 83.1653 82.2952C83.2643 82.5303 83.6951 82.7596 83.9266 82.6369C84.0882 82.5508 84.2337 82.2222 84.0358 82.0995C84.1216 82.4325 83.602 82.2966 83.7985 82.0045C83.8727 81.8935 84.0649 81.9154 84.1755 81.9709C84.2468 82.006 84.2963 82.1754 84.3298 82.4208V82.672C84.3851 82.7509 84.4564 82.8487 84.5074 82.9203L84.5015 83.0152C84.5045 83.0094 84.5176 82.9889 84.5365 82.9612C84.5554 82.9889 84.5685 83.0079 84.5714 83.0152L84.5656 82.9203C84.6165 82.8487 84.6879 82.7509 84.7432 82.672V82.4208C84.7767 82.1754 84.8247 82.0075 84.8975 81.9709C85.0096 81.9154 85.2002 81.8935 85.2745 82.0045C85.4695 82.2966 84.9499 82.4325 85.0372 82.0995C84.8392 82.2222 84.9848 82.5522 85.1464 82.6369C85.3778 82.7596 85.8087 82.5303 85.9077 82.2952C86.0095 82.0557 85.848 81.7548 85.65 81.6336C85.4491 81.5109 85.1871 81.543 85.0081 81.3692C84.9513 81.3137 84.9018 81.2217 84.9659 81.1706C85.078 81.0829 85.3938 81.2757 85.5394 81.2933C85.8421 81.3312 86.1638 81.0888 86.209 80.8551C86.257 80.6419 86.1507 80.3556 85.9295 80.3381Z" fill="#E0943B"/>
<path d="M92.5117 80.6682C92.3545 80.655 92.1492 80.7777 92.2016 80.9296C92.404 80.7821 92.4651 81.083 92.2133 81.0873C92.1201 81.0888 92.0401 81.0187 91.9993 80.896C91.9644 80.7865 91.9935 80.4914 91.9207 80.3103C91.8625 80.1657 91.7722 80.0095 91.6601 80.0445C91.5888 80.0664 91.5801 80.192 91.5059 80.1526C91.5481 80.1176 91.5859 80.0825 91.5903 80.0343C91.5073 79.8634 91.2366 79.6648 91.4767 79.5538C91.5495 79.5202 91.6922 79.5699 91.7751 79.5392C91.9091 79.4895 92.0284 79.3376 92.0575 79.2252C92.1289 78.955 91.7984 78.6804 91.6252 78.9447C91.6383 78.9754 91.7155 78.8922 91.7082 78.9594C91.65 79.1215 91.4171 79.1112 91.3618 79.009C91.2977 78.8907 91.4331 78.7841 91.4127 78.6439C91.4112 78.6307 91.3763 78.5782 91.3297 78.5124V78.7636C91.3152 78.6541 91.3035 78.53 91.2933 78.3956C91.289 78.3284 91.2846 78.2583 91.2817 78.1867L91.2802 78.1604V78.1458V78.0655C91.2788 77.9574 91.2788 77.8479 91.2773 77.7384C91.2759 77.5193 91.2744 77.2987 91.273 77.0753C91.2628 75.2891 91.2584 73.3831 91.2584 71.5983C91.2584 71.5209 91.2584 71.445 91.2584 71.369H90.9891C90.9891 71.445 90.9891 71.5224 90.9891 71.5983C90.9877 73.3831 90.9848 75.2891 90.9746 77.0753C90.9731 77.2987 90.9717 77.5193 90.9702 77.7384C90.9687 77.8479 90.9687 77.9574 90.9673 78.0655V78.1458V78.1604L90.9658 78.1867C90.9615 78.2583 90.9571 78.3284 90.9527 78.3956C90.944 78.53 90.9309 78.6541 90.9163 78.7636V78.5124C90.8712 78.5782 90.8363 78.6307 90.8334 78.6439C90.813 78.7841 90.9484 78.8907 90.8843 79.009C90.829 79.1098 90.5961 79.1215 90.5379 78.9594C90.5306 78.8936 90.6078 78.9754 90.6209 78.9447C90.4476 78.6804 90.1187 78.9564 90.1885 79.2252C90.2177 79.3376 90.337 79.491 90.4709 79.5392C90.5539 79.5699 90.6951 79.5202 90.7693 79.5538C91.0095 79.6648 90.7388 79.8634 90.6543 80.0343C90.6572 80.0825 90.6965 80.1176 90.7388 80.1526C90.6645 80.192 90.6558 80.0664 90.5845 80.0445C90.4724 80.008 90.3821 80.1657 90.3239 80.3103C90.2511 80.4914 90.2817 80.7865 90.2453 80.896C90.2046 81.0187 90.1245 81.0888 90.0313 81.0873C89.781 81.083 89.8407 80.7821 90.043 80.9296C90.0954 80.7777 89.8901 80.655 89.7329 80.6682C89.5131 80.6857 89.4069 80.972 89.4477 81.1852C89.4928 81.4189 89.8145 81.6613 90.1172 81.6233C90.2628 81.6058 90.5786 81.413 90.6907 81.5007C90.7548 81.5503 90.7053 81.6438 90.6485 81.6993C90.4695 81.8731 90.206 81.841 90.0066 81.9637C89.8086 82.0849 89.6471 82.3857 89.749 82.6253C89.8479 82.8604 90.2788 83.0897 90.5102 82.967C90.6718 82.8823 90.8174 82.5522 90.6194 82.4296C90.7053 82.7626 90.1856 82.6267 90.3821 82.3346C90.4564 82.2236 90.6471 82.2455 90.7591 82.301C90.8305 82.3361 90.8799 82.5055 90.9134 82.7509V83.0021C90.9687 83.0809 91.0401 83.1788 91.091 83.2504L91.0852 83.3453C91.0881 83.3395 91.1012 83.319 91.1201 83.2927C91.139 83.319 91.1521 83.3395 91.1551 83.3453L91.1492 83.2504C91.2002 83.1788 91.2715 83.0809 91.3268 83.0021V82.7509C91.3603 82.5055 91.4083 82.3375 91.4811 82.301C91.5932 82.2455 91.7839 82.2236 91.8581 82.3346C92.0532 82.6267 91.5335 82.7626 91.6209 82.4296C91.4229 82.5522 91.5684 82.8823 91.73 82.967C91.9615 83.0897 92.3923 82.8604 92.4913 82.6253C92.5932 82.3857 92.4316 82.0849 92.2336 81.9637C92.0328 81.841 91.7708 81.8731 91.5917 81.6993C91.535 81.6438 91.4855 81.5518 91.5495 81.5007C91.6616 81.413 91.9775 81.6058 92.123 81.6233C92.4258 81.6599 92.7475 81.4189 92.7926 81.1852C92.8377 80.972 92.7315 80.6857 92.5117 80.6682Z" fill="#E0943B"/>
<path d="M89.2206 85.5113C89.0648 85.4981 88.8596 85.6208 88.9105 85.7727C89.1129 85.6266 89.174 85.926 88.9222 85.9304C88.8305 85.9319 88.749 85.8618 88.7082 85.7391C88.6733 85.6296 88.7024 85.3345 88.6296 85.1534C88.5714 85.0088 88.4811 84.8511 88.3691 84.8876C88.2977 84.911 88.289 85.0351 88.2148 84.9972C88.257 84.9621 88.2948 84.927 88.2992 84.8788C88.2162 84.708 87.9455 84.5093 88.1842 84.3983C88.257 84.3647 88.3996 84.4144 88.4826 84.3837C88.6165 84.3341 88.7359 84.1822 88.765 84.0697C88.8363 83.7995 88.5059 83.5249 88.3327 83.7893C88.3458 83.82 88.4229 83.7367 88.4156 83.8024C88.3574 83.9646 88.1245 83.9543 88.0692 83.8521C88.0052 83.7338 88.1405 83.6272 88.1201 83.487C88.1187 83.4738 88.0838 83.4212 88.0372 83.3555V83.6067C88.0226 83.4972 88.011 83.3731 88.0008 83.2387C87.9964 83.1715 87.9921 83.1014 87.9891 83.0298L87.9877 83.0035V82.9889V82.9071C87.9862 82.7991 87.9862 82.6895 87.9848 82.58C87.9833 82.3609 87.9819 82.1389 87.9804 81.9169C87.9702 80.1307 87.9659 78.2247 87.9659 76.4399C87.9644 74.5033 87.9644 72.7098 87.9615 71.3676H87.7009C87.698 72.7112 87.698 74.5033 87.6966 76.4399C87.6951 78.2247 87.6922 80.1307 87.682 81.9169C87.6806 82.1404 87.6791 82.3609 87.6776 82.58C87.6762 82.6895 87.6762 82.7991 87.6747 82.9071V82.9889V83.0035L87.6733 83.0298C87.6689 83.1014 87.6645 83.1715 87.6602 83.2387C87.6514 83.3731 87.6383 83.4972 87.6238 83.6067V83.3555C87.5787 83.4212 87.5437 83.4738 87.5408 83.487C87.5204 83.6272 87.6558 83.7338 87.5918 83.8521C87.5365 83.9529 87.3021 83.9646 87.2453 83.8024C87.2381 83.7367 87.3152 83.8185 87.3283 83.7893C87.1551 83.5249 86.8261 83.7995 86.896 84.0697C86.9251 84.1822 87.0445 84.3355 87.1784 84.3837C87.2613 84.4144 87.4025 84.3647 87.4768 84.3983C87.7169 84.5093 87.4462 84.708 87.3618 84.8788C87.3647 84.927 87.404 84.9621 87.4462 84.9972C87.372 85.0366 87.3632 84.911 87.2919 84.8876C87.1798 84.8526 87.0896 85.0088 87.0314 85.1534C86.9586 85.3345 86.9892 85.6296 86.9528 85.7391C86.9135 85.8618 86.8319 85.9319 86.7388 85.9304C86.4884 85.926 86.5481 85.6252 86.7504 85.7727C86.8028 85.6223 86.5976 85.4981 86.4404 85.5113C86.2206 85.5288 86.1143 85.815 86.1551 86.0283C86.2002 86.262 86.5219 86.5044 86.8247 86.4664C86.9702 86.4489 87.2861 86.2561 87.3982 86.3438C87.4622 86.3934 87.4127 86.4869 87.356 86.5424C87.1769 86.7162 86.9135 86.6841 86.714 86.8067C86.5161 86.928 86.3545 87.2288 86.4564 87.4684C86.5554 87.7035 86.9862 87.9328 87.2177 87.8101C87.3793 87.7239 87.5248 87.3953 87.3269 87.2726C87.4142 87.6056 86.8931 87.4698 87.0896 87.1777C87.1638 87.0667 87.3545 87.0886 87.4666 87.1441C87.5379 87.1792 87.5874 87.3486 87.6194 87.594V87.8452C87.6747 87.924 87.7461 88.0219 87.797 88.0935L87.7912 88.1884C87.7941 88.1826 87.8072 88.1621 87.8261 88.1344C87.845 88.1621 87.8581 88.1811 87.8611 88.1884L87.8552 88.0935C87.9062 88.0219 87.9775 87.924 88.0328 87.8452V87.594C88.0663 87.3486 88.1143 87.1806 88.1856 87.1441C88.2977 87.0886 88.4884 87.0667 88.5626 87.1777C88.7577 87.4698 88.2381 87.6056 88.3254 87.2726C88.1274 87.3953 88.273 87.7254 88.4346 87.8101C88.666 87.9328 89.0968 87.7035 89.1958 87.4684C89.2977 87.2288 89.1362 86.928 88.9382 86.8067C88.7373 86.6841 88.4753 86.7162 88.2963 86.5424C88.2395 86.4869 88.19 86.3934 88.2541 86.3438C88.3661 86.2561 88.682 86.4489 88.8276 86.4664C89.1303 86.5044 89.452 86.262 89.4971 86.0283C89.5466 85.815 89.4404 85.5288 89.2206 85.5113Z" fill="#E0943B"/>
<path d="M98.1434 55.7516L96.746 57.3538C96.746 59.736 96.1157 62.8746 94.2293 64.5396C92.746 65.8497 91.6369 67.6199 89.7621 66.5639C90.2744 68.3107 88.305 70.1232 88.0153 71.962C87.7271 70.1057 85.7563 68.2114 86.2701 66.4631C84.3967 67.5191 83.2861 65.8482 81.8029 64.5381C79.9179 62.8746 79.2862 59.7359 79.2862 57.3524L77.8888 55.7502C76.9427 59.4263 77.3109 63.269 79.0853 66.561C80.0838 68.4144 83.7577 73.2443 88.0139 72.5623C92.2715 73.2458 95.944 68.4144 96.9425 66.561C98.7212 63.2704 99.0895 59.4278 98.1434 55.7516Z" fill="#8E4A7E"/>
<path d="M88.0153 73.5788L87.9004 72.8339C87.666 72.8646 87.4287 72.8806 87.1929 72.8806C83.1056 72.8806 79.7985 68.4071 78.8699 66.6836C77.1028 63.4048 76.669 59.5008 77.6501 55.6903L77.768 55.2317L79.538 57.2604V57.3538C79.538 59.6994 80.177 62.7694 81.9703 64.3512C82.2308 64.5805 82.4797 64.8215 82.7199 65.0537C83.5496 65.8555 84.2657 66.5478 85.1289 66.5478C85.4564 66.5478 85.7912 66.4485 86.1507 66.2455L86.6849 65.9446L86.5117 66.5347C86.2366 67.4709 86.7664 68.4888 87.3283 69.5653C87.5787 70.0458 87.8349 70.5365 88.0212 71.0331C88.2075 70.5482 88.4637 70.0706 88.7126 69.6032C89.2715 68.5575 89.7999 67.5687 89.5248 66.634L89.3516 66.0439L89.8858 66.3448C90.2322 66.5405 90.5539 66.634 90.8683 66.634C91.7227 66.634 92.4636 65.9023 93.2482 65.1267C93.5102 64.8682 93.7795 64.6009 94.0648 64.3497C95.8581 62.768 96.4971 59.698 96.4971 57.3524V57.2589L98.2671 55.2302L98.385 55.6888C99.3661 59.4993 98.9323 63.4033 97.1652 66.6822C96.2365 68.4056 92.9294 72.8792 88.8421 72.8792C88.6049 72.8792 88.3676 72.8631 88.1333 72.8324L88.0153 73.5788ZM88.2104 72.3402C88.42 72.3665 88.6311 72.3811 88.8421 72.3811C92.666 72.3811 95.8974 67.9864 96.7271 66.4456C98.3631 63.4121 98.8144 59.8192 98.0153 56.2818L96.9964 57.4502C96.9862 58.7486 96.7489 62.6526 94.3952 64.7295C94.1216 64.9719 93.8552 65.2333 93.599 65.4875C92.7402 66.336 91.928 67.1379 90.8698 67.1379C90.6121 67.1379 90.3545 67.0911 90.0925 66.9947C90.158 67.9572 89.6485 68.9124 89.1522 69.8413C88.7708 70.5555 88.3763 71.2931 88.2643 72.0029L88.2104 72.3402ZM78.0198 56.2803C77.2207 59.8192 77.6719 63.4106 79.308 66.4441C80.1377 67.9835 83.3676 72.3797 87.1929 72.3797C87.404 72.3797 87.6151 72.3665 87.8247 72.3388L87.7723 71.9999C87.6616 71.2828 87.2672 70.5263 86.8858 69.796C86.3895 68.8423 85.8785 67.8623 85.944 66.8925C85.6675 66.9962 85.3982 67.0473 85.1274 67.0473C84.062 67.0473 83.241 66.2543 82.372 65.413C82.1362 65.1851 81.8917 64.9485 81.6399 64.7265C79.2862 62.6497 79.0489 58.7457 79.0387 57.4473L78.0198 56.2803Z" fill="#E0943B"/>
<path d="M98.0502 40.3052C98.0502 47.38 93.254 55.0974 88.535 55.0974C83.816 55.0974 78.3502 47.2456 78.3502 40.1708C78.3502 33.0961 83.6238 27.3168 88.3428 27.3168C93.0619 27.3168 98.0502 33.2304 98.0502 40.3052Z" fill="#9B4342"/>
<path d="M78.618 43.8017C78.618 45.6215 77.3881 47.0966 75.8713 47.0966C74.3546 47.0966 73.1246 45.6215 73.1246 43.8017C73.1246 41.9818 74.3546 40.5067 75.8713 40.5067C77.3881 40.5067 78.618 41.9818 78.618 43.8017Z" fill="#9B4342"/>
<path d="M77.2774 43.0626C77.2309 42.4944 76.915 41.5831 76.2731 41.4473C75.57 41.2983 74.9747 41.9351 74.8102 42.5164C75.2993 41.6415 76.5686 41.4619 76.8684 42.642C76.0169 42.9341 75.1392 43.4876 75.0664 44.4749C74.9849 45.5805 76.0431 46.4276 76.8757 45.4827H76.7418C76.4099 45.7719 75.9412 44.8386 76.4085 44.3566C76.8844 43.8659 77.3488 43.9258 77.2774 43.0626Z" fill="#662828"/>
<path d="M100.529 47.0966C102.046 47.0966 103.276 45.6214 103.276 43.8017C103.276 41.9819 102.046 40.5067 100.529 40.5067C99.0121 40.5067 97.7823 41.9819 97.7823 43.8017C97.7823 45.6214 99.0121 47.0966 100.529 47.0966Z" fill="#9B4342"/>
<path d="M99.123 43.0626C99.1695 42.4944 99.4854 41.5831 100.127 41.4473C100.83 41.2983 101.426 41.9351 101.59 42.5164C101.1 41.6415 99.8318 41.4619 99.532 42.642C100.383 42.9341 101.261 43.4876 101.334 44.4749C101.416 45.5805 100.357 46.4276 99.5247 45.4827H99.6586C99.9905 45.7719 100.459 44.8386 99.9919 44.3566C99.5145 43.8659 99.0516 43.9258 99.123 43.0626Z" fill="#662828"/>
<path d="M85.7955 47.6574C86.42 48.2183 87.353 48.7616 88.2075 48.801C89.3545 48.8522 89.7111 48.5557 90.2176 47.6574C88.4098 47.1872 85.7955 47.6574 85.7955 47.6574Z" fill="#662828"/>
<path d="M84.5306 38.3364C84.5356 38.338 84.5389 38.3414 84.5422 38.3448H84.5389C84.5373 38.3431 84.534 38.3414 84.5323 38.3397C84.5306 38.3364 84.5306 38.3364 84.5306 38.3364Z" fill="#D11919"/>
<path d="M94.752 30.3809C94.7503 30.3809 94.7504 30.3826 94.7504 30.3843C94.7504 30.3792 94.752 30.3741 94.7537 30.3707V30.3741C94.7537 30.3758 94.752 30.3775 94.752 30.3809Z" fill="#D11919"/>
<path d="M88.32 38.3948C88.32 38.3948 88.3181 38.3948 88.3181 38.3966C88.3181 38.3966 88.3181 38.3948 88.32 38.3948Z" fill="#D11919"/>
<path d="M85.6982 35.1612V35.1631C85.6982 35.1631 85.6964 35.1612 85.6982 35.1612C85.6964 35.1612 85.6982 35.1612 85.6982 35.1612Z" fill="#D11919"/>
<path d="M93.4287 41.605C91.1317 41.367 91.2234 43.6483 90.6994 44.3231C90.6994 44.3231 93.6135 45.1483 95.3966 44.2311C95.3501 43.2072 95.3224 41.8022 93.4287 41.605Z" fill="#662828"/>
<path d="M95.3981 44.231C95.0953 44.3859 94.7605 44.4925 94.4126 44.5597C93.5145 44.7349 92.5306 44.6604 91.8028 44.5494C91.1492 44.4501 90.6994 44.3231 90.6994 44.3231C90.9018 44.0616 91.1798 43.6644 91.516 43.3007C92.0444 42.7267 92.7169 42.2345 93.4723 42.477C93.9134 42.6186 94.337 42.9443 94.6979 43.327C94.973 43.6147 95.2103 43.9346 95.3981 44.231Z" fill="white"/>
<path d="M94.6994 43.327C94.6601 43.7827 94.5597 44.2033 94.4126 44.5597C93.5145 44.7349 92.5306 44.6604 91.8028 44.5494C91.6543 44.1872 91.5539 43.7622 91.5175 43.3007C92.0459 42.7267 92.7183 42.2345 93.4738 42.477C93.9148 42.6186 94.337 42.9443 94.6994 43.327Z" fill="#191919"/>
<path d="M93.9498 43.7695C93.9498 43.9871 93.8741 44.1624 93.7824 44.1624C93.6907 44.1624 93.6135 43.9857 93.6135 43.7695C93.6135 43.5519 93.6892 43.3766 93.7824 43.3766C93.8755 43.3766 93.9498 43.5534 93.9498 43.7695Z" fill="white"/>
<path d="M90.484 40.0729C91.5087 39.5019 92.484 39.3383 93.6863 39.404C94.3632 39.4405 95.0648 39.5647 95.7008 39.7823C96.1579 39.9386 96.615 40.2847 97.0691 40.3504L96.7576 42.2886C96.4898 42.0213 95.024 42.033 94.2453 42.0505C93.8726 42.0593 94.0065 40.8353 94.0065 40.8353C94.0065 40.8353 93.4432 42.0549 93.2249 42.0651C92.4243 42.1016 91.5524 42.1922 90.8246 42.3426C90.6732 41.6036 90.5539 40.8207 90.484 40.0729Z" fill="#191919"/>
<path d="M83.5819 41.605C85.8788 41.367 85.7871 43.6483 86.3111 44.3231C86.3111 44.3231 83.397 45.1483 81.6139 44.2311C81.659 43.2072 81.6867 41.8022 83.5819 41.605Z" fill="#662828"/>
<path d="M81.6122 44.231C81.9149 44.3859 82.2497 44.4925 82.5976 44.5597C83.4957 44.7349 84.4797 44.6604 85.2075 44.5494C85.8611 44.4501 86.3108 44.3231 86.3108 44.3231C86.1085 44.0616 85.8305 43.6644 85.4942 43.3007C84.9659 42.7267 84.2934 42.2345 83.5379 42.477C83.0969 42.6186 82.6733 42.9443 82.3123 43.327C82.0358 43.6147 81.7985 43.9346 81.6122 44.231Z" fill="white"/>
<path d="M82.3094 43.327C82.3487 43.7827 82.4491 44.2033 82.5962 44.5597C83.4943 44.7349 84.4782 44.6604 85.206 44.5494C85.3545 44.1872 85.4549 43.7622 85.4913 43.3007C84.9629 42.7267 84.2905 42.2345 83.535 42.477C83.094 42.6186 82.6718 42.9443 82.3094 43.327Z" fill="#191919"/>
<path d="M83.059 43.7695C83.059 43.9871 83.1347 44.1624 83.2279 44.1624C83.321 44.1624 83.3953 43.9857 83.3953 43.7695C83.3953 43.5519 83.3196 43.3766 83.2279 43.3766C83.1347 43.3766 83.059 43.5534 83.059 43.7695Z" fill="white"/>
<path d="M86.5248 40.0729C85.5001 39.5019 84.5248 39.3383 83.3225 39.404C82.6457 39.4405 81.9441 39.5647 81.308 39.7823C80.8509 39.9386 80.3939 40.2847 79.9397 40.3504L80.2512 42.2886C80.519 42.0213 81.9848 42.033 82.7636 42.049C83.1347 42.0578 83.0023 40.8339 83.0023 40.8339C83.0023 40.8339 83.5656 42.0534 83.7839 42.0636C84.5845 42.1001 85.4564 42.1907 86.1842 42.3411C86.3356 41.6036 86.4564 40.8207 86.5248 40.0729Z" fill="#191919"/>
<path d="M99.2569 48.5075C99.1462 44.402 98.727 39.0287 97.6455 35.1306C97.5873 36.3516 98.3893 45.4871 95.4505 47.9437C92.4578 50.4471 92.5189 53.5726 88.666 53.9494C83.9411 54.4124 83.7184 50.7611 80.5845 47.0426C78.2439 44.2647 79.5409 35.7367 79.3866 35.3306C79.3866 35.3306 77.0795 41.6547 76.8073 48.6418C76.2803 62.159 88.2526 67.1642 88.2526 67.1642C88.2526 67.1642 99.628 62.3591 99.2569 48.5075Z" fill="#191919"/>
<path d="M95.7329 51.3847C93.4403 48.4432 90.8479 47.713 87.9906 48.6097C85.1347 47.7144 82.6558 48.4447 80.3633 51.3847C78.8815 53.2849 78.8611 57.5408 80.1013 59.4453C80.4579 56.9493 81.5714 54.5292 84.4171 54.2123C85.8523 54.0531 86.6354 54.3481 87.7344 53.2703C87.8552 53.152 87.9586 53.0322 88.0474 52.9124C88.1361 53.0322 88.2395 53.1505 88.3603 53.2703C89.4607 54.3467 90.2424 54.0516 91.6776 54.2123C94.5233 54.5292 95.6368 56.9493 95.9934 59.4453C97.2351 57.5408 97.2147 53.2849 95.7329 51.3847Z" fill="#262626"/>
<path d="M109.012 33.2333C108.941 34.0016 108.734 34.7873 108.369 35.5906C106.934 38.7453 98.6543 41.6489 98.6543 41.6489C98.6543 41.6489 98.4898 39.0228 97.7227 38.4518C97.6572 38.4036 97.5888 38.37 97.5145 38.3539C96.9003 38.221 96.3122 38.1027 95.7445 37.9975H95.7431C95.5873 37.9683 95.4316 37.9406 95.2802 37.9143C95.1637 37.8938 95.0473 37.8734 94.9323 37.8544C94.8508 37.8413 94.7707 37.8281 94.6892 37.8135C94.5509 37.7916 94.4141 37.7697 94.2787 37.7493C94.1434 37.7288 94.008 37.7084 93.8741 37.6894C93.6732 37.6602 93.4753 37.6339 93.2773 37.6105C93.1463 37.5944 93.0153 37.5784 92.8843 37.5638C92.8188 37.5565 92.7547 37.5492 92.6892 37.5419C92.4956 37.5214 92.3021 37.5024 92.1099 37.4849C92.0459 37.4791 91.9818 37.4747 91.9178 37.4688C91.7897 37.4586 91.663 37.4484 91.5364 37.4396C91.3457 37.4265 91.1551 37.4148 90.9658 37.4046C90.8406 37.3973 90.714 37.3929 90.5874 37.387C90.1143 37.3695 89.6441 37.3622 89.1682 37.3666C89.123 37.3681 89.0794 37.3681 89.0343 37.3681C88.9542 37.3681 88.8741 37.3695 88.7955 37.3724C88.3603 37.3827 87.9193 37.4002 87.4709 37.4279C87.3982 37.4323 87.3239 37.4367 87.2497 37.4425C87.1755 37.4469 87.1027 37.4513 87.0284 37.4586C86.9542 37.4645 86.88 37.4688 86.8043 37.4761C86.7941 37.4761 86.7839 37.4776 86.7737 37.4776C86.7097 37.482 86.6456 37.4878 86.5816 37.4937C86.5059 37.4995 86.4287 37.5068 86.3516 37.5127C86.2191 37.5243 86.0867 37.536 85.9528 37.5506C85.8567 37.5609 85.7592 37.5696 85.6602 37.5798C85.583 37.5886 85.5044 37.5959 85.4258 37.6047C85.3443 37.6134 85.2643 37.6222 85.1813 37.631C85.0343 37.6485 84.8858 37.666 84.7344 37.6835C84.6442 37.6952 84.5539 37.7069 84.4637 37.7186C84.3123 37.7376 84.158 37.758 84.0037 37.7785C83.9091 37.7916 83.813 37.8048 83.7155 37.8179C83.5467 37.8413 83.3749 37.8661 83.2017 37.8909C83.0285 37.9158 82.8538 37.942 82.6762 37.9698C82.5729 37.9859 82.4681 38.0019 82.3618 38.018C82.1988 38.0428 82.0358 38.0691 81.8698 38.0954C81.8684 38.0954 81.8655 38.0969 81.864 38.0969C81.4957 38.1553 81.1187 38.2181 80.7301 38.2853C80.6835 38.294 80.6355 38.3013 80.5874 38.3101C80.3415 38.3525 80.0926 38.3948 79.8378 38.4401C79.6355 38.4751 79.4303 38.5117 79.2221 38.5496C78.2047 38.7322 77.3459 42.2477 77.3459 42.2477C75.9383 40.9697 70.803 38.0808 69.9442 37.3053C69.9369 37.2994 69.9296 37.2921 69.9238 37.2863C69.4842 36.8861 69.1581 36.4655 68.9238 36.0273C68.8146 35.8257 68.7273 35.6198 68.6545 35.4095C68.4726 34.8793 68.3998 34.3243 68.3998 33.7489C68.4012 33.0493 68.5133 32.3161 68.6705 31.5566C68.7127 31.3551 68.7608 31.1565 68.8132 30.9607C68.8612 30.784 68.9136 30.6102 68.9704 30.4393C69.0024 30.3415 69.0359 30.2436 69.0723 30.1472C70.145 27.2057 72.4914 25.0851 75.26 23.7078C76.2469 23.2171 77.2876 22.8183 78.3444 22.5131C78.6835 22.4138 79.03 22.3203 79.3793 22.2297C79.8043 22.1187 80.2352 22.0165 80.6733 21.9201C84.4448 21.0876 88.6442 20.7473 92.4272 21.1782C92.6441 21.203 92.8595 21.2293 93.0721 21.26C93.2584 21.2862 93.4447 21.314 93.6281 21.3432C95.3777 21.628 97.2307 21.8851 99.0254 22.3422C99.1273 22.3685 99.2307 22.3948 99.3326 22.4225C101.362 22.9673 103.303 23.7852 104.919 25.2034C106.723 26.788 108.201 28.6604 108.779 30.7314C108.82 30.8731 108.855 31.0148 108.886 31.1579C109.03 31.8371 109.078 32.5264 109.012 33.2333Z" fill="#EDBA5F"/>
<g opacity="0.4">
<path d="M109.012 33.2333C108.941 34.0016 108.734 34.7873 108.369 35.5906C106.934 38.7454 98.6542 41.6489 98.6542 41.6489C98.6542 41.6489 98.4898 39.0229 97.7227 38.4518C97.6572 38.4036 97.5887 38.37 97.5145 38.3539C96.9003 38.221 96.3122 38.1027 95.7445 37.9976H95.7431C95.5873 37.9684 95.4316 37.9406 95.2802 37.9143C95.1637 37.8939 95.0473 37.8734 94.9323 37.8544C94.8508 37.8413 94.7707 37.8281 94.6892 37.8135C94.5509 37.7916 94.4141 37.7697 94.2787 37.7493C94.1434 37.7288 94.008 37.7084 93.8741 37.6894C93.6732 37.6616 93.4752 37.6354 93.2773 37.6105C93.1463 37.5945 93.0153 37.5784 92.8843 37.5638C92.8188 37.5565 92.7547 37.5492 92.6892 37.5419C92.4956 37.5214 92.302 37.5024 92.1099 37.4849C92.0459 37.4791 91.9818 37.4747 91.9178 37.4689C91.7897 37.4586 91.663 37.4484 91.5364 37.4396C91.3457 37.4265 91.155 37.4148 90.9658 37.4046C90.8406 37.3973 90.714 37.3929 90.5873 37.3871C90.1143 37.3695 89.6441 37.3622 89.1681 37.3666C89.1245 37.3666 89.0794 37.3681 89.0342 37.3681C88.9542 37.3681 88.8741 37.3695 88.7955 37.3725C88.3603 37.3827 87.9193 37.4002 87.4709 37.428C87.3981 37.4323 87.3239 37.4367 87.2497 37.4426C87.1754 37.4469 87.1012 37.4528 87.0284 37.4586C86.9542 37.4645 86.88 37.4689 86.8043 37.4762C86.73 37.482 86.6572 37.4878 86.583 37.4937C86.5073 37.4995 86.4302 37.5068 86.353 37.5127C86.2206 37.5244 86.0881 37.536 85.9542 37.5506C85.8581 37.5609 85.7606 37.5696 85.6616 37.5799C85.5845 37.5886 85.5059 37.5974 85.4273 37.6047C85.3458 37.6134 85.2657 37.6222 85.1827 37.631C85.0357 37.6485 84.8858 37.666 84.7359 37.6836C84.6456 37.6952 84.5554 37.7069 84.4651 37.7186C84.3137 37.7376 84.1595 37.758 84.0052 37.7785C83.9106 37.7916 83.8145 37.8048 83.717 37.8179C83.5481 37.8413 83.3763 37.8661 83.2031 37.8909C83.0299 37.9158 82.8552 37.9421 82.6777 37.9698C82.5743 37.9859 82.4695 38.0019 82.3633 38.018C82.2002 38.0428 82.0372 38.0691 81.8713 38.0954C81.8698 38.0954 81.8669 38.0969 81.8654 38.0969C81.4972 38.1568 81.1202 38.2196 80.7315 38.2853C80.685 38.2941 80.6369 38.3014 80.5889 38.3101C80.3429 38.3525 80.094 38.3963 79.8393 38.4401C79.6369 38.4752 79.4317 38.5117 79.2235 38.5496C78.2061 38.7322 77.3473 42.2477 77.3473 42.2477C75.9397 40.9697 70.8044 38.0808 69.9456 37.3053C69.9383 37.2994 69.931 37.2921 69.9252 37.2863C69.5075 36.8803 68.9733 35.5512 68.4027 33.7489C68.4041 33.0493 68.5162 32.3161 68.6734 31.5567C68.7156 31.3551 68.7637 31.1565 68.8161 30.9608C68.8641 30.784 68.9165 30.6102 68.9733 30.4394C69.0053 30.3415 69.0388 30.2437 69.0752 30.1473C70.1479 27.2058 72.4943 25.0851 75.2629 23.7078C78.701 22.9892 83.1653 23.9809 83.1231 23.9985C76.9921 26.5193 77.3051 31.7086 79.0343 32.357C81.2148 33.1749 80.4579 34.5975 82.8334 34.8574C83.8654 34.9699 84.9003 35.0634 85.9367 35.1379C87.1798 35.2255 88.4243 35.2839 89.666 35.3073C90.0968 35.316 90.5262 35.3204 90.9542 35.3204H91.0983C95.27 35.3248 99.6644 35.4869 103.816 34.7552C104.337 34.6632 104.854 34.558 105.365 34.4354C106.612 34.1476 107.833 33.7547 109.012 33.2333Z" fill="#8E692D"/>
</g>
<path d="M99.3326 22.4313C99.318 22.4736 99.3049 22.516 99.2903 22.5584C99.2554 22.6591 99.2205 22.7628 99.1855 22.8651C99.1477 22.9673 99.1084 23.0695 99.0705 23.1732C98.9934 23.3792 98.9148 23.588 98.8362 23.7998C98.7576 24.0116 98.6659 24.219 98.58 24.4322C98.4912 24.644 98.4083 24.8601 98.3136 25.0734C98.219 25.2852 98.1215 25.4999 98.0254 25.716C97.9774 25.8241 97.9279 25.9322 97.8799 26.0402C97.8275 26.1469 97.7751 26.2535 97.7227 26.3616C97.6179 26.5763 97.5116 26.7924 97.4054 27.0086C96.9585 27.863 96.4854 28.7247 95.9541 29.5513L95.8624 29.6959L95.7576 29.8624C95.6921 29.9661 95.6281 30.0698 95.5567 30.1721C95.4476 30.3327 95.3384 30.4919 95.2292 30.6511C95.1987 30.6949 95.1696 30.7387 95.139 30.7826C95.0691 30.8833 95.0007 30.9885 94.9294 31.0849C94.8581 31.1827 94.7853 31.2791 94.7154 31.377C94.5713 31.5712 94.4287 31.764 94.2875 31.9568L94.2744 31.9743L94.2554 31.9992L94.2263 32.0372L94.1667 32.1102L94.0488 32.2533C93.9702 32.3468 93.8901 32.4388 93.8115 32.5293C93.6528 32.7105 93.4927 32.8886 93.3326 33.0624C93.0124 33.4115 92.6892 33.7489 92.3675 34.079C91.9411 34.5142 91.5189 34.9334 91.1012 35.3321C90.3865 36.0156 89.6893 36.6422 89.0226 37.1972C88.9484 37.2585 88.8741 37.3199 88.7999 37.3812C88.3647 37.3914 87.9236 37.409 87.4753 37.4367C87.3851 37.3651 87.289 37.2936 87.1856 37.2205C87.4491 37.0424 87.7242 36.8481 88.0081 36.6378C88.075 36.5881 88.142 36.537 88.2104 36.4859C88.6776 36.1339 89.1667 35.7425 89.6689 35.3204C90.3457 34.7523 91.0488 34.1257 91.7591 33.4568C92.0866 33.1471 92.417 32.8288 92.746 32.4987C92.909 32.3351 93.0735 32.1686 93.2336 31.9992C93.3137 31.9145 93.3937 31.8298 93.4709 31.745L93.5859 31.618L93.6412 31.5537L93.6674 31.5216L93.6747 31.5143C93.6747 31.5143 93.6761 31.5128 93.6776 31.5114L93.6921 31.4938C93.8421 31.3069 93.992 31.1199 94.1434 30.933C94.2191 30.8381 94.2947 30.7446 94.3704 30.6511C94.4461 30.5576 94.5131 30.4612 94.5859 30.3663C94.631 30.3064 94.6761 30.2451 94.7212 30.1837C94.8188 30.0538 94.9148 29.9223 95.0124 29.7923C95.0851 29.6989 95.1535 29.5981 95.2205 29.4988L95.4257 29.2023C95.4505 29.1672 95.4752 29.1322 95.4985 29.0957C96.024 28.3406 96.4971 27.5504 96.9512 26.7647C97.0647 26.5558 97.1783 26.3484 97.2904 26.141C97.3457 26.0373 97.4024 25.9336 97.4577 25.8314C97.5102 25.7262 97.5626 25.6225 97.615 25.5188C97.7198 25.31 97.8231 25.1026 97.9265 24.8967C98.0283 24.6907 98.12 24.4804 98.2147 24.2759C98.3078 24.07 98.4068 23.867 98.4927 23.6611C98.58 23.4566 98.6659 23.2521 98.7503 23.0506C98.794 22.9498 98.8362 22.849 98.877 22.7497C98.9163 22.6489 98.9556 22.5481 98.9934 22.4488C99.005 22.4167 99.0181 22.386 99.0298 22.3553C99.1273 22.3773 99.2307 22.4035 99.3326 22.4313Z" fill="#8E692D"/>
<path d="M95.8595 29.6944L95.7547 29.8609C95.6892 29.9646 95.6252 30.0683 95.5538 30.1706C95.4447 30.3312 95.3355 30.4904 95.2263 30.6496L94.7227 30.4554C94.7227 30.4554 94.7329 30.4305 94.7518 30.3838V30.3867C94.7518 30.3853 94.7518 30.3853 94.7518 30.3838C94.7533 30.3809 94.7547 30.378 94.7562 30.375L94.7605 30.3648C94.762 30.3634 94.762 30.3634 94.762 30.3634C94.7605 30.3634 94.7605 30.3648 94.7605 30.3648C94.7591 30.3663 94.7576 30.3692 94.7562 30.3721V30.3648C94.7576 30.3371 94.7547 30.2786 94.7183 30.1823C94.6834 30.0873 94.6164 29.9617 94.5146 29.8186C94.3122 29.5309 93.9803 29.1803 93.5568 28.8108C93.1332 28.4399 92.6165 28.044 92.0313 27.6366C90.8596 26.8201 89.4127 25.9497 87.8203 25.0982C87.7591 25.0646 87.698 25.0325 87.6354 25.0003C87.3705 24.8601 87.1012 24.7214 86.8276 24.5841C86.7519 24.5461 86.6762 24.5081 86.599 24.4702C86.3909 24.3679 86.1813 24.2671 85.9717 24.1678C85.8669 24.1182 85.7606 24.07 85.6544 24.0232L85.4972 23.9546L85.4186 23.9225L85.3793 23.9064L85.3676 23.9005C85.3676 23.9005 85.3661 23.9005 85.3632 23.8991L85.3429 23.8918C85.1187 23.8085 84.8931 23.7267 84.6675 23.6435C84.5554 23.6026 84.4419 23.5602 84.3283 23.5194C84.2148 23.477 84.1027 23.4449 83.9906 23.4069C83.7635 23.3324 83.5379 23.2594 83.3109 23.1864C83.1988 23.1469 83.0823 23.1148 82.9673 23.0827L82.6209 22.9833C81.6995 22.7117 80.7592 22.5057 79.8305 22.3188C79.6792 22.2925 79.5292 22.2677 79.3793 22.2414C79.8043 22.1304 80.2352 22.0282 80.6733 21.9318C81.3764 22.053 82.0838 22.1917 82.7825 22.367L83.1391 22.4532C83.2585 22.4824 83.3778 22.5101 83.4957 22.5452C83.733 22.6124 83.9702 22.6796 84.206 22.7453C84.324 22.7789 84.4448 22.8095 84.5583 22.846C84.6733 22.8826 84.7883 22.9205 84.9018 22.957C85.1303 23.0301 85.3589 23.1031 85.5859 23.1776L85.6078 23.1849L85.6369 23.1951L85.682 23.2112L85.7708 23.2433L85.944 23.309C86.0576 23.3543 86.1696 23.3996 86.2817 23.4463C86.5044 23.5398 86.7228 23.6333 86.9396 23.7297C87.2235 23.8567 87.5044 23.9853 87.7795 24.1152C87.781 24.1152 87.781 24.1152 87.781 24.1152C87.9251 24.1824 88.0677 24.2511 88.2089 24.3197C88.3225 24.3738 88.4345 24.4293 88.5466 24.4848C90.0677 25.2311 91.4534 25.9949 92.6208 26.7398C93.2467 27.14 93.81 27.5343 94.2933 27.9228C94.7766 28.3128 95.1812 28.6954 95.4869 29.0912C95.4883 29.0927 95.4898 29.0942 95.4912 29.0971C95.6426 29.2855 95.7678 29.487 95.8595 29.6944Z" fill="#8E692D"/>
<path d="M93.0721 21.2687C93.0677 21.2731 93.0633 21.276 93.0575 21.2804C92.9673 21.3578 92.8785 21.4338 92.7882 21.5112C92.6951 21.5857 92.6019 21.6602 92.5087 21.7347C92.321 21.8836 92.1347 22.0326 91.9469 22.183C91.1783 22.7643 90.385 23.3427 89.5539 23.8626L89.2439 24.0613C89.1405 24.127 89.0372 24.1942 88.9309 24.2541C88.8043 24.33 88.6762 24.4045 88.5481 24.479C88.4637 24.5286 88.3792 24.5783 88.2933 24.6279C88.1871 24.6893 88.0808 24.755 87.9746 24.812C87.8683 24.8689 87.7635 24.9259 87.6573 24.9829C87.65 24.9872 87.6412 24.9916 87.6325 24.996C87.3676 24.8558 87.0983 24.717 86.8247 24.5797C86.9921 24.498 87.1594 24.4176 87.3268 24.3358C87.4346 24.2833 87.5437 24.2307 87.6514 24.1766C87.6951 24.1562 87.7388 24.1343 87.781 24.1109C87.7824 24.1109 87.7824 24.1109 87.7824 24.1109C87.845 24.0773 87.9062 24.0437 87.9688 24.0116C88.1784 23.8991 88.3894 23.7881 88.599 23.6757C88.7053 23.6216 88.8086 23.5603 88.912 23.499L89.2235 23.3179C90.059 22.8417 90.8596 22.3072 91.6398 21.7668C91.8319 21.6266 92.0211 21.4864 92.2118 21.3476C92.2846 21.295 92.3559 21.241 92.4287 21.1884C92.6441 21.2118 92.8595 21.2381 93.0721 21.2687Z" fill="#8E692D"/>
<path d="M89.0168 37.1943C88.9426 37.2556 88.8683 37.317 88.7941 37.3783C88.3589 37.3885 87.9178 37.4061 87.4695 37.4338C87.3792 37.3622 87.2832 37.2907 87.1798 37.2176C86.9629 37.0628 86.7228 36.9036 86.4608 36.7415C85.8596 36.3691 85.1464 35.982 84.3502 35.5877C83.8713 35.3496 83.3633 35.1101 82.8291 34.8691C82.5248 34.7318 82.2134 34.5945 81.8946 34.4558C81.8422 34.4324 81.7883 34.4105 81.7345 34.3872C81.0037 34.0746 80.2337 33.7621 79.4375 33.4553C79.2076 33.3677 78.9761 33.2786 78.7418 33.1924C78.2177 32.9967 77.6835 32.8054 77.1406 32.6243C76.8699 32.5352 76.5948 32.4461 76.3269 32.3716C76.046 32.3001 75.7622 32.227 75.4783 32.1555C74.9048 32.0007 74.3328 31.8853 73.7549 31.7538L73.538 31.7056C73.4652 31.691 73.3925 31.6779 73.3182 31.6633L72.8801 31.58C72.5875 31.526 72.2964 31.4661 72.0024 31.415C71.7083 31.3683 71.4143 31.3215 71.1203 31.2733L70.6792 31.2032C70.5308 31.1842 70.3838 31.1652 70.2367 31.1448C70.0417 31.1185 69.8466 31.0937 69.6516 31.0688C69.5526 31.0557 69.4536 31.0426 69.3547 31.0294C69.1742 31.0075 68.9937 30.9885 68.8132 30.971C68.8525 30.8279 68.8932 30.6862 68.9384 30.546C68.9485 30.5138 68.9587 30.4817 68.9704 30.4496C69.0533 30.4554 69.1349 30.4613 69.2164 30.4671C69.2804 30.4715 69.3445 30.4773 69.4085 30.4832C69.7054 30.5124 70.0053 30.5416 70.3037 30.5693C70.4536 30.584 70.6036 30.5986 70.752 30.6132L71.2003 30.6701C71.4987 30.7081 71.7986 30.7461 72.0984 30.784C72.3983 30.8249 72.6952 30.8761 72.9936 30.9199L73.4405 30.99C73.5147 31.0017 73.5904 31.0133 73.6647 31.0265L73.8874 31.0688C74.4798 31.1813 75.078 31.2835 75.6501 31.4179C75.9412 31.4822 76.2309 31.545 76.5176 31.6092C76.8175 31.6808 77.0999 31.7626 77.3808 31.8458C77.9426 32.0123 78.4914 32.1891 79.0285 32.3702C79.9776 32.6886 80.8917 33.0186 81.7592 33.3487C81.8727 33.3925 81.9863 33.4364 82.0998 33.4802C83.0692 33.857 83.9775 34.2367 84.8087 34.615C85.2002 34.7932 85.5758 34.9714 85.9309 35.1495C85.9964 35.1817 86.059 35.2138 86.1231 35.2459C86.4491 35.4124 86.7577 35.5789 87.0474 35.7454C87.4753 35.9908 87.861 36.2347 88.2016 36.4859C88.3836 36.6203 88.5525 36.7547 88.7082 36.8934C88.8203 36.9898 88.9222 37.0906 89.0168 37.1943Z" fill="#8E692D"/>
<path d="M108.884 31.1667C108.877 31.174 108.868 31.1828 108.861 31.1915C108.723 31.342 108.581 31.4924 108.44 31.6458C108.369 31.7217 108.299 31.7991 108.226 31.8751C108.152 31.9496 108.078 32.024 108.004 32.0985C107.854 32.249 107.704 32.3994 107.551 32.5513C107.394 32.6973 107.236 32.8449 107.078 32.9924C106.998 33.0669 106.918 33.1413 106.839 33.2144C106.759 33.2889 106.675 33.3575 106.592 33.4305C106.426 33.5737 106.258 33.7168 106.091 33.8614C105.922 34.0045 105.746 34.1389 105.573 34.2776C105.503 34.3346 105.433 34.3915 105.363 34.4456C105.082 34.6647 104.792 34.8706 104.506 35.0809L104.37 35.1802L104.231 35.2752L103.951 35.4636L103.672 35.6505C103.579 35.7119 103.485 35.779 103.392 35.8331C103.204 35.9485 103.018 36.0624 102.833 36.1778L102.694 36.2639L102.624 36.3078L102.589 36.3282L102.545 36.3545C102.443 36.4129 102.343 36.4669 102.244 36.5195C101.848 36.7255 101.455 36.9109 101.065 37.0891C100.673 37.2673 100.286 37.4367 99.9002 37.5989C99.1535 37.9129 98.4228 38.2006 97.7212 38.4547C97.6557 38.4065 97.5873 38.3729 97.5131 38.3569C96.8988 38.224 96.3108 38.1057 95.7431 38.0005C96.2525 37.872 96.7911 37.7201 97.35 37.5463C98.0647 37.3257 98.8144 37.0701 99.5815 36.7868C99.9657 36.6451 100.353 36.4962 100.744 36.3384C101.133 36.1807 101.528 36.0171 101.91 35.8389C102.005 35.7951 102.1 35.7498 102.188 35.7031C102.282 35.652 102.375 35.6009 102.468 35.5497C102.659 35.4446 102.851 35.338 103.043 35.2313C103.14 35.1788 103.229 35.1218 103.322 35.0648L103.599 34.8969L103.814 34.7654L103.875 34.7289L104.014 34.6442L104.149 34.5537C104.512 34.3112 104.878 34.0775 105.226 33.8161C105.401 33.6876 105.58 33.5649 105.752 33.432C105.922 33.2991 106.091 33.1662 106.261 33.0333C106.346 32.9661 106.431 32.9033 106.513 32.8332C106.595 32.7645 106.676 32.6944 106.758 32.6258C106.921 32.4885 107.082 32.3497 107.242 32.2139C107.398 32.0708 107.552 31.9306 107.705 31.7889C107.781 31.7188 107.858 31.6487 107.935 31.5786C108.011 31.5099 108.082 31.434 108.156 31.3639C108.302 31.2193 108.447 31.0762 108.592 30.9345C108.657 30.8717 108.718 30.8074 108.779 30.7417C108.819 30.8804 108.854 31.0236 108.884 31.1667Z" fill="#8E692D"/>
<path d="M156.962 51.3306C156.205 51.8228 155.195 51.6052 154.705 50.8457C154.214 50.0863 154.431 49.0727 155.188 48.5805C155.945 48.0883 156.955 48.3059 157.446 49.0654C157.935 49.8248 157.719 50.8399 156.962 51.3306Z" fill="#2D0404"/>
<path d="M156.329 49.7218L155.763 50.0902L159.68 56.158L160.247 55.7895L156.329 49.7218Z" fill="#2D0404"/>
<path d="M153.466 53.6032C152.709 54.0954 151.699 53.8778 151.208 53.1183C150.718 52.3588 150.935 51.3452 151.692 50.853C152.449 50.3608 153.459 50.5785 153.949 51.3379C154.438 52.0974 154.223 53.1125 153.466 53.6032Z" fill="#2D0404"/>
<path d="M152.834 51.9951L152.267 52.3636L156.184 58.4314L156.751 58.0629L152.834 51.9951Z" fill="#2D0404"/>
<path d="M149.97 55.8758C149.213 56.368 148.203 56.1504 147.712 55.3909C147.222 54.6314 147.438 53.6178 148.195 53.1256C148.952 52.6334 149.962 52.851 150.453 53.6105C150.942 54.37 150.727 55.3851 149.97 55.8758Z" fill="#2D0404"/>
<path d="M149.338 54.2702L148.771 54.6387L152.689 60.7065L153.256 60.338L149.338 54.2702Z" fill="#2D0404"/>
<path d="M142.179 61.0125C141.59 61.3951 140.802 61.2272 140.421 60.6356C140.04 60.0441 140.207 59.254 140.797 58.8713C141.386 58.4887 142.174 58.6566 142.555 59.2481C142.938 59.8397 142.769 60.6298 142.179 61.0125Z" fill="#2D0404"/>
<path d="M141.688 59.7573L141.246 60.0439L144.297 64.7695L144.738 64.4828L141.688 59.7573Z" fill="#2D0404"/>
<path d="M137.468 64.0751C136.878 64.4578 136.091 64.2898 135.709 63.6983C135.328 63.1068 135.495 62.3167 136.085 61.934C136.674 61.5514 137.462 61.7193 137.843 62.3108C138.225 62.9023 138.057 63.6925 137.468 64.0751Z" fill="#2D0404"/>
<path d="M136.975 62.8219L136.534 63.1085L139.584 67.834L140.025 67.5474L136.975 62.8219Z" fill="#2D0404"/>
<path d="M132.754 67.1379C132.165 67.5205 131.377 67.3526 130.996 66.7611C130.615 66.1696 130.782 65.3794 131.372 64.9968C131.961 64.6141 132.749 64.7821 133.13 65.3736C133.513 65.9651 133.344 66.7552 132.754 67.1379Z" fill="#2D0404"/>
<path d="M132.261 65.886L131.82 66.1727L134.871 70.8982L135.312 70.6115L132.261 65.886Z" fill="#2D0404"/>
<path d="M128.041 70.2021C127.452 70.5847 126.664 70.4168 126.283 69.8253C125.901 69.2338 126.069 68.4436 126.658 68.061C127.248 67.6783 128.035 67.8463 128.417 68.4378C128.8 69.0293 128.631 69.8194 128.041 70.2021Z" fill="#2D0404"/>
<path d="M127.55 68.9485L127.109 69.2352L130.16 73.9607L130.601 73.674L127.55 68.9485Z" fill="#2D0404"/>
<path d="M123.329 73.2648C122.74 73.6474 121.952 73.4795 121.571 72.888C121.19 72.2964 121.357 71.5063 121.947 71.1236C122.536 70.741 123.324 70.9089 123.705 71.5005C124.086 72.092 123.919 72.8821 123.329 73.2648Z" fill="#2D0404"/>
<path d="M122.837 72.0127L122.396 72.2994L125.446 77.0249L125.888 76.7382L122.837 72.0127Z" fill="#2D0404"/>
<path d="M118.616 76.3275C118.027 76.7102 117.239 76.5422 116.858 75.9507C116.477 75.3592 116.644 74.569 117.233 74.1864C117.823 73.8037 118.61 73.9717 118.992 74.5632C119.375 75.1547 119.206 75.9449 118.616 76.3275Z" fill="#2D0404"/>
<path d="M118.123 75.0749L117.682 75.3616L120.733 80.0871L121.174 79.8004L118.123 75.0749Z" fill="#2D0404"/>
<path d="M113.903 79.3917C113.314 79.7743 112.526 79.6064 112.145 79.0148C111.763 78.4233 111.931 77.6332 112.52 77.2505C113.11 76.8679 113.897 77.0358 114.279 77.6274C114.661 78.2189 114.493 79.0075 113.903 79.3917Z" fill="#2D0404"/>
<path d="M113.412 78.1372L112.971 78.4238L116.022 83.1494L116.463 82.8627L113.412 78.1372Z" fill="#2D0404"/>
<path d="M109.191 82.4544C108.602 82.8371 107.814 82.6691 107.433 82.0776C107.052 81.4861 107.219 80.6959 107.808 80.3133C108.398 79.9306 109.185 80.0986 109.567 80.6901C109.948 81.2816 109.781 82.0718 109.191 82.4544Z" fill="#2D0404"/>
<path d="M108.698 81.2016L108.257 81.4883L111.308 86.2138L111.749 85.9271L108.698 81.2016Z" fill="#2D0404"/>
<path d="M104.478 85.5171C103.889 85.8997 103.101 85.7318 102.72 85.1403C102.338 84.5488 102.506 83.7586 103.095 83.376C103.685 82.9933 104.472 83.1613 104.854 83.7528C105.236 84.3443 105.068 85.1344 104.478 85.5171Z" fill="#2D0404"/>
<path d="M103.985 84.267L103.544 84.5536L106.595 89.2792L107.036 88.9925L103.985 84.267Z" fill="#2D0404"/>
<path d="M99.7649 88.5813C99.1754 88.964 98.3879 88.796 98.0065 88.2045C97.6252 87.613 97.7925 86.8228 98.3821 86.4402C98.9716 86.0575 99.759 86.2255 100.14 86.817C100.522 87.4085 100.354 88.1972 99.7649 88.5813Z" fill="#2D0404"/>
<path d="M99.2724 87.3314L98.8314 87.618L101.882 92.3436L102.323 92.0569L99.2724 87.3314Z" fill="#2D0404"/>
<path d="M95.0531 91.644C94.4636 92.0266 93.6761 91.8587 93.2948 91.2672C92.9134 90.6757 93.0808 89.8855 93.6703 89.5029C94.2598 89.1202 95.0473 89.2882 95.4287 89.8797C95.81 90.4712 95.6412 91.2613 95.0531 91.644Z" fill="#2D0404"/>
<path d="M94.5605 90.3898L94.1195 90.6765L97.1704 95.402L97.6114 95.1154L94.5605 90.3898Z" fill="#2D0404"/>
<path d="M86.6136 126.629C88.4258 123 88.5947 118.843 89.4258 114.942C90.1347 111.614 89.9571 106.664 92.6732 104.27L90.8916 101.51L90.1521 100.363L88.3705 97.6029C85.0838 99.1117 80.6544 96.9252 77.3371 96.214C73.4507 95.38 69.6006 93.8348 65.5585 94.0115C58.052 94.3387 54.3213 101.314 54.7667 108.161C54.9749 111.352 57.0112 121.074 71.4682 129.826C77.3197 133.371 83.2468 133.37 86.6136 126.629Z" fill="#891B1B"/>
<path d="M89.3065 127.38C91.1187 123.751 91.2875 119.594 92.1187 115.693C92.8275 112.364 92.65 107.415 95.3661 105.021L93.5844 102.261L92.845 101.114L91.0634 98.3537C87.7766 99.8624 83.3473 97.676 80.03 96.9647C76.1435 96.1307 72.2935 94.5855 68.2513 94.7622C60.7448 95.0894 58.7041 100.48 59.1495 107.326C59.3577 110.517 62.854 123.853 74.1596 130.576C80.0402 134.077 85.9397 134.12 89.3065 127.38Z" fill="#510000"/>
<path d="M161.217 52.5789L76.3848 107.719L80.9377 114.772L165.77 59.631L161.217 52.5789Z" fill="#510000"/>
<path d="M89.746 127.611C91.5903 123.85 91.8625 119.552 92.6616 115.496C93.3181 112.166 93.0109 107.837 95.7343 105.357C95.8915 105.214 95.8857 104.938 95.7795 104.771C94.3443 102.55 92.9105 100.327 91.4753 98.1054C91.3676 97.9389 91.1187 97.8206 90.9236 97.9067C88.1522 99.1248 84.9542 97.879 82.2425 97.0684C80.7388 96.6185 79.2017 96.3075 77.685 95.9073C75.9805 95.4589 74.2847 94.9769 72.5526 94.6483C69.4391 94.0568 66.0112 94.0393 63.164 95.6064C60.8161 96.899 59.5105 99.3337 58.9646 101.884C57.9661 106.549 59.1451 111.162 60.9559 115.456C63.6022 121.732 67.9092 127.327 73.7462 130.903C76.3895 132.523 79.5613 133.757 82.7053 133.316C85.9731 132.857 88.3035 130.449 89.746 127.611C90.0284 127.054 89.1667 126.616 88.8829 127.174C87.5379 129.822 85.4142 132.016 82.3575 132.387C79.3895 132.746 76.4521 131.427 73.982 129.914C68.1232 126.326 63.9209 120.424 61.4406 114.086C59.7477 109.763 58.7012 104.806 60.426 100.303C61.4755 97.5635 63.787 95.916 66.6283 95.4282C70.1654 94.8206 73.685 95.8415 77.0751 96.7471C78.3386 97.0844 79.618 97.3503 80.8815 97.6847C82.0314 97.9885 83.1609 98.3653 84.3065 98.6852C86.5219 99.303 89.0241 99.7952 91.2162 98.8312C91.0328 98.7655 90.8494 98.6983 90.6645 98.6326C92.0997 100.854 93.5335 103.077 94.9687 105.298C94.9833 105.103 94.9978 104.908 95.0124 104.713C92.3283 107.156 92.3545 111.322 91.8304 114.646C91.5058 116.707 91.1041 118.763 90.7475 120.819C90.369 123.006 89.8639 125.175 88.8829 127.176C88.6078 127.734 89.4695 128.173 89.746 127.611Z" fill="#E5BA7C"/>
<path d="M72.6064 105.19C71.4885 104.215 68.902 103.871 67.9908 105.182C66.5424 107.261 69.196 108.668 70.9136 108.311C66.7157 112.814 59.56 100.815 66.1727 100.362C65.6749 101.184 65.9413 102.109 66.5395 102.865C67.7593 98.415 71.1305 99.4724 74.5133 100.93C78.6035 102.694 80.9921 102.386 84.1929 99.9631L83.6587 99.8477C77.8961 101.984 71.0548 95.6502 65.3998 98.3156C60.1 100.815 61.854 110.033 67.5483 111.186C70.522 111.788 75.979 108.133 72.6064 105.19Z" fill="#8C0707"/>
<path d="M81.6209 119.153C82.0518 120.575 81.305 123.083 79.7417 123.384C77.2585 123.86 77.0635 120.856 78.0896 119.427C72.2775 121.43 80.2672 132.889 83.3822 127.018C82.4302 127.138 81.6981 126.517 81.2556 125.658C85.8014 126.361 86.2191 122.841 86.2759 119.149C86.3443 114.682 87.6005 112.621 91.1128 110.68L90.9978 111.216C86.698 115.62 89.6631 124.474 84.9266 128.563C80.487 132.394 72.8189 127.019 74.0999 121.333C74.768 118.363 80.3225 114.86 81.6209 119.153Z" fill="#8C0707"/>
<path d="M62.4173 117.609L67.2571 124.63C72.1552 121.754 66.3663 113.502 62.4173 117.609Z" fill="#E5BA7C"/>
<path d="M161.146 53.9003L150.98 60.5079L154.343 65.7164L164.508 59.1088L161.146 53.9003Z" fill="#5B0606"/>
<path d="M154.226 66.2528L150.443 60.3932L161.256 53.3652L165.039 59.2248L154.226 66.2528ZM151.513 60.624L154.454 65.1808L163.971 58.9955L161.029 54.4387L151.513 60.624Z" fill="#DDB96F"/>
<path d="M160.853 59.6352C160.137 60.1011 159.179 59.8952 158.715 59.1766C158.251 58.458 158.456 57.497 159.172 57.0311C159.888 56.5652 160.846 56.7711 161.31 57.4897C161.775 58.2097 161.569 59.1693 160.853 59.6352Z" fill="#2D0404"/>
<path d="M156.419 62.5168C155.703 62.9827 154.745 62.7768 154.281 62.0582C153.817 61.3381 154.022 60.3786 154.738 59.9127C155.454 59.4468 156.412 59.6512 156.876 60.3713C157.341 61.0913 157.136 62.0509 156.419 62.5168Z" fill="#2D0404"/>
<path d="M150.089 67.5453C150.147 67.5147 150.204 67.4825 150.261 67.446C151.147 66.8691 151.418 65.708 150.865 64.8507L150.45 64.208C149.897 63.3507 148.73 63.1243 147.843 63.6998C147.788 63.7363 147.734 63.7757 147.683 63.8166L147.091 62.8979L92.9527 98.0878L96.5451 103.652L150.681 68.464L150.089 67.5453Z" fill="#510000"/>
<path d="M96.4301 104.188L92.4171 97.9739L147.203 62.3649L147.794 63.2806C148.834 62.7154 150.139 63.0163 150.773 63.9992L151.188 64.6418C151.823 65.6248 151.564 66.9421 150.625 67.6636L151.216 68.5794L96.4301 104.188ZM93.4869 98.2017L96.6586 103.115L150.147 68.3486L149.533 67.3964L149.913 67.2007C149.961 67.1758 150.008 67.1495 150.051 67.1203C150.757 66.6617 150.977 65.7372 150.54 65.0625L150.125 64.4198C149.689 63.7436 148.759 63.5669 148.053 64.0269C148.009 64.0562 147.965 64.0868 147.923 64.1204L147.59 64.3877L146.976 63.4354L93.4869 98.2017Z" fill="#DDB96F"/>
<path d="M144.493 64.2614L144.122 64.5028L147.975 70.4713L148.347 70.2299L144.493 64.2614Z" fill="#DDB96F"/>
<path d="M139.844 67.2831L139.472 67.5245L143.326 73.493L143.697 73.2516L139.844 67.2831Z" fill="#DDB96F"/>
<path d="M135.192 70.3027L134.821 70.5441L138.674 76.5126L139.046 76.2712L135.192 70.3027Z" fill="#DDB96F"/>
<path d="M130.543 73.3278L130.171 73.5692L134.025 79.5377L134.396 79.2963L130.543 73.3278Z" fill="#DDB96F"/>
<path d="M125.893 76.3514L125.522 76.5928L129.375 82.5613L129.747 82.3199L125.893 76.3514Z" fill="#DDB96F"/>
<path d="M121.243 79.3721L120.872 79.6135L124.724 85.5808L125.096 85.3394L121.243 79.3721Z" fill="#DDB96F"/>
<path d="M116.594 82.3954L116.222 82.6368L120.075 88.6041L120.446 88.3627L116.594 82.3954Z" fill="#DDB96F"/>
<path d="M111.944 85.4202L111.572 85.6616L115.425 91.6288L115.796 91.3874L111.944 85.4202Z" fill="#DDB96F"/>
<path d="M107.294 88.4393L106.923 88.6807L110.776 94.6492L111.147 94.4078L107.294 88.4393Z" fill="#DDB96F"/>
<path d="M102.643 91.4632L102.272 91.7046L106.125 97.6731L106.496 97.4317L102.643 91.4632Z" fill="#DDB96F"/>
<path d="M97.9929 94.4882L97.6215 94.7296L101.475 100.698L101.846 100.457L97.9929 94.4882Z" fill="#DDB96F"/>
<path d="M78.5486 108.294L77.4137 109.031L80.0934 113.182L81.2283 112.444L78.5486 108.294Z" fill="#DDB96F"/>
<path d="M76.0675 108.925L73.7024 110.462L77.2748 115.995L79.6399 114.458L76.0675 108.925Z" fill="#DDB96F"/>
<path d="M154.601 60.5145L65.7166 117.942L65.7867 118.051L154.671 60.6238L154.601 60.5145Z" fill="#E2CFCF"/>
<path d="M66.2048 118.703L66.1349 118.595L155.016 61.1702L155.086 61.2783L66.2048 118.703Z" fill="#E2CFCF"/>
<path d="M155.446 61.8346L66.5408 119.219L66.6109 119.329L155.516 61.9439L155.446 61.8346Z" fill="#E2CFCF"/>
<path d="M155.833 62.4394L66.991 119.92L67.0612 120.029L155.903 62.5486L155.833 62.4394Z" fill="#E2CFCF"/>
<path d="M156.29 62.5562C155.574 63.0221 154.616 62.8162 154.152 62.0976C153.687 61.379 153.893 60.418 154.609 59.9521C155.325 59.4862 156.283 59.6921 156.747 60.4107C157.211 61.1293 157.007 62.0903 156.29 62.5562Z" fill="#2D0404"/>
<path d="M140.546 77.4316C140.524 77.4754 140.5 77.5192 140.473 77.563C139.866 78.5898 135.698 83.6549 135.698 83.6549C134.843 84.426 134.163 85.4601 132.274 87.1762C132.028 87.3997 131.762 87.6348 131.473 87.8816C130.088 88.6309 129.398 89.0997 127.944 89.1275C126.377 89.1581 128.316 89.275 127.556 88.1781C127.241 87.7239 127.037 86.963 126.947 86.0662C126.76 84.1997 127.075 81.7489 127.947 80.2621C128.002 80.1672 128.059 80.0766 128.118 79.9904C127.74 79.2032 128.094 77.8478 128.188 76.935C128.255 76.288 128.057 75.1123 128.773 74.7705C130.405 73.9921 130.344 77.5879 130.53 78.435C130.621 77.2855 129.746 73.7715 131.34 72.7784C132.842 71.8436 133.693 76.7305 134.062 77.5733C134.561 75.5709 132.519 71.1032 134.338 70.4518C136.559 69.6572 136.289 75.7622 136.91 76.8489C137.2 76.6371 137.517 76.4209 137.789 76.1668C139.453 74.6216 137.559 73.903 137.615 72.3534C137.641 71.5822 138.175 71.1733 138.874 71.6143C139.374 71.9298 139.731 73.1406 139.999 73.6518C140.625 74.8509 141.329 75.9769 140.546 77.4316Z" fill="#9B4342"/>
<path d="M128.574 83.3818C125.98 86.1846 123.752 87.8058 120.792 89.3875C118.517 90.6041 114.098 92.6693 112.851 94.7578C111.49 97.0363 113.105 101.438 115.271 101.612C119.76 101.971 124.402 99.0167 126.578 96.3966C130.57 91.5914 131.476 87.0069 133.163 85.5858L128.574 83.3818Z" fill="#9B4342"/>
<path d="M136.88 77.991C136.354 79.0324 134.539 79.2997 133.685 78.5898C133.239 79.7641 130.899 79.9744 130.143 79.0908C129.728 79.4735 128.66 80.3016 127.947 80.2636C127.145 81.6336 126.814 83.8229 126.913 85.6179C128.891 85.5887 130.868 85.8092 132.769 86.4022C132.85 86.427 132.932 86.4548 133.014 86.4825C134.36 85.171 134.965 84.3165 135.698 83.6564C135.698 83.6564 139.866 78.5913 140.473 77.5646C140.5 77.5207 140.524 77.4769 140.546 77.4331C139.529 78.2364 137.979 78.6088 136.88 77.991Z" fill="#662828"/>
<path d="M90.9964 105.84C90.2773 106.588 90.3181 105.614 90.0837 105.433C90.6689 106.534 89.5248 108.485 88.1158 108.079C87.7955 109.24 86.8814 109.711 85.8261 109.175C84.9455 110.66 82.8116 109.328 81.8101 108.633C81.7868 108.617 81.7636 108.601 81.7388 108.585C80.2628 107.581 78.701 107.217 77.1421 106.394C75.4579 105.504 74.6515 103.82 73.2789 102.62C72.2047 101.681 70.3605 100.892 69.5599 100.07L73.7665 95.9379C76.8422 96.931 78.9514 97.2932 81.9499 96.8799C83.6486 96.6462 84.6573 96.2782 86.3239 96.5834C87.8974 96.8711 88.7591 96.4461 90.286 96.1613C91.7344 97.9651 88.7708 99.4358 86.3516 98.6909C87.1682 99.7893 88.519 100.188 89.551 101.064C89.8217 101.295 90.123 101.703 90.3952 102.193C91.059 103.384 91.5466 105.056 90.9964 105.84Z" fill="#9B4342"/>
<path d="M90.9964 105.84C90.2773 106.588 90.3181 105.614 90.0837 105.433C90.6689 106.534 89.5248 108.485 88.1158 108.079C87.7955 109.24 86.8814 109.711 85.8261 109.175C84.9455 110.66 82.8116 109.328 81.8101 108.633C81.7868 108.617 81.7636 108.601 81.7388 108.585C82.0401 108.625 82.3443 108.627 82.6748 108.504C83.4186 108.228 83.6587 107.564 83.7839 106.867C84.2745 107.178 85.2337 106.883 85.6806 106.518C86.2089 106.087 86.2992 105.291 86.3385 104.646C87.8581 104.632 88.4636 104.05 88.6441 102.532C89.1885 102.804 89.8479 102.599 90.3952 102.19C91.059 103.384 91.5466 105.056 90.9964 105.84Z" fill="#662828"/>
<path d="M61.9486 87.5282C55.8278 87.5297 45.6678 89.8607 52.3242 95.4413C55.116 97.7811 70.9063 102.04 72.5482 101.85L76.1872 96.8084C67.3823 93.7617 66.1101 87.5267 61.9486 87.5282Z" fill="#9B4342"/>
</g>
<defs>
<filter id="filter0_d_69_1254" x="0.440491" y="0.991028" width="197.329" height="179.957" filterUnits="userSpaceOnUse" color-interpolation-filters="sRGB">
<feFlood flood-opacity="0" result="BackgroundImageFix"/>
<feColorMatrix in="SourceAlpha" type="matrix" values="0 0 0 0 0 0 0 0 0 0 0 0 0 0 0 0 0 0 127 0" result="hardAlpha"/>
<feOffset dy="12"/>
<feGaussianBlur stdDeviation="16"/>
<feComposite in2="hardAlpha" operator="out"/>
<feColorMatrix type="matrix" values="0 0 0 0 0.0862745 0 0 0 0 0.0862745 0 0 0 0 0.0862745 0 0 0 0.15 0"/>
<feBlend mode="normal" in2="BackgroundImageFix" result="effect1_dropShadow_69_1254"/>
<feBlend mode="normal" in="SourceGraphic" in2="effect1_dropShadow_69_1254" result="shape"/>
</filter>
</defs>
</svg>
