<svg width="360" height="39" viewBox="0 0 360 39" fill="none" xmlns="http://www.w3.org/2000/svg">
<g clip-path="url(#clip0_88_420)">
<path d="M1.89726 3.45767C1.89726 3.45767 -5.01855 8.09633 -4.57795 20.8643C-4.13735 33.6244 -1.9265 35.3698 2.03888 35.5171C6.00427 35.6645 8.12858 29.8623 8.21513 21.446C8.36461 7.6697 1.89726 3.45767 1.89726 3.45767Z" fill="#FC3B77"/>
<path d="M2.18851 35.9748C2.13344 35.9748 2.07836 35.9748 2.02329 35.9748C-2.42203 35.8119 -4.60929 33.5158 -5.04988 20.8798C-5.49048 8.01099 1.33879 3.2715 1.6299 3.07757C1.78725 2.96897 1.99182 2.96897 2.14917 3.07757C2.42455 3.25598 8.83682 7.58436 8.68733 21.4538C8.61652 27.9541 7.35767 32.6781 5.14681 34.757C4.28135 35.5637 3.29001 35.9748 2.18851 35.9748ZM1.8974 4.03943C0.662154 5.04784 -4.49127 9.93471 -4.11361 20.8487C-3.66515 33.8727 -1.37561 34.9276 2.05476 35.0517C2.95956 35.0827 3.77781 34.757 4.49378 34.0899C6.49221 32.2049 7.68025 27.5973 7.74319 21.4383C7.87695 9.64771 3.07758 5.0013 1.8974 4.03943Z" fill="#AF1049"/>
<path d="M1.62141 37.6193C1.62141 37.6193 -0.361277 21.2288 5.94085 13.2702C12.243 5.31156 20.5357 9.50807 20.5357 9.50807C20.5357 9.50807 15.8858 8.74014 14.9259 15.0621C13.966 21.384 16.3972 40.5747 1.62141 37.6193Z" fill="#FC3B77"/>
<path d="M4.49334 38.3794C3.56494 38.3794 2.57359 38.2786 1.52717 38.0614C1.33048 38.0226 1.18099 37.8597 1.15739 37.6658C1.07871 36.9909 -0.778097 20.9961 5.57123 12.9832C12.0386 4.81512 20.6617 9.05041 20.7483 9.08919C20.9528 9.19003 21.0472 9.4305 20.9764 9.63994C20.9056 9.85713 20.6853 9.989 20.4572 9.95022C20.4414 9.95022 18.978 9.73302 17.6326 10.7104C16.4603 11.5559 15.705 13.0452 15.3903 15.1241C15.225 16.2256 15.1621 17.7227 15.0913 19.468C14.8553 25.2469 14.5248 33.1668 10.0087 36.6574C8.5138 37.8054 6.67273 38.3794 4.49334 38.3794ZM2.04645 37.2314C5.1149 37.7821 7.59327 37.3478 9.42647 35.936C13.6043 32.7091 13.919 25.0375 14.1472 19.437C14.218 17.6684 14.2809 16.1403 14.454 14.9922C14.8081 12.6496 15.6971 10.9586 17.0819 9.96573C17.5539 9.62442 18.0417 9.40723 18.4902 9.25985C15.7915 8.53845 10.5988 8.11957 6.29508 13.5572C3.10861 17.5753 2.133 23.8817 1.86549 28.4583C1.64519 32.6238 1.94417 36.1609 2.04645 37.2314Z" fill="#AF1049"/>
<path d="M1.41715 37.5029C1.41715 37.5029 2.78615 21.0582 -3.81495 13.3245C-10.4161 5.59082 -18.5356 10.0976 -18.5356 10.0976C-18.5356 10.0976 -13.9172 9.16677 -12.7213 15.4421C-11.5254 21.7175 -13.2406 41.0013 1.41715 37.5029Z" fill="#FC3B77"/>
<path d="M-1.85579 38.3795C-3.84635 38.3795 -5.5694 37.8675 -6.99348 36.8436C-11.6355 33.5158 -12.257 25.6193 -12.7134 19.8559C-12.8471 18.1183 -12.9652 16.6212 -13.1776 15.5275C-13.571 13.4564 -14.3892 11.9981 -15.6009 11.1913C-16.9935 10.2683 -18.4254 10.5398 -18.4412 10.5475C-18.6693 10.5941 -18.8896 10.47 -18.9683 10.2605C-19.047 10.0511 -18.9604 9.81061 -18.7559 9.70201C-18.6693 9.65547 -10.2193 5.1099 -3.44509 13.0375C3.20322 20.8177 1.94437 36.8668 1.88929 37.5495C1.87356 37.7511 1.73194 37.914 1.53524 37.9606C0.323598 38.2398 -0.8015 38.3795 -1.85579 38.3795ZM-16.5135 9.77183C-16.0572 9.89594 -15.5694 10.1054 -15.0816 10.4234C-13.6497 11.3698 -12.7055 13.0297 -12.257 15.3568C-12.0367 16.4971 -11.9187 18.0175 -11.785 19.786C-11.3444 25.3711 -10.7386 33.0272 -6.4506 36.1067C-4.57019 37.4564 -2.07609 37.7977 0.976627 37.1383C1.04744 36.0601 1.21266 32.5152 0.811403 28.3497C0.378673 23.7886 -0.840839 17.5288 -4.16893 13.6348C-8.66932 8.3523 -13.8385 8.95735 -16.5135 9.77183Z" fill="#AF1049"/>
<path d="M1.68469 3.49643C0.756288 7.10341 0.858568 11.1758 0.709079 14.8836C0.543855 18.8629 0.504517 22.8423 0.56746 26.8216C0.575328 27.5119 1.66895 27.5119 1.65322 26.8216C1.55094 22.9431 1.54307 19.0646 1.66895 15.1784C1.78697 11.3542 2.44787 7.37491 2.18823 3.55849C2.16463 3.29475 1.7555 3.20943 1.68469 3.49643Z" fill="#AF1049"/>
<path d="M-12.446 11.0362C-7.52076 15.0155 -6.06521 21.0737 -5.27843 27.0155C-4.69621 31.4525 -3.56325 36.3394 1.06303 38.2321C1.78687 38.5268 2.10158 37.3711 1.38561 37.0763C-4.15333 34.788 -3.74421 27.5895 -4.73555 22.757C-5.71903 17.9709 -7.93776 13.4253 -12.1628 10.6794C-12.3831 10.5398 -12.6506 10.8733 -12.446 11.0362Z" fill="#AF1049"/>
<path d="M15.3589 9.69425C13.3132 10.6716 12.0229 12.797 10.9686 14.6975C9.71766 16.9548 8.85219 19.4137 8.08115 21.8572C7.2865 24.3782 6.63347 26.938 5.76801 29.4357C5.30381 30.7699 4.80813 32.0963 4.19444 33.3685C3.60436 34.5941 2.72316 36.7893 1.06305 36.6574C0.0323679 36.5721 0.0323679 38.3252 1.06305 38.2321C3.47847 38.0226 4.61931 35.8197 5.53984 33.8649C6.72788 31.3517 7.5304 28.691 8.27784 26.0149C9.74913 20.7324 10.9293 13.6891 15.6264 10.1519C15.9018 9.95023 15.6815 9.53912 15.3589 9.69425Z" fill="#AF1049"/>
<path d="M0.567525 37.6813C0.229208 38.0226 0.300018 38.6122 0.717012 38.8681C1.19695 39.1629 1.83424 38.8371 1.96013 38.3174C1.90505 38.4027 1.85785 38.4881 1.80277 38.5811C1.81064 38.5656 1.82637 38.5579 1.83424 38.5424C1.99947 38.3717 2.07028 38.139 2.00734 37.9063C1.94439 37.6736 1.76343 37.5339 1.54313 37.4486C0.992387 37.2469 0.441638 37.7744 0.441638 38.2864C0.441638 38.6432 0.717013 38.938 1.07106 38.9845C1.44872 39.031 1.73196 38.8061 1.86571 38.4725C1.91292 38.3484 1.7713 38.6122 1.84998 38.5036C1.81064 38.5579 1.75556 38.6199 1.83424 38.5346C1.56674 38.5656 1.29923 38.6044 1.03172 38.6354C1.04746 38.6432 1.0632 38.651 1.07106 38.6587C0.968783 38.4881 0.874368 38.3174 0.772087 38.1467C0.772087 37.9218 1.03959 37.852 1.20482 37.9373C1.13401 37.8985 1.24416 37.9839 1.25989 37.9994C1.2835 38.0614 1.2835 38.0692 1.26776 38.0149C1.29136 38.0769 1.2835 38.139 1.24416 38.1933C1.3307 37.9916 1.32283 37.7744 1.13401 37.6348C0.968783 37.5262 0.724881 37.5262 0.567525 37.6813Z" fill="#AF1049"/>
</g>
<g clip-path="url(#clip1_88_420)">
<path d="M355.987 0.495789C355.987 0.495789 348.379 5.521 348.864 19.3529C349.349 33.1765 351.781 35.0672 356.143 35.2269C360.504 35.3865 362.841 29.1008 362.936 19.9832C363.101 5.05881 355.987 0.495789 355.987 0.495789Z" fill="#FC3B77"/>
<path d="M356.307 35.7227C356.246 35.7227 356.186 35.7227 356.125 35.7227C351.235 35.5462 348.829 33.0588 348.345 19.3697C347.86 5.42856 355.372 0.294108 355.692 0.0840239C355.866 -0.0336232 356.091 -0.0336232 356.264 0.0840239C356.567 0.277301 363.62 4.96638 363.456 19.9916C363.378 27.0336 361.993 32.1513 359.561 34.4034C358.609 35.2773 357.519 35.7227 356.307 35.7227ZM355.987 1.12604C354.628 2.21848 348.959 7.5126 349.375 19.3361C349.868 33.4454 352.386 34.5882 356.16 34.7227C357.155 34.7563 358.055 34.4034 358.843 33.6807C361.041 31.6386 362.348 26.647 362.417 19.9748C362.564 7.20167 357.285 2.16806 355.987 1.12604Z" fill="#AF1049"/>
<path d="M355.684 37.5042C355.684 37.5042 353.503 19.7479 360.435 11.126C367.367 2.50419 376.489 7.0504 376.489 7.0504C376.489 7.0504 371.374 6.21847 370.319 13.0672C369.263 19.9159 371.937 40.7059 355.684 37.5042Z" fill="#FC3B77"/>
<path d="M358.843 38.3277C357.821 38.3277 356.731 38.2185 355.58 37.9832C355.363 37.9412 355.199 37.7647 355.173 37.5546C355.086 36.8235 353.044 19.4958 360.028 10.8151C367.142 1.96638 376.628 6.55462 376.723 6.59663C376.948 6.70588 377.052 6.96638 376.974 7.19327C376.896 7.42857 376.654 7.57142 376.403 7.52941C376.385 7.52941 374.776 7.29411 373.296 8.35294C372.006 9.2689 371.175 10.8823 370.829 13.1344C370.647 14.3277 370.578 15.9496 370.5 17.8403C370.241 24.1008 369.877 32.6807 364.909 36.4622C363.265 37.7059 361.24 38.3277 358.843 38.3277ZM356.151 37.084C359.526 37.6807 362.252 37.2101 364.269 35.6807C368.865 32.1849 369.211 23.8739 369.462 17.8067C369.54 15.8908 369.609 14.2353 369.799 12.9916C370.189 10.4538 371.167 8.62184 372.69 7.54621C373.209 7.17647 373.746 6.94117 374.239 6.78151C371.271 6 365.559 5.54621 360.824 11.437C357.319 15.7899 356.246 22.6218 355.952 27.5798C355.71 32.0924 356.038 35.9244 356.151 37.084Z" fill="#AF1049"/>
<path d="M355.459 37.3782C355.459 37.3782 356.965 19.563 349.704 11.1849C342.442 2.80674 333.511 7.68909 333.511 7.68909C333.511 7.68909 338.591 6.68069 339.906 13.479C341.222 20.2773 339.335 41.1681 355.459 37.3782Z" fill="#FC3B77"/>
<path d="M351.858 38.3277C349.669 38.3277 347.773 37.7731 346.207 36.6639C341.101 33.0588 340.417 24.5042 339.915 18.2605C339.768 16.3782 339.638 14.7563 339.404 13.5714C338.972 11.3277 338.072 9.74792 336.739 8.87397C335.207 7.87397 333.632 8.16808 333.614 8.17649C333.363 8.22691 333.121 8.09245 333.035 7.86556C332.948 7.63867 333.043 7.37817 333.268 7.26052C333.363 7.2101 342.658 2.28573 350.11 10.874C357.423 19.3025 356.039 36.6891 355.978 37.4286C355.961 37.6471 355.805 37.8235 355.588 37.874C354.256 38.1765 353.018 38.3277 351.858 38.3277ZM335.735 7.33615C336.237 7.47061 336.773 7.6975 337.31 8.04203C338.885 9.06724 339.924 10.8656 340.417 13.3866C340.659 14.6219 340.789 16.2689 340.936 18.1849C341.421 24.2353 342.087 32.5294 346.804 35.8656C348.873 37.3277 351.616 37.6975 354.974 36.9832C355.052 35.8151 355.234 31.9748 354.792 27.4622C354.316 22.521 352.975 15.7395 349.314 11.521C344.363 5.79834 338.677 6.4538 335.735 7.33615Z" fill="#AF1049"/>
<path d="M355.753 0.537821C354.732 4.44538 354.844 8.85715 354.68 12.874C354.498 17.1849 354.455 21.4958 354.524 25.8067C354.533 26.5546 355.736 26.5546 355.718 25.8067C355.606 21.605 355.597 17.4034 355.736 13.1933C355.865 9.05043 356.592 4.7395 356.307 0.605048C356.281 0.319334 355.831 0.226897 355.753 0.537821Z" fill="#AF1049"/>
<path d="M340.209 8.7059C345.627 13.0168 347.228 19.5798 348.094 26.0168C348.734 30.8235 349.98 36.1177 355.069 38.1681C355.865 38.4874 356.212 37.2353 355.424 36.916C349.331 34.437 349.781 26.6387 348.691 21.4034C347.609 16.2185 345.168 11.2941 340.521 8.31935C340.278 8.16808 339.984 8.52943 340.209 8.7059Z" fill="#AF1049"/>
<path d="M370.794 7.2521C368.544 8.31092 367.125 10.6134 365.965 12.6723C364.589 15.1176 363.637 17.7815 362.789 20.4286C361.915 23.1597 361.197 25.9328 360.245 28.6387C359.734 30.084 359.189 31.521 358.514 32.8992C357.865 34.2269 356.895 36.605 355.069 36.4622C353.935 36.3697 353.935 38.2689 355.069 38.1681C357.726 37.9412 358.981 35.5546 359.994 33.437C361.3 30.7143 362.183 27.8319 363.005 24.9328C364.624 19.2101 365.922 11.5798 371.089 7.7479C371.392 7.52941 371.149 7.08403 370.794 7.2521Z" fill="#AF1049"/>
<path d="M354.524 37.5714C354.152 37.9412 354.23 38.5798 354.688 38.8571C355.216 39.1765 355.917 38.8235 356.056 38.2605C355.995 38.3529 355.943 38.4454 355.883 38.5462C355.891 38.5294 355.909 38.521 355.917 38.5042C356.099 38.3193 356.177 38.0672 356.108 37.8151C356.039 37.563 355.84 37.4118 355.597 37.3193C354.991 37.1008 354.386 37.6723 354.386 38.2269C354.386 38.6134 354.688 38.9328 355.078 38.9832C355.493 39.0336 355.805 38.7899 355.952 38.4286C356.004 38.2941 355.848 38.5798 355.935 38.4622C355.891 38.521 355.831 38.5882 355.917 38.4958C355.623 38.5294 355.329 38.5714 355.035 38.605C355.052 38.6134 355.069 38.6219 355.078 38.6303C354.965 38.4454 354.862 38.2605 354.749 38.0756C354.749 37.8319 355.043 37.7563 355.225 37.8487C355.147 37.8067 355.268 37.8992 355.286 37.916C355.312 37.9832 355.312 37.9916 355.294 37.9328C355.32 38 355.312 38.0672 355.268 38.1261C355.364 37.9076 355.355 37.6723 355.147 37.521C354.965 37.4034 354.697 37.4034 354.524 37.5714Z" fill="#AF1049"/>
</g>
<defs>
<clipPath id="clip0_88_420">
<rect width="40" height="36" fill="white" transform="translate(-19 3)"/>
</clipPath>
<clipPath id="clip1_88_420">
<rect width="44" height="39" fill="white" transform="translate(333)"/>
</clipPath>
</defs>
</svg>
