<svg width="235" height="106" viewBox="0 0 235 106" fill="none" xmlns="http://www.w3.org/2000/svg">
<path d="M16.6596 87.787L218.615 87.3187L222.394 82.4892L215.79 64.792L191.918 56.0989H27.0049L7.94867 72.6802L16.6596 87.787Z" fill="#131721"/>
<path d="M233.706 60.7821L231.376 57.6648L227.132 50.3511C227.132 50.3511 224.926 47.3583 222.181 46.1546C222.181 46.1546 201.578 40.4214 174.233 38.8006L134.984 14.6568C134.984 14.6568 128.325 11.664 116.005 11.664C116.005 11.664 61.3941 11.1847 31.3072 16.7569C30.5083 16.9032 29.768 17.2727 29.1744 17.8252L9.94589 35.5992C9.94589 35.5992 4.36828 38.2993 3.4118 42.3715L2.99769 50.3913L0.831878 52.0963V62.4029L1.45487 66.3104L0 67.5543L0.831878 73.2875C0.831878 73.2875 3.13695 82.266 7.39528 85.8478L8.80984 86.5101L14.8602 87.7833H16.6595C16.5203 86.7442 16.4507 85.6832 16.4507 84.6039C16.4507 71.3301 27.2284 60.5662 40.5238 60.5662C53.8229 60.5662 64.597 71.3301 64.597 84.6039C64.597 85.6796 64.5237 86.7406 64.3881 87.7833H163.283H170.828C170.689 86.7442 170.619 85.6832 170.619 84.6039C170.619 71.3301 181.397 60.5662 194.692 60.5662C207.991 60.5662 218.766 71.3301 218.766 84.6039C218.766 85.5186 218.711 86.4223 218.612 87.315L228.711 85.46L234.186 72.0326C234.769 70.602 235.051 69.0617 234.993 67.5177C234.919 65.4432 234.634 62.5602 233.706 60.7821Z" fill="#00678D"/>
<path d="M226.817 49.956C226.117 49.1035 224.31 47.0912 222.177 46.1546C222.177 46.1546 201.575 40.4214 174.229 38.8006L134.98 14.6568C134.98 14.6568 128.322 11.664 116.001 11.664C116.001 11.664 61.3904 11.1847 31.3035 16.7569C30.5046 16.9032 29.7644 17.2727 29.1707 17.8252L9.9459 35.5992C9.9459 35.5992 4.36828 38.2993 3.41181 42.3715L3.40814 42.4556H22.2518L196.964 47.1058L226.817 49.956Z" fill="#047E9C"/>
<path d="M216.12 84.6076C216.12 96.4215 206.529 106 194.692 106C182.859 106 173.265 96.4252 173.265 84.6076C173.265 72.7936 182.859 63.2151 194.692 63.2151C206.529 63.2151 216.12 72.7936 216.12 84.6076Z" fill="#29222C"/>
<path d="M194.692 63.2151C182.859 63.2151 173.265 72.7936 173.265 84.6076C173.265 96.4215 182.859 106 194.692 106C206.529 106 216.12 96.4252 216.12 84.6076C216.12 72.7936 206.529 63.2151 194.692 63.2151ZM208.728 98.6204C206.907 100.439 204.781 101.869 202.418 102.868C199.973 103.9 197.371 104.423 194.692 104.423C192.014 104.423 189.412 103.9 186.967 102.868C184.604 101.869 182.482 100.442 180.657 98.6204C178.832 96.802 177.403 94.68 176.402 92.3201C175.369 89.8761 174.845 87.2821 174.845 84.6076C174.845 81.9331 175.369 79.3354 176.402 76.895C177.403 74.5352 178.832 72.4168 180.657 70.5947C182.478 68.7727 184.604 67.3458 186.967 66.347C189.412 65.3152 192.014 64.792 194.692 64.792C197.371 64.792 199.973 65.3152 202.418 66.347C204.781 67.3458 206.903 68.7727 208.728 70.5947C210.553 72.4168 211.982 74.5352 212.983 76.895C214.016 79.3354 214.54 81.9331 214.54 84.6076C214.54 87.2821 214.016 89.8798 212.983 92.3201C211.982 94.68 210.549 96.802 208.728 98.6204Z" fill="#3F3643"/>
<path d="M194.692 67.9166C185.476 67.9166 177.974 75.4023 177.974 84.6076C177.974 93.8092 185.472 101.299 194.692 101.299C203.909 101.299 211.411 93.8129 211.411 84.6076C211.411 75.4059 203.909 67.9166 194.692 67.9166ZM209.248 84.6076C209.248 86.5686 208.864 88.4748 208.105 90.2639C207.372 91.9945 206.324 93.5494 204.986 94.8849C203.649 96.2203 202.091 97.2667 200.362 97.9984C198.57 98.7558 196.664 99.1399 194.696 99.1399C192.732 99.1399 190.826 98.7558 189.031 97.9984C187.297 97.2667 185.74 96.2166 184.402 94.8849C183.064 93.5494 182.016 91.9945 181.283 90.2639C180.525 88.4748 180.14 86.5723 180.14 84.6076C180.14 82.6465 180.525 80.744 181.283 78.9512C182.016 77.2206 183.068 75.6657 184.402 74.3303C185.74 72.9948 187.297 71.9485 189.031 71.2167C190.823 70.4594 192.728 70.0752 194.696 70.0752C196.664 70.0752 198.57 70.4594 200.362 71.2167C202.095 71.9485 203.653 72.9985 204.986 74.3303C206.324 75.6657 207.372 77.2206 208.105 78.9512C208.864 80.744 209.248 82.6465 209.248 84.6076Z" fill="#3F3643"/>
<path d="M209.241 84.6076C209.223 92.6275 202.692 99.1326 194.656 99.1326C186.619 99.1326 180.122 92.6275 180.144 84.6076C180.162 76.584 186.692 70.0825 194.729 70.0825C202.762 70.0825 209.263 76.584 209.241 84.6076Z" fill="#D0D1D2"/>
<path d="M206.639 84.6076C206.625 91.1933 201.26 96.535 194.663 96.535C188.063 96.535 182.727 91.1933 182.746 84.6076C182.76 78.0183 188.125 72.6802 194.722 72.6802C201.322 72.6802 206.658 78.0183 206.639 84.6076Z" fill="#29222C"/>
<path d="M206.636 85.8589L206.643 83.3526H202.366C202.282 82.8368 202.15 82.3355 201.97 81.8599L205.679 79.7269L204.429 77.5573L200.721 79.6903C200.395 79.2915 200.028 78.9256 199.629 78.5963L201.776 74.901L199.607 73.6498L197.459 77.345C196.983 77.1658 196.484 77.0304 195.964 76.9463L195.975 72.6765H193.465L193.454 76.9463C192.937 77.0304 192.435 77.1658 191.959 77.345L189.829 73.6498L187.653 74.901L189.782 78.5963C189.382 78.922 189.016 79.2878 188.686 79.6903L184.988 77.5573L183.728 79.7269L187.425 81.8599C187.242 82.3355 187.107 82.8368 187.022 83.3526H182.746L182.738 85.8589H187.015C187.099 86.3747 187.231 86.876 187.411 87.3516L183.702 89.4846L184.952 91.6542L188.66 89.5212C188.987 89.92 189.353 90.2859 189.752 90.6152L187.605 94.3105L189.774 95.5617L191.922 91.8665C192.398 92.0457 192.897 92.1811 193.417 92.2652L193.406 96.535H195.916L195.927 92.2652C196.444 92.1811 196.946 92.0457 197.426 91.8665L199.555 95.5617L201.732 94.3105L199.603 90.6152C200.006 90.2859 200.373 89.92 200.699 89.5212L204.396 91.6542L205.657 89.4846L201.959 87.3516C202.143 86.876 202.278 86.3747 202.363 85.8589H206.636Z" fill="#A5A8AB"/>
<path d="M198.346 84.6076C198.342 86.6199 196.701 88.2553 194.685 88.2553C192.666 88.2553 191.035 86.6235 191.042 84.6076C191.046 82.5953 192.688 80.9598 194.703 80.9598C196.719 80.9598 198.35 82.5916 198.346 84.6076Z" fill="#29222C"/>
<path d="M194.692 90.3956C191.497 90.3956 188.899 87.8016 188.899 84.6112C188.899 81.4208 191.501 78.8232 194.692 78.8232C197.888 78.8232 200.486 81.4172 200.486 84.6112C200.486 87.798 197.888 90.3956 194.692 90.3956ZM194.692 79.4451C191.841 79.4451 189.522 81.7611 189.522 84.6076C189.522 87.454 191.841 89.77 194.692 89.77C197.544 89.77 199.863 87.454 199.863 84.6076C199.863 81.7611 197.544 79.4451 194.692 79.4451Z" fill="#D0D1D2"/>
<path d="M196.814 84.6076C196.811 85.7783 195.858 86.7259 194.685 86.7259C193.512 86.7259 192.567 85.7783 192.571 84.6076C192.571 83.4368 193.523 82.4892 194.696 82.4892C195.869 82.4892 196.818 83.4368 196.814 84.6076Z" fill="#CACCCE"/>
<path d="M194.692 77.0194C190.504 77.0194 187.092 80.422 187.092 84.6076C187.092 88.7895 190.5 92.1957 194.692 92.1957C198.885 92.1957 202.293 88.7931 202.293 84.6076C202.293 80.4257 198.881 77.0194 194.692 77.0194ZM201.311 84.6076C201.311 85.5003 201.135 86.3637 200.79 87.1796C200.457 87.9663 199.981 88.6724 199.372 89.2797C198.764 89.8871 198.057 90.3627 197.269 90.6957C196.455 91.0396 195.587 91.2152 194.692 91.2152C193.798 91.2152 192.933 91.0396 192.116 90.6957C191.328 90.3627 190.621 89.8871 190.013 89.2797C189.404 88.6724 188.928 87.9663 188.594 87.1796C188.25 86.3637 188.074 85.5003 188.074 84.6076C188.074 83.7148 188.25 82.8514 188.594 82.0355C188.928 81.2489 189.404 80.5427 190.013 79.9354C190.621 79.3281 191.328 78.8524 192.116 78.5195C192.933 78.1756 193.798 77.9999 194.692 77.9999C195.587 77.9999 196.451 78.1756 197.269 78.5195C198.057 78.8524 198.764 79.3281 199.372 79.9354C199.981 80.5427 200.457 81.2489 200.79 82.0355C201.135 82.8514 201.311 83.7148 201.311 84.6076Z" fill="#D0D1D2"/>
<path d="M194.692 71.1106C187.238 71.1106 181.173 77.1658 181.173 84.6076C181.173 92.0494 187.238 98.1045 194.692 98.1045C202.146 98.1045 208.211 92.0494 208.211 84.6076C208.211 77.1658 202.146 71.1106 194.692 71.1106ZM206.463 84.6076C206.463 86.1954 206.152 87.7321 205.54 89.1809C204.946 90.5822 204.1 91.8372 203.018 92.9165C201.937 93.9958 200.677 94.8446 199.277 95.4337C197.826 96.0447 196.287 96.3557 194.696 96.3557C193.106 96.3557 191.566 96.0447 190.115 95.4337C188.715 94.841 187.455 93.9958 186.374 92.9165C185.293 91.8372 184.442 90.5786 183.849 89.1809C183.237 87.7321 182.925 86.1954 182.925 84.6076C182.925 83.0197 183.237 81.483 183.849 80.0342C184.442 78.6366 185.293 77.378 186.374 76.2986C187.455 75.2193 188.715 74.3705 190.115 73.7778C191.566 73.1668 193.106 72.8558 194.696 72.8558C196.287 72.8558 197.826 73.1668 199.277 73.7778C200.677 74.3705 201.937 75.2157 203.018 76.295C204.1 77.3743 204.95 78.6329 205.54 80.0305C206.152 81.483 206.463 83.0197 206.463 84.6076Z" fill="#D0D1D2"/>
<path d="M61.9474 84.6076C61.9474 96.4215 52.357 106 40.5202 106C28.687 106 19.0929 96.4252 19.0929 84.6076C19.0929 72.7936 28.687 63.2151 40.5202 63.2151C52.357 63.2151 61.9474 72.7936 61.9474 84.6076Z" fill="#29222C"/>
<path d="M40.5238 63.2151C28.6906 63.2151 19.0966 72.7936 19.0966 84.6076C19.0966 96.4215 28.6906 106 40.5238 106C52.3607 106 61.9511 96.4252 61.9511 84.6076C61.9474 72.7936 52.357 63.2151 40.5238 63.2151ZM54.5595 98.6204C52.7345 100.439 50.6126 101.869 48.2489 102.868C45.8046 103.9 43.2027 104.423 40.5238 104.423C37.845 104.423 35.243 103.9 32.7987 102.868C30.435 101.869 28.3132 100.442 26.4882 98.6204C24.6668 96.802 23.234 94.68 22.2335 92.3201C21.2001 89.8761 20.676 87.2821 20.676 84.6076C20.676 81.9331 21.2001 79.3354 22.2335 76.895C23.234 74.5352 24.6668 72.4168 26.4882 70.5947C28.3095 68.7727 30.435 67.3458 32.7987 66.347C35.243 65.3152 37.845 64.792 40.5238 64.792C43.2027 64.792 45.8046 65.3152 48.2489 66.347C50.6126 67.3458 52.7345 68.7727 54.5558 70.5947C56.3808 72.4168 57.81 74.5352 58.8105 76.895C59.8439 79.3354 60.368 81.9331 60.368 84.6076C60.368 87.2821 59.8439 89.8798 58.8105 92.3201C57.8137 94.68 56.3808 96.802 54.5595 98.6204Z" fill="#3F3643"/>
<path d="M40.5238 67.9166C31.3072 67.9166 23.8057 75.4023 23.8057 84.6076C23.8057 93.8092 31.3036 101.299 40.5238 101.299C49.7405 101.299 57.242 93.8129 57.242 84.6076C57.2384 75.4059 49.7405 67.9166 40.5238 67.9166ZM55.0762 84.6076C55.0762 86.5686 54.6914 88.4748 53.9328 90.2639C53.1999 91.9945 52.1518 93.5494 50.8142 94.8849C49.4766 96.2203 47.9191 97.2667 46.1857 97.9984C44.3937 98.7558 42.4844 99.1399 40.5202 99.1399C38.5559 99.1399 36.6503 98.7558 34.8546 97.9984C33.1212 97.2667 31.5637 96.2166 30.2298 94.8849C28.8922 93.5494 27.8441 91.9945 27.1112 90.2639C26.3526 88.4748 25.9678 86.5723 25.9678 84.6076C25.9678 82.6465 26.3526 80.744 27.1112 78.9512C27.8441 77.2206 28.8959 75.6657 30.2298 74.3303C31.5674 72.9948 33.1249 71.9485 34.8546 71.2167C36.6503 70.4594 38.5559 70.0752 40.5202 70.0752C42.4844 70.0752 44.3937 70.4594 46.1857 71.2167C47.9191 71.9485 49.4766 72.9985 50.8142 74.3303C52.1518 75.6657 53.1999 77.2206 53.9328 78.9512C54.6914 80.744 55.0762 82.6465 55.0762 84.6076Z" fill="#3F3643"/>
<path d="M55.0726 84.6076C55.0542 92.6275 48.5238 99.1326 40.4872 99.1326C32.4506 99.1326 25.9532 92.6275 25.9752 84.6076C25.9935 76.584 32.5239 70.0825 40.5605 70.0825C48.5934 70.0825 55.0909 76.584 55.0726 84.6076Z" fill="#D0D1D2"/>
<path d="M52.4707 84.6076C52.4523 91.1933 47.0909 96.535 40.4945 96.535C33.8945 96.535 28.5588 91.1933 28.5771 84.6076C28.5917 78.0183 33.9568 72.6802 40.5532 72.6802C47.1496 72.6802 52.4853 78.0183 52.4707 84.6076Z" fill="#29222C"/>
<path d="M52.467 85.8589L52.4743 83.3526H48.1977C48.1134 82.8368 47.9815 82.3355 47.8019 81.8599L51.5105 79.7269L50.2609 77.5573L46.5522 79.6903C46.2261 79.2915 45.8596 78.9256 45.4602 78.5963L47.6077 74.901L45.4382 73.6498L43.2907 77.345C42.8143 77.1658 42.3122 77.0304 41.7955 76.9463L41.8065 72.6765H39.2962L39.2852 76.9463C38.7685 77.0304 38.2665 77.1658 37.79 77.345L35.6609 73.6498L33.4877 74.901L35.6169 78.5963C35.2175 78.922 34.8473 79.2878 34.5212 79.6903L30.8235 77.5573L29.5629 79.7269L33.2605 81.8599C33.0773 82.3355 32.9417 82.8368 32.8574 83.3526H28.5771L28.5698 85.8589H32.8464C32.9307 86.3747 33.0626 86.876 33.2422 87.3516L29.5336 89.4846L30.7832 91.6542L34.4919 89.5212C34.818 89.92 35.1845 90.2859 35.5839 90.6152L33.4364 94.3105L35.6059 95.5617L37.7534 91.8665C38.2298 92.0457 38.7319 92.1811 39.2486 92.2652L39.2376 96.535H41.7479L41.7589 92.2652C42.2756 92.1811 42.7777 92.0457 43.2541 91.8665L45.3832 95.5617L47.56 94.3105L45.4309 90.6152C45.8303 90.2859 46.2004 89.92 46.5266 89.5212L50.2242 91.6542L51.4849 89.4846L47.7872 87.3516C47.9705 86.876 48.1061 86.3747 48.1904 85.8589H52.467Z" fill="#A5A8AB"/>
<path d="M44.1739 84.6076C44.1702 86.6199 42.5284 88.2553 40.5129 88.2553C38.4936 88.2553 36.8629 86.6235 36.8702 84.6076C36.8739 82.5953 38.5156 80.9598 40.5312 80.9598C42.5504 80.9598 44.1812 82.5916 44.1739 84.6076Z" fill="#29222C"/>
<path d="M40.5238 90.3956C37.3282 90.3956 34.73 87.8016 34.73 84.6112C34.73 81.4208 37.3282 78.8232 40.5238 78.8232C43.7194 78.8232 46.3176 81.4172 46.3176 84.6112C46.3176 87.798 43.7194 90.3956 40.5238 90.3956ZM40.5238 79.4451C37.6727 79.4451 35.353 81.7611 35.353 84.6076C35.353 87.454 37.6727 89.77 40.5238 89.77C43.3749 89.77 45.6946 87.454 45.6946 84.6076C45.691 81.7611 43.3713 79.4451 40.5238 79.4451Z" fill="#D0D1D2"/>
<path d="M42.642 84.6076C42.6383 85.7783 41.6892 86.7259 40.5165 86.7259C39.3438 86.7259 38.3983 85.7783 38.3983 84.6076C38.402 83.4368 39.3548 82.4892 40.5238 82.4892C41.7002 82.4892 42.6457 83.4368 42.642 84.6076Z" fill="#CACCCE"/>
<path d="M40.5238 77.0194C36.3351 77.0194 32.9233 80.422 32.9233 84.6076C32.9233 88.7895 36.3315 92.1957 40.5238 92.1957C44.7126 92.1957 48.1244 88.7931 48.1244 84.6076C48.1207 80.4257 44.7126 77.0194 40.5238 77.0194ZM47.1386 84.6076C47.1386 85.5003 46.9627 86.3637 46.6182 87.1796C46.2847 87.9663 45.8083 88.6724 45.2 89.2797C44.5916 89.8871 43.8843 90.3627 43.0964 90.6957C42.2829 91.0396 41.4144 91.2152 40.5202 91.2152C39.626 91.2152 38.7611 91.0396 37.9439 90.6957C37.156 90.3627 36.4487 89.8871 35.8404 89.2797C35.2321 88.6724 34.7557 87.9663 34.4222 87.1796C34.0777 86.3637 33.9018 85.5003 33.9018 84.6076C33.9018 83.7148 34.0777 82.8514 34.4222 82.0355C34.7557 81.2489 35.2321 80.5427 35.8404 79.9354C36.4487 79.3281 37.156 78.8524 37.9439 78.5195C38.7575 78.1756 39.626 77.9999 40.5202 77.9999C41.4144 77.9999 42.2792 78.1756 43.0964 78.5195C43.8843 78.8524 44.5916 79.3281 45.2 79.9354C45.8083 80.5427 46.2847 81.2489 46.6182 82.0355C46.9627 82.8514 47.1386 83.7148 47.1386 84.6076Z" fill="#D0D1D2"/>
<path d="M40.5238 71.1106C33.0699 71.1106 27.0049 77.1658 27.0049 84.6076C27.0049 92.0494 33.0699 98.1045 40.5238 98.1045C47.9777 98.1045 54.0427 92.0494 54.0427 84.6076C54.0427 77.1658 47.9777 71.1106 40.5238 71.1106ZM52.2947 84.6076C52.2947 86.1954 51.9832 87.7321 51.3712 89.1809C50.7775 90.5822 49.931 91.8372 48.8499 92.9165C47.7688 93.9958 46.5119 94.8446 45.1083 95.4337C43.6571 96.0447 42.1179 96.3557 40.5275 96.3557C38.937 96.3557 37.3979 96.0447 35.9467 95.4337C34.5431 94.841 33.2861 93.9958 32.205 92.9165C31.124 91.8372 30.2738 90.5786 29.6837 89.1809C29.0718 87.7321 28.7603 86.1954 28.7603 84.6076C28.7603 83.0197 29.0718 81.483 29.6837 80.0342C30.2774 78.6366 31.124 77.378 32.205 76.2986C33.2861 75.2193 34.5468 74.3705 35.9467 73.7778C37.3979 73.1668 38.937 72.8558 40.5275 72.8558C42.1179 72.8558 43.6571 73.1668 45.1083 73.7778C46.5082 74.3705 47.7688 75.2157 48.8499 76.295C49.931 77.3743 50.7812 78.6329 51.3712 80.0305C51.9832 81.483 52.2947 83.0197 52.2947 84.6076Z" fill="#D0D1D2"/>
<path d="M194.692 56.8014C209.347 56.8014 221.346 68.1288 222.394 82.4892C222.441 81.8123 222.471 81.1318 222.471 80.4439C222.471 65.1286 210.036 52.711 194.696 52.711C179.356 52.711 166.922 65.1286 166.922 80.4439C166.922 81.1318 166.947 81.8123 166.995 82.4892C168.043 68.1288 180.041 56.8014 194.692 56.8014Z" fill="#047E9C"/>
<path d="M40.5238 56.8014C55.1751 56.8014 67.1769 68.1288 68.225 82.4892C68.2726 81.8123 68.2982 81.1318 68.2982 80.4439C68.2982 65.1286 55.8641 52.711 40.5238 52.711C25.1835 52.711 12.7493 65.1286 12.7493 80.4439C12.7493 81.1318 12.775 81.8123 12.8263 82.4892C13.8707 68.1288 25.8725 56.8014 40.5238 56.8014Z" fill="#047E9C"/>
<path d="M64.3184 80.9598C64.5017 82.1489 64.5969 83.3672 64.5969 84.6075C64.5969 85.6832 64.5236 86.7442 64.388 87.787H163.283H170.828C170.689 86.7479 170.619 85.6869 170.619 84.6075C170.619 83.3672 170.715 82.1489 170.894 80.9598H64.3184Z" fill="#323D48"/>
<path d="M3.77826 80.9598C4.75306 82.8367 5.9624 84.6478 7.39161 85.8515L8.80617 86.5137L14.8565 87.787H16.6559C16.5166 86.7479 16.447 85.6869 16.447 84.6075C16.447 83.3672 16.5423 82.1489 16.7218 80.9598H3.77826Z" fill="#323D48"/>
<path d="M218.491 80.9598C218.674 82.1489 218.766 83.3672 218.766 84.6075C218.766 85.5222 218.711 86.4259 218.612 87.3186L228.711 85.4637L230.547 80.9598H218.491Z" fill="#323D48"/>
<path d="M116.001 11.6639C116.001 11.6639 61.4893 11.1883 31.3841 16.7422C30.5339 16.8996 29.7424 17.2947 29.1084 17.8801L13.0828 32.6247L174.233 38.8006L134.984 14.6568C134.98 14.6568 128.322 11.6639 116.001 11.6639Z" fill="#323D48"/>
<path d="M3.40816 42.4593L2.99405 50.395L2.50665 50.7792C6.46815 50.7316 11.1992 50.4755 11.1992 50.4755C17.7333 49.9559 21.9037 44.0215 21.9037 44.0215C22.7392 43.1178 22.2518 42.4593 22.2518 42.4593H3.40816Z" fill="#A41E23"/>
<path d="M188.389 47.201L160.259 45.6094C159.699 45.5765 159.446 46.2936 159.896 46.6229C161.912 48.1047 163.664 48.6096 163.664 48.6096L179.898 49.7072C183.647 49.8791 186.806 48.7888 188.543 48.0169C188.95 47.8339 188.836 47.2266 188.389 47.201Z" fill="#323D48"/>
<path d="M94.1268 32.3356L90.6344 15.941C90.6344 15.941 118.603 15.5532 127.483 15.941C127.483 15.941 140.283 19.8119 161.615 35.6907L94.1268 32.3356Z" fill="#322A36"/>
<path opacity="0.25" d="M133.049 0L109.016 51.4597H130.561L154.597 0H133.049Z" fill="white"/>
<path opacity="0.25" d="M99.6348 0L75.5983 51.4597H83.2757L107.309 0H99.6348Z" fill="white"/>
<path opacity="0.25" d="M165.214 0L141.177 51.4597H153.861L177.897 0H165.214Z" fill="white"/>
<path opacity="0.25" d="M115.488 0L91.4516 51.4597H96.4062L120.443 0H115.488Z" fill="white"/>
<path opacity="0.25" d="M122.271 0L98.2349 51.4597H101.427L125.46 0H122.271Z" fill="white"/>
<path d="M87.7943 16.0727L89.0879 32.2954L27.7598 30.7002L39.8276 19.5119C39.8276 19.5119 71.0321 16.3361 87.7943 16.0727Z" fill="#322A36"/>
<path opacity="0.25" d="M68.7527 6.56738L44.7162 58.0271H66.2644L90.2972 6.56738H68.7527Z" fill="white"/>
<path opacity="0.25" d="M35.3347 6.56738L11.2982 58.0271H18.9756L43.0121 6.56738H35.3347Z" fill="white"/>
<path opacity="0.25" d="M100.914 6.56738L76.8809 58.0271H89.5643L113.601 6.56738H100.914Z" fill="white"/>
<path opacity="0.25" d="M51.1917 6.56738L27.1552 58.0271H32.1098L56.1463 6.56738H51.1917Z" fill="white"/>
<path opacity="0.25" d="M57.9713 6.56738L33.9384 58.0271H37.1267L61.1632 6.56738H57.9713Z" fill="white"/>
<path d="M162.066 35.0906C151.002 26.8586 142.269 21.901 136.89 19.1936C131.034 16.2447 127.838 15.2641 127.706 15.2239L127.614 15.1983L127.519 15.1946C124.892 15.0812 120.34 15.0226 113.989 15.0226V15.769V15.0226C103.189 15.0226 90.7516 15.1946 90.627 15.1946L89.7145 15.2056L89.9051 16.0983L93.3975 32.493L93.5185 33.0564L94.0938 33.0857L161.582 36.4407L164.041 36.5614L162.066 35.0906ZM94.1268 32.3356L90.6344 15.941C90.6344 15.941 103.065 15.769 113.982 15.769C119.442 15.769 124.521 15.8129 127.479 15.941C127.479 15.941 140.28 19.8119 161.612 35.6907L94.1268 32.3356Z" fill="#131721"/>
<path d="M88.5418 16.0105L88.4869 15.3117L87.7832 15.3227C71.1823 15.5861 40.0657 18.7362 39.7542 18.7692L39.505 18.7948L39.3218 18.9667L27.2504 30.1514L25.9055 31.399L27.7414 31.4466L89.0695 33.0381L89.9014 33.0601L89.8355 32.2295L88.5418 16.0105ZM27.7598 30.7002L39.8275 19.5119C39.8275 19.5119 71.0321 16.3361 87.7942 16.069L89.0879 32.2917L27.7598 30.7002Z" fill="#131721"/>
<path d="M43.298 14.9714C43.298 14.9714 33.7112 13.9433 23.3842 16.0727L22.6329 17.1703C22.6329 17.1703 24.2674 17.8728 32.0365 22.4754L43.298 14.9714Z" fill="#323D48"/>
<path d="M231.376 57.6649L227.132 50.3511C227.132 50.3511 227.022 50.2011 226.82 49.956L196.968 47.1095C196.968 47.1095 198.423 49.162 202.586 51.2146L209.307 52.7146C209.307 52.7146 212.565 53.9147 213.87 55.166L231.643 58.0161L231.376 57.6649Z" fill="#EAE6C6"/>
<path d="M226.78 53.1244C227.26 54.533 227.125 55.8501 226.48 56.0697C225.835 56.2892 224.922 55.3269 224.442 53.9183C223.962 52.5134 224.098 51.1926 224.743 50.9731C225.388 50.7536 226.3 51.7158 226.78 53.1244Z" fill="#D8D6AF"/>
<path d="M223.295 52.6122C223.738 53.9147 223.614 55.1367 223.017 55.3416C222.419 55.5465 221.573 54.6537 221.129 53.3476C220.686 52.0451 220.81 50.8231 221.408 50.6182C222.005 50.4133 222.848 51.306 223.295 52.6122Z" fill="#D8D6AF"/>
<path d="M219.96 52.1512C220.371 53.3549 220.253 54.4855 219.7 54.672C219.147 54.8586 218.366 54.0354 217.956 52.8317C217.545 51.628 217.659 50.4975 218.212 50.3109C218.769 50.1206 219.55 50.9475 219.96 52.1512Z" fill="#D8D6AF"/>
<path d="M216.735 51.7926C217.124 52.9305 217.014 53.9988 216.493 54.1744C215.969 54.3501 215.233 53.5744 214.848 52.4366C214.46 51.2987 214.57 50.234 215.09 50.0547C215.61 49.8755 216.347 50.6548 216.735 51.7926Z" fill="#D8D6AF"/>
<path d="M210.692 48.4157L196.964 47.1058C196.964 47.1058 198.419 49.1584 202.582 51.2109L209.303 52.711C209.303 52.711 212.561 53.911 213.866 55.1623L214.163 55.2099L210.692 48.4157Z" fill="#F69220"/>
<path d="M231.376 57.6649L227.132 50.3511C227.132 50.3511 227.022 50.2011 226.82 49.956L196.968 47.1095C196.968 47.1095 198.423 49.162 202.586 51.2146L209.307 52.7146C209.307 52.7146 212.565 53.9147 213.87 55.166L231.643 58.0161L231.376 57.6649ZM214.093 54.6977C212.671 53.4317 209.608 52.2939 209.476 52.2463L209.443 52.2353L209.41 52.228L202.751 50.7389C200.479 49.6121 199.039 48.4852 198.229 47.7278L226.56 50.4316C226.637 50.5267 226.689 50.5962 226.714 50.6255L230.617 57.3466L214.093 54.6977Z" fill="#414141"/>
<path opacity="0.3" d="M227.128 50.3511C227.128 50.3511 227.018 50.2011 226.817 49.956L196.964 47.1095C196.964 47.1095 197.379 47.6912 198.39 48.5437L229.382 54.2367L227.128 50.3511Z" fill="white"/>
<path opacity="0.21" d="M99.6238 45.4046L99.7227 42.13C99.7374 41.6251 100.133 41.23 100.602 41.241L111.974 41.5739C112.443 41.5886 112.813 42.0056 112.798 42.5105L112.699 45.7851C112.685 46.29 112.289 46.6851 111.82 46.6705L100.448 46.3376C99.9792 46.3302 99.6091 45.9095 99.6238 45.4046Z" fill="#414141"/>
<path d="M100.514 44.2886L111.886 44.6216C112.355 44.6362 112.751 44.2374 112.765 43.7325L112.802 42.5105C112.817 42.0056 112.45 41.5885 111.977 41.5739L100.606 41.2409C100.137 41.2263 99.7411 41.6251 99.7264 42.13L99.6898 43.352C99.6751 43.8532 100.042 44.274 100.514 44.2886Z" fill="#182127"/>
<path d="M3.30188 44.4789L2.99405 50.3913L2.50665 50.7755C3.43748 50.7645 4.40861 50.7426 5.35409 50.7133C7.58221 48.7522 8.51303 46.3521 8.89049 44.4789H3.30188Z" fill="#EAE6C6"/>
<path d="M22.2518 42.4593H3.40816L2.99405 50.395L2.50665 50.7792C6.46815 50.7316 11.1992 50.4755 11.1992 50.4755C17.7333 49.9559 21.9037 44.0215 21.9037 44.0215C22.7392 43.1178 22.2518 42.4593 22.2518 42.4593ZM21.5372 43.6813L21.5152 43.7069L21.4969 43.7325C21.4566 43.791 17.3778 49.4767 11.1662 49.9742C10.983 49.9852 7.10214 50.1901 3.50344 50.2596L3.88457 42.9532H21.8964C21.8964 43.1178 21.8304 43.3666 21.5372 43.6813Z" fill="#414141"/>
<path d="M64.3184 67.9165L164.8 71.5094V74.0851H66.8837L64.3184 67.9165Z" fill="#047E9C"/>
<path opacity="0.4" d="M164.536 38.3652L163.539 38.453L164.8 52.7329V78.3219H107.03C106.44 77.7877 103.871 75.2632 101.064 69.5959C98.1176 63.6505 94.3064 52.9341 92.8552 35.6468L91.8584 35.7309C93.3279 53.2415 97.2125 64.1005 100.214 70.1301C103.49 76.7157 106.407 79.1085 106.528 79.2073L106.667 79.3171H165.8V52.7073L164.536 38.3652Z" fill="#8F9495"/>
<path d="M222.306 64.5359C222.936 67.2507 224.057 72.5155 224.365 76.8182C224.391 77.1657 224.68 77.4292 225.028 77.4292H228.261C228.656 77.4292 229.034 77.2718 229.312 76.9901C230.419 75.8706 232.922 72.4241 232.101 64.7115C232.101 64.7115 231.812 63.4017 230.874 63.131L223.746 62.8017C222.811 62.7651 222.093 63.6249 222.306 64.5359Z" fill="#323D48"/>
<path d="M161.615 35.6907C156.793 32.1015 152.406 29.127 148.503 26.6683L149.21 35.0724L161.615 35.6907Z" fill="#323D48"/>
<g opacity="0.2">
<path d="M218.766 84.6076C218.766 85.5222 218.711 86.4259 218.612 87.3187L228.711 85.4637L234.186 72.0362C234.769 70.6057 235.051 69.0654 234.993 67.5214C234.923 65.575 234.67 62.9261 233.875 61.1333H199.885C210.685 63.5041 218.766 73.1156 218.766 84.6076Z" fill="#8F9495"/>
<path d="M189.5 61.1333H45.7166C56.5164 63.5041 64.5969 73.1119 64.5969 84.6076C64.5969 85.6832 64.5236 86.7442 64.3881 87.787H163.283H170.828C170.689 86.7479 170.619 85.6869 170.619 84.6076C170.619 73.1156 178.7 63.5041 189.5 61.1333Z" fill="#8F9495"/>
<path d="M0.831878 73.2875C0.831878 73.2875 3.13695 82.266 7.39528 85.8478L8.80984 86.5101L14.8602 87.7833H16.6595C16.5203 86.7442 16.4507 85.6832 16.4507 84.6039C16.4507 73.1119 24.5349 63.5005 35.3347 61.1296H0.831878V62.3955L1.45487 66.303L0 67.5543L0.831878 73.2875Z" fill="#8F9495"/>
</g>
<g opacity="0.4">
<path d="M127.486 15.941C124.525 15.8129 119.446 15.769 113.989 15.769C103.072 15.769 90.6417 15.941 90.6417 15.941L94.1341 32.3356L161.623 35.6907C140.283 19.8155 127.486 15.941 127.486 15.941ZM91.3673 16.5264C94.1781 16.4898 104.692 16.3654 113.986 16.3654C120.252 16.3654 124.76 16.4203 127.38 16.5337C127.875 16.691 131.023 17.7447 136.325 20.4192C141.39 22.973 149.467 27.5391 159.68 35.0065L94.6106 31.7722L91.3673 16.5264Z" fill="#8F9495"/>
<path d="M39.8276 19.5119L27.7598 30.7002L89.0842 32.2917L87.7906 16.069C71.0321 16.3361 39.8276 19.5119 39.8276 19.5119ZM29.2294 30.1441L40.0841 20.0826C42.7446 19.8155 71.2777 16.9837 87.2446 16.6727L88.4393 31.6807L29.2294 30.1441Z" fill="#8F9495"/>
</g>
<path d="M145.406 31.5783V25.7939C145.406 25.7939 145.491 24.8609 147.191 24.8609C147.191 24.8609 150.922 25.2926 152.168 27.0159C152.168 27.0159 153.908 30.0343 154.366 33.5174C154.366 33.5174 153.908 34.9919 152.871 34.9187C152.871 34.9187 149.097 34.7028 147.356 33.8394C147.356 33.843 145.406 32.7308 145.406 31.5783Z" fill="#00678D"/>
<path d="M147.187 24.8609C147.022 24.8609 146.876 24.8682 146.74 24.8865C147.792 26.1597 150.801 30.1258 151.662 34.8162C152.373 34.8931 152.868 34.9223 152.868 34.9223C153.905 34.9955 154.363 33.5211 154.363 33.5211C153.905 30.038 152.164 27.0195 152.164 27.0195C150.922 25.2926 147.187 24.8609 147.187 24.8609Z" fill="#047E9C"/>
</svg>
