<svg width="76" height="89" viewBox="0 0 76 89" fill="none" xmlns="http://www.w3.org/2000/svg">
<path d="M36.1449 44.9994C36.1449 44.9994 34.9769 43.5174 37.166 41.8155C39.3524 40.115 41.7815 43.7562 38.7701 46.9637C35.756 50.1726 29.6095 46.6269 30.9454 40.1902C32.28 33.7509 39.2303 30.7594 44.6027 30.6835C49.9723 30.6091 52.4992 32.5015 55.4664 30.1676C58.431 27.8352 56.7307 25.0409 54.9787 24.9453C54.9787 24.9453 58.1138 23.1956 60.665 27.6896C60.665 27.6896 63.0229 25.3563 65.8885 25.3792C65.8885 25.3792 67.3244 28.7316 64.0183 32.9349C64.0183 32.9349 67.2272 32.3013 68.6104 35.3132C68.6104 35.3132 64.4068 35.0462 61.9506 37.3076C59.497 39.5677 55.1471 40.7103 48.3906 38.9899C41.634 37.2695 36.2638 35.5231 34.0273 40.5274C32.035 44.994 36.1449 44.9994 36.1449 44.9994Z" fill="#FFD217"/>
<path d="M32.5662 36.007C31.6712 37.1994 31.0127 38.5799 30.6906 40.1378C30.3301 41.8789 30.4819 43.5504 31.1293 44.9736C31.7057 46.2393 32.6559 47.265 33.8124 47.8645C35.6637 48.8281 37.6349 48.5489 38.958 47.143C40.8216 45.1593 40.7388 42.9009 39.7199 41.7812C38.9834 40.9723 37.9184 40.9077 37.0083 41.6143C36.1601 42.2755 35.6848 42.9865 35.5932 43.7348C35.5448 44.1239 35.6136 44.4561 35.7017 44.7001C35.2133 44.6179 34.4429 44.3915 34.0321 43.7587C33.5772 43.0534 33.6573 42.0047 34.2659 40.6396C36.2766 36.1363 41.0601 37.3711 47.1174 38.9374C47.514 39.0396 47.9188 39.1445 48.3303 39.2492C56.0361 41.2129 60.0884 39.3861 62.1279 37.506C64.4729 35.346 68.5555 35.5765 68.5949 35.5801C68.6856 35.5845 68.7719 35.5469 68.8238 35.4691C68.8744 35.3954 68.8828 35.2992 68.8466 35.2157C67.7675 32.8675 65.6197 32.6114 64.5719 32.6401C67.4814 28.5728 66.1831 25.415 66.126 25.2776C66.0843 25.1833 65.9942 25.1207 65.8927 25.122C63.455 25.1035 61.4122 26.6858 60.7257 27.2842C58.1048 22.9724 54.8855 24.7041 54.8532 24.7207C54.7523 24.7761 54.7022 24.8904 54.7265 25.0038C54.7535 25.1158 54.8492 25.1959 54.9617 25.2027C55.715 25.2439 56.4522 25.8755 56.7135 26.7009C57.0605 27.7987 56.5461 28.9893 55.302 29.9666C53.4822 31.4001 51.8749 31.1687 49.4443 30.8198C48.0798 30.6234 46.5281 30.4008 44.5933 30.4265C40.1444 30.49 35.2684 32.4038 32.5662 36.007ZM39.0091 46.2827C38.8824 46.4534 38.7408 46.6216 38.5815 46.7887C37.4243 48.0208 35.687 48.2579 34.0496 47.4055C31.3441 45.9999 30.6656 42.7955 31.1969 40.2415C32.4417 34.2431 38.8857 31.0221 44.606 30.9407C46.5001 30.9156 48.0287 31.133 49.3756 31.3283C51.8469 31.6835 53.6306 31.9398 55.6248 30.3689C57.6432 28.7787 57.4054 27.1651 57.2073 26.542C56.9783 25.8192 56.4664 25.2282 55.8467 24.9174C56.8682 24.7185 58.7629 24.8599 60.442 27.8114C60.4807 27.88 60.5503 27.9293 60.6303 27.9392C60.7103 27.9491 60.7899 27.9251 60.8462 27.8689C60.8689 27.847 63.0652 25.7091 65.7076 25.6359C65.9242 26.3345 66.5752 29.2604 63.8164 32.7736C63.8138 32.7749 63.8151 32.7776 63.8124 32.779C63.7498 32.8623 63.7443 32.9775 63.7982 33.0689C63.8547 33.1589 63.9623 33.2091 64.0663 33.1862C64.1838 33.1631 66.8243 32.6824 68.1825 35.0435C67.0138 35.0425 63.8364 35.2209 61.7781 37.1175C59.8298 38.9099 55.9389 40.6469 48.4571 38.7414C48.0497 38.638 47.645 38.5331 47.2484 38.4309C40.9561 36.8051 35.9879 35.5224 33.7976 40.4245C33.1111 41.9624 33.0451 43.1775 33.6034 44.0373C34.3836 45.2423 36.0764 45.2561 36.1482 45.2566C36.2471 45.2568 36.3372 45.2002 36.3795 45.1104C36.4231 45.0232 36.4124 44.9164 36.352 44.8386C36.3093 44.7823 35.3877 43.5274 37.3285 42.018C38.0183 41.4792 38.792 41.5201 39.342 42.1255C40.1209 42.984 40.2188 44.6696 39.0091 46.2827Z" fill="#D37F07"/>
<path d="M37.3503 46.0438C36.9084 46.0057 36.5099 45.8534 36.176 45.5554C35.9134 45.323 35.5873 44.9938 35.7022 44.6216C35.7322 44.521 35.8564 44.4843 35.9448 44.5171C36.229 44.6194 36.3438 44.9483 36.5587 45.1475C36.8119 45.3814 37.1199 45.5564 37.4449 45.6717C37.6543 45.7478 37.5644 46.0629 37.3503 46.0438Z" fill="#D37F07"/>
<path d="M59.0481 33.9441C60.1137 33.348 61.2621 32.9987 62.4636 32.799C63.5206 32.6227 64.7955 32.4465 65.8454 32.7197C66.0735 32.7792 66.0044 33.128 65.7949 33.1575C64.7227 33.3042 63.6259 33.1913 62.5445 33.3598C61.3929 33.5373 60.2713 33.866 59.1539 34.196C58.9852 34.2454 58.892 34.0312 59.0481 33.9441Z" fill="#D37F07"/>
<path d="M59.1344 34.0256C59.565 32.9565 60.1223 31.9617 60.4399 30.8451C60.6092 30.2542 60.7266 29.6288 60.6775 29.0107C60.6301 28.4156 60.3633 27.9436 60.1756 27.3935C60.1153 27.2169 60.3215 27.0086 60.4843 27.1529C62.3471 28.7675 60.6553 32.7392 59.3307 34.1357C59.249 34.2219 59.0817 34.1549 59.1344 34.0256Z" fill="#D37F07"/>
<path d="M65.6699 25.6485C64.1792 28.7405 62.3201 31.7055 59.7261 33.997C59.4902 34.2069 59.1878 33.8179 59.4237 33.608C62.0019 31.3519 63.6129 28.3614 65.4845 25.5464C65.5512 25.4509 65.7201 25.5409 65.6699 25.6485Z" fill="#D37F07"/>
<path d="M32.0573 41.9532C32.0573 41.9532 31.8712 37.4162 37.074 34.9531C42.2768 32.4899 48.3143 35.3939 52.7022 35.5558C57.0915 35.7204 60.0532 30.537 58.8326 27.5367C58.8326 27.5367 58.3139 31.313 54.8505 32.5372C51.3885 33.7641 45.2239 30.8778 40.352 32.4355C35.4827 33.9918 30.706 37.1241 32.0573 41.9532Z" fill="#FFA21A"/>
<path d="M63.57 34.3197C63.57 34.3197 61.5804 34.5233 59.0275 36.1401C56.4745 37.757 52.4975 37.884 47.1663 36.7098C47.1663 36.7098 50.1147 38.9911 54.0805 39.0673C58.0463 39.1436 59.1757 37.7318 62.2816 36.038C65.3903 34.3428 67.1493 34.8161 67.1493 34.8161C67.1493 34.8161 66.0675 34.0045 63.57 34.3197Z" fill="#FFEFA1"/>
<path d="M36.6291 44.4135C36.6291 44.4135 34.877 43.713 33.8647 46.2945C32.853 48.8729 37.033 50.1714 39.2564 46.375C41.4805 42.5756 36.3393 37.6848 30.5445 40.7888C24.7466 43.8921 23.8457 51.4051 25.2943 56.579C26.7434 61.75 29.2739 63.6375 27.8759 67.1442C26.4784 70.6479 23.317 69.8085 22.7291 68.1553C22.7291 68.1553 21.9389 71.6575 26.9714 72.8317C26.9714 72.8317 25.4012 75.7538 26.2347 78.4957C26.2347 78.4957 29.8565 78.9234 32.9516 74.5624C32.9516 74.5624 33.2525 77.8194 36.5329 78.2931C36.5329 78.2931 35.0865 74.3371 36.5598 71.3411C38.0325 68.348 37.8966 63.8525 34.3333 57.8597C30.77 51.8669 27.5744 47.2111 31.7405 43.649C35.4607 40.4705 36.6291 44.4135 36.6291 44.4135Z" fill="#FFD217"/>
<path d="M25.048 56.6432C25.5713 58.506 26.2212 59.9306 26.7989 61.1842C27.8218 63.4165 28.4994 64.8895 27.6393 67.0437C27.0514 68.5131 26.0552 69.3436 24.907 69.3222C24.0414 69.3053 23.2269 68.7772 22.9741 68.0664C22.9363 67.9574 22.8294 67.8878 22.7167 67.8971C22.6016 67.903 22.5056 67.9864 22.4811 68.0989C22.4743 68.1346 21.7251 71.7124 26.6026 73.005C26.2231 73.8328 25.281 76.2396 25.992 78.5728C26.0226 78.6711 26.1076 78.7428 26.2074 78.7525C26.3548 78.7714 29.7545 79.1198 32.8189 75.1784C33.0911 76.192 33.9456 78.1764 36.4996 78.5488C36.5894 78.5628 36.6793 78.5275 36.7362 78.4551C36.7961 78.3833 36.8077 78.29 36.7778 78.2041C36.7638 78.1645 35.3861 74.3172 36.7936 71.4566C38.0192 68.9682 38.6238 64.5644 34.5583 57.73C34.3437 57.3686 34.1285 57.0101 33.9158 56.6552C30.7013 51.2898 28.1595 47.0513 31.9091 43.8476C33.0465 42.8744 34.032 42.5041 34.8344 42.7402C35.5581 42.952 35.9928 43.6297 36.21 44.0749C35.951 44.0595 35.6159 44.0881 35.2535 44.2441C34.5617 44.5439 34.0145 45.201 33.6205 46.2018C33.2005 47.2746 33.564 48.2779 34.5484 48.7551C35.9102 49.4182 38.1002 48.8551 39.4749 46.5061C40.4517 44.8395 40.1583 42.8694 38.7099 41.3668C37.8068 40.4303 36.5546 39.8065 35.1775 39.6121C33.6292 39.3943 31.9831 39.7219 30.4154 40.5608C29.0119 41.3138 27.8749 42.3333 26.9847 43.5293C24.3007 47.1394 23.8461 52.3578 25.048 56.6432ZM34.7762 48.2868C34.0399 47.9308 33.7816 47.2004 34.103 46.3862C35.0011 44.0974 36.4685 44.6265 36.5316 44.6509C36.6234 44.6869 36.7259 44.6663 36.8001 44.6003C36.8743 44.5343 36.903 44.4319 36.8748 44.3371C36.854 44.2684 36.3614 42.6488 34.9847 42.2417C34.0021 41.9498 32.8554 42.3571 31.5749 43.451C27.4936 46.9399 30.1337 51.342 33.4718 56.9158C33.6821 57.2672 33.8973 57.6257 34.1119 57.9872C38.061 64.6237 37.4969 68.8471 36.3266 71.2228C35.0905 73.7338 35.8186 76.8347 36.1511 77.9522C33.502 77.3183 33.2154 74.6497 33.2042 74.5305C33.1937 74.4237 33.1187 74.3323 33.0158 74.3066C32.9134 74.2778 32.8045 74.3157 32.7418 74.4023C32.7412 74.4053 32.7383 74.4048 32.7377 74.4077C30.1495 78.0484 27.1591 78.2526 26.4277 78.2427C25.7497 75.6877 27.1781 72.9759 27.1927 72.9479C27.2307 72.8781 27.2346 72.7925 27.199 72.721C27.1668 72.647 27.0999 72.5942 27.0231 72.5765C23.7163 71.805 23.0448 70.0249 22.9463 68.9889C23.4198 69.4952 24.1315 69.8188 24.8897 69.8337C25.5404 69.8467 27.1582 69.6184 28.1118 67.2323C29.0537 64.8749 28.2998 63.2363 27.2623 60.9673C26.6936 59.7308 26.0522 58.3263 25.54 56.5026C23.9981 50.9934 25.262 43.904 30.6628 41.0086C32.9613 39.7788 36.2273 39.5192 38.3415 41.7158C39.6221 43.0478 39.8872 44.7783 39.0332 46.237C38.9187 46.434 38.7939 46.6199 38.6691 46.7903C37.4664 48.4138 35.8226 48.7943 34.7762 48.2868Z" fill="#D37F07"/>
<path d="M37.9721 45.2735C37.8104 44.8605 37.5515 44.5214 37.1712 44.2856C36.8739 44.0995 36.4659 43.88 36.1414 44.0957C36.0534 44.1529 36.0534 44.2824 36.1099 44.3578C36.2884 44.6014 36.6364 44.6184 36.8883 44.7681C37.1843 44.9447 37.4394 45.1906 37.642 45.4696C37.7742 45.6489 38.051 45.4735 37.9721 45.2735Z" fill="#D37F07"/>
<path d="M32.5124 69.5068C32.2425 70.6977 32.2326 71.898 32.3814 73.1069C32.5115 74.1704 32.7036 75.4431 33.2629 76.3726C33.3846 76.5746 33.6995 76.4095 33.6685 76.2002C33.5056 75.1304 33.0868 74.1105 32.9422 73.0256C32.7862 71.8708 32.7839 70.7021 32.7839 69.537C32.7835 69.3612 32.5512 69.3355 32.5124 69.5068Z" fill="#D37F07"/>
<path d="M32.6152 69.5665C31.7117 70.2821 30.9154 71.0984 29.9345 71.7192C29.4158 72.0488 28.8491 72.3386 28.2425 72.4665C27.6583 72.5896 27.1301 72.4674 26.5493 72.4431C26.3629 72.4353 26.2216 72.692 26.406 72.8073C28.4821 74.1366 31.812 71.3894 32.7763 69.7235C32.8359 69.6208 32.7236 69.4823 32.6152 69.5665Z" fill="#D37F07"/>
<path d="M26.4316 78.2065C28.9749 75.9012 31.2921 73.2786 32.7553 70.1419C32.8898 69.8561 32.4311 69.6763 32.2966 69.962C30.8629 73.0735 28.4504 75.4684 26.2812 78.0576C26.2079 78.1515 26.3427 78.2851 26.4316 78.2065Z" fill="#D37F07"/>
<path d="M32.5505 41.3527C32.5505 41.3527 28.1466 42.459 27.2576 48.1463C26.3685 53.8337 30.8634 58.8017 32.2612 62.9642C33.662 67.1272 29.5295 71.4355 26.3063 71.1145C26.3063 71.1145 29.7812 69.5476 29.9745 65.8793C30.1679 62.211 25.6546 57.1131 25.7684 52.0025C25.8851 46.8924 27.5365 41.4242 32.5505 41.3527Z" fill="#FFA21A"/>
<path d="M34.1531 73.7371C34.1531 73.7371 33.785 71.7713 34.6127 68.8649C35.4405 65.9586 34.4361 62.1084 31.8003 57.328C31.8003 57.328 34.8231 59.5097 36.0193 63.2915C37.2154 67.0734 36.1812 68.5564 35.4362 72.0148C34.6913 75.4733 35.6428 77.0293 35.6428 77.0293C35.6428 77.0293 34.5581 76.2216 34.1531 73.7371Z" fill="#FFEFA1"/>
<path d="M32.0794 38.4426L32.0837 37.6568L33.3917 37.4602C40.6255 36.3657 46.4454 41.4113 46.3877 48.7272L46.3786 50.0498L45.6014 50.1655C38.0768 51.3044 32.0213 46.0546 32.0794 38.4426Z" fill="#5FB402"/>
<path d="M46.5775 50.2223C46.6172 50.1765 46.6408 50.1169 46.6406 50.0525L46.6496 48.7299C46.6761 45.114 45.3079 41.924 42.7947 39.7452C40.2815 37.5663 36.9297 36.6643 33.3541 37.2033L32.0461 37.3998C31.9209 37.4195 31.8257 37.5293 31.824 37.656L31.8174 38.4398C31.7881 42.1976 33.2127 45.5166 35.8243 47.7807C38.4358 50.0448 41.9233 50.9843 45.6389 50.4225L46.4161 50.3068C46.4841 50.2976 46.5378 50.2681 46.5775 50.2223ZM32.3444 37.8828L33.4315 37.7192C36.852 37.2021 40.0569 38.061 42.4535 40.1387C44.8501 42.2164 46.1548 45.2672 46.1279 48.7264L46.1201 49.8258L45.5618 49.9108C41.999 50.4488 38.6606 49.5544 36.1657 47.3914C33.6708 45.2284 32.312 42.0507 32.3394 38.4476L32.3444 37.8828Z" fill="#487A06"/>
<path d="M46.2008 50.2321C44.9968 49.5649 43.9502 48.5174 42.8902 47.6424C41.7824 46.7302 40.6747 45.8179 39.5689 44.9033C38.4632 43.9887 37.3633 43.0673 36.2596 42.1504C35.1375 41.2177 33.8276 40.3306 32.8555 39.2434C32.6295 38.9913 32.8647 38.4659 33.2213 38.6829C34.4057 39.4051 35.4434 40.449 36.5066 41.3387C37.6519 42.2955 38.7991 43.2501 39.9444 44.2069C41.0876 45.166 42.2269 46.1297 43.3682 47.091C44.416 47.9754 45.6326 48.8177 46.5063 49.8798C46.6589 50.0641 46.4041 50.3442 46.2008 50.2321Z" fill="#487A06"/>
<path d="M45.5308 46.3612C44.8545 46.3559 44.1769 46.2734 43.5015 46.2209C42.7614 46.1643 41.9834 46.1792 41.2563 46.0337C40.9779 45.9807 40.9968 45.5523 41.2852 45.5338C41.9602 45.4898 42.6622 45.6134 43.3332 45.6942C44.0734 45.7829 44.8267 45.875 45.5489 46.0723C45.6958 46.1155 45.7048 46.3638 45.5308 46.3612Z" fill="#487A06"/>
<path d="M43.8457 43.5738C42.1399 43.6979 40.4641 43.7319 38.7623 43.9437C38.3582 43.9941 38.3253 43.3805 38.7181 43.3202C40.3581 43.0549 42.2279 42.9727 43.8623 43.3236C43.9974 43.3526 43.9929 43.5611 43.8457 43.5738Z" fill="#487A06"/>
<path d="M41.6783 40.5525C39.6027 40.5164 37.5601 40.7934 35.5471 41.2764C35.1883 41.3621 34.9915 40.8268 35.3596 40.7211C37.431 40.1244 39.5649 40.0148 41.694 40.2896C41.8393 40.3114 41.831 40.5566 41.6783 40.5525Z" fill="#487A06"/>
<path d="M42.1376 49.3788C41.6625 48.3697 41.4338 47.1735 41.2317 46.0806C41.1827 45.8137 41.6436 45.7164 41.7034 45.9846C41.9442 47.0791 42.2715 48.2124 42.3809 49.3292C42.3938 49.4806 42.1934 49.4992 42.1376 49.3788Z" fill="#487A06"/>
<path d="M39.5614 49.3612C38.5538 47.8345 38.5392 45.786 38.5492 44.0233C38.5504 43.7078 39.0389 43.6664 39.0446 43.9879C39.0804 45.8224 39.1931 47.499 39.7893 49.2462C39.8357 49.3867 39.6408 49.4822 39.5614 49.3612Z" fill="#487A06"/>
<path d="M36.2999 46.7101C35.7471 44.8482 35.6133 43.025 35.3638 41.1135C35.3095 40.6817 36.0385 40.6725 35.9888 41.1504C35.7974 42.9281 36.1815 44.8922 36.5954 46.6096C36.6435 46.8036 36.3588 46.9055 36.2999 46.7101Z" fill="#487A06"/>
<path d="M36.4347 32.2036C36.4347 32.2036 39.3364 29.277 45.9818 28.51C52.6272 27.7429 52.4282 26.2999 53.1806 24.5958C53.1806 24.5958 56.4095 29.0262 48.7583 36.179C41.1091 43.3295 32.8425 36.3471 32.8425 36.3471C32.8425 36.3471 33.3018 34.5651 36.4347 32.2036Z" fill="#5FB402"/>
<path d="M50.843 34.4032C52.8483 32.0901 53.9404 29.8509 54.1007 27.7256C54.256 25.6521 53.4288 24.4901 53.3933 24.4433C53.3386 24.3678 53.2479 24.3292 53.1562 24.3379C53.0645 24.3466 52.9851 24.406 52.9461 24.4924C52.8629 24.6808 52.7922 24.864 52.7232 25.0406C52.1698 26.4644 51.7344 27.5858 45.9532 28.2524C39.4567 29.0002 36.5194 31.7598 36.2645 32.0077C33.1053 34.3904 32.6119 36.2069 32.5914 36.2814C32.5682 36.3774 32.5991 36.4804 32.6746 36.5458C32.7592 36.6192 34.8191 38.3368 37.8608 39.1945C40.6835 39.9906 44.8944 40.1466 48.9352 36.3681C49.6437 35.708 50.2797 35.053 50.843 34.4032ZM53.2118 25.2117C53.4201 25.6968 53.6721 26.5566 53.5753 27.731C53.3141 30.943 50.715 33.9918 48.5799 35.9879C45.4787 38.8859 41.9209 39.797 38.0033 38.6929C35.5047 37.9895 33.6584 36.6493 33.1498 36.2565C33.3397 35.7879 34.1021 34.2848 36.5892 32.4094C36.5994 32.4022 36.6073 32.3931 36.6176 32.3859C36.6275 32.3745 37.3514 31.6595 38.8613 30.8605C40.2595 30.121 42.6312 29.1595 46.0112 28.7676C52.1033 28.0659 52.615 26.7502 53.2065 25.2271C53.2104 25.2225 53.2101 25.2183 53.2118 25.2117Z" fill="#487A06"/>
<path d="M53.4351 24.8845C53.608 27.9839 51.5149 31.0265 48.9625 32.6169C47.5507 33.4969 45.9852 33.8749 44.3594 34.1285C42.5064 34.4177 40.4686 34.8832 38.5933 34.616C38.2531 34.5695 38.301 34.066 38.6269 34.032C41.8156 33.6945 45.4672 33.8025 48.3202 32.1241C51.0372 30.5242 52.4467 27.8588 53.1098 24.867C53.1506 24.6859 53.4257 24.692 53.4351 24.8845Z" fill="#487A06"/>
<path d="M27.4597 42.5565C27.4597 42.5565 24.9741 45.8439 25.1571 52.5309C25.3402 59.2179 23.8836 59.2255 22.3033 60.212C22.3033 60.212 27.1469 62.78 33.1424 54.1919C39.134 45.6083 31.0498 38.4154 31.0498 38.4154C31.0498 38.4154 29.3531 39.1204 27.4597 42.5565Z" fill="#5FB402"/>
<path d="M31.6801 56.5069C32.2434 55.8571 32.8016 55.1347 33.3549 54.344C36.5202 49.8105 35.7707 45.662 34.5824 42.9807C33.302 40.0913 31.3076 38.2982 31.225 38.2225C31.1495 38.1571 31.0452 38.1388 30.9514 38.1777C30.8784 38.2065 29.1524 38.9545 27.2418 42.4197C27.0303 42.7052 24.7194 46.0037 24.8983 52.543C25.0582 58.3603 24.008 58.9526 22.679 59.7001C22.514 59.7934 22.3427 59.8894 22.168 59.9984C22.0879 60.0492 22.0424 60.134 22.0448 60.2283C22.0472 60.3225 22.1003 60.4046 22.1828 60.448C22.2341 60.4766 23.5017 61.1306 25.5322 60.6828C27.6131 60.2185 29.6748 58.82 31.6801 56.5069ZM31.0059 38.7339C31.4669 39.1817 33.0626 40.8295 34.1135 43.2074C35.7551 46.9229 35.3551 50.5677 32.9282 54.0462C31.2569 56.4405 28.6033 59.446 25.463 60.162C24.3142 60.4244 23.4274 60.2968 22.9177 60.1594C22.9239 60.1568 22.9279 60.1523 22.9341 60.1497C24.358 59.3482 25.5878 58.6551 25.4185 52.5251C25.2408 46.0029 27.6427 42.7473 27.6662 42.7155C27.6742 42.7064 27.6798 42.6952 27.6855 42.6841C29.1892 39.9562 30.5671 38.9907 31.0059 38.7339Z" fill="#487A06"/>
<path d="M22.3358 60.1839C23.8118 59.7243 24.9523 58.4688 25.9469 57.3354C26.8699 56.28 27.6648 55.1137 28.3284 53.8816C28.992 52.6495 29.5283 51.3471 29.9112 49.9999C30.3084 48.613 30.4368 47.2174 30.6733 45.8034C30.7216 45.5167 31.1799 45.5333 31.1883 45.8331C31.2793 48.7775 30.0624 51.9785 28.6121 54.4922C27.2666 56.8204 25.1976 59.8076 22.4584 60.5507C22.2226 60.6148 22.0943 60.2592 22.3358 60.1839Z" fill="#487A06"/>
<path d="M39.2721 34.928C39.2721 34.928 40.7667 32.5849 44.7078 30.7558C48.6489 28.9267 47.6535 24.6413 44.5898 24.2294C41.5218 23.8178 36.5933 25.4321 34.2289 32.4794C31.8601 39.527 39.2721 34.928 39.2721 34.928Z" fill="#D32463"/>
<path d="M46.6124 29.686C47.4296 28.7434 47.6465 27.657 47.5108 26.7739C47.288 25.2983 46.1243 24.1733 44.6207 23.9718C41.1714 23.5102 36.3124 25.4372 33.976 32.3966C33.2939 34.4262 33.3357 35.7087 34.0998 36.3151C34.7433 36.8249 35.8449 36.774 37.3704 36.1649C38.4598 35.7308 39.3644 35.1725 39.4055 35.1481C39.4385 35.1286 39.4666 35.1008 39.4878 35.0671C39.5053 35.0422 41.0022 32.7612 44.8123 30.9908C45.5998 30.6276 46.1879 30.1756 46.6124 29.686ZM37.1625 27.6169C40.2469 24.0592 44.0103 24.4124 44.5543 24.4873C45.8283 24.658 46.812 25.607 46.9991 26.8513C47.2656 28.6092 45.9321 29.8978 44.5964 30.5191C40.9088 32.2314 39.3372 34.3675 39.0865 34.7352C38.0765 35.3504 35.4094 36.685 34.4269 35.9054C33.872 35.4644 33.8863 34.3066 34.4728 32.5628C35.2004 30.3883 36.1449 28.7906 37.1625 27.6169Z" fill="#AF1049"/>
<path d="M31.5394 37.4296C31.5394 37.4296 34.0677 39.9421 40.4936 39.1972C46.9172 38.4503 46.383 32.5288 40.5375 33.3481C34.6897 34.1654 31.5394 37.4296 31.5394 37.4296Z" fill="#D32463"/>
<path d="M44.6328 37.62C44.8589 37.3592 45.0385 37.0781 45.1631 36.7773C45.5253 35.9251 45.4167 35.0294 44.8748 34.3192C44.0614 33.2614 42.4673 32.8131 40.4975 33.0891C34.6307 33.91 31.4824 37.1117 31.3506 37.2499C31.2505 37.3515 31.2535 37.5144 31.355 37.6144C31.4634 37.7204 34.0457 40.2077 40.5206 39.4571C42.3402 39.2433 43.8017 38.5786 44.6328 37.62ZM31.9311 37.4166C32.7137 36.7125 35.7088 34.2836 40.5707 33.6054C42.3492 33.3559 43.7687 33.733 44.4638 34.6361C44.8897 35.1937 44.9742 35.9002 44.6872 36.5731C44.1654 37.8079 42.5842 38.6893 40.4622 38.9376C37.2185 39.3155 35.0125 38.8337 33.7344 38.3628C32.8023 38.0196 32.2148 37.6345 31.9311 37.4166Z" fill="#AF1049"/>
<path d="M23.3798 32.0985C23.3798 32.0985 20.0519 28.0271 22.7602 24.3718C25.4686 20.7165 30.1826 24.9356 27.833 32.132C25.4834 39.3285 23.3798 32.0985 23.3798 32.0985Z" fill="#D32463"/>
<path d="M26.7368 34.981C27.2089 34.4365 27.6543 33.5161 28.0789 32.2131C28.9569 29.5278 28.7868 27.5248 28.4888 26.3207C28.1123 24.796 27.3007 23.6115 26.2626 23.0762C24.964 22.4072 23.5778 22.8325 22.5495 24.2173C19.9057 27.7843 22.7912 31.7607 23.1415 32.2207C23.2961 32.7354 24.2093 35.563 25.6208 35.5844C26.0115 35.5865 26.3817 35.3905 26.7368 34.981ZM23.1714 24.2716C24.0045 23.3106 25.0535 23.0339 26.0248 23.5353C27.8269 24.4645 28.984 27.764 27.5844 32.0489C26.7241 34.6814 25.9916 35.0643 25.6308 35.0601C24.8123 35.0478 23.9678 33.1896 23.6296 32.0227C23.6186 31.9891 23.6034 31.9559 23.5802 31.9318C23.573 31.9216 22.7659 30.9212 22.2942 29.5064C21.6744 27.6385 21.9009 25.9634 22.9683 24.5243C23.0328 24.436 23.102 24.3516 23.1714 24.2716Z" fill="#AF1049"/>
<path d="M30.134 45.4685C30.134 45.4685 28.0265 47.2803 26.7747 51.4409C25.5229 55.6016 21.1397 55.224 20.2975 52.2496C19.4551 49.271 20.3542 44.1634 26.995 40.8235C33.6355 37.4793 30.134 45.4685 30.134 45.4685Z" fill="#D32463"/>
<path d="M25.9858 53.4782C26.4103 52.9885 26.7743 52.3423 27.0244 51.5132C28.2364 47.4863 30.2821 45.6811 30.3045 45.6645C30.3349 45.6387 30.3584 45.607 30.373 45.5716C30.3916 45.5316 30.816 44.557 31.089 43.4151C31.4734 41.8167 31.3675 40.719 30.7739 40.1562C30.0653 39.4858 28.7898 39.6264 26.8774 40.5894C20.3196 43.889 19.0989 48.9702 20.0472 52.3212C20.4622 53.783 21.7408 54.7754 23.2308 54.7847C24.1239 54.7895 25.1666 54.4231 25.9858 53.4782ZM29.3975 45.856C28.6695 46.6956 27.3982 48.4669 26.5246 51.3644C26.0989 52.7747 25.0145 54.2751 23.2345 54.2629C21.9764 54.2542 20.8974 53.415 20.5478 52.1781C20.3499 51.4776 18.8491 45.211 27.1121 41.0533C28.7594 40.2252 29.9011 40.0448 30.4144 40.5339C31.3254 41.3959 30.3826 44.2253 29.9168 45.3123C29.8343 45.3891 29.6474 45.5677 29.3975 45.856Z" fill="#AF1049"/>
<path d="M31.5138 37.4594C31.5138 37.4594 34.3595 39.6059 34.5333 46.0725C34.7048 52.5371 28.7674 52.8479 28.7495 46.9453C28.7294 41.0407 31.5138 37.4594 31.5138 37.4594Z" fill="#D32463"/>
<path d="M33.5589 50.3935C34.39 49.4349 34.8406 47.894 34.792 46.0604C34.6168 39.5445 31.7905 37.3387 31.6682 37.2487C31.5548 37.1624 31.3971 37.178 31.3068 37.296C31.1906 37.4438 28.47 41.0163 28.4851 46.9406C28.4912 48.9296 29.161 50.444 30.3234 51.0992C31.1036 51.5391 32.0054 51.5154 32.7976 51.036C33.0799 50.872 33.3327 50.6544 33.5589 50.3935ZM31.5563 37.849C32.1916 38.4839 34.1314 40.839 34.2718 46.0783C34.3291 48.216 33.6786 49.9042 32.5303 50.5958C31.9025 50.9734 31.1915 50.9942 30.5812 50.6494C29.5866 50.0917 29.012 48.74 29.0088 46.9418C28.993 42.0348 30.9684 38.7259 31.5563 37.849Z" fill="#AF1049"/>
<path d="M25.0794 30.1377C25.0794 30.1377 20.5772 27.4208 17.3429 30.6201C14.1086 33.8194 18.9535 37.8875 25.744 34.5412C32.5346 31.1949 25.0794 30.1377 25.0794 30.1377Z" fill="#D32463"/>
<path d="M28.4089 33.0522C28.7639 32.6427 28.9077 32.2504 28.846 31.8642C28.6247 30.4701 25.6984 29.969 25.1646 29.887C24.6616 29.6032 20.3143 27.313 17.1582 30.4359C15.9309 31.6482 15.7088 33.0826 16.5552 34.2733C17.2322 35.2249 18.5199 35.8604 20.0826 36.0169C21.3187 36.1388 23.3237 36.0255 25.8573 34.7756C27.0889 34.1682 27.9368 33.5968 28.4089 33.0522ZM17.3021 31.0415C17.3715 30.9614 17.4432 30.8833 17.5235 30.8046C20.5794 27.7833 24.9003 30.3351 24.9429 30.3599C24.972 30.3772 25.0051 30.3898 25.0398 30.3959C26.2452 30.5673 28.2001 31.14 28.3303 31.9462C28.3857 32.3028 28.1106 33.0822 25.6266 34.3071C21.5834 36.3002 18.1509 35.6207 16.9779 33.9705C16.3458 33.0779 16.471 32.0002 17.3021 31.0415Z" fill="#AF1049"/>
<path d="M21.8889 35.5551C22.0172 35.2776 22.1753 35.026 22.3506 34.8053C21.1683 35.0787 19.9709 34.8982 19.72 34.0555C19.4241 33.0616 19.7555 32.4391 21.2928 31.8764C21.5794 31.7722 21.8688 31.7064 22.1497 31.6735C21.1211 31.0302 20.4016 30.0537 20.8211 29.2833C21.3144 28.3724 21.9907 28.1652 23.4754 28.8553C23.7527 28.9835 24.0043 29.1415 24.2249 29.3167C23.9521 28.1344 24.1332 26.9368 24.9759 26.6856C25.9699 26.3892 26.5921 26.7202 27.1541 28.2574C27.2582 28.544 27.3238 28.8333 27.3566 29.1143C28.0003 28.0853 28.9771 27.3652 29.7472 27.7844C30.6578 28.2773 30.8646 28.9535 30.1739 30.4387C30.0456 30.7161 29.8875 30.9678 29.7121 31.1885C30.8945 30.9151 32.0919 31.0956 32.3428 31.9382C32.6387 32.9322 32.3073 33.5546 30.77 34.1174C30.4814 34.2238 30.194 34.2873 29.9131 34.3203C30.9417 34.9635 31.6612 35.9401 31.2417 36.7105C30.7484 37.6213 30.0721 37.8285 28.5874 37.1385C28.3101 37.0102 28.0585 36.8522 27.8379 36.677C28.1107 37.8593 27.9296 39.0569 27.0869 39.3082C26.0929 39.6046 25.4707 39.2735 24.9087 37.7363C24.8046 37.4497 24.739 37.1604 24.7062 36.8795C24.0625 37.9084 23.0857 38.6285 22.3156 38.2093C21.4027 37.7145 21.1959 37.0382 21.8889 35.5551Z" fill="#FFD217"/>
<path d="M31.1625 37.287C31.2735 37.1589 31.3765 37.0077 31.4712 36.8293C31.9037 36.03 31.3715 35.1238 30.5513 34.4528C30.6565 34.4238 30.7572 34.3909 30.8576 34.3536C32.4453 33.7744 32.9476 33.0517 32.5921 31.8539C32.3329 30.9839 31.3163 30.7197 30.2616 30.8273C30.3151 30.7333 30.3642 30.6397 30.4088 30.5421C31.124 29.0101 30.9659 28.1437 29.8701 27.5503C29.0711 27.1181 28.1647 27.6508 27.4934 28.4714C27.4644 28.3662 27.4315 28.2655 27.3944 28.1652C26.8159 26.5776 26.0935 26.0756 24.8956 26.4317C24.0256 26.6913 23.7609 27.7082 23.868 28.7628C23.7741 28.7095 23.6804 28.6604 23.5828 28.6158C22.0513 27.9013 21.1849 28.0598 20.591 29.156C20.1585 29.9552 20.6907 30.8614 21.5109 31.5324C21.4057 31.5614 21.305 31.5944 21.2046 31.6316C19.6169 32.2108 19.1146 32.9335 19.4701 34.1314C19.7293 35.0013 20.7459 35.2655 21.8006 35.1579C21.7472 35.2519 21.698 35.3455 21.6534 35.4432C20.9382 36.9751 21.0963 37.8416 22.1921 38.4349C22.9911 38.8671 23.8955 38.3367 24.5688 37.5138C24.5978 37.6191 24.6307 37.7197 24.6679 37.8201C25.2463 39.4076 25.9687 39.9096 27.1666 39.5536C28.0366 39.2939 28.3013 38.2771 28.1942 37.2224C28.2882 37.2758 28.3818 37.3249 28.4794 37.3694C29.7646 37.9707 30.5813 37.9574 31.1625 37.287ZM29.7142 34.1478C29.6864 34.1799 29.6655 34.2178 29.6557 34.2615C29.6311 34.3684 29.6777 34.4809 29.7719 34.5386C30.6163 35.0662 31.3645 35.9312 31.0116 36.5831C30.6209 37.3064 30.1354 37.5708 28.6972 36.901C28.4486 36.7857 28.2131 36.6416 27.997 36.4704C27.9107 36.4036 27.79 36.395 27.6977 36.4553C27.6054 36.5155 27.5574 36.6263 27.5844 36.7338C27.8079 37.705 27.7237 38.8463 27.0132 39.0559C26.2251 39.2904 25.697 39.1372 25.1532 37.6437C25.0598 37.3864 24.9957 37.1185 24.9635 36.8461C24.9494 36.7376 24.8678 36.6469 24.7609 36.6224C24.654 36.5978 24.5414 36.6445 24.4838 36.7387C23.9557 37.5834 23.0904 38.3321 22.4387 37.9795C21.7157 37.5891 21.4516 37.1036 22.122 35.665C22.2374 35.4164 22.3816 35.1808 22.553 34.9646C22.6198 34.8783 22.6284 34.7575 22.5682 34.6652C22.508 34.573 22.3973 34.5251 22.2898 34.5521C21.3185 34.7761 20.1773 34.6924 19.9681 33.982C19.734 33.194 19.8875 32.6658 21.381 32.1212C21.6384 32.0277 21.9063 31.9634 22.1787 31.9311C22.2872 31.9169 22.3779 31.8353 22.4025 31.7284C22.4271 31.6215 22.3805 31.5089 22.2863 31.4513C21.4419 30.9236 20.6938 30.0586 21.0466 29.4067C21.4373 28.6834 21.9229 28.4191 23.3611 29.0888C23.6096 29.2041 23.8452 29.3482 24.0612 29.5195C24.1475 29.5863 24.2683 29.5948 24.3606 29.5345C24.4551 29.4763 24.5008 29.3636 24.4738 29.256C24.2504 28.2848 24.3345 27.1435 25.0427 26.9319C25.8308 26.6974 26.3589 26.8507 26.9027 28.3441C26.9961 28.6014 27.0602 28.8694 27.0924 29.1418C27.1066 29.2502 27.1881 29.3409 27.295 29.3655C27.4019 29.39 27.5145 29.3434 27.5722 29.2491C28.1002 28.4044 28.9655 27.6558 29.6172 28.0084C30.3403 28.3987 30.6044 28.8842 29.934 30.3228C29.8186 30.5714 29.6743 30.8071 29.503 31.0232C29.4361 31.1095 29.4276 31.2303 29.4878 31.3226C29.548 31.4149 29.6587 31.4627 29.7662 31.4357C30.7375 31.2118 31.8786 31.2954 32.0879 32.0058C32.322 32.7939 32.1685 33.3221 30.6749 33.8667C30.4176 33.9602 30.1496 34.0244 29.8772 34.0568C29.8135 34.0656 29.7558 34.0998 29.7142 34.1478Z" fill="#D37F07"/>
<path d="M25.6041 27.4906C25.8489 28.7006 26.0852 29.9435 26.1003 31.1829C26.1029 31.5217 25.6058 31.5637 25.5707 31.2207C25.4518 29.9995 25.4479 28.7658 25.3589 27.5424C25.3469 27.4038 25.5725 27.3469 25.6041 27.4906Z" fill="#D37F07"/>
<path d="M29.7286 28.9146C28.9648 29.8835 28.4278 31.025 27.5776 31.927C27.3262 32.1939 26.8891 31.811 27.1477 31.5543C28.0213 30.6806 28.5205 29.4302 29.5701 28.7371C29.6848 28.6602 29.8113 28.81 29.7286 28.9146Z" fill="#D37F07"/>
<path d="M31.571 32.736C31.0021 32.884 30.383 32.8403 29.8012 32.8969C29.1149 32.9631 28.4462 33.0968 27.7739 33.2393C27.4314 33.311 27.2373 32.8141 27.5945 32.707C28.2626 32.5047 28.9731 32.3874 29.6669 32.3356C30.2901 32.2868 30.9967 32.2341 31.592 32.4576C31.7089 32.5029 31.6953 32.7035 31.571 32.736Z" fill="#D37F07"/>
<path d="M30.2635 36.628C29.0837 36.0299 27.998 35.0968 27.0393 34.1974C26.7405 33.9183 27.1567 33.4336 27.4578 33.7147C28.4257 34.6219 29.49 35.4365 30.4438 36.3555C30.5707 36.4816 30.4351 36.7166 30.2635 36.628Z" fill="#D37F07"/>
<path d="M26.4401 38.1784C26.0311 37.1024 25.7604 35.8899 25.528 34.7627C25.459 34.4264 25.9543 34.2386 26.0498 34.5859C26.3531 35.7145 26.643 36.9557 26.7215 38.1218C26.7311 38.2864 26.496 38.3311 26.4401 38.1784Z" fill="#D37F07"/>
<path d="M21.9017 29.2983C22.4411 29.5817 22.9351 29.9498 23.4302 30.3028C23.9252 30.6559 24.5374 30.9662 24.8785 31.4783C24.9508 31.5891 24.8522 31.7721 24.7119 31.7306C24.1382 31.5699 23.6857 31.1215 23.2104 30.7735C22.6873 30.3882 22.1292 30.0246 21.7116 29.5222C21.6108 29.4028 21.7724 29.2303 21.9017 29.2983Z" fill="#D37F07"/>
<path d="M20.8711 33.2822C21.4713 33.1813 22.0669 33.0765 22.6641 32.9651C23.2381 32.8576 23.873 32.6426 24.4564 32.6674C24.7577 32.6802 24.8605 33.0699 24.5623 33.1921C24.033 33.4145 23.3769 33.4228 22.8091 33.4956C22.1733 33.5775 21.5388 33.6487 20.9017 33.7135C20.6208 33.7465 20.5996 33.3274 20.8711 33.2822Z" fill="#D37F07"/>
<path d="M22.9572 36.7857C23.4043 35.8588 23.99 34.8598 24.6026 34.0283C24.7867 33.7791 25.2119 34.0556 25.0596 34.3283C24.5657 35.2307 23.906 36.1856 23.2565 36.9811C23.1262 37.1406 22.8694 36.9701 22.9572 36.7857Z" fill="#D37F07"/>
<path d="M29.9 31.2631C29.2815 31.8009 28.6013 32.2852 27.8802 32.678C27.591 32.836 27.3142 32.4438 27.5919 32.2437C28.2698 31.7574 29.0064 31.342 29.7647 30.9895C29.9395 30.9126 30.0195 31.1623 29.9 31.2631Z" fill="#D37F07"/>
<path d="M30.0957 34.4746C29.6993 34.5438 29.3662 34.4152 28.9949 34.2937C28.518 34.1368 28.0368 34.0081 27.5448 33.9102C27.1857 33.8393 27.2901 33.2846 27.6489 33.3512C28.0576 33.425 28.455 33.5211 28.848 33.6453C29.2763 33.7843 29.6823 34.0321 30.1151 34.1428C30.3033 34.1937 30.2824 34.4441 30.0957 34.4746Z" fill="#D37F07"/>
<path d="M27.7651 37.0106C27.3251 36.3446 26.8936 35.678 26.4497 35.0166C26.2384 34.7012 26.6932 34.4261 26.927 34.697C27.453 35.3053 27.8685 36.0783 28.074 36.8576C28.1215 37.0431 27.8804 37.1827 27.7651 37.0106Z" fill="#D37F07"/>
<path d="M27.4348 29.1902C27.4335 29.2011 27.4364 29.2116 27.435 29.2224C27.4357 29.2631 27.3779 29.2651 27.3752 29.2267C27.3723 29.2162 27.3737 29.2053 27.3708 29.1948C27.3658 29.1544 27.4361 29.1472 27.4348 29.1902Z" fill="#D37F07"/>
<path d="M27.6195 28.8852C27.5542 29.3856 27.3934 29.8113 27.256 30.2933C27.139 30.7008 27.2265 31.1173 27.0154 31.4994C26.8767 31.7518 26.4653 31.6396 26.5255 31.3391C26.601 30.9517 26.5827 30.5431 26.7064 30.1695C26.8691 29.6814 27.0622 29.2276 27.3318 28.792C27.4203 28.6483 27.6455 28.7074 27.6195 28.8852Z" fill="#D37F07"/>
<path d="M25.441 31.3888C25.1263 31.128 24.9626 30.7255 24.7373 30.394C24.4564 29.9741 24.0676 29.6972 23.7533 29.3205C23.6408 29.1869 23.7973 28.9739 23.9587 29.0096C24.7706 29.2005 25.5869 30.4813 25.6544 31.2813C25.6669 31.3962 25.5276 31.4599 25.441 31.3888Z" fill="#D37F07"/>
<path d="M24.1409 32.6385C23.2733 32.6597 22.0685 32.2845 21.5319 31.5588C21.3942 31.3713 21.6209 31.1791 21.8037 31.2454C22.2178 31.3961 22.5788 31.705 22.9713 31.913C23.3661 32.123 23.7685 32.3196 24.1596 32.5384C24.2021 32.5633 24.1967 32.6388 24.1409 32.6385Z" fill="#D37F07"/>
<path d="M24.3623 33.4876C23.8833 33.8137 23.4627 34.2065 23.0538 34.6134C22.7552 34.9116 22.501 35.2603 22.1141 35.4339C21.9581 35.503 21.8331 35.3145 21.8878 35.1775C22.0777 34.709 22.5871 34.297 22.9541 33.966C23.3314 33.6278 23.7375 33.3627 24.202 33.1642C24.3959 33.0838 24.5281 33.3748 24.3623 33.4876Z" fill="#D37F07"/>
<path d="M25.5822 34.5012C25.5288 35.5931 25.1544 37.1801 24.1767 37.8273C23.9779 37.9595 23.7822 37.7418 23.8519 37.5458C24.0207 37.0508 24.3939 36.625 24.6059 36.1355C24.8366 35.6061 25.0303 35.0407 25.1686 34.4793C25.2194 34.2589 25.5945 34.2514 25.5822 34.5012Z" fill="#D37F07"/>
<path d="M37.3306 27.2936C32.3648 30.8593 25.1665 39.1622 22.3411 44.5835C22.3411 44.5835 24.8765 50.9134 30.2549 48.2905C35.6332 45.6675 31.1094 42.6152 33.5333 39.8193C33.6582 39.6752 33.7533 39.5332 33.8228 39.393C33.9497 39.3067 34.0768 39.1925 34.2037 39.046C36.6256 36.2525 40.2886 40.2977 42.1243 34.5995C43.9601 28.9013 37.3306 27.2936 37.3306 27.2936Z" fill="#FC3B77"/>
<path d="M41.1832 36.9696C41.6295 36.4548 42.0324 35.7221 42.3705 34.6807C42.8945 33.0551 42.8013 31.5917 42.0982 30.3328C40.7217 27.8731 37.5296 27.0734 37.3942 27.0402C37.3221 27.0217 37.2438 27.038 37.1805 27.0834C32.1533 30.692 24.9709 38.9766 22.1136 44.4624C22.0797 44.5292 22.0746 44.609 22.1012 44.6801C22.1533 44.8094 23.3975 47.8559 26.0276 48.8696C27.3757 49.3891 28.8375 49.2739 30.3701 48.5226C33.7032 46.8958 33.4116 44.9959 33.1575 43.3208C32.9801 42.1531 32.8096 41.0515 33.73 39.9899C33.849 39.8526 33.9463 39.7126 34.024 39.5675C34.1546 39.4723 34.2814 39.3538 34.4004 39.2166C35.3207 38.155 36.4374 38.1652 37.6164 38.1775C38.8103 38.1866 40.118 38.1982 41.1832 36.9696ZM37.3828 27.5754C37.9525 27.7406 40.5183 28.5744 41.6442 30.5885C42.2759 31.7172 42.3505 33.0403 41.8762 34.5207C40.8562 37.684 39.3574 37.671 37.6202 37.6557C36.3725 37.6441 35.0841 37.6332 34.0071 38.8756C33.9019 38.9968 33.789 39.0993 33.6766 39.1782C33.6397 39.2023 33.6099 39.2366 33.5893 39.2788C33.5295 39.4033 33.4437 39.5253 33.3366 39.6489C32.2576 40.8935 32.4511 42.1673 32.6415 43.3984C32.903 45.1159 33.1303 46.5955 30.1417 48.0561C28.7438 48.7398 27.4232 48.8492 26.214 48.382C24.0583 47.5511 22.8737 45.1335 22.6293 44.593C25.4782 39.2 32.4484 31.1602 37.3828 27.5754Z" fill="#AF1049"/>
<path d="M23.567 43.4142C23.567 43.4142 25.6172 46.4782 28.8133 44.6443C32.0074 42.8128 30.5344 36.8469 30.5344 36.8469C30.5344 36.8469 29.0255 35.5147 26.8645 37.3883C24.7057 39.2638 23.567 43.4142 23.567 43.4142Z" fill="#D32463"/>
<path d="M29.8799 44.0981C30.6733 43.1829 31.102 41.8153 31.1343 40.0639C31.1655 38.3276 30.8051 36.849 30.7877 36.7858C30.7755 36.7352 30.7486 36.6878 30.7074 36.6521C30.6914 36.6382 29.0007 35.1925 26.6941 37.1923C24.4987 39.0962 23.3633 43.1734 23.3154 43.3442C23.2949 43.4187 23.3089 43.4949 23.3499 43.5585C23.3737 43.5911 25.5738 46.801 28.9432 44.869C29.298 44.6676 29.6102 44.4092 29.8799 44.0981ZM30.3005 36.9966C30.4617 37.7255 31.4674 42.8214 28.6838 44.4197C26.0198 45.9493 24.2232 43.8588 23.8534 43.3658C24.0581 42.6816 25.1616 39.214 27.0375 37.5862C28.7679 36.0847 30.018 36.7958 30.3005 36.9966Z" fill="#AF1049"/>
<path d="M28.6963 35.3173C28.6963 35.3173 23.193 41.8916 19.7074 42.0356C16.2217 42.1797 15.1349 39.3259 16.9686 37.2848C18.8006 35.2502 27.1596 33.5923 28.6963 35.3173Z" fill="#FC3B77"/>
<path d="M28.6811 35.7369C28.8001 35.5996 28.8712 35.5129 28.895 35.4855C28.978 35.3851 28.9742 35.2416 28.8901 35.1446C28.4165 34.6098 27.4251 34.3394 25.9505 34.3354C22.9327 34.328 18.1663 35.5659 16.7739 37.1119C15.8429 38.1443 15.5758 39.4596 16.0791 40.5331C16.6304 41.7084 17.9905 42.3666 19.7173 42.2967C22.9228 42.1662 27.6119 36.9701 28.6811 35.7369ZM17.1157 37.5124C17.1296 37.4964 17.1454 37.4781 17.1593 37.4621C18.3267 36.1618 22.7615 34.8489 25.9468 34.8572C27.0651 34.8609 27.8949 35.0312 28.3311 35.3413C27.3988 36.4166 22.6996 41.6521 19.6954 41.7768C18.1847 41.8376 17.0085 41.2908 16.5506 40.3127C16.1439 39.4512 16.3619 38.3818 17.1157 37.5124Z" fill="#AF1049"/>
<path d="M28.391 35.0687C28.391 35.0687 26.8901 32.4891 21.3911 34.4103C15.8921 36.3316 16.4615 31.0222 18.3242 29.7838C18.3242 29.7838 15.1312 31.5401 15.113 35.7563C15.0949 39.9725 20.0203 38.8284 22.4959 37.3359C24.967 35.8393 26.8698 34.4392 28.391 35.0687Z" fill="#FC3B77"/>
<path d="M28.5877 35.2392C28.6611 35.1545 28.672 35.0357 28.6157 34.9389C28.5497 34.8256 26.9425 32.1978 21.303 34.1655C19.3598 34.8453 18.0068 34.6502 17.4914 33.6183C16.9054 32.4369 17.5462 30.612 18.4642 30.0012C18.5789 29.9244 18.615 29.7673 18.5444 29.65C18.4716 29.5307 18.3185 29.4902 18.1966 29.5568C18.0602 29.631 14.8686 31.4366 14.8491 35.7559C14.8446 37.0825 15.2992 38.0136 16.2027 38.5284C18.0272 39.5611 21.041 38.5151 22.6257 37.5605C22.9384 37.3707 23.2449 37.1836 23.5408 36.9993C25.5207 35.7783 27.0854 34.8144 28.2881 35.3121C28.394 35.3518 28.5123 35.3261 28.5877 35.2392C28.5857 35.2415 28.5877 35.2392 28.5877 35.2392ZM16.9668 31.308C16.6871 32.1435 16.6516 33.0946 17.0271 33.8489C17.4003 34.6013 18.4764 35.7025 21.4751 34.6554C24.9891 33.4298 26.7928 34.0799 27.6038 34.6507C26.365 34.6427 24.9608 35.5093 23.2686 36.5509C22.9746 36.7329 22.6725 36.9198 22.3574 37.1075C20.5754 38.1835 17.9021 38.8876 16.4599 38.0701C15.7311 37.6586 15.3666 36.8778 15.3683 35.7531C15.3787 33.6943 16.1809 32.2376 16.9668 31.308Z" fill="#AF1049"/>
<path d="M30.535 36.8469C30.535 36.8469 29.4247 34.63 27.3246 35.9112C25.2245 37.1923 21.9245 41.9136 18.8125 41.3958C15.7004 40.8779 16.3761 38.4259 16.3761 38.4259C16.3761 38.4259 13.5184 40.4609 15.4272 44.4642C16.7133 47.1622 21.9425 47.3956 24.4248 43.8208C26.5389 40.7724 27.3063 35.1699 30.535 36.8469Z" fill="#FC3B77"/>
<path d="M30.7314 37.0174C30.8008 36.9373 30.8142 36.8247 30.7668 36.7315C30.7444 36.6881 30.2062 35.6364 29.1524 35.3319C28.5302 35.1531 27.8692 35.2734 27.1884 35.689C26.5095 36.1024 25.7115 36.8613 24.8672 37.6642C23.0841 39.3605 20.8629 41.4744 18.8518 41.1375C17.8939 40.9763 17.2265 40.6142 16.8713 40.0537C16.4031 39.3232 16.6236 38.5005 16.6253 38.4939C16.6542 38.3867 16.6141 38.2758 16.5238 38.2136C16.4336 38.1514 16.3134 38.1514 16.2234 38.2136C16.1927 38.2351 13.2106 40.4227 15.1902 44.5755C15.7724 45.7936 17.1218 46.6028 18.8051 46.7357C20.5944 46.8803 23.0655 46.2293 24.6345 43.9667C25.2905 43.0206 25.8125 41.8501 26.3179 40.7173C27.1122 38.9372 27.8641 37.2567 28.9466 36.8767C29.3822 36.7254 29.8609 36.7877 30.4092 37.0747C30.5094 37.1255 30.6326 37.1081 30.7129 37.0294C30.7214 37.0288 30.7274 37.0219 30.7314 37.0174ZM27.6569 37.2093C26.9626 38.0101 26.4166 39.2359 25.846 40.5086C25.3519 41.6191 24.8389 42.7653 24.21 43.6709C22.7655 45.7529 20.4944 46.3488 18.8498 46.2174C17.352 46.097 16.1628 45.3987 15.6614 44.3508C14.3474 41.5926 15.3801 39.847 16.0551 39.0776C16.0681 39.4415 16.1541 39.8968 16.4339 40.3318C16.8735 41.0214 17.6602 41.463 18.77 41.6477C21.0373 42.0263 23.3609 39.8128 25.2285 38.0375C26.0506 37.2555 26.8286 36.5153 27.46 36.1289C28.0113 35.7933 28.532 35.6917 29.0096 35.8292C29.336 35.9239 29.6029 36.1152 29.8079 36.313C29.4471 36.2486 29.1032 36.2711 28.7787 36.3865C28.3602 36.5367 27.9901 36.8249 27.6569 37.2093Z" fill="#AF1049"/>
<path d="M36.3069 28.7189C36.3069 28.7189 39.6306 30.3139 38.2685 33.7378C36.9084 37.1593 30.7939 36.5471 30.7939 36.5471C30.7939 36.5471 29.2613 35.2425 30.8094 32.8376C32.3599 30.4347 36.3069 28.7189 36.3069 28.7189Z" fill="#D32463"/>
<path d="M37.8793 34.8709C38.1491 34.5597 38.3606 34.2141 38.5119 33.8363C39.9469 30.2313 36.4572 28.5043 36.4215 28.4854C36.3527 28.4538 36.2753 28.4508 36.2045 28.4816C36.0399 28.5513 32.1652 30.2577 30.5938 32.6985C29.7415 34.0235 29.7841 35.0463 29.9745 35.6722C30.1845 36.3633 30.6099 36.732 30.6282 36.7479C30.6671 36.7816 30.7201 36.8036 30.772 36.8084C30.8347 36.8147 32.3537 36.9614 34.066 36.6866C35.7906 36.4023 37.0859 35.7861 37.8793 34.8709ZM36.2999 29.0091C36.8406 29.3096 39.1645 30.7873 38.0281 33.6413C36.8409 36.6277 31.6494 36.3508 30.9093 36.2943C30.6658 36.0391 29.7833 34.9133 31.0322 32.9784C32.3756 30.8929 35.6516 29.3087 36.2999 29.0091Z" fill="#AF1049"/>
<path d="M29.0215 34.942C29.0215 34.942 34.749 28.5621 34.3973 25.0912C34.0457 21.6204 31.0666 20.9492 29.3061 23.0538C27.5499 25.1581 27.094 33.6677 29.0215 34.942Z" fill="#FC3B77"/>
<path d="M29.4328 34.8697C30.4999 33.6388 34.9807 28.2579 34.6553 25.0663C34.4795 23.347 33.6352 22.094 32.3936 21.7149C31.2595 21.3689 29.9974 21.8176 29.1055 22.8879C27.7703 24.4835 27.2231 29.3792 27.6583 32.3655C27.8694 33.8269 28.2796 34.7676 28.8762 35.1606C28.9821 35.2324 29.1267 35.2135 29.2143 35.1171C29.2381 35.0896 29.3158 35.0047 29.4328 34.8697ZM29.5504 23.1694C30.3042 22.3 31.3317 21.9325 32.2423 22.2129C33.2777 22.5294 33.9858 23.6162 34.1375 25.1184C34.4401 28.1099 29.9238 33.504 28.9916 34.5793C28.6208 34.1938 28.3343 33.3923 28.1743 32.2878C27.7144 29.1359 28.3871 24.5574 29.5068 23.2197C29.5207 23.2037 29.5365 23.1854 29.5504 23.1694Z" fill="#AF1049"/>
<path d="M28.7303 34.6774C28.7303 34.6774 25.964 33.5575 27.086 27.8416C28.208 22.1257 23.0331 23.4422 22.0713 25.4618C22.0713 25.4618 23.3571 22.052 27.5281 21.4361C31.6992 20.8202 31.2651 25.8581 30.1386 28.5204C29.0076 31.1787 27.8915 33.2608 28.7303 34.6774Z" fill="#FC3B77"/>
<path d="M28.9269 34.8479C28.9269 34.8479 28.9289 34.8456 28.9269 34.8479C29.0003 34.7633 29.0109 34.6402 28.9547 34.5433C28.2891 33.4213 29.0237 31.7378 29.9516 29.6047C30.0921 29.2856 30.2319 28.958 30.3774 28.6193C31.0976 26.9153 31.7077 23.7813 30.4247 22.124C29.7889 21.3003 28.8008 20.9846 27.4882 21.1772C23.215 21.8047 21.8806 25.2244 21.8265 25.3699C21.7778 25.5 21.8397 25.6458 21.9681 25.701C22.0964 25.7562 22.2468 25.6982 22.3044 25.5718C22.7788 24.5764 24.4964 23.681 25.7469 24.0959C26.8392 24.4578 27.2242 25.7694 26.8292 27.7914C25.6787 33.6509 28.5101 34.8713 28.6316 34.9206C28.7352 34.9582 28.8555 34.9303 28.9269 34.8479ZM23.3958 23.8971C24.2069 22.9892 25.5331 21.9909 27.5634 21.6912C28.6761 21.5258 29.5011 21.7801 30.0117 22.4432C31.0255 23.755 30.7096 26.4988 29.8952 28.4177C29.7517 28.7541 29.6096 29.0798 29.4734 29.3986C28.6839 31.2148 28.0249 32.7234 28.204 33.9446C27.5253 33.212 26.6317 31.5075 27.3405 27.89C27.9538 24.7708 26.7091 23.864 25.9114 23.6013C25.1157 23.3363 24.1812 23.504 23.3958 23.8971Z" fill="#AF1049"/>
<path d="M30.7945 36.5472C30.7945 36.5472 28.4426 35.7625 29.413 33.502C30.3834 31.2414 34.589 27.3052 33.6351 24.2981C32.6792 21.2932 30.3498 22.3075 30.3498 22.3075C30.3498 22.3075 31.959 19.1901 36.1925 20.5119C39.0456 21.4024 40.0182 26.5457 36.8315 29.5098C34.1137 32.0348 28.6766 33.589 30.7945 36.5472Z" fill="#FC3B77"/>
<path d="M30.9912 36.7177C30.9952 36.7131 31.0012 36.7063 31.0051 36.7017C31.0717 36.6111 31.0737 36.4886 31.0069 36.3947C30.6471 35.8903 30.5155 35.4276 30.6035 34.9749C30.8239 33.8475 32.3831 32.8668 34.0326 31.8282C35.0822 31.1672 36.1668 30.4845 37.0104 29.7009C39.0276 27.8269 39.3216 25.2886 38.9247 23.5378C38.5502 21.8907 37.5599 20.6674 36.2738 20.2657C31.8823 18.8951 30.1396 22.1573 30.1227 22.1907C30.0738 22.2886 30.0886 22.4056 30.1653 22.4881C30.2396 22.5686 30.3594 22.5923 30.4571 22.5488C30.4634 22.5462 31.2596 22.2145 32.0426 22.5728C32.6438 22.8495 33.0967 23.4545 33.3897 24.3779C34.0084 26.3209 32.2328 28.8171 30.8045 30.825C30.1295 31.7746 29.4934 32.67 29.1785 33.4028C28.8636 34.1357 28.8383 34.8071 29.1034 35.3976C29.5523 36.4 30.6674 36.7816 30.7179 36.7973C30.8123 36.8271 30.9218 36.7978 30.9912 36.7177ZM30.9833 21.8587C31.6616 21.0763 33.2452 19.8642 36.1136 20.7601C37.2221 21.1079 38.0819 22.186 38.4135 23.6516C38.7767 25.261 38.5069 27.5959 36.6528 29.3188C35.8455 30.0697 34.7814 30.7381 33.7544 31.3867C32.0084 32.4858 30.3569 33.5268 30.0942 34.874C30.0279 35.2092 30.0524 35.5551 30.1673 35.9032C29.9401 35.7263 29.713 35.4893 29.5729 35.1795C29.3714 34.7282 29.3981 34.1984 29.6521 33.6051C29.9451 32.9253 30.5675 32.0502 31.225 31.1254C32.7176 29.025 34.5792 26.411 33.8828 24.2203C33.5427 23.1479 32.992 22.434 32.249 22.0944C31.7767 21.8814 31.3159 21.8586 30.9538 21.8973C30.9595 21.8862 30.9714 21.8725 30.9833 21.8587Z" fill="#AF1049"/>
<path d="M33.3959 29.4249C33.3959 29.4249 35.9919 27.2391 34.9244 24.5663C33.8611 21.8932 32.4483 21.3697 33.1846 21.1905C33.9208 21.0112 36.7819 20.8066 37.7169 24.3023C38.6519 27.7979 35.6401 29.3868 34.5744 30.2141C33.5086 31.0415 31.9695 31.3382 33.3959 29.4249Z" fill="#FF88B9"/>
<path d="M22.4834 41.2041C23.6379 39.8725 25.4178 39.4319 24.2964 42.0745C23.1707 44.7174 20.6234 45.7752 18.6643 45.4753C16.7074 45.1775 15.5623 43.1347 15.6554 41.8168C15.7485 40.4989 18.2753 43.503 20.1527 42.682C22.0301 41.861 22.4834 41.2041 22.4834 41.2041Z" fill="#FF88B9"/>
<path d="M38.1559 35.7718C38.1559 35.7718 40.3849 33.7367 39.6223 31.7932C38.8575 29.8478 40.7104 30.4042 41.2476 31.8036C41.7848 33.2031 41.8311 34.7621 40.4202 35.9876C39.009 37.2088 37.216 36.588 38.1559 35.7718Z" fill="#FF88B9"/>
<path d="M31.7541 43.2903C31.7541 43.2903 30.8605 45.6655 29.0894 46.23C27.3182 46.7944 24.8662 45.7186 24.968 46.2757C25.0718 46.8306 28.2225 48.981 30.5177 47.0034C32.8153 45.0278 32.2163 42.7572 31.7541 43.2903Z" fill="#FF88B9"/>
<path d="M45.2022 27.2009C43.4661 27.5031 41.7812 27.7416 40.2506 28.6709C39.7856 28.9531 39.3662 28.3049 39.7868 27.9722C41.3085 26.7668 43.3066 26.6475 45.1696 26.7117C45.4818 26.7259 45.5138 27.1464 45.2022 27.2009Z" fill="#AF1049"/>
<path d="M22.9697 52.947C21.9723 51.2006 22.9673 48.8932 23.4189 47.1247C23.5503 46.6174 24.3633 46.7932 24.2084 47.2721C23.6205 49.0869 22.8801 50.8695 23.2704 52.7989C23.2996 52.9685 23.0727 53.1285 22.9697 52.947Z" fill="#AF1049"/>
<path d="M43.6974 36.5001C43.3756 36.5017 43.0567 36.5138 42.7346 36.511C42.449 36.5079 41.9972 36.4007 41.7337 36.529C41.5157 36.6325 41.2872 36.4064 41.298 36.1953C41.3107 35.9819 41.5634 35.7922 41.7695 35.9148C42.0182 36.0622 42.4815 35.9991 42.7627 36.0305C43.0807 36.0657 43.4002 36.1222 43.7168 36.1683C43.9034 36.1978 43.8905 36.4992 43.6974 36.5001Z" fill="#AF1049"/>
<path d="M31.9238 50.122C31.7101 49.8325 31.5921 49.4697 31.4318 49.1464C31.2565 48.7941 31.0688 48.447 30.8955 48.0924C30.6875 47.6716 31.282 47.3694 31.4781 47.8039C31.644 48.1762 31.7869 48.5566 31.9235 48.9395C32.0489 49.2847 32.2156 49.6376 32.2588 50.0036C32.2813 50.1995 32.0261 50.2628 31.9238 50.122Z" fill="#AF1049"/>
<path d="M36.3971 32.6119C35.2993 32.4737 34.1624 32.6622 33.1436 33.0935C32.6604 33.2997 32.1982 33.5603 31.7787 33.8778C31.3733 34.1837 31.0633 34.5921 30.6502 34.8792C30.4599 35.0109 30.2363 34.7929 30.3209 34.5937C30.7338 33.6092 32.0008 32.8962 32.9561 32.5382C34.0974 32.1089 35.2691 32.0788 36.4503 32.3334C36.629 32.3721 36.5769 32.6355 36.3971 32.6119Z" fill="#AF1049"/>
<path d="M27.1083 43.234C26.5345 41.923 26.4125 40.114 26.9851 38.779C27.4771 37.6386 28.7127 36.0608 30.0772 36.0856C30.3737 36.0901 30.4405 36.4566 30.1767 36.5806C29.0325 37.1196 28.0197 37.9968 27.478 39.1622C26.9814 40.2386 27.0568 41.9951 27.412 43.1286C27.4755 43.328 27.1903 43.4213 27.1083 43.234Z" fill="#AF1049"/>
<path d="M28.8031 35.2775C28.6725 35.1001 28.4906 34.9865 28.2751 34.944C28.3629 34.7596 28.4529 34.5771 28.5427 34.3904C28.7973 34.5911 29.0445 34.7173 29.3372 34.8508C29.1734 34.9613 29.0076 35.074 28.846 35.1864C28.8471 35.1713 28.8482 35.1562 28.8469 35.1391C28.853 34.952 29.0025 34.761 29.2143 34.8124C29.2274 34.8158 29.2405 34.8191 29.2537 34.8225C29.6881 34.9266 29.5524 35.6145 29.1259 35.5012C28.7168 35.391 28.3397 35.1282 28.0701 34.8062C27.8542 34.547 28.2097 34.234 28.4727 34.3418C28.8134 34.4848 29.0571 34.7442 29.199 35.0796C29.2957 35.3238 28.9435 35.4713 28.8031 35.2775Z" fill="#AF1049"/>
<path d="M27.6416 23.4304C28.4347 23.2964 29.7981 23.5487 30.0706 24.4542C30.1073 24.5782 29.9845 24.6921 29.8627 24.6386C29.5257 24.4867 29.2647 24.1964 28.9308 24.0271C28.5366 23.8256 28.1016 23.713 27.6584 23.6974C27.4864 23.6926 27.4677 23.46 27.6416 23.4304Z" fill="#AF1049"/>
<path d="M27.8937 24.7751C28.5409 24.8233 29.3825 25.1601 29.6186 25.8257C29.691 26.0287 29.4455 26.1686 29.2847 26.0492C29.067 25.8845 28.9051 25.66 28.6794 25.5044C28.4198 25.3234 28.1345 25.2043 27.8232 25.1429C27.5838 25.0956 27.6587 24.7598 27.8937 24.7751Z" fill="#AF1049"/>
<path d="M19.6231 35.29C19.7477 35.5343 19.7669 35.8355 19.8564 36.0974C19.9542 36.3866 20.1328 36.6657 20.201 36.9612C20.232 37.0964 20.0616 37.2652 19.9429 37.1342C19.7174 36.8907 19.6161 36.5223 19.5441 36.2034C19.4814 35.9246 19.4007 35.5742 19.4949 35.2992C19.5149 35.2484 19.5984 35.2445 19.6231 35.29Z" fill="#AF1049"/>
<path d="M18.4212 35.4382C18.4875 35.8284 18.6019 36.2 18.7458 36.5653C18.8639 36.868 19.1159 37.1827 19.1241 37.5104C19.1264 37.6326 18.9894 37.7583 18.8683 37.6854C18.5519 37.4913 18.4222 37.0541 18.3122 36.7143C18.1806 36.3117 18.1181 35.8848 18.0923 35.4617C18.0815 35.2479 18.3853 35.2348 18.4212 35.4382Z" fill="#AF1049"/>
</svg>
