<svg width="69" height="13" viewBox="0 0 69 13" fill="none" xmlns="http://www.w3.org/2000/svg">
<g clip-path="url(#clip0_171_50689)">
<path d="M6.50002 0.8125L4.65158 4.55813L0.52002 5.15531L3.51002 8.07219L2.80314 12.1875L6.50002 10.2456L10.1969 12.1875L9.49002 8.07219L12.48 5.15937L8.34846 4.55813L6.50002 0.8125Z" fill="#FF9114"/>
</g>
<g clip-path="url(#clip1_171_50689)">
<path d="M20.4287 0.8125L18.5803 4.55813L14.4487 5.15531L17.4387 8.07219L16.7319 12.1875L20.4287 10.2456L24.1256 12.1875L23.4187 8.07219L26.4087 5.15937L22.2772 4.55813L20.4287 0.8125Z" fill="#FF9114"/>
</g>
<g clip-path="url(#clip2_171_50689)">
<path d="M34.3574 0.8125L32.509 4.55813L28.3774 5.15531L31.3674 8.07219L30.6606 12.1875L34.3574 10.2456L38.0543 12.1875L37.3474 8.07219L40.3374 5.15937L36.2059 4.55813L34.3574 0.8125Z" fill="#FF9114"/>
</g>
<g clip-path="url(#clip3_171_50689)">
<path d="M48.2862 0.8125L46.4377 4.55813L42.3062 5.15531L45.2962 8.07219L44.5893 12.1875L48.2862 10.2456L51.983 12.1875L51.2762 8.07219L54.2662 5.15937L50.1346 4.55813L48.2862 0.8125Z" fill="#FF9114"/>
</g>
<g clip-path="url(#clip4_171_50689)">
<path d="M62.2149 0.8125L60.3664 4.55813L56.2349 5.15531L59.2249 8.07219L58.518 12.1875L62.2149 10.2456L65.9117 12.1875L65.2049 8.07219L68.1949 5.15937L64.0633 4.55813L62.2149 0.8125Z" fill="#B0B0B0"/>
</g>
<defs>
<clipPath id="clip0_171_50689">
<rect width="13" height="13" fill="white"/>
</clipPath>
<clipPath id="clip1_171_50689">
<rect width="13" height="13" fill="white" transform="translate(13.9287)"/>
</clipPath>
<clipPath id="clip2_171_50689">
<rect width="13" height="13" fill="white" transform="translate(27.8574)"/>
</clipPath>
<clipPath id="clip3_171_50689">
<rect width="13" height="13" fill="white" transform="translate(41.7861)"/>
</clipPath>
<clipPath id="clip4_171_50689">
<rect width="13" height="13" fill="white" transform="translate(55.7148)"/>
</clipPath>
</defs>
</svg>
