<svg width="74" height="86" viewBox="0 0 74 86" fill="none" xmlns="http://www.w3.org/2000/svg">
<g clip-path="url(#clip0_150_5406)">
<path d="M18.0345 32.3452H14.7982V39.7488H18.0345V32.3452Z" fill="#446160"/>
<path d="M60.1404 32.3452H56.9041V39.7488H60.1404V32.3452Z" fill="#446160"/>
<path fill-rule="evenodd" clip-rule="evenodd" d="M14.1435 33.8754H60.5878C61.0586 33.8754 61.4439 34.2658 61.4439 34.7426C61.4439 35.2194 61.0586 35.6097 60.5878 35.6097H14.1435C13.6728 35.6097 13.2874 35.2194 13.2874 34.7426C13.2874 34.2658 13.6728 33.8754 14.1435 33.8754Z" fill="#2D4644"/>
<path d="M22.9736 13.8846H22.0671V16.6398H22.9736V13.8846Z" fill="#2D4644"/>
<path d="M23.9305 15.7601H21.1095V16.5252H23.9305V15.7601Z" fill="#B2C6C9"/>
<path d="M26.55 16.1682H18.49V33.8754H26.55V16.1682Z" fill="#6F7354"/>
<path d="M26.55 16.1682H22.5203V33.8754H26.55V16.1682Z" fill="#676A4A"/>
<path d="M56.0443 26.1931H26.55V33.8754H56.0443V26.1931Z" fill="#945E44"/>
<path d="M56.0443 26.1931H26.55V30.0343H56.0443V26.1931Z" fill="#96654C"/>
<path d="M36.9325 7.89374H33.9852V8.52432H36.9325V7.89374Z" fill="#4B4E29"/>
<path d="M52.9781 7.89148H50.0308V8.52206H52.9781V7.89148Z" fill="#4B4E29"/>
<path d="M34.2662 25.4221H32.94V26.185H34.2662V25.4221Z" fill="#1E3532"/>
<path d="M54.0532 25.4191H52.727V26.182H54.0532V25.4191Z" fill="#1E3532"/>
<path d="M40.6242 6.3324H40.1549V8.58268H40.6242V6.3324Z" fill="#6F8B8C"/>
<path d="M46.9289 6.3324H46.4595V8.58268H46.9289V6.3324Z" fill="#6F8B8C"/>
<path fill-rule="evenodd" clip-rule="evenodd" d="M40.0527 5.76246L46.9084 5.76099C47.0858 5.76099 47.2296 5.90736 47.2296 6.08626V6.6954C47.2296 6.87504 47.085 7.02141 46.9084 7.02141L40.0534 7.02289C39.8768 7.02289 39.7323 6.87652 39.7323 6.69762V6.08847C39.7315 5.90884 39.8761 5.76246 40.0527 5.76246Z" fill="#6A6D47"/>
<path fill-rule="evenodd" clip-rule="evenodd" d="M32.1036 8.26041L54.859 8.25671C55.8107 8.25671 56.5895 9.04549 56.5895 10.0095L56.5917 24.0153C56.5917 24.9793 55.8129 25.7681 54.8612 25.7681L32.1051 25.7718C31.1533 25.7718 30.3745 24.983 30.3745 24.019L30.3723 10.0132C30.3731 9.04919 31.1519 8.26041 32.1036 8.26041Z" fill="#C16F29"/>
<path d="M36.2785 8.25964H34.6414V25.7718H36.2785V8.25964Z" fill="#6A6D47"/>
<path d="M52.3241 8.25745H50.687V25.7696H52.3241V8.25745Z" fill="#6A6D47"/>
<path fill-rule="evenodd" clip-rule="evenodd" d="M32.1036 8.26044C31.1519 8.26044 30.3731 9.04922 30.3731 10.0139V10.5314L32.6437 10.5307V8.2597L32.1036 8.26044Z" fill="#905132"/>
<path fill-rule="evenodd" clip-rule="evenodd" d="M54.859 8.25598C55.8107 8.25598 56.5895 9.04476 56.5903 10.0087V10.5262L54.3189 10.527L54.3181 8.25598H54.859Z" fill="#905132"/>
<path fill-rule="evenodd" clip-rule="evenodd" d="M32.1116 25.7777C31.1599 25.7777 30.3811 24.9889 30.3804 24.0249V23.5075L32.6517 23.5067L32.6525 25.7777H32.1116Z" fill="#905132"/>
<path fill-rule="evenodd" clip-rule="evenodd" d="M54.8663 25.7747C55.818 25.7747 56.5968 24.9859 56.5968 24.0212V23.5037L54.3254 23.5045V25.7754L54.8663 25.7747Z" fill="#905132"/>
<path fill-rule="evenodd" clip-rule="evenodd" d="M28.7922 29.1516C29.3053 29.1516 29.7242 28.7273 29.7242 28.2076C29.7242 27.6879 29.3053 27.2635 28.7922 27.2635C28.2791 27.2635 27.8601 27.6879 27.8601 28.2076C27.8608 28.728 28.2791 29.1516 28.7922 29.1516Z" fill="#6F8B8C"/>
<path fill-rule="evenodd" clip-rule="evenodd" d="M28.8681 33.2079C29.3812 33.2079 29.8001 32.7835 29.8001 32.2638C29.8001 31.7442 29.3812 31.3198 28.8681 31.3198C28.355 31.3198 27.936 31.7442 27.936 32.2638C27.9367 32.7835 28.355 33.2079 28.8681 33.2079Z" fill="#6F8B8C"/>
<path fill-rule="evenodd" clip-rule="evenodd" d="M53.3 29.0245C53.8131 29.0245 54.232 28.6001 54.232 28.0804C54.232 27.5607 53.8131 27.1364 53.3 27.1364C52.7869 27.1364 52.3679 27.5607 52.3679 28.0804C52.3679 28.6001 52.7861 29.0245 53.3 29.0245Z" fill="#6F8B8C"/>
<path fill-rule="evenodd" clip-rule="evenodd" d="M53.3759 33.08C53.889 33.08 54.3079 32.6557 54.3079 32.136C54.3079 31.6163 53.889 31.192 53.3759 31.192C52.8628 31.192 52.4438 31.6163 52.4438 32.136C52.4438 32.6564 52.862 33.08 53.3759 33.08Z" fill="#6F8B8C"/>
<path d="M37.0004 85.9993C57.3734 85.9993 73.889 85.6296 73.889 85.1735C73.889 84.7175 57.3734 84.3478 37.0004 84.3478C16.6273 84.3478 0.111664 84.7175 0.111664 85.1735C0.111664 85.6296 16.6273 85.9993 37.0004 85.9993Z" fill="#58595B"/>
<path d="M61.522 65.7874H12.4772V78.8818H61.522V65.7874Z" fill="black"/>
<path d="M65.7509 85.1735H59.3295C58.7478 85.1735 58.2763 84.696 58.2763 84.1068V65.5043H66.8041V84.1068C66.8041 84.696 66.3326 85.1735 65.7509 85.1735Z" fill="#231F20"/>
<path d="M14.6705 85.1735H8.24906C7.66735 85.1735 7.19585 84.696 7.19585 84.1068V65.5043H15.7237V84.1068C15.7237 84.696 15.2522 85.1735 14.6705 85.1735Z" fill="#231F20"/>
<path d="M66.8041 65.5043H58.2763V80.6582H66.8041V65.5043Z" fill="black"/>
<path d="M15.7237 65.5043H7.19585V80.6582H15.7237V65.5043Z" fill="black"/>
<path d="M65.9991 77.8889H53.1708V59.2701H66.2348L67.4362 61.7518V64.955C67.4362 65.811 66.7925 77.8889 65.9991 77.8889Z" fill="#F4777C"/>
<path d="M8.00091 77.8889H20.83V59.2701H7.76516L6.56378 61.7518V64.955C6.56378 65.811 7.20753 77.8889 8.00091 77.8889Z" fill="#F4777C"/>
<path d="M1.13058 50.0414H8.88989L8.54101 46.9254C8.41912 45.8373 7.58342 45.061 6.65501 45.1741L2.46041 45.6828C1.1605 45.8402 0.134295 47.0518 0.00583657 48.5806C-0.0605822 49.3635 0.462009 50.0414 1.13058 50.0414Z" fill="#ED1C24"/>
<path d="M2.09256 50.0413H10.0424V48.8689H3.16694C2.57355 48.8689 2.09256 49.3561 2.09256 49.9571V50.0413Z" fill="black"/>
<path d="M2.4604 45.6835L6.65501 45.1741C7.58341 45.0618 8.41912 45.838 8.54101 46.9254L8.61691 47.6018H3.08153C2.19765 47.6018 1.41668 47.1568 0.929123 46.4826C1.34734 46.0494 1.87285 45.7544 2.4604 45.6835Z" fill="#F4777C"/>
<path d="M72.8694 50.0414H65.1101L65.459 46.9254C65.5809 45.8373 66.4166 45.061 67.345 45.1741L71.5396 45.6828C72.8395 45.8402 73.8657 47.0518 73.9942 48.5806C74.0606 49.3635 73.538 50.0414 72.8694 50.0414Z" fill="#ED1C24"/>
<path d="M71.9074 50.0413H63.9576V48.8689H70.8331C71.4265 48.8689 71.9074 49.3561 71.9074 49.9571V50.0413Z" fill="black"/>
<path d="M71.5396 45.6835L67.345 45.1741C66.4166 45.0618 65.5809 45.838 65.459 46.9254L65.3831 47.6018H70.9185C71.8023 47.6018 72.5833 47.1568 73.0709 46.4826C72.6534 46.0494 72.1271 45.7544 71.5396 45.6835Z" fill="#F4777C"/>
<path d="M65.3488 51.043C65.3488 51.043 57.3712 35.6607 56.7581 35.606C51.4395 35.1299 44.5407 34.8409 37.0004 34.8409C29.4651 34.8409 22.5663 35.1292 17.2477 35.606C16.6346 35.6615 8.64758 51.0445 8.64758 51.0445C7.77975 52.3146 7.31117 53.8589 7.31117 55.446V64.252C7.31117 65.4976 8.36 77.8889 9.65335 77.8889H64.3466C65.64 77.8889 66.6888 65.4984 66.6888 64.252V55.4497C66.6888 53.8603 66.2188 52.3138 65.3488 51.043Z" fill="#ED1C24"/>
<path d="M65.3488 51.043C65.3488 51.043 65.3086 50.9661 65.24 50.8331L59.9616 60.9756C56.4611 67.7028 49.5703 71.9128 42.0628 71.9128H15.8055C12.6152 71.9128 10.0285 74.5327 10.0285 77.764V77.8882H64.3466C65.64 77.8882 66.6888 65.4976 66.6888 64.2512V55.4497C66.6888 53.8603 66.2188 52.3138 65.3488 51.043Z" fill="#B2151B"/>
<path d="M8.64758 51.0445C8.24615 51.6322 7.93376 52.2813 7.71042 52.9636C8.73079 55.7025 10.03 58.2729 11.5795 60.6178H23.0948C17.6075 60.0663 13.4056 58.0149 11.4021 51.4467C11.1262 50.5426 11.7985 49.6222 12.7334 49.6222H61.2673C62.2015 49.6222 62.8745 50.5418 62.5986 51.4467C60.5951 58.0149 56.3932 60.0663 50.906 60.6178H62.422C63.9715 58.2744 65.2699 55.704 66.2903 52.9666C66.0655 52.282 65.7524 51.6322 65.3495 51.043C65.3495 51.043 60.201 41.1171 57.8595 37.1858H16.1471C13.802 41.1171 8.64758 51.0445 8.64758 51.0445Z" fill="#F4777C"/>
<path d="M36.1544 60.8455H23.9239C23.9239 60.8455 18.898 57.7813 13.6969 52.0447C18.9257 56.1017 23.8684 59.8867 23.8684 59.8867C23.8684 59.8867 36.199 60.0774 36.1544 60.8455Z" fill="#F4777C"/>
<path d="M37.8456 60.8455H50.0754C50.0754 60.8455 55.1013 57.7813 60.3024 52.0447C55.0736 56.1017 50.1308 59.8867 50.1308 59.8867C50.1308 59.8867 37.801 60.0774 37.8456 60.8455Z" fill="#BCBEC0"/>
<path d="M62.4555 63.1031H11.5452V67.3494H62.4555V63.1031Z" fill="#231F20"/>
<path d="M65.5568 64.252V61.8849C65.5568 60.9853 64.8598 60.1965 63.9635 60.1898C63.9569 60.1898 63.9511 60.1898 63.9445 60.1898H58.0945C54.7028 60.1898 47.3369 62.9834 47.5164 66.404C47.5792 67.5927 48.628 68.4901 49.8141 68.4901H62.1074C63.8817 68.4901 65.3561 67.1151 65.4933 65.3394C65.5356 64.8064 65.5568 64.4235 65.5568 64.252Z" fill="black"/>
<path d="M63.762 60.3H59.1667C55.5808 60.3 47.8449 62.8223 47.8449 66.0898C47.8449 67.2756 48.8995 68.2366 50.1994 68.2366H61.8461C63.7584 68.2366 65.3371 66.7359 65.4604 64.8131C65.4772 64.5485 65.486 64.3533 65.486 64.2439V62.5798C65.4867 61.3209 65.0116 60.3 63.762 60.3Z" fill="#E6E7E8"/>
<path d="M62.5329 67.5395H55.0006C54.4174 67.5395 53.9452 67.0612 53.9452 66.4705C53.9452 64.802 58.5624 63.45 60.2097 63.45H63.2117C64.0292 63.45 64.6912 64.1212 64.6912 64.9484V65.3535C64.6912 66.5607 63.7248 67.5395 62.5329 67.5395Z" fill="#D1D3D4"/>
<path d="M58.7777 65.2751H51.2454C50.6622 65.2751 50.19 64.7969 50.19 64.2062C50.19 62.5377 54.8072 61.1856 56.4545 61.1856H59.4565C60.2739 61.1856 60.9359 61.8568 60.9359 62.6841V63.0892C60.9359 64.2964 59.9696 65.2751 58.7777 65.2751Z" fill="white"/>
<path d="M8.44321 64.252V61.8849C8.44321 60.9853 9.14024 60.1965 10.0365 60.1898C10.0431 60.1898 10.0489 60.1898 10.0555 60.1898H15.9055C19.2972 60.1898 26.6631 62.9834 26.4836 66.404C26.4208 67.5927 25.372 68.4901 24.1859 68.4901H11.8919C10.1175 68.4901 8.64319 67.1151 8.50598 65.3394C8.46437 64.8064 8.44321 64.4235 8.44321 64.252Z" fill="black"/>
<path d="M10.238 60.3H14.8333C18.4192 60.3 26.1551 62.8223 26.1551 66.0898C26.1551 67.2756 25.1005 68.2366 23.8005 68.2366H12.1539C10.2416 68.2366 8.6629 66.7359 8.53955 64.8131C8.52277 64.5485 8.51401 64.3533 8.51401 64.2439V62.5798C8.51328 61.3209 8.98843 60.3 10.238 60.3Z" fill="#E6E7E8"/>
<path d="M11.4671 67.5395H18.9994C19.5826 67.5395 20.0548 67.0612 20.0548 66.4705C20.0548 64.802 15.4376 63.45 13.7903 63.45H10.7883C9.97084 63.45 9.30884 64.1212 9.30884 64.9484V65.3535C9.30884 66.5607 10.2752 67.5395 11.4671 67.5395Z" fill="#D1D3D4"/>
<path d="M15.2223 65.2751H22.7546C23.3378 65.2751 23.81 64.7969 23.81 64.2062C23.81 62.5377 19.1928 61.1856 17.5455 61.1856H14.5435C13.7261 61.1856 13.0641 61.8568 13.0641 62.6841V63.0892C13.0641 64.2964 14.0304 65.2751 15.2223 65.2751Z" fill="white"/>
<path d="M57.5938 78.2822H16.4062V78.1322C16.4062 74.3842 19.406 71.3451 23.1072 71.3451H50.8936C54.594 71.3451 57.5946 74.3834 57.5946 78.1322V78.2822H57.5938Z" fill="black"/>
<path d="M12.0846 49.9068H61.9154C62.7928 49.9068 63.3606 48.9694 62.9592 48.1792C61.2797 44.8754 58.5522 39.5721 57.0822 37.0431C56.8713 36.6794 56.4873 36.4561 56.0706 36.4561H17.9345C17.5178 36.4561 17.1346 36.6794 16.9237 37.0423C15.453 39.5706 12.7232 44.874 11.0416 48.1784C10.6387 48.9687 11.2065 49.9068 12.0846 49.9068Z" fill="black"/>
<path d="M56.0421 37.1858H17.963C17.6908 37.1858 17.4404 37.3373 17.3046 37.585C15.8369 40.2692 13.4392 45.0921 11.9218 48.1777C11.9196 48.1814 11.9182 48.1851 11.916 48.1888C11.6737 48.6952 12.0787 49.2881 12.6188 49.2881H61.3804C61.9206 49.2881 62.3256 48.6959 62.0833 48.1895C62.0819 48.1858 62.0797 48.1821 62.0775 48.1784C60.5623 45.0936 58.1668 40.2699 56.6997 37.585C56.5654 37.3373 56.3151 37.1858 56.0421 37.1858Z" fill="#231F20"/>
<path d="M54.3517 38.6429H19.6534C19.4052 38.6429 19.1768 38.7619 19.0534 38.9571C17.7163 41.0691 15.5311 44.8637 14.1487 47.2914C14.1472 47.2943 14.145 47.2973 14.1436 47.3003C13.9224 47.6987 14.2917 48.1652 14.7837 48.1652H59.2156C59.7076 48.1652 60.0769 47.6987 59.8565 47.301C59.855 47.298 59.8528 47.2951 59.8513 47.2921C58.4704 44.8644 56.2874 41.0698 54.951 38.9578C54.8283 38.7626 54.5999 38.6429 54.3517 38.6429Z" fill="#85D5D0"/>
<path d="M32.0912 46.612C32.0117 46.612 31.9423 46.5366 31.9263 46.4324L31.5358 43.947C31.3168 42.5542 30.4037 41.5585 29.3462 41.5585H26.912C25.8544 41.5585 24.9406 42.555 24.7224 43.947L24.3319 46.4324C24.3158 46.5373 24.2465 46.612 24.167 46.612C23.024 46.612 22.0853 47.7874 21.981 49.2881H34.2772C34.1721 47.7874 33.2342 46.612 32.0912 46.612ZM49.8338 46.612C49.7542 46.612 49.6849 46.5366 49.6688 46.4324L49.2784 43.947C49.0594 42.5542 48.1463 41.5585 47.0887 41.5585H44.6546C43.597 41.5585 42.6832 42.555 42.465 43.947L42.0745 46.4324C42.0577 46.5373 41.9891 46.612 41.9095 46.612C40.7665 46.612 39.8279 47.7874 39.7235 49.2881H52.0205C51.9154 47.7874 50.9775 46.612 49.8338 46.612Z" fill="#414042"/>
<path d="M29.9213 46.3828C29.806 46.3828 29.7067 46.3015 29.6834 46.1877L29.1206 43.4894C28.8053 41.9776 27.4879 40.8961 25.9624 40.8961H22.4517C20.9263 40.8961 19.6096 41.9776 19.2936 43.4894L18.7308 46.1877C18.7075 46.3015 18.6082 46.3828 18.4929 46.3828C16.8441 46.3828 15.4916 47.6588 15.3413 49.2888H33.0722C32.9225 47.6588 31.5694 46.3828 29.9213 46.3828ZM55.5064 46.3828C55.3918 46.3828 55.2925 46.3015 55.2684 46.1877L54.7057 43.4894C54.3904 41.9776 53.0737 40.8961 51.5483 40.8961H48.0376C46.5121 40.8961 45.1954 41.9776 44.8794 43.4894L44.3166 46.1877C44.2926 46.3015 44.194 46.3828 44.0787 46.3828C42.4299 46.3828 41.0767 47.6588 40.9264 49.2888H58.6573C58.5076 47.6588 57.1544 46.3828 55.5064 46.3828Z" fill="#58595B"/>
<path d="M11.9218 48.1785C11.9196 48.1822 11.9182 48.1859 11.916 48.1896C11.6737 48.6959 12.0787 49.2888 12.6188 49.2888H61.3804C61.9206 49.2888 62.3256 48.6967 62.0833 48.1903C62.0819 48.1866 62.0797 48.1829 62.0782 48.1792C61.987 47.9937 61.8921 47.8007 61.795 47.6033H12.205C12.1079 47.8 12.013 47.9922 11.9218 48.1785Z" fill="#6D6E71"/>
<path opacity="0.5" d="M41.3606 42.9246H59.4689C58.4646 40.9301 57.4588 38.9726 56.7012 37.5857C56.5654 37.3373 56.3151 37.1858 56.0428 37.1858H17.963C17.6907 37.1858 17.4404 37.3373 17.3046 37.585C15.8369 40.2692 13.4392 45.0921 11.9218 48.1777C11.9203 48.1814 11.9182 48.1851 11.9167 48.1888C11.6736 48.6952 12.0795 49.2881 12.6196 49.2881H20.6818C24.9421 45.3981 31.8416 42.9246 41.3606 42.9246Z" fill="white"/>
<path d="M12.8779 6.95636H11.9138V9.75812H12.8779V6.95636Z" fill="#434C41"/>
<path d="M12.8779 23.4453H11.9138V26.2471H12.8779V23.4453Z" fill="#434C41"/>
<path fill-rule="evenodd" clip-rule="evenodd" d="M37.0376 19.3521C37.0106 19.304 36.9347 19.2811 36.869 19.3003L36.0581 19.5361C35.9917 19.5554 35.9596 19.6101 35.9866 19.6581C36.0136 19.7062 36.0895 19.7291 36.1559 19.7099L36.9668 19.474C37.0325 19.4548 37.0646 19.4001 37.0376 19.3521Z" fill="#0F1C1A"/>
<path fill-rule="evenodd" clip-rule="evenodd" d="M37.0376 14.4619C37.0106 14.51 36.9347 14.5329 36.869 14.5137L36.0581 14.2779C35.9917 14.2586 35.9596 14.2039 35.9866 14.1559C36.0136 14.1078 36.0895 14.0849 36.1559 14.1041L36.9668 14.34C37.0325 14.3592 37.0646 14.4146 37.0376 14.4619Z" fill="#0F1C1A"/>
<path fill-rule="evenodd" clip-rule="evenodd" d="M37.6908 16.9037C37.6908 17.8351 37.3397 18.6579 36.8026 19.1554C36.6288 19.3188 36.6478 19.6411 36.8026 19.5997C37.755 19.3439 38.4718 18.2336 38.4718 16.9029C38.4718 15.5723 37.755 14.4627 36.8026 14.2062C36.6478 14.1648 36.6288 14.4871 36.8026 14.6504C37.3397 15.1502 37.6908 15.973 37.6908 16.9037Z" fill="#233A38"/>
<path fill-rule="evenodd" clip-rule="evenodd" d="M36.1194 19.8955V13.9201C36.1194 13.7575 35.9347 13.6244 35.7099 13.6244H35.5734C35.3479 13.6244 35.164 13.7575 35.164 13.9201V19.8955C35.164 20.0581 35.3486 20.1912 35.5734 20.1912H35.7099C35.9347 20.1912 36.1194 20.0581 36.1194 19.8955Z" fill="#233A38"/>
<path fill-rule="evenodd" clip-rule="evenodd" d="M26.5653 1.45265C26.5179 1.48 26.4952 1.55689 26.5142 1.62342L26.747 2.44473C26.766 2.512 26.82 2.54453 26.8675 2.51791C26.9149 2.49056 26.9375 2.41368 26.9186 2.34641L26.6857 1.5251C26.6668 1.45857 26.6127 1.4253 26.5653 1.45265Z" fill="#0F1C1A"/>
<path fill-rule="evenodd" clip-rule="evenodd" d="M21.7372 1.45265C21.7846 1.48 21.8072 1.55689 21.7883 1.62342L21.5554 2.44473C21.5365 2.512 21.4825 2.54453 21.435 2.51791C21.3876 2.49056 21.3649 2.41368 21.3839 2.34641L21.6167 1.5251C21.6357 1.45857 21.6905 1.4253 21.7372 1.45265Z" fill="#0F1C1A"/>
<path fill-rule="evenodd" clip-rule="evenodd" d="M24.148 0.790998C25.0676 0.790998 25.88 1.14658 26.3712 1.69067C26.5325 1.86661 26.8507 1.84739 26.8098 1.69067C26.558 0.725944 25.4617 0 24.148 0C22.8342 0 21.7386 0.725944 21.4854 1.69067C21.4445 1.84739 21.7627 1.86661 21.924 1.69067C22.4167 1.14658 23.229 0.790998 24.148 0.790998Z" fill="#233A38"/>
<path fill-rule="evenodd" clip-rule="evenodd" d="M27.101 2.38263H21.2015C21.0409 2.38263 20.9095 2.56966 20.9095 2.79735V2.93559C20.9095 3.16402 21.0409 3.35031 21.2015 3.35031H27.101C27.2616 3.35031 27.393 3.16328 27.393 2.93559V2.79735C27.3937 2.56966 27.2623 2.38263 27.101 2.38263Z" fill="#233A38"/>
<path d="M31.2964 31.0456H17.0061C14.5464 31.0456 12.5517 29.0259 12.5517 26.5347V7.28087C12.5517 4.7896 14.5457 2.76923 17.0061 2.76923H31.2964C33.7561 2.76923 35.7508 4.78886 35.7508 7.28087V26.5347C35.7508 29.0259 33.7568 31.0456 31.2964 31.0456Z" fill="#FF844A"/>
<path fill-rule="evenodd" clip-rule="evenodd" d="M17.5616 32.4013C17.5616 32.958 17.1163 33.4089 16.5667 33.4089C16.0171 33.4089 15.5719 32.958 15.5719 32.4013C15.5719 31.8447 16.0171 31.3937 16.5667 31.3937C17.1163 31.3937 17.5616 31.8447 17.5616 32.4013Z" fill="#233A38"/>
<path fill-rule="evenodd" clip-rule="evenodd" d="M17.2594 32.4013C17.2594 32.7887 16.9492 33.1029 16.5667 33.1029C16.1843 33.1029 15.8741 32.7887 15.8741 32.4013C15.8741 32.0139 16.1843 31.6998 16.5667 31.6998C16.9492 31.6998 17.2594 32.0139 17.2594 32.4013Z" fill="#81969D"/>
<path d="M16.5667 32.9551C16.8687 32.9551 17.1134 32.7072 17.1134 32.4014C17.1134 32.0956 16.8687 31.8477 16.5667 31.8477C16.2648 31.8477 16.0201 32.0956 16.0201 32.4014C16.0201 32.7072 16.2648 32.9551 16.5667 32.9551Z" fill="#33463E"/>
<path d="M16.7784 30.4889H16.3558V32.4849H16.7784V30.4889Z" fill="#33463E"/>
<path fill-rule="evenodd" clip-rule="evenodd" d="M32.7313 32.4013C32.7313 32.958 32.2861 33.4089 31.7365 33.4089C31.1869 33.4089 30.7417 32.958 30.7417 32.4013C30.7417 31.8447 31.1869 31.3937 31.7365 31.3937C32.2861 31.3937 32.7313 31.8447 32.7313 32.4013Z" fill="#233A38"/>
<path fill-rule="evenodd" clip-rule="evenodd" d="M32.4291 32.4013C32.4291 32.7887 32.1189 33.1029 31.7365 33.1029C31.354 33.1029 31.0438 32.7887 31.0438 32.4013C31.0438 32.0139 31.354 31.6998 31.7365 31.6998C32.1189 31.6998 32.4291 32.0139 32.4291 32.4013Z" fill="#81969D"/>
<path fill-rule="evenodd" clip-rule="evenodd" d="M32.2832 32.4014C32.2832 32.7074 32.0387 32.9551 31.7365 32.9551C31.4343 32.9551 31.1898 32.7074 31.1898 32.4014C31.1898 32.0953 31.4343 31.8477 31.7365 31.8477C32.0379 31.8477 32.2832 32.0953 32.2832 32.4014Z" fill="#33463E"/>
<path d="M31.9474 30.4889H31.5248V32.4849H31.9474V30.4889Z" fill="#33463E"/>
<path d="M17.0689 27.3405H12.5517V27.3774C12.5517 29.4037 14.1735 31.0463 16.1741 31.0463H18.244C18.5586 30.7366 18.7542 30.3034 18.7542 29.8243V29.0481C18.7542 28.1041 18.0002 27.3405 17.0689 27.3405Z" fill="#434C41"/>
<path d="M31.2949 27.3405H35.8121V27.3774C35.8121 29.4037 34.1903 31.0463 32.1897 31.0463H30.1198C29.8052 30.7366 29.6096 30.3034 29.6096 29.8243V29.0481C29.6096 28.1041 30.3643 27.3405 31.2949 27.3405Z" fill="#434C41"/>
<path fill-rule="evenodd" clip-rule="evenodd" d="M16.6828 25.9743C16.35 25.9743 16.0792 25.7008 16.0792 25.3637V7.55813C16.0792 7.22103 16.3492 6.94751 16.6821 6.94751C17.0149 6.94751 17.2849 7.22103 17.2849 7.55813V25.3637C17.2864 25.7008 17.0163 25.9743 16.6828 25.9743Z" fill="#DC7540"/>
<path fill-rule="evenodd" clip-rule="evenodd" d="M19.6702 25.9743C19.3366 25.9743 19.0666 25.7008 19.0666 25.3637V7.55813C19.0666 7.22103 19.3366 6.94751 19.6702 6.94751C20.003 6.94751 20.273 7.22103 20.273 7.55813V25.3637C20.2738 25.7008 20.0037 25.9743 19.6702 25.9743Z" fill="#DC7540"/>
<path fill-rule="evenodd" clip-rule="evenodd" d="M22.6575 25.9743C22.3247 25.9743 22.0547 25.7008 22.0547 25.3637V7.55813C22.0547 7.22103 22.3247 6.94751 22.6575 6.94751C22.9904 6.94751 23.2604 7.22103 23.2604 7.55813V25.3637C23.2612 25.7008 22.9911 25.9743 22.6575 25.9743Z" fill="#DC7540"/>
<path fill-rule="evenodd" clip-rule="evenodd" d="M25.6449 25.9743C25.3121 25.9743 25.0421 25.7008 25.0421 25.3637V7.55813C25.0421 7.22103 25.3121 6.94751 25.6449 6.94751C25.9778 6.94751 26.2486 7.22103 26.2486 7.55813V25.3637C26.2486 25.7008 25.9785 25.9743 25.6449 25.9743Z" fill="#DC7540"/>
<path fill-rule="evenodd" clip-rule="evenodd" d="M28.6323 25.9743C28.2995 25.9743 28.0294 25.7008 28.0294 25.3637V7.55813C28.0294 7.22103 28.2995 6.94751 28.6323 6.94751C28.9652 6.94751 29.2359 7.22103 29.2359 7.55813V25.3637C29.2359 25.7008 28.9659 25.9743 28.6323 25.9743Z" fill="#DC7540"/>
<path fill-rule="evenodd" clip-rule="evenodd" d="M31.6197 25.9743C31.2869 25.9743 31.0161 25.7008 31.0161 25.3637V7.55813C31.0161 7.22103 31.2862 6.94751 31.6197 6.94751C31.9525 6.94751 32.2226 7.22103 32.2226 7.55813V25.3637C32.2233 25.7008 31.9533 25.9743 31.6197 25.9743Z" fill="#DC7540"/>
<path fill-rule="evenodd" clip-rule="evenodd" d="M35.4413 14.3333C35.3903 14.3954 35.6508 15.1273 35.6508 15.1273C35.6508 15.1273 36.5602 16.1977 36.8347 16.8571C37.1091 17.5165 37.2317 17.8773 37.2317 17.8773L38.7878 17.6917C38.7878 17.6917 37.9536 15.0437 37.3741 14.5492C36.7945 14.0546 36.0603 13.7138 36.0603 13.7138L35.4413 14.3333Z" fill="#8A9575"/>
<path fill-rule="evenodd" clip-rule="evenodd" d="M26.2157 13.7974C26.1748 13.8129 25.7274 14.116 25.7274 14.116C25.7274 14.116 25.1983 15.0541 24.9545 15.6825C24.71 16.3108 24.629 16.8157 24.629 16.8157L26.1646 16.8978C26.1646 16.8978 26.0427 16.0018 26.2362 15.4762C26.4296 14.9506 26.5507 14.9957 26.5507 14.9957L26.2157 13.7974Z" fill="#8A9575"/>
<path fill-rule="evenodd" clip-rule="evenodd" d="M36.2617 14.0835L35.6508 15.1273C32.7131 14.3075 29.9315 13.1468 26.55 14.9957L25.7274 14.116C27.2098 10.4101 35.6457 12.0742 36.2617 14.0835Z" fill="#364937"/>
<path fill-rule="evenodd" clip-rule="evenodd" d="M26.1799 14.6002L26.55 14.9964C29.9322 13.1475 32.7138 14.3082 35.6508 15.128L35.8647 14.7628C35.6727 14.6578 35.4435 14.5366 35.1947 14.4117C34.7137 14.1707 34.1582 13.9178 33.6532 13.75C32.4124 13.3383 29.9709 13.0285 28.3637 13.4617C28.209 13.5031 28.0601 13.5512 27.9163 13.6029C27.1813 13.8698 26.5945 14.2594 26.1799 14.6002Z" fill="#2C3C2B"/>
<path fill-rule="evenodd" clip-rule="evenodd" d="M17.9718 21.4493C17.6667 21.5728 16.1719 22.1014 16.039 22.4592C15.9062 22.8162 15.0625 25.0761 14.7574 26.4563C14.4523 27.8365 14.5537 29.5678 15.307 29.8768C16.0595 30.1858 17.1382 30.4128 17.2806 29.7326C17.4222 29.0525 17.9718 21.4493 17.9718 21.4493Z" fill="#1E2C1F"/>
<path fill-rule="evenodd" clip-rule="evenodd" d="M18.236 21.079C17.9674 21.062 16.8098 21.2276 15.9792 21.8434C15.8048 21.9727 15.6442 22.1228 15.5099 22.2943C14.7369 23.2834 15.5099 23.0358 15.6726 22.9123C15.8354 22.7889 18.0119 22.2115 18.0119 22.2115L18.236 21.079Z" fill="#364937"/>
<path fill-rule="evenodd" clip-rule="evenodd" d="M51.2965 21.2431C51.5651 21.2261 52.7226 21.3917 53.5532 22.0075C53.7277 22.1369 53.8883 22.2869 54.0226 22.4584C54.7955 23.4476 54.0226 23.1999 53.8598 23.0764C53.697 22.953 51.5205 22.3756 51.5205 22.3756L51.2965 21.2431Z" fill="#364937"/>
<path fill-rule="evenodd" clip-rule="evenodd" d="M51.5614 21.6142C51.8665 21.7377 53.3613 22.2662 53.4941 22.624C53.627 22.9811 54.4707 25.241 54.7758 26.6211C55.0809 28.0013 54.9794 29.7326 54.2262 30.0417C53.4737 30.3507 52.3949 30.5776 52.2526 29.8975C52.1103 29.2174 51.5614 21.6142 51.5614 21.6142Z" fill="#1E2C1F"/>
<path fill-rule="evenodd" clip-rule="evenodd" d="M19.3797 16.8239C19.2629 16.835 18.0411 17.0176 17.4112 19.3529C15.5369 26.3033 14.8216 33.4844 21.1708 33.4445H49.8301C49.8301 33.4445 52.7774 33.5901 52.7774 30.8689C52.7774 23.4483 52.9591 24.9098 51.4775 18.4029C51.2176 17.2622 50.6396 16.8231 50.6396 16.8231C50.6396 16.8231 46.699 16.1208 44.4947 16.8231C42.2905 17.5254 35.9632 17.5254 33.8831 17.3502C31.8029 17.1743 26.3427 16.2872 23.9159 16.5112C21.489 16.7359 19.3797 16.8239 19.3797 16.8239Z" fill="#5E6C51"/>
<path fill-rule="evenodd" clip-rule="evenodd" d="M27.7244 31.9267C27.7382 32.4191 27.7543 32.9255 27.774 33.4444H41.7103H43.2437C43.2437 33.4444 43.3262 32.8205 43.4007 31.7826C42.8861 31.8048 42.3409 31.824 41.7701 31.8395C37.6748 31.9504 32.2788 31.8772 27.7149 31.5786C27.7178 31.6939 27.7214 31.8099 27.7244 31.9267Z" fill="#506044"/>
<path fill-rule="evenodd" clip-rule="evenodd" d="M50.6396 16.8238C50.6396 16.8238 46.699 16.1216 44.4947 16.8238C30.6103 15.5701 24.9873 16.4764 19.3797 16.8238C19.3797 16.8238 17.8331 16.9702 17.4112 19.3528C17.7477 19.4726 18.1491 19.5598 18.6279 19.6042C24.6355 21.8641 28.7236 19.3181 36.5493 20.237C38.8557 20.6953 49.6199 21.7968 51.7833 19.7417C52.2555 19.2944 51.765 17.5328 50.6396 16.8238Z" fill="#364937"/>
<path fill-rule="evenodd" clip-rule="evenodd" d="M17.7397 18.2573C17.6039 18.5559 17.4886 18.9167 17.4119 19.3528C17.7484 19.4726 18.1498 19.5598 18.6286 19.6042C24.6363 21.8641 28.7243 19.3181 36.55 20.237C38.8564 20.6953 49.6207 21.7968 51.784 19.7417C51.9665 19.5687 52.0044 19.1991 51.9183 18.7696C51.6986 18.9122 51.4563 19.0764 51.2001 19.2619C50.1425 20.0241 47.9857 20.56 45.2801 20.2924C42.5744 20.0248 36.1457 19.0771 34.2334 19.1385C32.3211 19.2005 26.869 20.0862 24.2246 19.86C22.4977 19.7114 19.6271 18.8701 17.7397 18.2573Z" fill="#2A3A29"/>
<path fill-rule="evenodd" clip-rule="evenodd" d="M25.996 33.4452C25.996 33.4452 24.6961 14.2786 30.676 12.0838V13.7523C30.676 13.7523 26.9938 12.2597 27.774 33.4459H25.996V33.4452Z" fill="#8A9575"/>
<path fill-rule="evenodd" clip-rule="evenodd" d="M25.996 33.4452C25.996 33.4452 25.5238 26.4763 26.4602 20.461L28.0032 20.3235C27.6908 23.2361 27.5521 27.4233 27.774 33.4452H25.996Z" fill="#2B3F2A"/>
<path fill-rule="evenodd" clip-rule="evenodd" d="M37.8711 14.5898C37.8711 14.5898 42.519 15.9634 41.7103 33.4459L43.2437 33.4444C43.2437 33.4444 45.4458 18.0281 38.1653 13.2289L37.8711 14.5898Z" fill="#8A9575"/>
<path fill-rule="evenodd" clip-rule="evenodd" d="M40.9928 20.7663C41.6081 23.517 41.9832 27.5452 41.7095 33.4467L43.243 33.4452C43.243 33.4452 44.1933 26.8282 42.8211 20.8816L42.7883 20.858L40.9928 20.7663Z" fill="#2B3F2A"/>
<path fill-rule="evenodd" clip-rule="evenodd" d="M39.0214 13.8787L38.4105 14.9225C35.4727 14.1027 32.6912 12.9421 29.3097 14.7909L28.4871 13.9112C29.9695 10.2053 38.4054 11.8694 39.0214 13.8787Z" fill="#364937"/>
<path fill-rule="evenodd" clip-rule="evenodd" d="M39.8717 24.7043C39.5871 24.6215 28.4791 24.9512 28.4791 24.9512L28.3367 25.6313L40.1972 25.5899L40.0958 24.6836L39.8717 24.7043Z" fill="#364937"/>
<path fill-rule="evenodd" clip-rule="evenodd" d="M28.9396 14.3954L29.3097 14.7916C32.6919 12.9428 35.4727 14.1034 38.4105 14.9232L38.6243 14.558C38.4324 14.4531 38.2032 14.3318 37.9543 14.2069C37.4733 13.9659 36.9179 13.7131 36.4128 13.5453C35.172 13.1335 32.7306 12.8238 31.1234 13.257C30.9687 13.2984 30.8198 13.3464 30.676 13.3982C29.941 13.665 29.3542 14.0546 28.9396 14.3954Z" fill="#2C3C2B"/>
<path fill-rule="evenodd" clip-rule="evenodd" d="M16.6427 22.5908C16.0668 25.4672 15.8588 28.1795 16.4565 30.1733C17.0594 32.1826 18.4812 33.4622 21.1715 33.4452H25.996C25.996 33.4452 25.9442 32.683 25.9092 31.4448C22.0175 31.1173 19.0454 30.5998 18.5761 29.8591C18.1199 29.1391 17.8039 27.8846 17.5849 26.5258C17.3579 25.1161 17.2353 23.5939 17.1696 22.4415C17.1565 22.2042 17.1448 21.9831 17.1361 21.782C17.128 21.5987 17.1215 21.4316 17.1156 21.2838C17.0996 20.8388 17.0959 20.5726 17.0959 20.5726C17.0317 20.8336 16.9689 21.0945 16.9091 21.3548C16.8638 21.5514 16.82 21.7473 16.7777 21.9425C16.731 22.1591 16.6857 22.3749 16.6427 22.5908Z" fill="#506044"/>
<path fill-rule="evenodd" clip-rule="evenodd" d="M41.7103 33.4452C41.7358 32.8944 41.7555 32.3592 41.7701 31.8403C41.7555 32.3592 41.7358 32.8937 41.7103 33.4452Z" fill="#506044"/>
<path fill-rule="evenodd" clip-rule="evenodd" d="M43.416 31.7826C43.3328 32.8197 43.2437 33.4452 43.2437 33.4452H49.8309C49.8309 33.4452 52.7781 33.5908 52.7781 30.8696C52.7781 30.6841 52.7781 30.5037 52.7781 30.3292C52.781 27.6893 52.8037 26.2574 52.7453 25.1241C52.7453 25.1241 52.5584 26.131 52.0015 27.3463C51.2643 28.9557 49.8798 30.931 47.423 31.424C46.6347 31.5822 45.2159 31.7035 43.416 31.7826Z" fill="#506044"/>
</g>
<defs>
<clipPath id="clip0_150_5406">
<rect width="74" height="86" fill="white"/>
</clipPath>
</defs>
</svg>
