<svg width="77" height="74" viewBox="0 0 77 74" fill="none" xmlns="http://www.w3.org/2000/svg">
<g clip-path="url(#clip0_5_309)">
<path d="M22.6885 69.6453C22.6885 73.3472 20.5918 74 18.0021 74H16.7152C14.1255 74 12.0288 73.3472 12.0288 69.6453V54.9744C12.0288 51.2725 14.1255 48.2742 16.7152 48.2742H18.0021C20.5918 48.2742 22.6885 51.2725 22.6885 54.9744V69.6453Z" fill="#292A2D"/>
<path d="M74.0544 69.6453C74.0544 73.3472 71.9577 74 69.3681 74H68.0811C65.4915 74 63.3947 73.3472 63.3947 69.6453V54.9744C63.3947 51.2725 65.4915 48.2742 68.0811 48.2742H69.3681C71.9577 48.2742 74.0544 51.2725 74.0544 54.9744V69.6453Z" fill="#292A2D"/>
<path d="M71.9655 49.9473H14.5715V68.8791H71.9655V49.9473Z" fill="#292A2D"/>
<path d="M20.4392 64.1999C20.4392 65.4508 19.426 66.4633 18.1743 66.4633C16.9225 66.4633 15.9093 65.4508 15.9093 64.1999C15.9093 62.949 16.9225 61.9365 18.1743 61.9365C19.426 61.9365 20.4392 62.949 20.4392 64.1999Z" fill="white"/>
<path d="M20.6074 54.0909C20.6074 54.9705 19.8954 55.6819 19.0153 55.6819C18.1351 55.6819 17.4232 54.9705 17.4232 54.0909C17.4232 53.2114 18.1351 52.4999 19.0153 52.4999C19.8954 52.4999 20.6074 53.2114 20.6074 54.0909Z" fill="#F0AD1C"/>
<path d="M19.7351 54.091C19.7351 54.4897 19.4104 54.8141 19.0114 54.8141C18.6124 54.8141 18.2916 54.4897 18.2916 54.091C18.2916 53.6922 18.6163 53.3717 19.0114 53.3717C19.4143 53.3678 19.7351 53.6922 19.7351 54.091Z" fill="white"/>
<path d="M68.7226 54.0909C68.7226 54.9705 68.0107 55.6819 67.1305 55.6819C66.2504 55.6819 65.5384 54.9705 65.5384 54.0909C65.5384 53.2114 66.2504 52.4999 67.1305 52.4999C68.0107 52.4999 68.7226 53.2114 68.7226 54.0909Z" fill="#F0AD1C"/>
<path d="M70.0644 64.0865C70.0644 65.3375 69.0512 66.3499 67.7994 66.3499C66.5516 66.3499 65.5345 65.3375 65.5345 64.0865C65.5345 62.8356 66.5476 61.8232 67.7994 61.8232C69.0512 61.8232 70.0644 62.8356 70.0644 64.0865Z" fill="white"/>
<path d="M67.8542 54.091C67.8542 54.4897 67.5295 54.8141 67.1305 54.8141C66.7315 54.8141 66.4108 54.4897 66.4108 54.091C66.4108 53.6922 66.7354 53.3717 67.1305 53.3717C67.5295 53.3678 67.8542 53.6922 67.8542 54.091Z" fill="white"/>
<path d="M76.9844 42.4184C76.9844 39.7485 74.1913 40.1159 74.1913 40.1159C73.9762 40.1159 73.4794 40.1159 72.4036 40.1159C69.7319 40.1159 69.2781 42.3989 69.2742 42.4184C68.5505 40.327 65.5854 32.1648 62.9605 30.5113C59.9445 28.6115 43.0651 28.502 43.0651 28.502C43.0651 28.502 26.1856 28.6154 23.1696 30.5113C20.5409 32.1648 17.5797 40.3309 16.856 42.4184H15.346C15.346 42.4184 14.9001 40.1159 12.2166 40.1159C11.1408 40.1159 10.644 40.1159 10.4289 40.1159C10.4289 40.1159 7.63585 39.7485 7.63585 42.4184C7.63585 42.4184 7.0217 44.9202 9.14581 44.9202C10.1981 44.9202 12.3652 44.9202 14.282 44.9202C12.8972 46.3275 11.6611 48.2781 11.6611 51.3976C11.6611 56.9837 11.6611 63.9067 11.6611 63.9067C11.6611 63.9067 10.4876 71.3887 21.6088 71.3887C33.1213 71.3887 43.069 71.3887 43.069 71.3887C43.069 71.3887 53.0167 71.3887 64.5292 71.3887C75.6504 71.3887 74.4769 63.9067 74.4769 63.9067C74.4769 63.9067 74.4769 56.9837 74.4769 51.3976C74.4769 48.2742 73.2408 46.3275 71.8521 44.9202C73.3033 44.9202 74.6999 44.9202 75.4783 44.9202C77.2504 44.9202 76.9844 42.4184 76.9844 42.4184ZM70.0448 51.7885C70.0448 51.7885 70.5494 56.1432 66.6924 56.6905C62.8354 57.2339 59.0644 57.488 59.0644 57.488C59.0644 57.488 59.4008 53.8017 62.0413 52.8791C64.6778 51.9566 70.0448 51.7885 70.0448 51.7885ZM21.378 39.8658C21.378 39.8658 21.378 39.8658 22.7902 36.0974C24.2024 32.329 26.1113 32.0749 29.5146 31.6567C32.9179 31.2384 43.1551 31.0703 43.1551 31.0703C43.1551 31.0703 53.3883 31.2384 56.7955 31.6567C60.1988 32.0749 62.1117 32.3251 63.5199 36.0974C64.9321 39.8658 64.9321 39.8658 64.9321 39.8658C64.9321 39.8658 66.176 43.3019 62.1078 43.3019C58.0395 43.3019 43.1551 43.3019 43.1551 43.3019C43.1551 43.3019 28.2706 43.3019 24.2024 43.3019C20.1302 43.3019 21.378 39.8658 21.378 39.8658ZM16.0814 51.7885C16.0814 51.7885 21.4445 51.9566 24.0889 52.8791C26.7294 53.8017 27.0658 57.488 27.0658 57.488C27.0658 57.488 23.2948 57.2378 19.4378 56.6905C15.5807 56.1432 16.0814 51.7885 16.0814 51.7885ZM26.6042 67.9018C24.4253 67.9018 19.2969 67.9018 19.2969 67.9018C19.2969 67.9018 14.9783 68.4178 14.9783 63.4884H29.229C29.2329 63.4884 28.7831 67.9018 26.6042 67.9018ZM53.0676 64.6885C53.0676 64.6885 52.6764 66.7564 49.547 66.7564C46.4175 66.7564 43.0651 66.7564 43.0651 66.7564C43.0651 66.7564 39.7127 66.7564 36.5832 66.7564C33.4538 66.7564 33.0626 64.6885 33.0626 64.6885C33.0626 64.6885 32.9257 64.325 32.7184 63.7386H53.4118C53.2045 64.3289 53.0676 64.6885 53.0676 64.6885ZM54.7692 59.2705H31.357C30.7625 56.8703 30.4378 54.4545 31.3258 53.8525C33.2269 52.5664 43.0612 52.6798 43.0612 52.6798C43.0612 52.6798 52.8955 52.5664 54.7966 53.8525C55.6885 54.4584 55.3638 56.8742 54.7692 59.2705ZM68.5192 67.9018C66.3403 67.9018 61.212 67.9018 61.212 67.9018C61.212 67.9018 56.8933 68.4178 56.8933 63.4884H71.144C71.144 63.4884 70.6981 67.9018 68.5192 67.9018Z" fill="#00519B"/>
<path d="M74.4652 63.9067C74.4652 63.9067 72.1455 69.6414 63.43 69.6414C55.3482 69.6414 44.6611 69.6414 43.1512 69.6414C43.1512 69.6414 43.0807 69.6414 42.9634 69.6414C41.4534 69.6414 30.7703 69.6414 22.6846 69.6414C13.9691 69.6414 11.6494 63.9067 11.6494 63.9067C11.6494 63.9067 10.4758 71.3887 21.5971 71.3887C32.468 71.3887 41.9424 71.3887 42.9634 71.3887C43.0182 71.3887 43.0494 71.3887 43.0534 71.3887H43.0573C43.0573 71.3887 43.0925 71.3887 43.1472 71.3887C44.1682 71.3887 53.6387 71.3887 64.5135 71.3887C75.6387 71.3927 74.4652 63.9067 74.4652 63.9067Z" fill="url(#paint0_linear_5_309)"/>
<path opacity="0.5" d="M67.6352 43.9312C67.2753 42.7468 66.9349 41.535 66.8841 41.0463C66.8606 41.9728 66.2856 43.1455 63.5238 43.1455C59.612 43.1455 46.7696 43.1455 43.2137 43.1455C39.6579 43.1455 26.8154 43.1455 22.9036 43.1455C20.1419 43.1455 19.5669 41.9728 19.5434 41.0463C19.4886 41.535 19.1483 42.7507 18.7923 43.9312C18.4324 45.1235 18.9292 46.3979 20.0206 47.0624C23.5413 49.2085 30.297 53.2974 30.8916 52.9652C32.6675 51.9683 40.6319 51.8745 43.2216 51.8706C45.8073 51.8745 53.7717 51.9644 55.5516 52.9652C56.1423 53.2974 62.898 49.2085 66.4225 47.0624C67.4982 46.3979 67.9989 45.1235 67.6352 43.9312Z" fill="url(#paint1_linear_5_309)"/>
<path d="M43.155 43.2706C43.155 43.2706 59.1974 43.2706 63.5825 43.2706C67.9676 43.2706 66.6259 39.5687 66.6259 39.5687C66.6259 39.5687 66.6259 39.5687 65.1042 35.5071C63.5825 31.4456 61.5249 31.1719 57.8556 30.7224C54.1863 30.2728 43.159 30.0891 43.159 30.0891C43.159 30.0891 32.1277 30.2689 28.4623 30.7224C24.793 31.1719 22.7354 31.4456 21.2137 35.5071C19.692 39.5687 19.692 39.5687 19.692 39.5687C19.692 39.5687 18.3503 43.2706 22.7354 43.2706C27.1127 43.2706 43.155 43.2706 43.155 43.2706Z" fill="#66CCDB"/>
<path opacity="0.5" d="M40.0373 30.9335C37.2169 30.996 31.0441 31.1563 28.5953 31.4573C25.3798 31.8521 23.5725 32.0906 22.2386 35.6518C20.9047 39.2129 20.9047 39.2129 20.9047 39.2129C20.9047 39.2129 19.7272 42.4575 23.5725 42.4575C27.4178 42.4575 41.4808 42.4575 41.4808 42.4575C41.4808 42.4575 43.5658 42.4575 46.2454 42.4575L40.0373 30.9335Z" fill="white"/>
<path opacity="0.5" d="M44.7354 30.9178C44.043 30.9335 43.1433 30.953 42.1497 30.9804L48.3265 42.4419C49.0736 42.4419 49.9694 42.4419 50.9474 42.4419L44.7354 30.9178Z" fill="white"/>
<path d="M29.9762 36.3749L24.4957 36.9652C24.4136 36.973 24.3432 36.9144 24.3354 36.8362L23.2361 26.6022C23.2283 26.5201 23.287 26.4497 23.3652 26.4419L28.8457 25.8517C28.9278 25.8438 28.9982 25.9025 29.0061 25.9807L30.1053 36.2147C30.1131 36.2929 30.0544 36.3632 29.9762 36.3749Z" fill="#2E587A"/>
<path d="M29.9605 36.2498L24.4801 36.8401C24.3979 36.8479 24.3275 36.7893 24.3197 36.7111L23.2205 26.481C23.2127 26.3989 23.2713 26.3285 23.3496 26.3207L28.83 25.7304C28.9122 25.7226 28.9826 25.7813 28.9904 25.8594L30.0896 36.0935C30.1014 36.1677 30.0427 36.2381 29.9605 36.2498Z" fill="#467093"/>
<path opacity="0.25" d="M26.9563 36.5704L24.4801 36.8362C24.3979 36.844 24.3275 36.7854 24.3197 36.7072L23.2205 26.4771C23.2127 26.395 23.2713 26.3246 23.3496 26.3168L28.388 25.7773L24.6131 26.8641L26.9563 36.5704Z" fill="#35546E"/>
<path d="M27.2418 28.4316L26.6081 28.4981C26.5103 28.5098 26.4203 28.4434 26.4047 28.3456C26.4047 28.3417 26.4047 28.3378 26.4008 28.33L26.2599 27.0244C26.2482 26.9227 26.3225 26.8289 26.4282 26.8211L27.0619 26.7546C27.1636 26.7429 27.2575 26.8172 27.2653 26.9188L27.4061 28.2245C27.4178 28.33 27.3435 28.4199 27.2418 28.4316Z" fill="#FFCD69"/>
<path d="M26.4712 27.427C26.4673 27.384 26.4986 27.3449 26.5416 27.341L27.0619 27.2863C27.1049 27.2824 27.144 27.3136 27.1479 27.3566C27.1479 27.3606 27.144 27.3645 27.1401 27.3645C27.1362 27.3645 27.1323 27.3606 27.1284 27.3566C27.1245 27.3254 27.0971 27.298 27.0619 27.3019L26.5416 27.3566C26.5103 27.3606 26.4829 27.3879 26.4868 27.4231C26.4868 27.427 26.4829 27.4309 26.479 27.4348C26.4751 27.4387 26.4712 27.4348 26.4712 27.427Z" fill="#59451C"/>
<path d="M26.5221 27.9C26.5221 27.8961 26.526 27.8921 26.5299 27.8882C26.5338 27.8882 26.5377 27.8921 26.5416 27.8961C26.5455 27.9273 26.5729 27.9508 26.6081 27.9508L27.1284 27.8961C27.1597 27.8921 27.1832 27.8648 27.1832 27.8296C27.1832 27.8257 27.1871 27.8218 27.191 27.8179C27.1949 27.8179 27.1988 27.8218 27.2027 27.8257C27.2066 27.8687 27.1753 27.9078 27.1323 27.9117L26.612 27.9664C26.5651 27.9703 26.526 27.9391 26.5221 27.9Z" fill="#59451C"/>
<path d="M27.1401 28.4433L27.1088 28.4472L27.0502 27.9117C27.0502 27.9039 27.0541 27.8961 27.0658 27.8961C27.0736 27.8961 27.0815 27.9 27.0815 27.9117L27.1401 28.4433Z" fill="#59451C"/>
<path d="M26.7411 28.4863L26.7098 28.4902L26.6512 27.9547C26.6512 27.9468 26.6551 27.939 26.6668 27.939C26.6746 27.939 26.6824 27.9429 26.6824 27.9547L26.7411 28.4863Z" fill="#59451C"/>
<path d="M27.0032 27.3175C26.9954 27.3175 26.9876 27.3136 26.9876 27.3019L26.9289 26.7664L26.9602 26.7625L27.0189 27.298C27.0189 27.3097 27.011 27.3175 27.0032 27.3175Z" fill="#59451C"/>
<path d="M26.6042 27.3606C26.5964 27.3606 26.5886 27.3567 26.5886 27.3449L26.5299 26.8094L26.5612 26.8055L26.6198 27.341C26.6159 27.3528 26.612 27.3606 26.6042 27.3606Z" fill="#59451C"/>
<path d="M27.3122 27.3606L27.1401 27.3801C27.1323 27.3801 27.1245 27.3762 27.1245 27.3645C27.1245 27.3566 27.1284 27.3488 27.1401 27.3488L27.3122 27.3293V27.3606Z" fill="#59451C"/>
<path d="M27.3631 27.8258L27.191 27.8453C27.1831 27.8453 27.1753 27.8414 27.1753 27.8297C27.1753 27.8219 27.1792 27.814 27.191 27.814L27.3631 27.7945V27.8258Z" fill="#59451C"/>
<path d="M26.4829 27.4466L26.3108 27.4661L26.3069 27.4348L26.479 27.4153C26.4869 27.4153 26.4947 27.4192 26.4947 27.4309C26.4947 27.4387 26.4908 27.4466 26.4829 27.4466Z" fill="#59451C"/>
<path d="M26.5299 27.9118L26.3578 27.9313L26.3539 27.9L26.526 27.8805C26.5338 27.8805 26.5416 27.8844 26.5416 27.8961C26.5455 27.9039 26.5416 27.9118 26.5299 27.9118Z" fill="#59451C"/>
<path d="M25.1021 27.298C25.1021 27.2941 25.1021 27.2902 25.106 27.2863L25.4111 26.9071C25.415 26.9032 25.4229 26.8993 25.4307 26.9032C25.4346 26.9071 25.4385 26.9149 25.4346 26.9227L25.1295 27.3019C25.1256 27.3058 25.1177 27.3097 25.1099 27.3058C25.106 27.3019 25.1021 27.3019 25.1021 27.298Z" fill="white"/>
<path d="M25.0669 26.954C25.0669 26.9501 25.0669 26.9461 25.0708 26.9422C25.0747 26.9383 25.0825 26.9344 25.0903 26.9383L25.4698 27.2432C25.4737 27.2471 25.4776 27.255 25.4737 27.2628C25.4698 27.2667 25.462 27.2706 25.4541 27.2628L25.0747 26.9579C25.0708 26.9618 25.0669 26.9579 25.0669 26.954Z" fill="white"/>
<path d="M25.1529 27.7475C25.1529 27.7436 25.1529 27.7397 25.1568 27.7358L25.462 27.3566C25.4659 27.3527 25.4737 27.3488 25.4815 27.3566C25.4854 27.3605 25.4893 27.3684 25.4854 27.3762L25.1803 27.7554C25.1764 27.7593 25.1686 27.7632 25.1607 27.7593C25.1529 27.7514 25.1529 27.7475 25.1529 27.7475Z" fill="white"/>
<path d="M25.1138 27.4035C25.1138 27.3996 25.1138 27.3957 25.1177 27.3918C25.1216 27.3879 25.1294 27.384 25.1373 27.3879L25.5167 27.6928C25.5206 27.6967 25.5245 27.7045 25.5206 27.7124C25.5167 27.7163 25.5089 27.7202 25.5011 27.7163L25.1216 27.4114C25.1177 27.4114 25.1138 27.4075 25.1138 27.4035Z" fill="white"/>
<path d="M25.1999 28.1971C25.1999 28.1932 25.1999 28.1892 25.2038 28.1853L25.5089 27.8061C25.5128 27.8022 25.5207 27.7983 25.5285 27.8061C25.5324 27.8101 25.5363 27.8179 25.5324 27.8257L25.2273 28.2049C25.2234 28.2088 25.2155 28.2127 25.2077 28.2088C25.2038 28.201 25.1999 28.1971 25.1999 28.1971Z" fill="white"/>
<path d="M25.1647 27.853C25.1647 27.8491 25.1647 27.8452 25.1686 27.8413C25.1725 27.8374 25.1803 27.8335 25.1881 27.8413L25.5676 28.1462C25.5715 28.1501 25.5754 28.1579 25.5715 28.1658C25.5676 28.1697 25.5598 28.1736 25.5519 28.1658L25.1725 27.8609C25.1647 27.8609 25.1647 27.8569 25.1647 27.853Z" fill="white"/>
<path d="M25.2468 28.6427C25.2468 28.6388 25.2468 28.6349 25.2507 28.631L25.5559 28.2518C25.5598 28.244 25.5676 28.244 25.5754 28.2479C25.5793 28.2518 25.5832 28.2596 25.5793 28.2674L25.2742 28.6466C25.2703 28.6505 25.2625 28.6544 25.2546 28.6505C25.2507 28.6505 25.2507 28.6466 25.2468 28.6427Z" fill="white"/>
<path d="M25.2116 28.3026C25.2116 28.2987 25.2116 28.2948 25.2155 28.2909C25.2194 28.287 25.2273 28.2831 25.2351 28.2909L25.6145 28.5958C25.6184 28.5997 25.6224 28.6075 25.6145 28.6153C25.6106 28.6232 25.6028 28.6232 25.595 28.6193L25.2155 28.3143C25.2155 28.3104 25.2116 28.3065 25.2116 28.3026Z" fill="white"/>
<path d="M25.3603 29.6982C25.3603 29.6943 25.3603 29.6904 25.3642 29.6865L25.6693 29.3073C25.6732 29.3034 25.681 29.2995 25.6889 29.3034C25.6928 29.3073 25.6967 29.3151 25.6889 29.3229L25.3837 29.7021C25.3798 29.706 25.372 29.7099 25.3642 29.7021C25.3642 29.7021 25.3603 29.7021 25.3603 29.6982Z" fill="white"/>
<path d="M25.325 29.3542C25.325 29.3503 25.325 29.3464 25.329 29.3424C25.3329 29.3385 25.3407 29.3346 25.3485 29.3385L25.728 29.6434C25.7319 29.6474 25.7358 29.6552 25.7319 29.663C25.728 29.6669 25.7201 29.6708 25.7123 29.6669L25.3329 29.362C25.325 29.362 25.325 29.3581 25.325 29.3542Z" fill="white"/>
<path d="M25.4111 30.1477C25.4111 30.1438 25.4111 30.1399 25.415 30.136L25.7201 29.7568C25.724 29.7529 25.7319 29.749 25.7397 29.7529C25.7475 29.7568 25.7475 29.7646 25.7436 29.7724L25.4385 30.1516C25.4346 30.1555 25.4268 30.1594 25.4189 30.1516C25.4111 30.1516 25.4111 30.1516 25.4111 30.1477Z" fill="white"/>
<path d="M25.372 29.8037C25.372 29.7998 25.372 29.7959 25.3759 29.792C25.3798 29.7842 25.3876 29.7842 25.3954 29.7881L25.7749 30.093C25.7788 30.0969 25.7827 30.1047 25.7749 30.1125C25.771 30.1165 25.7632 30.1204 25.7553 30.1165L25.3759 29.8115C25.3759 29.8115 25.372 29.8076 25.372 29.8037Z" fill="white"/>
<path d="M25.4581 30.5973C25.4581 30.5934 25.4581 30.5895 25.462 30.5856L25.7671 30.2064C25.771 30.2025 25.7788 30.1986 25.7867 30.2025C25.7906 30.2064 25.7945 30.2142 25.7906 30.222L25.4855 30.6012C25.4815 30.6051 25.4737 30.609 25.4659 30.6012C25.462 30.6012 25.4581 30.5973 25.4581 30.5973Z" fill="white"/>
<path d="M25.4229 30.2533C25.4229 30.2494 25.4229 30.2455 25.4268 30.2416C25.4307 30.2376 25.4385 30.2337 25.4463 30.2376L25.8258 30.5426C25.8297 30.5465 25.8336 30.5543 25.8297 30.5621C25.8258 30.566 25.8179 30.5699 25.8101 30.566L25.4268 30.2611C25.4229 30.2611 25.4229 30.2572 25.4229 30.2533Z" fill="white"/>
<path d="M25.505 31.0429C25.505 31.039 25.505 31.0351 25.5089 31.0312L25.814 30.652C25.8179 30.6481 25.8258 30.6442 25.8336 30.6481C25.8414 30.652 25.8414 30.6598 25.8375 30.6677L25.5324 31.0468C25.5285 31.0507 25.5207 31.0547 25.5128 31.0507C25.5089 31.0507 25.5089 31.0468 25.505 31.0429Z" fill="white"/>
<path d="M25.4698 30.7028C25.4698 30.6989 25.4698 30.695 25.4737 30.6911C25.4776 30.6872 25.4854 30.6833 25.4933 30.6872L25.8727 30.9921C25.8766 30.996 25.8805 31.0038 25.8766 31.0116C25.8727 31.0155 25.8649 31.0194 25.8571 31.0155L25.4776 30.7106C25.4737 30.7106 25.4698 30.7067 25.4698 30.7028Z" fill="white"/>
<path d="M25.6184 32.0983C25.6184 32.0944 25.6184 32.0905 25.6224 32.0866L25.9275 31.7074C25.9314 31.7035 25.9392 31.6996 25.947 31.7035C25.9509 31.7074 25.9549 31.7153 25.947 31.7231L25.6419 32.1023C25.638 32.1062 25.6302 32.1101 25.6224 32.1062C25.6224 32.1023 25.6184 32.0983 25.6184 32.0983Z" fill="white"/>
<path d="M25.5832 31.7543C25.5832 31.7504 25.5832 31.7465 25.5871 31.7426C25.591 31.7387 25.5989 31.7348 25.6067 31.7387L25.9861 32.0436C25.99 32.0475 25.994 32.0553 25.99 32.0631C25.9861 32.067 25.9783 32.071 25.9705 32.067L25.591 31.7621C25.5832 31.7621 25.5832 31.7582 25.5832 31.7543Z" fill="white"/>
<path d="M25.6693 32.5479C25.6693 32.544 25.6693 32.54 25.6732 32.54L25.9783 32.1609C25.9822 32.157 25.99 32.153 25.9979 32.157C26.0018 32.1609 26.0057 32.1687 26.0018 32.1765L25.6967 32.5557C25.6928 32.5596 25.6849 32.5635 25.6771 32.5596C25.6693 32.5518 25.6693 32.5479 25.6693 32.5479Z" fill="white"/>
<path d="M25.6302 32.2038C25.6302 32.1999 25.6302 32.196 25.6341 32.1921C25.638 32.1882 25.6458 32.1843 25.6536 32.1882L26.0331 32.4931C26.037 32.497 26.0409 32.5048 26.037 32.5127C26.0331 32.5166 26.0253 32.5205 26.0174 32.5166L25.638 32.2117C25.6341 32.2117 25.6302 32.2077 25.6302 32.2038Z" fill="white"/>
<path d="M25.7162 32.9975C25.7162 32.9935 25.7162 32.9896 25.7202 32.9857L26.0253 32.6065C26.0292 32.6026 26.037 32.5987 26.0448 32.6026C26.0488 32.6065 26.0527 32.6144 26.0448 32.6222L25.7397 33.0014C25.7358 33.0053 25.728 33.0092 25.7202 33.0053C25.7202 33.0014 25.7162 32.9975 25.7162 32.9975Z" fill="white"/>
<path d="M25.681 32.6534C25.681 32.6495 25.681 32.6456 25.6849 32.6417C25.6889 32.6378 25.6967 32.6339 25.7045 32.6417L26.0839 32.9466C26.0879 32.9505 26.0918 32.9584 26.0879 32.9662C26.0839 32.9701 26.0761 32.974 26.0683 32.9701L25.6889 32.6652C25.681 32.6613 25.681 32.6574 25.681 32.6534Z" fill="white"/>
<path d="M25.7632 33.4431C25.7632 33.4392 25.7632 33.4352 25.7671 33.4352L26.0722 33.0561C26.0761 33.0522 26.084 33.0482 26.0918 33.0522C26.0957 33.0561 26.0996 33.0639 26.0957 33.0717L25.7906 33.4509C25.7867 33.4587 25.7788 33.4587 25.771 33.4548C25.7671 33.4509 25.7632 33.447 25.7632 33.4431Z" fill="white"/>
<path d="M25.728 33.103C25.728 33.0991 25.728 33.0952 25.7319 33.0912C25.7358 33.0873 25.7436 33.0834 25.7514 33.0912L26.1309 33.3962C26.1348 33.4001 26.1387 33.4079 26.1348 33.4157C26.1309 33.4196 26.1231 33.4235 26.1152 33.4196L25.7358 33.1147C25.7319 33.1108 25.728 33.1069 25.728 33.103Z" fill="white"/>
<path d="M25.8766 34.4986C25.8766 34.4946 25.8766 34.4907 25.8805 34.4868L26.1857 34.1076C26.1896 34.1037 26.1974 34.0998 26.2052 34.1037C26.2091 34.1076 26.213 34.1155 26.2091 34.1233L25.904 34.5025C25.9001 34.5064 25.8923 34.5103 25.8844 34.5025C25.8805 34.5025 25.8766 34.4986 25.8766 34.4986Z" fill="white"/>
<path d="M25.8414 34.1546C25.8414 34.1506 25.8414 34.1467 25.8453 34.1428C25.8492 34.135 25.857 34.135 25.8649 34.1389L26.2443 34.4438C26.2482 34.4477 26.2521 34.4556 26.2482 34.4634C26.2443 34.4673 26.2365 34.4712 26.2287 34.4634L25.8492 34.1585C25.8414 34.1624 25.8414 34.1585 25.8414 34.1546Z" fill="white"/>
<path d="M25.9275 34.9481C25.9275 34.9442 25.9275 34.9403 25.9314 34.9363L26.2365 34.5572C26.2404 34.5533 26.2482 34.5493 26.2561 34.5533C26.26 34.5572 26.2639 34.565 26.26 34.5728L25.9548 34.952C25.9509 34.9559 25.9431 34.9598 25.9353 34.952C25.9275 34.952 25.9275 34.9481 25.9275 34.9481Z" fill="white"/>
<path d="M25.8883 34.604C25.8883 34.6001 25.8883 34.5962 25.8922 34.5923C25.8962 34.5884 25.904 34.5845 25.9118 34.5884L26.2913 34.8933C26.2952 34.8972 26.2991 34.905 26.2952 34.9129C26.2913 34.9168 26.2834 34.9207 26.2756 34.9168L25.8962 34.6119C25.8922 34.6119 25.8883 34.608 25.8883 34.604Z" fill="white"/>
<path d="M25.9744 35.3937C25.9744 35.3898 25.9744 35.3859 25.9783 35.3859L26.2835 35.0067C26.2874 35.0028 26.2952 34.9989 26.303 35.0028C26.3069 35.0067 26.3108 35.0146 26.3069 35.0224L26.0018 35.4016C25.9979 35.4055 25.9901 35.4094 25.9822 35.4016C25.9783 35.4016 25.9744 35.3977 25.9744 35.3937Z" fill="white"/>
<path d="M25.9392 35.0537C25.9392 35.0498 25.9392 35.0458 25.9431 35.0419C25.947 35.0341 25.9549 35.0341 25.9627 35.038L26.3421 35.3429C26.346 35.3468 26.3499 35.3547 26.346 35.3625C26.3421 35.3664 26.3343 35.3703 26.3265 35.3625L25.947 35.0576C25.9392 35.0615 25.9392 35.0576 25.9392 35.0537Z" fill="white"/>
<path d="M26.0214 35.8433C26.0214 35.8394 26.0214 35.8355 26.0253 35.8315L26.3304 35.4524C26.3343 35.4485 26.3421 35.4445 26.35 35.4485C26.3539 35.4524 26.3578 35.4602 26.3539 35.468L26.0487 35.8472C26.0448 35.8511 26.037 35.855 26.0292 35.8511C26.0253 35.8511 26.0253 35.8472 26.0214 35.8433Z" fill="white"/>
<path d="M25.9861 35.5032C25.9861 35.4992 25.9861 35.4953 25.9901 35.4914C25.994 35.4875 26.0018 35.4836 26.0096 35.4875L26.3891 35.7924C26.393 35.7963 26.3969 35.8042 26.393 35.812C26.3891 35.8159 26.3812 35.8198 26.3734 35.8159L25.994 35.511C25.9901 35.511 25.9861 35.5071 25.9861 35.5032Z" fill="white"/>
<path d="M24.9847 35.0575C25.2624 35.0262 25.5089 35.2295 25.5402 35.5031C25.5715 35.7807 25.3681 36.027 25.0942 36.0582C24.8165 36.0895 24.57 35.8901 24.5388 35.6126C24.5075 35.339 24.707 35.0888 24.9847 35.0575Z" fill="#85ACCC"/>
<path d="M24.9065 34.3539C25.1842 34.3226 25.4306 34.5259 25.4619 34.7995C25.4932 35.0771 25.2898 35.3233 25.016 35.3546C24.7383 35.3859 24.4918 35.1826 24.4605 34.909C24.4292 34.6353 24.6326 34.3812 24.9065 34.3539Z" fill="#BD4949"/>
<path d="M24.2297 28.8812L24.0341 27.0752C24.0381 27.0712 24.042 27.0673 24.0459 27.0634L24.2063 27.0478C24.2102 27.0517 24.2141 27.0556 24.218 27.0595L24.4136 28.8655C24.4097 28.8694 24.4058 28.8733 24.4019 28.8772L24.2415 28.8929C24.2337 28.889 24.2337 28.8851 24.2297 28.8812Z" fill="white"/>
<path d="M29.1704 36.0895L28.9748 34.2835C28.9787 34.2796 28.9826 34.2757 28.9865 34.2718L29.1469 34.2562C29.1508 34.2601 29.1547 34.264 29.1586 34.2679L29.3542 36.0739C29.3503 36.0778 29.3464 36.0817 29.3425 36.0856L29.1821 36.1013C29.1782 36.0973 29.1743 36.0934 29.1704 36.0895Z" fill="white"/>
<path d="M24.6561 32.8567L24.2884 29.4636C24.2923 29.4597 24.2962 29.4558 24.3002 29.4519L24.4605 29.4363C24.4645 29.4402 24.4684 29.4441 24.4723 29.448L24.8361 32.8411C24.8322 32.845 24.8283 32.8489 24.8243 32.8528L24.664 32.8685C24.664 32.8606 24.66 32.8606 24.6561 32.8567Z" fill="white"/>
<path opacity="0.25" d="M29.9605 36.2498L28.5679 36.3984L29.143 27.2784L30.0896 36.0856C30.1014 36.1677 30.0427 36.2381 29.9605 36.2498Z" fill="#35546E"/>
<path opacity="0.1" d="M29.5498 31.0468L23.5882 29.9288L23.3535 27.7515L29.3151 28.8695L29.5498 31.0468Z" fill="white"/>
<path opacity="0.1" d="M29.9605 36.2498L29.8119 36.2655L24.1554 35.2061L23.7681 31.6215L29.7297 32.7356L30.0896 36.0856C30.1013 36.1677 30.0427 36.2381 29.9605 36.2498Z" fill="white"/>
<path opacity="0.1" d="M26.2952 36.6408L24.4801 36.8362C24.3979 36.844 24.3275 36.7854 24.3197 36.7072L23.2205 26.4771C23.2127 26.395 23.2713 26.3247 23.3496 26.3168L24.4996 36.1287L26.2952 36.6408Z" fill="white"/>
<path opacity="0.15" d="M29.9605 36.2498L29.8706 36.2576L28.7635 25.9689L27.5235 25.8634L28.8261 25.7226C28.9082 25.7148 28.9787 25.7734 28.9865 25.8516L30.0857 36.0856C30.1013 36.1677 30.0427 36.2381 29.9605 36.2498Z" fill="white"/>
<g opacity="0.5">
<path d="M27.3435 27.6224L26.3147 27.5169L26.2717 27.1416L27.3005 27.2471L27.3435 27.6224Z" fill="#FFEBC3"/>
<path d="M27.2418 28.4316H27.2301L26.4047 28.3456C26.4047 28.3417 26.4047 28.3378 26.4008 28.33L26.3421 27.7827L27.3709 27.8883L27.4061 28.2244C27.4178 28.33 27.3435 28.4199 27.2418 28.4316Z" fill="#FFEBC3"/>
</g>
<path d="M26.3891 28.3339L26.2482 27.0283C26.2365 26.9188 26.3147 26.8211 26.4282 26.8094L27.0619 26.7429C27.1714 26.7312 27.2692 26.8094 27.281 26.9188L27.4218 28.2245C27.4335 28.3339 27.3553 28.4317 27.2418 28.4434L26.6081 28.5098C26.4986 28.5255 26.3969 28.4473 26.3891 28.3339ZM27.2536 26.9227C27.2418 26.8289 27.1597 26.7586 27.0658 26.7703L26.4321 26.8367C26.3382 26.8485 26.2678 26.9306 26.2795 27.0244L26.4204 28.33C26.4321 28.4238 26.5142 28.4942 26.612 28.4825L27.2457 28.416C27.3396 28.4043 27.41 28.3222 27.3983 28.2284L27.2536 26.9227Z" fill="#59451C"/>
<path d="M8.95804 24.3818C8.95804 24.3818 8.27738 26.9736 9.2788 28.4395C11.0587 31.039 14.3994 34.2992 14.3994 34.2992L16.1284 33.0874C16.1284 33.0874 14.5402 28.4942 11.2777 25.5741C10.2841 24.6867 8.95804 24.3818 8.95804 24.3818Z" fill="#A7A7D1"/>
<path d="M15.8976 64.7511C15.7176 67.8627 15.6042 70.5756 15.6042 70.8884C16.2262 71.9829 13.7617 72.1823 13.3393 71.4356C13.3393 71.4356 12.8894 71.162 13.3432 70.8376C13.308 68.8791 12.7564 66.346 12.2361 63.8989C11.9466 62.5385 11.6689 61.2055 11.4929 60.0172C11.4929 58.8718 12.1422 57.1323 12.1422 57.1323C12.1422 57.1323 9.10277 53.2153 6.70092 48.2547C5.4687 45.7177 4.40469 42.9071 4.00177 40.2098H11.6454C11.6454 40.2098 11.6924 40.3114 11.7784 40.503C12.3457 41.7891 14.6106 47.2305 16.187 55.5178C16.2848 56.0416 16.3826 56.5811 16.4765 57.1284C16.2575 59.1103 16.054 62.0773 15.8976 64.7511Z" fill="#54465F"/>
<path d="M2.73826 71.4356C2.73826 71.4356 2.36664 72.1588 2.36664 72.5302C2.36664 72.9015 2.58961 73.4253 2.58961 73.4253H7.41287L7.44416 73.0892C7.46763 72.8233 7.31507 72.5692 7.06863 72.4676C6.56792 72.2643 5.74253 71.8812 5.29658 71.4317H2.73826V71.4356Z" fill="#3D2D37"/>
<path d="M9.04411 40.7531C9.04019 40.9877 9.03237 41.2848 9.01672 41.6131C9.01672 41.6327 9.01281 41.6561 9.01281 41.6757C8.98152 42.2503 8.92675 42.9188 8.82504 43.5208C8.70378 43.7162 8.59425 43.8843 8.50819 44.0172C8.36345 44.2401 8.27739 44.3651 8.27739 44.3651C8.27739 44.3651 8.36345 46.9725 7.8823 50.5337C7.73365 51.6204 7.53415 52.7971 7.26423 54.0167C7.00605 55.1777 6.68138 56.3778 6.27455 57.5779C5.93813 60.1579 5.70733 63.2148 5.55477 65.7987C5.42177 68.0699 5.34745 69.9776 5.31224 70.8806C5.54304 71.2402 5.29268 71.4396 5.29268 71.4396C5.29268 71.4396 2.95733 71.7367 2.73436 71.4396C2.5818 71.2363 2.51139 71.0917 2.67569 70.7437C2.45662 68.3592 2.10847 65.7596 1.819 63.6096C1.60385 62.0304 1.3887 60.6974 1.34176 59.8686C1.24788 58.1955 1.78379 57.4958 1.78379 57.4958H1.79944C1.79162 57.4176 1.99112 55.0409 1.71338 52.1169C1.47085 49.5955 1.22049 46.7341 1.1227 44.76C1.08358 43.9742 1.06793 43.3292 1.08749 42.8992C1.36132 41.4568 2.10847 40.2098 2.10847 40.2098H9.04411C9.04411 40.2098 9.04802 40.4209 9.04411 40.7531Z" fill="#54465F"/>
<path d="M13.3393 71.4356C13.3393 71.4356 12.9637 71.8852 12.9168 72.3073C12.8425 72.9797 13.0146 73.4253 13.0146 73.4253H18.6398L18.6828 73.0266C18.7141 72.7452 18.5302 72.4872 18.2564 72.4207C17.4858 72.237 16.0228 71.85 15.6277 71.4356H13.3393Z" fill="#3D2D37"/>
<path d="M8.93066 23.9636V19.1866L5.82077 19.5776C5.82077 19.5776 6.00071 21.1646 5.71124 22.8964C5.69168 23.0097 5.67212 23.1231 5.64865 23.2365C5.633 23.3147 5.61345 23.3967 5.5978 23.4749C5.55086 23.6782 5.49609 23.8815 5.4335 24.0847C5.63692 24.3076 6.52098 24.2763 7.35029 24.1903C7.53805 24.2567 7.73756 24.3154 7.94488 24.3623L8.63727 25.0268C8.64118 25.0112 8.83677 24.5265 8.92283 23.9948C8.99716 24.0535 9.0441 24.0965 9.07539 24.1238C9.02845 24.0691 8.9776 24.0183 8.93066 23.9636Z" fill="#FDB0A8"/>
<path d="M11.9936 30.4136C11.9819 30.5269 11.9662 30.6442 11.9545 30.7615C11.6689 33.2672 11.2465 36.5508 11.2465 36.5508C11.2465 36.5508 11.309 38.9237 11.6455 40.2097C11.5477 40.2684 11.4264 40.327 11.2777 40.3857C11.0157 40.4873 10.6832 40.5928 10.2959 40.6906C9.92035 40.7883 9.49396 40.8782 9.04019 40.9603C8.66466 41.0268 8.26957 41.0854 7.86665 41.1362C7.81189 41.144 7.75712 41.1479 7.70236 41.1558C7.35812 41.1948 7.00997 41.23 6.66182 41.2535C6.26281 41.2808 5.86772 41.2965 5.48436 41.2965C5.26139 41.2965 5.04624 41.2926 4.835 41.2808C3.52846 41.2144 2.47227 40.9368 2.15541 40.3231C2.13586 40.2879 2.12021 40.2488 2.10847 40.2137C1.95591 39.9713 1.73294 39.6038 2.39012 39.2207C2.45271 38.9471 2.50748 38.6617 2.55833 38.3803C2.59354 38.1848 2.62483 37.9894 2.65221 37.8017C2.79304 36.8675 2.85563 36.1013 2.85563 36.1013C2.85563 36.1013 1.8855 32.0241 1.70947 30.0813V30.0774C1.68209 29.2643 1.83856 28.1228 1.99503 27.212C2.13586 26.3911 2.27668 25.7578 2.28059 25.7265C2.29233 25.6405 2.34709 25.5155 2.60527 25.5076C3.91964 24.6398 4.79197 24.288 5.18706 24.1551C5.34745 24.1004 5.4296 24.0847 5.4296 24.0847L6.94738 24.03C7.07256 24.0847 7.20556 24.1395 7.34638 24.1864C7.53415 24.2528 7.73365 24.3115 7.94098 24.3584L8.63337 25.0229C8.63728 25.0073 8.83287 24.5225 8.91893 23.9909C8.99325 24.0495 9.04019 24.0925 9.07149 24.1199C9.08322 24.1316 9.09496 24.1473 9.1067 24.159C10.1199 25.2965 10.7888 26.0784 11.3051 26.997C11.8919 28.0368 12.1266 29.233 11.9936 30.4136Z" fill="#9191C5"/>
<path d="M9.18493 24.1864C9.18493 24.1864 9.56046 24.6555 9.80691 24.7532C9.65826 24.7845 9.07149 24.5578 8.95413 24.378C9.00499 24.1825 9.18493 24.1864 9.18493 24.1864Z" fill="#A7A7D1"/>
<path opacity="0.5" d="M9.11059 24.159C9.11059 24.159 9.11059 24.159 9.11059 24.1629C9.08712 24.2294 8.85241 24.9056 8.64117 25.0268C8.64509 25.0112 8.84068 24.5264 8.92674 23.9948C9.00106 24.0534 9.048 24.0964 9.0793 24.1238C9.09886 24.1473 9.11059 24.159 9.11059 24.159Z" fill="#7E7EC4"/>
<path d="M5.97333 16.3799C5.97333 16.3799 5.62127 15.9851 6.07113 15.2189C6.00071 15.6724 6.18066 15.8365 6.18066 15.8365C6.18066 15.8365 6.20804 15.1095 6.47795 15C6.34495 15.4652 6.83002 16.032 6.83002 16.032L5.97333 16.3799Z" fill="#AA524E"/>
<path d="M11.4068 19.1515C11.2347 19.5932 11.0939 19.9567 10.9961 20.2186C10.9687 20.2851 10.9491 20.3476 10.9257 20.3985C10.9139 20.4297 10.9022 20.461 10.8905 20.4884C10.8474 20.5978 10.8279 20.6565 10.8279 20.6565C10.8279 20.6565 10.8279 20.7034 10.8279 20.7894C10.82 21.0044 10.7888 21.4578 10.6362 21.9347C10.3154 22.8964 9.38442 23.9362 9.08321 24.3154C9.02844 24.3818 8.94629 24.417 8.86023 24.3975C8.60597 24.3506 8.07396 24.2411 7.90966 24.1707C7.60063 24.0417 6.23541 22.6775 6.07894 22.0911C6.09068 21.7549 5.97332 20.5587 5.97332 20.5587C5.97332 20.5587 5.88726 20.2108 5.70732 19.8942C5.55085 19.6245 5.14793 18.5182 5.27311 18.1195C5.87944 17.1305 6.47794 16.4894 6.47794 16.4894C6.47794 16.4894 7.31507 16.1415 8.75853 16.2196C10.0533 16.7395 11.5516 18.7801 11.4068 19.1515Z" fill="#FDCFBF"/>
<path opacity="0.5" d="M3.50889 38.951C3.6106 38.4624 3.92746 38.048 4.3734 37.8252C5.96551 37.0278 9.74431 35.1162 10.2568 34.7214C10.9139 34.2171 10.8826 33.3298 10.8826 33.3298L4.10349 35.8824C4.42817 34.092 4.85455 31.6215 5.06188 29.8663C4.06046 26.9501 2.28059 25.7227 2.28059 25.7227C2.27276 25.7539 2.13194 26.3872 1.99502 27.2081C1.83855 28.1189 1.68599 29.2604 1.70946 30.0735C1.88549 32.0163 2.85562 36.0935 2.85562 36.0935C2.85562 36.0935 2.79303 36.8597 2.65221 37.7939C2.62483 37.9816 2.59353 38.1731 2.55832 38.3725C2.50747 38.6539 2.45271 38.9393 2.39012 39.2129C1.73293 39.596 1.95982 39.9635 2.10847 40.202C2.12411 40.241 2.13976 40.2762 2.15541 40.3114C2.47618 40.9251 3.53236 41.2027 4.835 41.2691C5.04623 41.2809 5.26138 41.2848 5.48436 41.2848C5.86771 41.2848 6.26281 41.2691 6.66181 41.2418C7.00996 41.2183 7.35811 41.187 7.70235 41.144C7.75712 41.1362 7.81188 41.1323 7.86665 41.1245C8.26956 41.0737 8.66465 41.015 9.04019 40.9486C9.49396 40.8665 9.92034 40.7766 10.2959 40.6789C10.6831 40.5811 11.0157 40.4756 11.2777 40.374C8.0505 40.972 6.0946 41.019 4.92106 40.886C3.97049 40.7883 3.31722 39.8892 3.50889 38.951Z" fill="#7E7EC4"/>
<path d="M8.18741 19.945C8.18741 19.945 8.38691 20.3554 8.57468 20.4532C8.83677 20.5587 9.68954 20.6799 9.68954 20.6799C9.68954 20.6799 9.9399 20.16 9.94772 19.859C9.7756 19.7534 8.83286 19.7183 8.83286 19.7183L8.18741 19.945Z" fill="#FDB0A8"/>
<path d="M10.9961 20.2147C10.9687 20.2812 10.9492 20.3437 10.9257 20.3946C10.914 20.4258 10.9022 20.4571 10.8905 20.4845L10.7614 20.4962L10.4328 20.3867V20.2617C10.4328 20.2617 10.5345 19.9646 10.6206 19.9294C10.7105 19.9607 10.9218 20.1444 10.9218 20.1444L10.9961 20.2147Z" fill="#FDB0A8"/>
<path d="M9.36096 23.3616C9.35705 23.3733 9.35314 23.385 9.35314 23.3967C9.34923 23.4085 9.34923 23.4202 9.34531 23.4319C9.33358 23.5062 9.3414 23.5375 9.3414 23.5375C9.32967 23.5336 9.31793 23.5297 9.3062 23.5257C8.90328 23.3811 8.65292 23.2091 8.49645 23.041C8.42604 22.9628 8.37519 22.8886 8.33607 22.8182C8.32042 22.7869 8.30477 22.7557 8.29695 22.7244C8.2813 22.6814 8.26957 22.6423 8.26566 22.6071C8.25392 22.5328 8.25392 22.4742 8.25783 22.4312C8.26174 22.3882 8.26957 22.3647 8.26957 22.3647C8.26957 22.3647 8.6099 22.7908 9.41573 23.0684C9.43529 23.0762 9.45485 23.0801 9.4744 23.0879C9.46267 23.1153 9.44702 23.1387 9.4392 23.1661C9.40008 23.2404 9.37661 23.3068 9.36096 23.3616Z" fill="#EA9181"/>
<path d="M8.26566 22.3569C8.3126 22.4078 8.36345 22.4547 8.4143 22.4977C8.46516 22.5407 8.51992 22.5837 8.5786 22.6228C8.69204 22.7009 8.80549 22.7713 8.92675 22.8338C9.04802 22.8964 9.1732 22.955 9.29837 23.0019C9.36096 23.0254 9.42746 23.0488 9.49005 23.0723L9.68564 23.1348L9.67782 23.1388C9.68955 23.1231 9.70129 23.0997 9.70911 23.0801C9.71694 23.0606 9.72476 23.0371 9.72867 23.0176C9.74041 22.9746 9.74432 22.9277 9.74432 22.8808C9.74432 22.9042 9.74823 22.9277 9.74432 22.9511C9.74432 22.9746 9.74041 22.998 9.73649 23.0215C9.73258 23.0449 9.72476 23.0684 9.72085 23.0879C9.71302 23.1114 9.7052 23.1309 9.68955 23.1505C9.68564 23.1544 9.68564 23.1544 9.68173 23.1544L9.48223 23.0997C9.44702 23.0918 9.41573 23.0801 9.38443 23.0684C9.35314 23.0567 9.31793 23.0488 9.28664 23.0332C9.15755 22.9863 9.03237 22.9277 8.9111 22.8651C8.78984 22.7987 8.67248 22.7283 8.56295 22.6423C8.45733 22.5602 8.35172 22.4664 8.26566 22.3569Z" fill="#FDB0A8"/>
<path d="M8.32433 22.2084C8.32433 22.2318 8.31651 22.2592 8.30086 22.2787C8.28913 22.3022 8.26566 22.3178 8.24218 22.3296C8.21871 22.3413 8.19133 22.3452 8.16786 22.3413C8.15612 22.3413 8.14439 22.3374 8.12874 22.3335C8.11701 22.3296 8.10527 22.3256 8.09354 22.3217C8.10527 22.3217 8.11701 22.3256 8.12874 22.3256C8.14048 22.3256 8.15221 22.3256 8.16395 22.3256C8.18742 22.3256 8.21089 22.3217 8.23436 22.31C8.25392 22.2983 8.27348 22.2826 8.28913 22.267C8.30869 22.2553 8.32042 22.2357 8.32433 22.2084Z" fill="#FDB0A8"/>
<path d="M9.34139 23.1778C8.65682 22.9511 8.25391 22.4273 8.25391 22.4273C8.25782 22.3843 8.26564 22.3608 8.26564 22.3608C8.26564 22.3608 8.60597 22.7869 9.4118 23.0645C9.4118 23.0606 9.38833 23.1661 9.34139 23.1778Z" fill="#F6F7E9"/>
<path d="M9.34141 23.5375C9.32967 23.5336 9.31794 23.5297 9.3062 23.5257C8.90329 23.3811 8.65293 23.2091 8.49646 23.041C8.68031 23.0879 9.08714 23.2052 9.35315 23.3967C9.34923 23.4085 9.34923 23.4202 9.34532 23.4319C9.33359 23.5062 9.34141 23.5375 9.34141 23.5375Z" fill="#F6F7E9"/>
<path d="M10.022 19.73L9.97902 19.8316C9.97119 19.8512 9.95163 19.859 9.93207 19.859C9.89687 19.8512 9.83428 19.8434 9.75604 19.8277C9.74822 19.8277 9.74431 19.8277 9.73648 19.8238C9.48222 19.7847 9.06756 19.73 8.82112 19.7574C8.44559 19.8434 8.20306 19.9411 8.18741 19.945C8.20306 19.9333 8.54729 19.6909 8.79374 19.5971C9.04409 19.5893 9.29836 19.601 9.50569 19.6244C9.53307 19.6284 9.56045 19.6284 9.58784 19.6323C9.78343 19.6557 9.93599 19.6792 9.99857 19.6909C10.0181 19.6987 10.0299 19.7144 10.022 19.73Z" fill="#5D2422"/>
<path d="M9.68954 20.6799C9.68954 20.6799 9.60348 20.7503 9.33747 20.7698C9.2475 20.7737 9.14188 20.7737 9.00888 20.7659C8.97368 20.762 8.93847 20.7581 8.90326 20.7542C8.63335 20.676 8.57858 20.4571 8.57858 20.4571C8.57858 20.4571 8.75853 20.2577 9.04018 20.1561C9.11841 20.1287 9.20447 20.1092 9.29836 20.1014C9.35312 20.117 9.40397 20.1405 9.45092 20.1717C9.46656 20.1835 9.48221 20.1913 9.49786 20.203C9.54871 20.2421 9.58783 20.3007 9.61521 20.3594C9.6778 20.5079 9.68954 20.6799 9.68954 20.6799Z" fill="#F6F7E9"/>
<path d="M8.57468 20.4532C8.61379 20.3946 8.66465 20.3477 8.7155 20.3008C8.77027 20.2539 8.82503 20.2148 8.88762 20.1835C8.90327 20.1757 8.91892 20.1679 8.93456 20.16L8.9815 20.1405C8.99715 20.1327 9.0128 20.1288 9.03236 20.1209L9.05583 20.1131C9.06365 20.1092 9.07148 20.1092 9.08321 20.1053L9.13406 20.0936L9.18492 20.0858C9.19274 20.0858 9.20448 20.0819 9.2123 20.0819H9.23968L9.29054 20.0779C9.29445 20.0779 9.29445 20.0779 9.29836 20.0779C9.31792 20.0858 9.34139 20.0936 9.36095 20.1053C9.38051 20.117 9.40007 20.1249 9.41571 20.1405C9.43527 20.1522 9.45092 20.1679 9.46657 20.1796C9.48222 20.1952 9.49786 20.2069 9.51351 20.2265C9.49395 20.2148 9.4783 20.203 9.45874 20.1952C9.43919 20.1874 9.42354 20.1757 9.40398 20.1679C9.38442 20.16 9.36486 20.1522 9.3453 20.1444C9.32574 20.1366 9.30618 20.1327 9.28663 20.1288H9.29445L9.2436 20.1366L9.22012 20.1405C9.2123 20.1405 9.20448 20.1444 9.19665 20.1444L9.14971 20.1561L9.10277 20.1718L9.0793 20.1796L9.05583 20.1874C9.04018 20.1913 9.02453 20.1991 9.00889 20.203L8.96195 20.2226C8.9463 20.2304 8.93065 20.2382 8.915 20.2421C8.79765 20.3008 8.68421 20.3711 8.57468 20.4532Z" fill="#FDB0A8"/>
<path d="M10.4171 22.1693C10.3154 22.3335 10.0612 22.3843 10.0612 22.3843C10.0612 22.3843 9.84602 22.2787 9.8069 22.2592C9.81081 22.2553 9.81081 22.2553 9.81472 22.2514C9.90078 22.1615 9.61522 22.1263 9.53698 22.1146C9.52525 22.1146 9.51743 22.1146 9.51743 22.1146C9.51743 22.1146 9.52134 22.1146 9.52525 22.1146H9.52916C9.62304 22.095 10.2568 21.9738 10.4054 22.1537C10.4093 22.1537 10.4132 22.1615 10.4171 22.1693Z" fill="#FDB0A8"/>
<path d="M10.6401 19.8785L10.5775 19.9685C10.5658 19.988 10.5736 20.0115 10.5932 20.0193C10.6636 20.0427 10.8122 20.1092 11.043 20.2616C11.0939 20.1796 10.9687 20.0036 10.6792 19.8668C10.6675 19.8629 10.6479 19.8668 10.6401 19.8785Z" fill="#5D2422"/>
<path d="M10.8279 20.6526C10.8279 20.6604 10.8279 20.6721 10.8279 20.6917C10.8279 20.7151 10.8279 20.7464 10.8279 20.7855C10.8161 20.7894 10.7966 20.7933 10.7653 20.7972C10.7105 20.8011 10.6206 20.8011 10.5071 20.7777C10.4836 20.7738 10.4602 20.7698 10.4367 20.762C10.421 20.5392 10.4015 20.3946 10.4015 20.3946C10.4015 20.3946 10.4171 20.332 10.4445 20.2538C10.4993 20.2538 10.5501 20.2538 10.5932 20.2617C10.6206 20.2656 10.6479 20.2695 10.6714 20.2773C10.8474 20.3164 10.9257 20.3985 10.9257 20.3985C10.91 20.4415 10.8944 20.4806 10.8826 20.5118C10.8474 20.6018 10.8279 20.6526 10.8279 20.6526Z" fill="#F6F7E9"/>
<path d="M9.81863 22.2475L9.54089 22.1107C9.61913 22.1224 9.90078 22.1576 9.81863 22.2475Z" fill="#EA9181"/>
<path d="M10.5932 19.9489C10.5697 19.9802 10.5502 20.0193 10.5345 20.0545C10.515 20.0896 10.5032 20.1287 10.4876 20.1678C10.4602 20.2421 10.4367 20.3203 10.4132 20.3985C10.4328 20.5431 10.4445 20.6916 10.4563 20.8402C10.468 20.9887 10.4719 21.1373 10.4758 21.2858C10.4798 21.4344 10.4758 21.5829 10.4719 21.7315C10.468 21.88 10.4524 22.0286 10.4328 22.1771C10.4328 22.181 10.4328 22.181 10.4289 22.181C10.4093 22.2123 10.3859 22.2396 10.3585 22.2631C10.3311 22.2866 10.2998 22.3061 10.2685 22.3256C10.2372 22.3413 10.202 22.3569 10.1707 22.3686C10.1355 22.3804 10.1042 22.3921 10.0651 22.3999C10.0612 22.3999 10.0573 22.3999 10.0573 22.3999L9.51353 22.1224C9.50962 22.1224 9.50962 22.1185 9.50962 22.1185C9.50571 22.0833 9.50962 22.0442 9.51745 22.009C9.52527 21.9738 9.537 21.9386 9.55656 21.9074C9.57612 21.8761 9.59959 21.8487 9.63089 21.8292C9.65827 21.8057 9.69348 21.794 9.72868 21.7823C9.69348 21.794 9.66218 21.8096 9.6348 21.8331C9.60742 21.8526 9.58395 21.88 9.56439 21.9113C9.54874 21.9426 9.537 21.9738 9.52918 22.009C9.52527 22.0442 9.52136 22.0755 9.52527 22.1106L9.52918 22.1146L9.537 22.1185L9.81474 22.2553L10.0612 22.3765C10.1277 22.3608 10.1903 22.3374 10.249 22.3022C10.2802 22.2866 10.3076 22.267 10.335 22.2436C10.3585 22.2201 10.382 22.1966 10.3976 22.1693C10.3976 22.1654 10.3976 22.1615 10.3976 22.1536C10.4132 22.0129 10.425 21.8722 10.4328 21.7276C10.4406 21.579 10.4406 21.4344 10.4406 21.2858C10.4406 21.1373 10.4328 20.9926 10.425 20.8441C10.4172 20.6956 10.4054 20.5509 10.3898 20.4024V20.3985C10.4132 20.3203 10.4406 20.2421 10.4719 20.1678C10.4876 20.1287 10.5032 20.0936 10.5228 20.0584C10.5463 20.0154 10.5658 19.9802 10.5932 19.9489Z" fill="#EA9181"/>
<path d="M8.63728 25.0268L7.89012 24.4835C7.89012 24.4835 7.80406 24.7063 7.62021 24.9682C7.43244 25.2379 7.14688 25.5546 6.7557 25.7227C6.34496 24.9135 5.18707 24.1512 5.18707 24.1512C5.18707 24.1512 5.17533 23.6352 5.4296 23.0371C5.4296 23.0371 5.50392 23.1153 5.64475 23.2326C5.75037 23.3186 5.89119 23.428 6.06722 23.5453C6.30193 23.7017 6.59532 23.8737 6.94738 24.03C7.07256 24.0847 7.20556 24.1395 7.34638 24.1864C7.53415 24.2528 7.73365 24.3115 7.94098 24.3584L8.63728 25.0268Z" fill="#A7A7D1"/>
<path opacity="0.5" d="M8.63728 25.0268C8.63728 25.0268 8.05833 25.0034 7.62021 24.9721C7.80406 24.7063 7.89012 24.4874 7.89012 24.4874L8.63728 25.0268Z" fill="#7E7EC4"/>
<path d="M5.71124 22.8964C5.69168 23.0097 5.67212 23.1231 5.64865 23.2365C5.50783 23.1192 5.4335 23.041 5.4335 23.041C5.4335 23.041 5.53521 22.9355 5.71124 22.8964Z" fill="#C0BADE"/>
<path opacity="0.5" d="M9.27491 40.9329C9.26318 40.929 9.25926 40.9212 9.25926 40.9134C9.26318 40.8977 9.57612 39.2598 9.73259 36.7033C9.70912 36.2186 9.69347 35.7182 9.68174 35.1866C9.62697 33.1812 9.57221 31.1055 8.95414 29.5379C8.62164 28.4082 8.62555 25.0581 8.62555 25.0229C8.62555 25.0151 8.63338 25.0073 8.6412 25.0073C8.64902 25.0073 8.65685 25.0151 8.65685 25.0229C8.65685 25.0581 8.65293 28.4004 8.98544 29.5262C9.6035 31.0937 9.66218 33.1734 9.71695 35.1826C9.73259 35.7104 9.74433 36.2107 9.7678 36.6994C9.61133 39.2559 9.29838 40.8977 9.29447 40.9134C9.29056 40.9251 9.28273 40.9329 9.27491 40.9329Z" fill="#7E7EC4"/>
<path d="M9.33359 32.0789C9.33359 32.0789 9.67391 31.7505 10.1981 31.6606C10.3976 31.8678 10.2568 32.0632 10.2568 32.0632L9.33359 32.0789Z" fill="#FDB0A8"/>
<path d="M4.10741 30.0461C4.05656 30.4644 3.4737 33.232 3.39547 33.5995C3.65756 33.9552 3.26638 34.1898 3.26638 34.1898C3.18814 34.5572 3.08643 35.0224 3.00429 35.4016C2.91823 35.7964 2.85173 36.1013 2.85173 36.1013C2.85173 36.1013 2.06545 36.328 1.45912 36.5039C1.07576 36.6134 0.76282 36.7072 0.758909 36.7072C0.665025 36.3437 0.582877 35.9879 0.508553 35.6479C-0.395074 31.4651 0.13302 28.8421 0.363816 27.7163C1.13444 26.6452 2.28451 25.7266 2.28451 25.7266C2.28451 25.7266 2.33145 25.7813 2.40578 25.879C2.83999 26.4341 4.29909 28.4356 4.10741 30.0461Z" fill="#A7A7D1"/>
<path d="M6.65399 35.6518C6.81829 34.5338 6.66573 33.5291 6.66573 33.5291C7.24076 33.3571 7.90186 33.1382 8.6764 32.8489L9.27881 33.9943C9.2749 33.9943 8.22654 34.7918 6.65399 35.6518Z" fill="#FDCFBF"/>
<path d="M6.654 35.6518C6.61097 35.9567 6.54056 36.2733 6.43885 36.5782C4.42818 37.102 4.42818 37.102 4.42818 37.102L4.13871 36.8323C3.95485 36.9027 3.771 36.973 3.58323 37.0356C3.57149 37.0395 3.56367 37.0434 3.55585 37.0473C3.55194 37.0473 3.54802 37.0473 3.54802 37.0512H3.54411C3.19596 37.1724 2.83999 37.2818 2.4801 37.3757C1.55691 37.3757 0.762817 36.7033 0.762817 36.7033C0.762817 36.7033 0.954496 35.4446 1.38479 34.8934C1.4513 34.8074 1.52171 34.7409 1.59994 34.6979C1.63515 34.6784 1.67036 34.6588 1.70556 34.6393C1.90506 34.5298 2.09283 34.4517 2.26886 34.3891C2.59745 34.2758 2.90649 34.2249 3.26637 34.1819C3.48543 34.1546 3.72406 34.1311 3.99788 34.0998C4.07612 34.092 4.15435 34.0803 4.2365 34.0686C4.83892 33.9865 5.60172 33.8418 6.66182 33.5291C6.66182 33.5291 6.70485 33.8106 6.7205 34.2367C6.73615 34.6237 6.72832 35.124 6.654 35.6518Z" fill="#A7A7D1"/>
<path d="M11.6298 20.2656C11.6259 20.2773 11.6259 20.289 11.622 20.3007C11.2543 19.4017 10.0377 19.0381 9.61523 18.9326C10.0494 19.4017 9.86559 19.988 9.86559 19.988C9.85776 19.9763 9.84994 19.9646 9.84211 19.9528C9.06758 18.7567 6.90044 18.2758 6.90044 18.2758C6.90044 18.2758 7.43635 19.5854 7.11559 19.7847C6.77526 19.9919 6.75179 20.3789 6.75179 20.4493V20.4571L6.72832 20.4493L6.37625 20.3164L5.6291 20.0427C5.6291 20.0427 4.94844 19.4603 4.98365 18.182C5.17142 17.4471 5.47263 16.9155 5.77775 16.5363C5.83251 16.4659 5.89119 16.3995 5.94595 16.3408C6.38799 15.8639 6.78699 15.6997 6.78699 15.6997C6.78699 15.6997 7.67106 15.3675 9.09496 15.6333C11.5281 16.763 11.9115 18.2446 11.9193 18.2719C11.9036 18.2641 11.4147 17.9866 11.0861 17.8771C11.9271 18.6472 11.712 19.8903 11.6298 20.2656Z" fill="#BB6F58"/>
<path d="M6.49752 19.9489C6.48187 20.0896 6.43884 20.2147 6.37625 20.3164L5.6291 20.0427C5.6291 20.0427 4.94844 19.4603 4.98365 18.182C5.17142 17.4471 5.47263 16.9154 5.77775 16.5363C5.77384 16.5363 5.47654 18.8661 6.49752 19.9489Z" fill="#AA524E"/>
<path d="M6.43883 21.1569C6.40754 21.1725 6.37625 21.1881 6.34104 21.1959C6.01245 21.2819 5.64083 20.9536 5.51174 20.4649C5.38265 19.9724 5.54694 19.5072 5.87553 19.4212C6.04765 19.3782 6.2276 19.4447 6.38016 19.5854C6.50142 19.6988 6.60704 19.8629 6.67354 20.0584C6.68528 20.0897 6.6931 20.1209 6.70092 20.1522C6.72831 20.2539 6.74004 20.3516 6.74396 20.4454V20.4532C6.7596 20.7738 6.64225 21.0474 6.43883 21.1569Z" fill="#FDCFBF"/>
<path d="M5.77383 19.6792C5.82078 19.6831 5.86772 19.6987 5.91466 19.7144L5.94987 19.7261L5.98116 19.7417C6.00463 19.7535 6.02419 19.7652 6.04375 19.7769C6.1259 19.8238 6.20413 19.8864 6.27063 19.9567L6.32149 20.0115C6.33713 20.031 6.35278 20.0506 6.36843 20.0701L6.3919 20.0975C6.39972 20.1053 6.40363 20.117 6.41146 20.1287L6.45058 20.1913L6.46231 20.2069L6.47014 20.2226L6.48578 20.2538L6.52099 20.3164L6.57967 20.4493C6.58358 20.4571 6.57967 20.461 6.57575 20.4649C6.54837 20.4923 6.52099 20.5197 6.50143 20.547C6.48187 20.5744 6.4584 20.6096 6.44666 20.6447C6.43493 20.6799 6.43102 20.7151 6.43884 20.7503C6.44666 20.7855 6.46231 20.8167 6.48187 20.848C6.48578 20.8519 6.48578 20.8597 6.48187 20.8637C6.47014 20.8793 6.45449 20.891 6.43884 20.9027C6.42319 20.9145 6.40755 20.9223 6.3919 20.9301C6.36061 20.9457 6.3254 20.9575 6.29019 20.9653C6.21978 20.9809 6.14546 20.9809 6.07896 20.9575C6.04375 20.9457 6.01245 20.9301 5.98116 20.9106C5.94987 20.891 5.92639 20.8676 5.89901 20.8402C5.85207 20.7894 5.81295 20.7307 5.78166 20.6682C5.81686 20.7268 5.85598 20.7855 5.90684 20.8324C5.95769 20.8793 6.01637 20.9184 6.08287 20.9379C6.14937 20.9575 6.21978 20.9575 6.28237 20.9418C6.31366 20.934 6.34887 20.9223 6.37625 20.9067C6.3919 20.8988 6.40363 20.891 6.41928 20.8793C6.43102 20.8715 6.44666 20.8597 6.45449 20.848V20.8637C6.43102 20.8324 6.41146 20.7933 6.40364 20.7542C6.39581 20.7151 6.39972 20.6721 6.41146 20.633C6.42319 20.5939 6.44667 20.5587 6.47014 20.5275C6.49361 20.4962 6.52099 20.4688 6.54837 20.4415L6.54446 20.461L6.48578 20.332L6.45058 20.2695L6.43493 20.2382L6.42711 20.2226L6.41928 20.2069L6.38016 20.1483C6.37234 20.1366 6.36843 20.1287 6.36061 20.117L6.34496 20.0818C6.32931 20.0623 6.31758 20.0427 6.30193 20.0232L6.25499 19.9685C6.1924 19.8981 6.11807 19.8356 6.03984 19.7847C5.95769 19.7378 5.86772 19.6948 5.77383 19.6792Z" fill="#FDB0A8"/>
<path d="M6.04375 19.9372C6.00463 20.0076 5.97333 20.0818 5.94986 20.16C5.92639 20.2382 5.91466 20.3164 5.91466 20.3946C5.91466 20.4727 5.9303 20.5548 5.95377 20.6291C5.98116 20.7034 6.01636 20.7777 6.05939 20.8441C6.00463 20.7816 5.9616 20.7112 5.9303 20.6369C5.91466 20.5978 5.90292 20.5587 5.8951 20.5197C5.88727 20.4806 5.88336 20.4376 5.88336 20.3946C5.88336 20.3125 5.89901 20.2304 5.92639 20.1522C5.95377 20.074 5.99289 19.9997 6.04375 19.9372Z" fill="#FDB0A8"/>
<path d="M9.5057 19.6245C8.81331 19.0967 7.452 18.5377 7.01779 18.354C7.13123 18.4752 7.36203 19.0342 7.42853 19.5228C7.49503 20.0193 6.99432 20.2147 6.99432 20.2147C6.96302 20.977 6.4584 21.1451 6.43884 21.1529C6.63834 21.0435 6.7557 20.7698 6.74788 20.4493V20.4415C6.75179 20.375 6.77526 19.9841 7.11167 19.7769C7.43244 19.5815 6.89652 18.268 6.89652 18.268C6.89652 18.268 8.6764 18.6628 9.58785 19.6284C9.56438 19.6323 9.53308 19.6284 9.5057 19.6245Z" fill="#FDB0A8"/>
<path d="M11.6298 20.2655C11.6259 20.2773 11.6259 20.289 11.622 20.3007C11.2543 19.4016 10.0377 19.0381 9.61524 18.9325C10.0494 19.4016 9.86559 19.988 9.86559 19.988C9.85777 19.9763 9.84995 19.9645 9.84212 19.9528C9.06758 18.7566 6.90044 18.2758 6.90044 18.2758C6.90044 18.2758 7.43636 19.5854 7.11559 19.7847C6.77527 19.9919 6.7518 20.3789 6.7518 20.4493C6.74788 20.3554 6.73615 20.2538 6.70877 20.1561C6.70094 20.1248 6.69312 20.0935 6.68138 20.0623C6.82612 19.8238 7.16253 19.0889 6.62662 18.0295C7.38551 17.9592 8.76246 18.3188 9.59568 19.4094C9.4705 18.8856 8.84852 18.3384 8.84852 18.3384C8.84852 18.3384 11.2269 18.6784 11.6298 20.2655Z" fill="#AA524E"/>
<path d="M9.68956 20.6799C9.68956 20.6799 9.6035 20.7503 9.3375 20.7698C9.25535 20.7073 9.2045 20.6096 9.2045 20.5001C9.2045 20.3477 9.31012 20.2148 9.45094 20.1757C9.46659 20.1874 9.48224 20.1952 9.49788 20.2069C9.54874 20.246 9.58786 20.3047 9.61524 20.3633C9.67783 20.5079 9.68956 20.6799 9.68956 20.6799Z" fill="#5D2422"/>
<path d="M10.8279 20.6526C10.8279 20.6604 10.8279 20.6721 10.8279 20.6916C10.8279 20.7151 10.8279 20.7464 10.8279 20.7855C10.8161 20.7894 10.7966 20.7933 10.7653 20.7972C10.6597 20.7386 10.5893 20.6291 10.5893 20.5001C10.5893 20.4141 10.6206 20.3359 10.6753 20.2773C10.8514 20.3164 10.9296 20.3985 10.9296 20.3985C10.9139 20.4415 10.8983 20.4806 10.8866 20.5118C10.8474 20.6017 10.8279 20.6526 10.8279 20.6526Z" fill="#5D2422"/>
<path d="M9.30229 20.5001C9.30229 20.5588 9.25535 20.6018 9.20058 20.6018C9.14191 20.6018 9.09888 20.5548 9.09888 20.5001C9.09888 20.4454 9.14582 20.3985 9.20058 20.3985C9.25926 20.3946 9.30229 20.4415 9.30229 20.5001Z" fill="#F6F7E9"/>
<path d="M10.691 20.5001C10.691 20.5588 10.644 20.6018 10.5893 20.6018C10.5306 20.6018 10.4875 20.5548 10.4875 20.5001C10.4875 20.4454 10.5345 20.3985 10.5893 20.3985C10.644 20.3946 10.691 20.4415 10.691 20.5001Z" fill="#F6F7E9"/>
<path d="M4.1387 36.8323C3.78663 36.9613 3.6419 37.0161 3.58322 37.0356C3.57149 37.0395 3.56366 37.0434 3.55584 37.0473C3.55193 37.0473 3.54801 37.0473 3.54801 37.0512C3.5441 37.0512 3.5441 37.0512 3.5441 37.0512C3.5441 37.02 3.46978 35.3742 4.00178 34.1038C4.08002 34.096 4.15826 34.0842 4.2404 34.0725C4.2404 34.0725 3.9079 35.4876 4.1387 36.8323Z" fill="#9191C5"/>
<path opacity="0.5" d="M12.0249 55.7133C10.4915 53.4694 8.63728 50.4125 8.63728 50.4125L9.49006 44.5997L9.60741 41.5115C10.7223 41.234 11.5751 40.6476 11.7746 40.503C11.6885 40.3075 11.6416 40.2098 11.6416 40.2098C11.2113 40.4678 10.2255 40.7492 9.03629 40.9603C8.66076 41.0268 8.26566 41.0854 7.86275 41.1362C7.80798 41.1441 7.75322 41.148 7.69845 41.1558C7.35421 41.1949 7.00606 41.2301 6.65791 41.2535C6.25891 41.2809 5.86381 41.2965 5.48046 41.2965C5.25748 41.2965 5.04233 41.2926 4.8311 41.2809C3.52455 41.2144 2.46836 40.9369 2.15151 40.3231C2.13195 40.288 2.1163 40.2489 2.10457 40.2137C2.10457 40.2137 1.35741 41.4568 1.08359 42.9031C1.06403 43.3292 1.07967 43.9742 1.11879 44.7639C1.21659 46.738 1.46694 49.5994 1.70947 52.1208C1.99112 55.0448 1.78771 57.4215 1.79553 57.4997C1.79553 57.4997 1.99112 51.9644 2.01851 47.3556C2.03807 44.4277 4.31865 42.0119 7.24468 41.836C8.05442 41.7891 8.70378 41.7148 9.00499 41.6796C8.97761 42.2542 8.91893 42.9227 8.81723 43.5247C8.49255 44.0485 8.26957 44.3691 8.26957 44.3691C8.26957 44.3691 8.35563 46.9764 7.87448 50.5376C9.24361 53.016 10.6245 55.0487 11.4303 56.1784C11.8528 56.7687 11.9858 57.5193 11.7902 58.219C11.6337 58.7858 11.4851 59.4699 11.4851 60.0211C11.9741 63.3555 13.2767 67.7963 13.3315 70.8415C13.3315 70.8415 13.3197 63.2226 13.1985 59.3409C13.1711 58.0431 12.7603 56.7844 12.0249 55.7133Z" fill="#42364E"/>
<path d="M1.70555 34.6432C1.67035 34.6627 1.63514 34.6823 1.59993 34.7018C1.5217 34.7448 1.45128 34.8152 1.38478 34.8973C0.954485 35.4485 0.762807 36.7072 0.762807 36.7072C0.668923 36.3436 0.586776 35.9879 0.512451 35.6478C0.77063 35.3351 1.20875 34.8856 1.70555 34.6432Z" fill="#9191C5"/>
<path d="M12.6381 30.0354L10.0039 29.7639L9.47329 34.9044L12.1075 35.1759L12.6381 30.0354Z" fill="#40374C"/>
<path d="M12.9019 30.0619L10.2676 29.7903L9.73702 34.9308L12.3713 35.2023L12.9019 30.0619Z" fill="#4B4C60"/>
<path d="M11.8254 30.7927C11.8058 30.9726 11.6454 31.1016 11.4655 31.082C11.2856 31.0625 11.1565 30.9022 11.176 30.7224C11.1956 30.5426 11.356 30.4136 11.5359 30.4331C11.7119 30.4527 11.841 30.6129 11.8254 30.7927Z" fill="#DFD9E1"/>
<path d="M11.7472 30.785C11.7315 30.9218 11.6103 31.0195 11.4773 31.0039C11.3403 30.9882 11.2425 30.8671 11.2543 30.7341C11.2699 30.5973 11.3912 30.4996 11.5281 30.5113C11.6611 30.527 11.7589 30.6481 11.7472 30.785Z" fill="#F9F7F9"/>
<path d="M10.378 31.8873L10.7575 32.0124C10.824 32.032 10.8826 32.0711 10.9296 32.118C10.9844 32.1727 11.0039 32.247 10.9883 32.3212L10.9609 32.4424C11.0117 32.5284 11.0235 32.6301 10.9961 32.7239L10.9844 32.7591C11.0352 32.8568 11.0313 32.978 10.9765 33.0718L10.9531 33.1226C10.9765 33.2516 10.8866 33.3728 10.7575 33.3884C10.7301 33.3923 10.6988 33.3962 10.6675 33.3962C10.511 33.107 10.378 31.8873 10.378 31.8873Z" fill="#FDB0A8"/>
<path d="M9.27489 33.9943C9.27489 33.9943 10.069 34.0373 10.6675 33.4001C10.7457 32.9506 10.3741 31.8873 10.3741 31.8873C10.3741 31.8873 10.0299 31.8873 9.63086 31.9811C9.17318 32.0867 8.95021 32.3056 8.67638 32.806C8.66073 32.8333 8.67247 32.8529 8.67247 32.8529L9.27489 33.9943Z" fill="#FDCFBF"/>
<path d="M23.4082 32.0319C23.4082 32.0319 22.9505 32.2977 22.0587 32.6847C22.0547 32.6847 22.0547 32.6887 22.0508 32.6887C22.0547 32.6535 22.0587 32.6183 22.0587 32.5831C22.043 32.0867 21.9687 31.4729 21.9178 31.0937C21.91 31.039 21.8905 30.9882 21.8631 30.9413C22.1995 30.8397 22.5555 30.7263 22.9388 30.5973L23.4082 32.0319Z" fill="#FDCFBF"/>
<path d="M22.0587 32.587C22.0587 32.6222 22.0548 32.6574 22.0508 32.6926C21.5932 32.8958 20.9947 33.3845 20.9125 33.447C20.9047 33.4548 20.9047 33.4548 20.9047 33.4548C19.1991 34.2171 17.208 34.6393 15.2952 34.7487C15.0135 34.7644 14.3954 34.2953 14.3954 34.2953C14.3954 34.2953 14.3759 33.0561 15.0839 32.5206C16.4374 31.4886 17.1611 32.1375 20.5135 31.3166C20.9203 31.2149 21.3702 31.0976 21.8631 30.9452C21.8944 30.9882 21.91 31.039 21.9178 31.0976C21.9726 31.4807 22.043 32.0906 22.0587 32.587Z" fill="#A7A7D1"/>
<path d="M22.0587 32.587C22.0587 32.6222 22.0548 32.6574 22.0509 32.6925C22.0274 32.8567 21.9296 32.9974 21.7849 33.0834C21.5541 33.2203 21.3506 33.3258 21.1707 33.404C21.0846 33.4431 20.9947 33.4587 20.9125 33.4509C20.6309 33.4314 20.3922 33.1851 20.4157 32.8724C20.447 32.4814 20.4744 32.0124 20.4588 31.598C20.4548 31.5003 20.4744 31.4064 20.5096 31.3165C20.58 31.1328 20.7287 30.9804 20.9243 30.91C21.1277 30.8396 21.3233 30.8005 21.4836 30.7732C21.6401 30.7458 21.7849 30.8201 21.8592 30.9452C21.8905 30.9882 21.9061 31.039 21.9139 31.0976C21.9726 31.4807 22.043 32.0905 22.0587 32.587Z" fill="#B9B9DA"/>
<path d="M22.9388 30.6012C22.9388 30.6012 23.2831 29.9327 23.5686 29.6591L24.2806 29.4441L24.883 29.8233C24.9026 29.835 24.9104 29.8663 24.8908 29.8858C24.7657 30.0265 24.5701 30.0813 24.3901 30.0226L24.2297 29.9718L23.8268 30.5504C23.8268 30.5504 24.3002 31.6918 23.4043 32.0358L22.9388 30.6012Z" fill="#FDCFBF"/>
</g>
<g clip-path="url(#clip1_5_309)">
<path d="M44.6411 9.25989L43.6912 12.9107L43.9581 13.37L44.0994 13.4103L43.1888 16.908L43.2908 17.4479L43.2202 17.7381L43.1181 18.141L42.7648 18.5681L42.6157 19.1484L42.757 19.2532L42.6706 19.5917L42.7413 19.7045L42.5843 20.2928L42.3645 20.6071L42.2389 21.0906L42.0897 21.1148L41.9876 21.5178L42.074 21.7193C42.074 21.7193 41.9876 23.4036 41.9955 23.4358C41.9876 23.597 42.0426 23.7421 42.1525 23.8549C42.2153 23.9194 42.2938 23.9597 42.3802 23.9919C42.4665 24.0161 42.5607 24.0161 42.6392 23.9919C42.7805 23.9516 42.9061 23.8549 42.9768 23.7099C42.9925 23.6857 43.7383 22.1867 43.7383 22.1867L43.911 22.0497L44.0131 21.6467L43.911 21.5258L44.0366 21.0423L43.9974 20.6555L44.1544 20.0671L44.2721 20.0027L44.3585 19.6642L44.539 19.6481L44.6882 19.0678L44.5861 18.5198L44.6882 18.1249L44.7667 17.8348L45.12 17.4238L46.0306 13.9261L46.1719 13.9664L46.6194 13.7085L47.5693 10.0577L44.6411 9.25989Z" fill="#A8A6CE"/>
<path d="M45.0258 14.8045L42.6392 23.9839C42.5529 24.008 42.4665 24.008 42.3802 23.9839C42.2938 23.9597 42.2153 23.9113 42.1525 23.8469L44.539 14.6675C44.5783 14.5305 44.7117 14.4499 44.8452 14.4822C44.9159 14.4983 44.963 14.5467 45.0022 14.6031C45.0258 14.6675 45.0415 14.7401 45.0258 14.8045Z" fill="#DCDBEB"/>
<path d="M49.9951 4.31964L45.8579 3.19136C45.1357 2.99795 44.3977 3.43314 44.2093 4.16652L42.8355 9.45328C42.6471 10.1867 43.071 10.9442 43.7933 11.1457L47.9305 12.274C48.6527 12.4674 49.3906 12.0322 49.5791 11.2988L50.9529 6.01205C51.1413 5.27061 50.7174 4.51306 49.9951 4.31964ZM49.2807 5.62521C49.1865 5.68163 49.0766 5.69774 48.9589 5.66551L46.1091 4.88378C45.8815 4.8193 45.748 4.58559 45.8108 4.35993C45.8422 4.24711 45.9129 4.1504 46.0071 4.09398C46.1013 4.03757 46.2112 4.02145 46.329 4.05369L49.1787 4.83542C49.4063 4.89989 49.5398 5.13361 49.477 5.35926C49.4456 5.48015 49.3671 5.5688 49.2807 5.62521Z" fill="#4D4B75"/>
<path d="M49.7204 4.24713L45.5832 3.11885C44.8609 2.92544 44.1308 3.36063 43.9346 4.09401L42.5607 9.37272C42.5529 9.40495 42.545 9.42913 42.5372 9.46137C42.4037 10.1706 42.8198 10.8717 43.5106 11.0651L47.6478 12.1934C48.3622 12.3868 49.1002 11.9516 49.2964 11.2182L50.6703 5.93148C50.8665 5.1981 50.4348 4.44055 49.7204 4.24713ZM48.9981 5.5527C48.9039 5.60912 48.794 5.62523 48.6762 5.593L45.8265 4.81127C45.5989 4.74679 45.4654 4.51308 45.5282 4.28742C45.5596 4.1746 45.6303 4.07789 45.7245 4.02147C45.8187 3.96506 45.9286 3.94894 46.0463 3.98118L48.8961 4.76291C49.1237 4.82738 49.2572 5.0611 49.1944 5.29481C49.163 5.40764 49.0923 5.49629 48.9981 5.5527Z" fill="#9290C2"/>
<path d="M48.9117 8.56682L48.6998 9.38079L44.2172 8.15581L44.4291 7.34184C44.5233 6.98724 44.8688 6.78576 45.2142 6.87441L48.4564 7.76091C48.8018 7.84956 49.0059 8.21222 48.9117 8.56682Z" fill="#4D4B75"/>
<path d="M44.1622 8.37341L48.6448 9.5984L48.4172 10.4768C48.323 10.8314 47.9776 11.041 47.6321 10.9443L44.3899 10.0578C44.0445 9.96106 43.8482 9.60645 43.9346 9.25185L44.1622 8.37341Z" fill="#4D4B75"/>
<path d="M48.794 8.5346L48.582 9.34857L44.0994 8.12358L44.3114 7.30961C44.4056 6.95501 44.751 6.74548 45.0964 6.84219L48.3387 7.72869C48.6841 7.81734 48.8804 8.18 48.794 8.5346Z" fill="#A8A6CE"/>
<path d="M44.0366 8.34113L48.5192 9.56611L48.2916 10.4446C48.1974 10.7992 47.8519 11.0087 47.5065 10.912L44.2643 10.0255C43.9189 9.92877 43.7226 9.57417 43.809 9.21957L44.0366 8.34113Z" fill="#A8A6CE"/>
<path d="M47.4751 5.96371C46.8863 8.24443 44.7589 9.69507 42.545 9.46136C42.3017 9.43718 42.0583 9.38882 41.8228 9.32435C41.5323 9.24376 41.2575 9.13899 40.9985 9.01005C40.7708 8.89722 40.551 8.76021 40.339 8.61515C39.6482 8.11549 39.1144 7.43852 38.7847 6.65679C38.6826 6.41502 38.5962 6.17324 38.5334 5.91535C38.3372 5.14974 38.3293 4.32771 38.5413 3.51374C39.2007 0.991241 41.7364 -0.52387 44.1936 0.153095C45.8893 0.612464 47.1061 1.99057 47.4987 3.62657L46.643 3.40091C46.2269 2.21622 45.277 1.25719 44.0052 0.91065C41.9484 0.346513 39.8288 1.61179 39.2792 3.72328C39.0908 4.45665 39.1144 5.19003 39.3106 5.867C39.4048 6.18936 39.5383 6.49561 39.7032 6.78573C39.8916 7.11616 40.1349 7.41434 40.4097 7.68029C40.6452 7.90595 40.9121 8.09937 41.2104 8.26055C41.4617 8.39755 41.7286 8.50232 42.019 8.58291C42.2624 8.64739 42.5058 8.68768 42.7413 8.7038C44.5469 8.83275 46.2583 7.63194 46.745 5.77029C46.8 5.54463 46.8392 5.31898 46.8628 5.10138C46.8863 4.79514 46.8785 4.49695 46.8392 4.20682L47.6243 4.42442C47.6478 4.71455 47.64 5.01273 47.6007 5.31092C47.5772 5.52046 47.5301 5.74611 47.4751 5.96371Z" fill="#D3D3E7"/>
<path d="M41.8307 10.5091L37.9525 8.00267C37.0654 7.42242 35.88 7.69643 35.3148 8.61516L31.4288 14.9577C30.8636 15.8764 31.1383 17.0853 32.0333 17.6655L35.9114 20.1719C36.8064 20.7522 37.9839 20.4782 38.5492 19.5594L42.4351 13.2169C43.0004 12.2982 42.7256 11.0812 41.8307 10.5091ZM40.7551 11.5326C40.606 11.7743 40.2998 11.8388 40.0643 11.6937L37.6778 10.1464C37.4422 9.99327 37.3716 9.67897 37.5208 9.44525L37.6385 9.24377C37.7877 9.002 38.0938 8.92947 38.3293 9.08259L40.7159 10.6219C40.9514 10.775 41.0221 11.0893 40.8729 11.3311L40.7551 11.5326Z" fill="#4D4B75"/>
<path d="M40.7002 9.7676L40.5353 9.66283L39.8602 9.22764L37.7091 7.84147L37.0262 7.39822L36.822 7.26928C35.9271 6.68902 34.7417 6.96303 34.1843 7.88177L30.2983 14.2243C29.7331 15.143 30 16.3519 30.9028 16.9321L34.7809 19.4385C35.6759 20.0188 36.8534 19.7448 37.4187 18.826L41.3047 12.4835C41.862 11.5648 41.5951 10.3479 40.7002 9.7676ZM39.7424 10.5977L39.6247 10.7992C39.4755 11.0409 39.1693 11.1054 38.9338 10.9603L36.5473 9.42105C36.3118 9.26793 36.2411 8.95363 36.3903 8.71185L36.508 8.51843C36.6022 8.35725 36.7749 8.27666 36.9477 8.27666C37.034 8.27666 37.1204 8.30084 37.1989 8.35725L37.9133 8.81662L38.9181 9.46135L39.5933 9.89654C39.6796 9.95295 39.7503 10.0335 39.7817 10.1303C39.8366 10.2753 39.8288 10.4526 39.7424 10.5977Z" fill="#9290C2"/>
<path d="M39.0045 13.8536L38.4392 14.7804L33.6269 11.6776L34.1921 10.7508C34.4669 10.3076 35.04 10.1705 35.4796 10.4526L38.7061 12.5399C39.1458 12.8139 39.2792 13.4103 39.0045 13.8536Z" fill="#4D4B75"/>
<path d="M33.4933 11.8914L32.2638 13.8966L37.0739 17.0048L38.3034 14.9996L33.4933 11.8914Z" fill="#4D4B75"/>
<path d="M32.1275 14.1195L36.9398 17.2303L36.3746 18.1571C36.0998 18.6004 35.5267 18.7374 35.0871 18.4553L31.8605 16.368C31.4209 16.0859 31.2953 15.4976 31.5701 15.0463L32.1275 14.1195Z" fill="#4D4B75"/>
<path d="M38.8867 13.781L38.3215 14.7078L33.5092 11.597L34.0744 10.6702C34.3492 10.227 34.9222 10.09 35.3619 10.372L38.5884 12.4594C39.0359 12.7414 39.1615 13.3378 38.8867 13.781Z" fill="#A8A6CE"/>
<path d="M33.3784 11.8235L32.1491 13.829L36.9599 16.9366L38.1891 14.9311L33.3784 11.8235Z" fill="#A8A6CE"/>
<path d="M32.0176 14.047L36.8299 17.1498L36.2647 18.0765C35.9899 18.5279 35.4168 18.6568 34.9772 18.3747L31.7507 16.2874C31.311 16.0054 31.1854 15.417 31.4602 14.9657L32.0176 14.047Z" fill="#A8A6CE"/>
<path d="M39.5854 9.89654L38.9103 9.46135C38.8475 9.45329 38.7847 9.43717 38.7219 9.42105C38.3764 9.32434 38.0938 9.09869 37.9133 8.80856C37.7405 8.52649 37.662 8.17995 37.7091 7.83341C37.717 7.78505 37.7248 7.7367 37.7405 7.68834C37.8819 7.15644 38.2979 6.77767 38.7925 6.66484C38.6905 6.42307 38.6041 6.18129 38.5413 5.9234C37.8426 6.10876 37.2617 6.64872 37.034 7.39822C37.0262 7.42239 37.0183 7.45463 37.0105 7.47881C36.9398 7.74476 36.9241 8.01071 36.9476 8.2686C37.034 9.14704 37.6463 9.92877 38.5256 10.1705C38.9574 10.2834 39.3891 10.2592 39.7738 10.1222C39.7346 10.0335 39.6718 9.95295 39.5854 9.89654Z" fill="#4D4B75"/>
<path d="M41.2026 8.2525C41.2968 7.20481 40.6452 6.20549 39.6247 5.93148C39.5148 5.89924 39.4127 5.88312 39.3028 5.867C39.397 6.18937 39.5305 6.49561 39.6953 6.78574C40.0486 6.9711 40.2998 7.29346 40.4019 7.6803C40.4647 7.91402 40.4725 8.17191 40.4019 8.42174C40.3862 8.49427 40.3626 8.55874 40.3312 8.62322C40.2292 8.87305 40.0486 9.08258 39.8366 9.22765L40.5118 9.66284C40.7002 9.47748 40.865 9.25989 40.9828 9.01811C41.0456 8.88917 41.0927 8.76022 41.1241 8.62322C41.1791 8.49427 41.1948 8.37338 41.2026 8.2525Z" fill="#4D4B75"/>
</g>
<defs>
<linearGradient id="paint0_linear_5_309" x1="43.0607" y1="71.3911" x2="43.0607" y2="63.9074" gradientUnits="userSpaceOnUse">
<stop stop-color="white"/>
<stop offset="0.1102" stop-color="#DCE7EF"/>
<stop offset="0.3557" stop-color="#94B6CE"/>
<stop offset="0.5763" stop-color="#5B8EB4"/>
<stop offset="0.7639" stop-color="#3272A1"/>
<stop offset="0.9112" stop-color="#186095"/>
<stop offset="1" stop-color="#0F5A91"/>
</linearGradient>
<linearGradient id="paint1_linear_5_309" x1="43.2111" y1="52.9821" x2="43.2111" y2="41.0448" gradientUnits="userSpaceOnUse">
<stop stop-color="#0D97D3"/>
<stop offset="1"/>
</linearGradient>
<clipPath id="clip0_5_309">
<rect width="77" height="59" fill="white" transform="translate(0 15)"/>
</clipPath>
<clipPath id="clip1_5_309">
<rect width="21" height="24" fill="white" transform="translate(30)"/>
</clipPath>
</defs>
</svg>
