<svg width="72" height="89" viewBox="0 0 72 89" fill="none" xmlns="http://www.w3.org/2000/svg">
<path d="M39.3922 44.9994C39.3922 44.9994 40.5602 43.5174 38.3711 41.8155C36.1847 40.115 33.7556 43.7562 36.767 46.9637C39.7812 50.1726 45.9276 46.6269 44.5917 40.1902C43.2571 33.7509 36.3068 30.7594 30.9344 30.6835C25.5648 30.6091 23.038 32.5015 20.0707 30.1676C17.1061 27.8352 18.8064 25.0409 20.5584 24.9453C20.5584 24.9453 17.4233 23.1956 14.8721 27.6896C14.8721 27.6896 12.5142 25.3563 9.64861 25.3792C9.64861 25.3792 8.21273 28.7316 11.5188 32.9349C11.5188 32.9349 8.30995 32.3013 6.92673 35.3132C6.92673 35.3132 11.1303 35.0462 13.5865 37.3077C16.0401 39.5677 20.39 40.7103 27.1465 38.9899C33.9031 37.2695 39.2733 35.5231 41.5099 40.5274C43.5021 44.994 39.3922 44.9994 39.3922 44.9994Z" fill="#FFD217"/>
<path d="M42.9709 36.007C43.8659 37.1994 44.5244 38.5799 44.8465 40.1378C45.207 41.8789 45.0552 43.5504 44.4079 44.9736C43.8314 46.2393 42.8812 47.265 41.7247 47.8645C39.8734 48.8281 37.9022 48.5489 36.5791 47.143C34.7155 45.1593 34.7983 42.9009 35.8172 41.7812C36.5537 40.9723 37.6188 40.9077 38.5288 41.6143C39.377 42.2755 39.8523 42.9865 39.9439 43.7348C39.9923 44.1239 39.9235 44.4561 39.8354 44.7001C40.3238 44.6179 41.0942 44.3915 41.505 43.7587C41.9599 43.0534 41.8798 42.0047 41.2712 40.6396C39.2605 36.1363 34.4771 37.3711 28.4197 38.9374C28.0231 39.0396 27.6184 39.1445 27.2068 39.2492C19.501 41.2129 15.4487 39.3861 13.4092 37.506C11.0642 35.346 6.98157 35.5765 6.94226 35.5801C6.85148 35.5845 6.76525 35.5469 6.71333 35.4691C6.66271 35.3954 6.65434 35.2992 6.6905 35.2157C7.76957 32.8675 9.91745 32.6114 10.9652 32.6401C8.05575 28.5728 9.35398 25.415 9.41108 25.2776C9.45278 25.1833 9.54287 25.1207 9.64442 25.122C12.0821 25.1035 14.1249 26.6858 14.8114 27.2842C17.4323 22.9724 20.6516 24.7041 20.6839 24.7207C20.7848 24.7761 20.8349 24.8904 20.8106 25.0038C20.7836 25.1158 20.6879 25.1959 20.5754 25.2027C19.8221 25.2439 19.0849 25.8755 18.8236 26.7009C18.4766 27.7987 18.991 28.9893 20.2351 29.9666C22.0549 31.4001 23.6622 31.1687 26.0928 30.8198C27.4573 30.6234 29.009 30.4008 30.9438 30.4265C35.3928 30.49 40.2687 32.4038 42.9709 36.007ZM36.528 46.2827C36.6547 46.4534 36.7963 46.6216 36.9556 46.7887C38.1128 48.0208 39.8501 48.2579 41.4876 47.4055C44.193 45.9999 44.8715 42.7955 44.3402 40.2415C43.0954 34.2431 36.6514 31.0221 30.9311 30.9407C29.037 30.9156 27.5084 31.133 26.1615 31.3283C23.6902 31.6835 21.9065 31.9398 19.9123 30.3689C17.8939 28.7787 18.1318 27.1651 18.3298 26.542C18.5588 25.8192 19.0707 25.2282 19.6904 24.9174C18.6689 24.7185 16.7742 24.8599 15.0951 27.8114C15.0564 27.88 14.9868 27.9293 14.9068 27.9392C14.8268 27.9491 14.7472 27.9251 14.691 27.8689C14.6682 27.847 12.4719 25.7091 9.82946 25.6359C9.61292 26.3345 8.96191 29.2604 11.7207 32.7736C11.7234 32.7749 11.722 32.7776 11.7247 32.779C11.7874 32.8623 11.7928 32.9775 11.7389 33.0689C11.6824 33.1589 11.5748 33.2091 11.4708 33.1862C11.3533 33.1631 8.71281 32.6824 7.35465 35.0435C8.52328 35.0425 11.7007 35.2209 13.759 37.1175C15.7073 38.9099 19.5982 40.6469 27.08 38.7414C27.4874 38.638 27.8921 38.5331 28.2887 38.4309C34.581 36.8051 39.5492 35.5224 41.7395 40.4245C42.426 41.9624 42.492 43.1775 41.9337 44.0373C41.1535 45.2423 39.4607 45.2561 39.3889 45.2566C39.29 45.2568 39.2 45.2002 39.1577 45.1104C39.114 45.0232 39.1247 44.9164 39.1851 44.8386C39.2278 44.7823 40.1494 43.5274 38.2086 42.018C37.5188 41.4792 36.7451 41.5201 36.1952 42.1255C35.4162 42.984 35.3183 44.6696 36.528 46.2827Z" fill="#D37F07"/>
<path d="M38.1868 46.0438C38.6287 46.0057 39.0272 45.8534 39.3611 45.5554C39.6237 45.323 39.9498 44.9938 39.8349 44.6216C39.8049 44.521 39.6807 44.4843 39.5923 44.5171C39.3081 44.6194 39.1933 44.9483 38.9785 45.1475C38.7253 45.3814 38.4172 45.5564 38.0923 45.6717C37.8828 45.7478 37.9727 46.0629 38.1868 46.0438Z" fill="#D37F07"/>
<path d="M16.489 33.9441C15.4234 33.348 14.275 32.9987 13.0735 32.799C12.0165 32.6227 10.7416 32.4465 9.69174 32.7197C9.46356 32.7792 9.53269 33.128 9.74224 33.1575C10.8144 33.3042 11.9112 33.1913 12.9926 33.3598C14.1443 33.5373 15.2658 33.866 16.3832 34.196C16.5519 34.2454 16.6451 34.0312 16.489 33.9441Z" fill="#D37F07"/>
<path d="M16.4027 34.0256C15.9722 32.9565 15.4148 31.9617 15.0972 30.8451C14.9279 30.2542 14.8105 29.6288 14.8596 29.0107C14.907 28.4156 15.1738 27.9436 15.3615 27.3935C15.4218 27.2169 15.2156 27.0086 15.0528 27.1529C13.19 28.7675 14.8819 32.7392 16.2065 34.1357C16.2881 34.2219 16.4554 34.1549 16.4027 34.0256Z" fill="#D37F07"/>
<path d="M9.86724 25.6485C11.3579 28.7405 13.217 31.7055 15.811 33.997C16.047 34.2069 16.3493 33.8179 16.1134 33.608C13.5352 31.3519 11.9242 28.3614 10.0526 25.5464C9.98596 25.4509 9.81701 25.5409 9.86724 25.6485Z" fill="#D37F07"/>
<path d="M43.4798 41.9532C43.4798 41.9532 43.6659 37.4162 38.4631 34.9531C33.2603 32.4899 27.2228 35.3939 22.8349 35.5558C18.4456 35.7204 15.4839 30.537 16.7045 27.5367C16.7045 27.5367 17.2232 31.313 20.6866 32.5372C24.1486 33.7641 30.3132 30.8778 35.1851 32.4355C40.0544 33.9918 44.8311 37.1241 43.4798 41.9532Z" fill="#FFA21A"/>
<path d="M11.9671 34.3197C11.9671 34.3197 13.9567 34.5233 16.5096 36.1401C19.0626 37.757 23.0396 37.884 28.3708 36.7098C28.3708 36.7098 25.4224 38.9911 21.4566 39.0673C17.4908 39.1436 16.3614 37.7318 13.2555 36.038C10.1468 34.3428 8.38781 34.8161 8.38781 34.8161C8.38781 34.8161 9.46959 34.0045 11.9671 34.3197Z" fill="#FFEFA1"/>
<path d="M38.908 44.4135C38.908 44.4135 40.6601 43.713 41.6724 46.2945C42.6842 48.8729 38.5041 50.1714 36.2807 46.375C34.0566 42.5756 39.1978 37.6848 44.9927 40.7888C50.7905 43.8921 51.6914 51.4051 50.2428 56.579C48.7937 61.75 46.2632 63.6375 47.6612 67.1442C49.0587 70.6479 52.2201 69.8085 52.808 68.1553C52.808 68.1553 53.5982 71.6575 48.5657 72.8317C48.5657 72.8317 50.1359 75.7538 49.3024 78.4957C49.3024 78.4957 45.6806 78.9234 42.5855 74.5624C42.5855 74.5624 42.2846 77.8194 39.0042 78.2931C39.0042 78.2931 40.4507 74.3371 38.9773 71.3411C37.5046 68.348 37.6405 63.8525 41.2038 57.8597C44.7671 51.8669 47.9627 47.2111 43.7966 43.649C40.0764 40.4705 38.908 44.4135 38.908 44.4135Z" fill="#FFD217"/>
<path d="M50.4891 56.6432C49.9658 58.506 49.3159 59.9306 48.7382 61.1842C47.7153 63.4165 47.0377 64.8895 47.8978 67.0437C48.4857 68.5131 49.4819 69.3436 50.6301 69.3222C51.4957 69.3053 52.3102 68.7772 52.563 68.0664C52.6008 67.9574 52.7077 67.8878 52.8204 67.8971C52.9355 67.903 53.0315 67.9864 53.056 68.0989C53.0628 68.1346 53.812 71.7124 48.9345 73.005C49.314 73.8328 50.2561 76.2396 49.5451 78.5728C49.5145 78.6711 49.4295 78.7428 49.3297 78.7525C49.1824 78.7714 45.7826 79.1198 42.7182 75.1784C42.446 76.192 41.5916 78.1764 39.0375 78.5488C38.9477 78.5628 38.8578 78.5275 38.8009 78.4551C38.741 78.3833 38.7294 78.29 38.7593 78.2041C38.7733 78.1645 40.151 74.3172 38.7436 71.4565C37.5179 68.9682 36.9134 64.5644 40.9788 57.73C41.1934 57.3686 41.4086 57.0101 41.6213 56.6552C44.8358 51.2898 47.3776 47.0513 43.628 43.8476C42.4906 42.8744 41.5051 42.5041 40.7028 42.7402C39.979 42.952 39.5443 43.6297 39.3271 44.0749C39.5861 44.0595 39.9212 44.0881 40.2836 44.2441C40.9754 44.5439 41.5227 45.201 41.9166 46.2018C42.3366 47.2746 41.9731 48.2779 40.9887 48.7551C39.6269 49.4182 37.4369 48.8551 36.0622 46.5061C35.0855 44.8395 35.3788 42.8694 36.8272 41.3668C37.7303 40.4303 38.9825 39.8065 40.3597 39.6121C41.9079 39.3943 43.554 39.7219 45.1217 40.5608C46.5252 41.3138 47.6622 42.3333 48.5524 43.5293C51.2364 47.1394 51.691 52.3578 50.4891 56.6432ZM40.7609 48.2868C41.4972 47.9308 41.7555 47.2004 41.4341 46.3862C40.5361 44.0974 39.0686 44.6265 39.0055 44.6509C38.9137 44.6869 38.8112 44.6663 38.737 44.6003C38.6629 44.5343 38.6341 44.4319 38.6623 44.3371C38.6831 44.2684 39.1757 42.6488 40.5524 42.2417C41.535 41.9498 42.6817 42.3571 43.9622 43.451C48.0435 46.9399 45.4034 51.342 42.0654 56.9158C41.855 57.2672 41.6398 57.6257 41.4252 57.9872C37.4761 64.6237 38.0402 68.8471 39.2105 71.2228C40.4466 73.7338 39.7185 76.8347 39.386 77.9522C42.0351 77.3183 42.3217 74.6497 42.3329 74.5305C42.3434 74.4237 42.4184 74.3323 42.5213 74.3066C42.6237 74.2778 42.7326 74.3157 42.7953 74.4023C42.7959 74.4053 42.7988 74.4048 42.7994 74.4077C45.3876 78.0484 48.378 78.2526 49.1094 78.2427C49.7874 75.6877 48.359 72.9759 48.3444 72.9479C48.3065 72.8781 48.3025 72.7925 48.3382 72.721C48.3703 72.647 48.4373 72.5942 48.514 72.5765C51.8208 71.805 52.4923 70.0249 52.5908 68.9889C52.1173 69.4952 51.4056 69.8188 50.6474 69.8337C49.9967 69.8467 48.3789 69.6184 47.4253 67.2323C46.4834 64.8749 47.2374 63.2363 48.2748 60.9673C48.8435 59.7308 49.4849 58.3263 49.9971 56.5026C51.539 50.9934 50.2751 43.904 44.8743 41.0086C42.5758 39.7788 39.3098 39.5192 37.1956 41.7158C35.915 43.0478 35.6499 44.7783 36.5039 46.237C36.6184 46.434 36.7432 46.6199 36.8681 46.7903C38.0707 48.4138 39.7145 48.7943 40.7609 48.2868Z" fill="#D37F07"/>
<path d="M37.5651 45.2735C37.7267 44.8605 37.9856 44.5214 38.3659 44.2856C38.6632 44.0995 39.0712 43.88 39.3957 44.0957C39.4837 44.1529 39.4837 44.2824 39.4272 44.3578C39.2487 44.6014 38.9007 44.6184 38.6488 44.7681C38.3528 44.9447 38.0977 45.1906 37.8951 45.4696C37.7629 45.6489 37.4861 45.4735 37.5651 45.2735Z" fill="#D37F07"/>
<path d="M43.0247 69.5068C43.2946 70.6977 43.3045 71.898 43.1558 73.1069C43.0256 74.1704 42.8335 75.4431 42.2742 76.3726C42.1525 76.5746 41.8376 76.4095 41.8686 76.2002C42.0315 75.1304 42.4503 74.1105 42.595 73.0256C42.7509 71.8708 42.7532 70.7021 42.7532 69.537C42.7536 69.3612 42.9859 69.3355 43.0247 69.5068Z" fill="#D37F07"/>
<path d="M42.9219 69.5665C43.8254 70.2821 44.6217 71.0984 45.6026 71.7192C46.1214 72.0488 46.688 72.3386 47.2946 72.4665C47.8788 72.5896 48.407 72.4674 48.9878 72.4431C49.1742 72.4353 49.3156 72.692 49.1311 72.8073C47.0551 74.1366 43.7251 71.3894 42.7608 69.7235C42.7012 69.6208 42.8135 69.4823 42.9219 69.5665Z" fill="#D37F07"/>
<path d="M49.1055 78.2065C46.5622 75.9012 44.245 73.2786 42.7818 70.1419C42.6473 69.8561 43.106 69.6763 43.2405 69.962C44.6742 73.0735 47.0867 75.4684 49.2559 78.0576C49.3292 78.1515 49.1945 78.2851 49.1055 78.2065Z" fill="#D37F07"/>
<path d="M42.9866 41.3527C42.9866 41.3527 47.3905 42.459 48.2795 48.1463C49.1686 53.8337 44.6737 58.8017 43.2759 62.9642C41.8751 67.1272 46.0077 71.4355 49.2308 71.1145C49.2308 71.1145 45.7559 69.5476 45.5626 65.8793C45.3693 62.211 49.8825 57.1131 49.7687 52.0025C49.652 46.8924 48.0006 41.4242 42.9866 41.3527Z" fill="#FFA21A"/>
<path d="M41.384 73.7371C41.384 73.7371 41.7521 71.7713 40.9244 68.8649C40.0967 65.9586 41.1011 62.1084 43.7368 57.328C43.7368 57.328 40.714 59.5097 39.5179 63.2915C38.3218 67.0734 39.3559 68.5564 40.1009 72.0148C40.8458 75.4733 39.8943 77.0293 39.8943 77.0293C39.8943 77.0293 40.9791 76.2216 41.384 73.7371Z" fill="#FFEFA1"/>
<path d="M43.4577 38.4425L43.4534 37.6567L42.1454 37.4602C34.9117 36.3656 29.0917 41.4112 29.1494 48.7271L29.1585 50.0497L29.9358 50.1654C37.4603 51.3044 43.5158 46.0545 43.4577 38.4425Z" fill="#5FB402"/>
<path d="M28.9596 50.2222C28.9199 50.1765 28.8963 50.1168 28.8966 50.0525L28.8875 48.7298C28.861 45.1139 30.2292 41.924 32.7424 39.7451C35.2556 37.5663 38.6074 36.6642 42.183 37.2032L43.491 37.3997C43.6162 37.4194 43.7114 37.5292 43.7131 37.656L43.7197 38.4398C43.749 42.1975 42.3244 45.5165 39.7129 47.7806C37.1013 50.0447 33.6138 50.9843 29.8982 50.4224L29.121 50.3067C29.053 50.2976 28.9993 50.268 28.9596 50.2222ZM43.1927 37.8827L42.1056 37.7192C38.6851 37.202 35.4802 38.0609 33.0836 40.1386C30.687 42.2164 29.3823 45.2671 29.4092 48.7264L29.417 49.8257L29.9753 49.9107C33.5381 50.4488 36.8765 49.5543 39.3714 47.3914C41.8663 45.2284 43.2251 42.0506 43.1977 38.4475L43.1927 37.8827Z" fill="#487A06"/>
<path d="M29.3363 50.232C30.5403 49.5649 31.5869 48.5173 32.6469 47.6424C33.7547 46.7301 34.8624 45.8178 35.9682 44.9032C37.074 43.9887 38.1738 43.0672 39.2776 42.1504C40.3996 41.2177 41.7095 40.3306 42.6816 39.2433C42.9076 38.9912 42.6724 38.4658 42.3158 38.6828C41.1314 39.405 40.0937 40.4489 39.0305 41.3387C37.8852 42.2955 36.738 43.25 35.5927 44.2068C34.4495 45.1659 33.3102 46.1296 32.1689 47.091C31.1211 47.9754 29.9045 48.8176 29.0308 49.8797C28.8782 50.0641 29.133 50.3441 29.3363 50.232Z" fill="#487A06"/>
<path d="M30.0063 46.3611C30.6827 46.3558 31.3602 46.2734 32.0356 46.2208C32.7757 46.1643 33.5537 46.1791 34.2808 46.0337C34.5593 45.9806 34.5403 45.5522 34.2519 45.5337C33.5769 45.4897 32.875 45.6134 32.204 45.6942C31.4637 45.7829 30.7104 45.8749 29.9882 46.0722C29.8413 46.1154 29.8323 46.3637 30.0063 46.3611Z" fill="#487A06"/>
<path d="M31.6914 43.5737C33.3972 43.6978 35.073 43.7318 36.7748 43.9436C37.1789 43.994 37.2118 43.3804 36.819 43.3201C35.179 43.0548 33.3092 42.9726 31.6748 43.3236C31.5397 43.3525 31.5442 43.561 31.6914 43.5737Z" fill="#487A06"/>
<path d="M33.8588 40.5525C35.9344 40.5163 37.977 40.7933 39.99 41.2763C40.3488 41.3621 40.5456 40.8267 40.1775 40.721C38.1061 40.1244 35.9722 40.0147 33.8431 40.2895C33.6978 40.3113 33.7061 40.5566 33.8588 40.5525Z" fill="#487A06"/>
<path d="M33.3995 49.3787C33.8746 48.3697 34.1034 47.1735 34.3054 46.0806C34.3544 45.8137 33.8935 45.7163 33.8337 45.9846C33.5929 47.079 33.2656 48.2124 33.1562 49.3291C33.1433 49.4806 33.3437 49.4992 33.3995 49.3787Z" fill="#487A06"/>
<path d="M35.9757 49.3612C36.9834 47.8344 36.9979 45.7859 36.9879 44.0233C36.9867 43.7077 36.4982 43.6663 36.4925 43.9878C36.4567 45.8223 36.3441 47.499 35.7478 49.2462C35.7014 49.3866 35.8963 49.4821 35.9757 49.3612Z" fill="#487A06"/>
<path d="M39.2372 46.71C39.7901 44.8481 39.9238 43.0249 40.1733 41.1134C40.2276 40.6817 39.4986 40.6725 39.5483 41.1503C39.7397 42.9281 39.3556 44.8922 38.9418 46.6095C38.8936 46.8035 39.1783 46.9054 39.2372 46.71Z" fill="#487A06"/>
<path d="M39.1024 32.2036C39.1024 32.2036 36.2007 29.277 29.5553 28.5099C22.9099 27.7428 23.109 26.2999 22.3565 24.5957C22.3565 24.5957 19.1276 29.0262 26.7788 36.1789C34.428 43.3294 42.6946 36.347 42.6946 36.347C42.6946 36.347 42.2353 34.5651 39.1024 32.2036Z" fill="#5FB402"/>
<path d="M24.6941 34.4032C22.6888 32.0901 21.5967 29.8509 21.4364 27.7255C21.2811 25.652 22.1083 24.4901 22.1438 24.4432C22.1985 24.3677 22.2893 24.3292 22.3809 24.3379C22.4726 24.3466 22.5521 24.4059 22.591 24.4924C22.6742 24.6807 22.7449 24.8639 22.8139 25.0405C23.3673 26.4643 23.8027 27.5857 29.5839 28.2523C36.0805 29.0002 39.0177 31.7597 39.2726 32.0076C42.4319 34.3903 42.9252 36.2069 42.9457 36.2813C42.9689 36.3774 42.938 36.4803 42.8625 36.5458C42.7779 36.6191 40.7181 38.3368 37.6763 39.1945C34.8536 39.9905 30.6428 40.1466 26.6019 36.3681C25.8934 35.7079 25.2575 35.053 24.6941 34.4032ZM22.3253 25.2116C22.117 25.6968 21.865 26.5565 21.9618 27.7309C22.223 30.943 24.8221 33.9917 26.9572 35.9879C30.0584 38.8858 33.6162 39.7969 37.5338 38.6928C40.0324 37.9894 41.8787 36.6492 42.3873 36.2564C42.1974 35.7878 41.435 34.2847 38.9479 32.4093C38.9377 32.4022 38.9298 32.393 38.9195 32.3858C38.9096 32.3744 38.1857 31.6595 36.6758 30.8605C35.2777 30.121 32.9059 29.1595 29.5259 28.7675C23.4338 28.0658 22.9221 26.7501 22.3306 25.227C22.3267 25.2225 22.327 25.2182 22.3253 25.2116Z" fill="#487A06"/>
<path d="M22.102 24.8844C21.9291 27.9839 24.0222 31.0265 26.5746 32.6168C27.9864 33.4968 29.5519 33.8749 31.1777 34.1285C33.0307 34.4176 35.0685 34.8831 36.9438 34.6159C37.284 34.5694 37.2361 34.0659 36.9102 34.0319C33.7215 33.6944 30.0699 33.8025 27.2169 32.1241C24.4999 30.5241 23.0904 27.8587 22.4273 24.8669C22.3865 24.6859 22.1114 24.6919 22.102 24.8844Z" fill="#487A06"/>
<path d="M48.0775 42.5564C48.0775 42.5564 50.563 45.8439 50.38 52.5309C50.1969 59.2179 51.6535 59.2255 53.2338 60.2119C53.2338 60.2119 48.3902 62.78 42.3947 54.1918C36.4032 45.6082 44.4873 38.4153 44.4873 38.4153C44.4873 38.4153 46.184 39.1204 48.0775 42.5564Z" fill="#5FB402"/>
<path d="M43.857 56.5068C43.2937 55.857 42.7355 55.1347 42.1822 54.344C39.0169 49.8104 39.7664 45.662 40.9548 42.9806C42.2351 40.0913 44.2295 38.2981 44.3121 38.2225C44.3876 38.157 44.4919 38.1387 44.5857 38.1776C44.6588 38.2065 46.3847 38.9544 48.2953 42.4196C48.5068 42.7051 50.8178 46.0037 50.6388 52.5429C50.4789 58.3602 51.5291 58.9526 52.8581 59.7C53.0231 59.7933 53.1944 59.8893 53.3691 59.9984C53.4492 60.0492 53.4947 60.134 53.4923 60.2282C53.4899 60.3225 53.4368 60.4045 53.3543 60.448C53.303 60.4765 52.0354 61.1306 50.0049 60.6828C47.9241 60.2185 45.8623 58.8199 43.857 56.5068ZM44.5312 38.7339C44.0702 39.1816 42.4745 40.8295 41.4237 43.2073C39.782 46.9228 40.182 50.5676 42.6089 54.0461C44.2802 56.4405 46.9338 59.4459 50.0741 60.1619C51.2229 60.4243 52.1097 60.2967 52.6194 60.1594C52.6132 60.1568 52.6092 60.1522 52.603 60.1496C51.1791 59.3482 49.9493 58.655 50.1186 52.525C50.2963 46.0029 47.8944 42.7472 47.8709 42.7155C47.8629 42.7063 47.8573 42.6952 47.8516 42.6841C46.3479 39.9561 44.97 38.9906 44.5312 38.7339Z" fill="#487A06"/>
<path d="M53.2013 60.1839C51.7253 59.7242 50.5848 58.4688 49.5902 57.3353C48.6672 56.28 47.8723 55.1136 47.2087 53.8815C46.5451 52.6494 46.0088 51.347 45.626 49.9998C45.2287 48.6129 45.1003 47.2174 44.8638 45.8034C44.8155 45.5166 44.3573 45.5332 44.3488 45.8331C44.2578 48.7774 45.4747 51.9784 46.925 54.4922C48.2705 56.8203 50.3395 59.8076 53.0787 60.5507C53.3145 60.6148 53.4428 60.2591 53.2013 60.1839Z" fill="#487A06"/>
<path d="M36.265 34.928C36.265 34.928 34.7704 32.5849 30.8293 30.7557C26.8883 28.9266 27.8836 24.6412 30.9473 24.2293C34.0153 23.8178 38.9438 25.4321 41.3082 32.4794C43.677 39.527 36.265 34.928 36.265 34.928Z" fill="#D32463"/>
<path d="M28.9247 29.6859C28.1075 28.7433 27.8906 27.6569 28.0263 26.7738C28.2492 25.2982 29.4128 24.1732 30.9164 23.9717C34.3657 23.5101 39.2247 25.4371 41.5611 32.3965C42.2432 34.4262 42.2014 35.7087 41.4373 36.315C40.7938 36.8249 39.6922 36.774 38.1667 36.1649C37.0773 35.7307 36.1727 35.1724 36.1316 35.148C36.0986 35.1285 36.0705 35.1007 36.0493 35.067C36.0318 35.0422 34.5349 32.7611 30.7248 30.9907C29.9373 30.6275 29.3492 30.1756 28.9247 29.6859ZM38.3746 27.6168C35.2902 24.0591 31.5268 24.4124 30.9828 24.4872C29.7088 24.6579 28.7251 25.607 28.538 26.8512C28.2715 28.6091 29.605 29.8977 30.9408 30.519C34.6283 32.2313 36.1999 34.3674 36.4506 34.7352C37.4606 35.3504 40.1277 36.6849 41.1102 35.9053C41.6651 35.4643 41.6508 34.3065 41.0643 32.5628C40.3367 30.3882 39.3922 28.7905 38.3746 27.6168Z" fill="#AF1049"/>
<path d="M43.9977 37.4295C43.9977 37.4295 41.4694 39.9421 35.0435 39.1971C28.6199 38.4502 29.1541 32.5287 34.9997 33.348C40.8474 34.1654 43.9977 37.4295 43.9977 37.4295Z" fill="#D32463"/>
<path d="M30.9043 37.6199C30.6782 37.3591 30.4986 37.078 30.374 36.7772C30.0118 35.9251 30.1205 35.0294 30.6623 34.3191C31.4757 33.2613 33.0698 32.813 35.0396 33.0891C40.9064 33.9099 44.0547 37.1117 44.1866 37.2499C44.2866 37.3514 44.2837 37.5143 44.1821 37.6144C44.0737 37.7204 41.4914 40.2076 35.0165 39.457C33.1969 39.2432 31.7354 38.5786 30.9043 37.6199ZM43.606 37.4165C42.8234 36.7124 39.8283 34.2835 34.9664 33.6053C33.1879 33.3558 31.7684 33.7329 31.0733 34.6361C30.6474 35.1937 30.5629 35.9001 30.8499 36.573C31.3717 37.8079 32.9529 38.6892 35.0749 38.9376C38.3186 39.3154 40.5246 38.8336 41.8027 38.3628C42.7348 38.0195 43.3223 37.6344 43.606 37.4165Z" fill="#AF1049"/>
<path d="M52.1573 32.0984C52.1573 32.0984 55.4852 28.0271 52.7769 24.3718C50.0685 20.7165 45.3546 24.9355 47.7041 32.132C50.0537 39.3284 52.1573 32.0984 52.1573 32.0984Z" fill="#D32463"/>
<path d="M48.8003 34.9809C48.3282 34.4364 47.8829 33.5161 47.4582 32.2131C46.5802 29.5278 46.7503 27.5248 47.0483 26.3206C47.4248 24.7959 48.2365 23.6114 49.2745 23.0761C50.5731 22.4071 51.9593 22.8325 52.9876 24.2173C55.6314 27.7843 52.7459 31.7606 52.3956 32.2206C52.2411 32.7354 51.3278 35.563 49.9163 35.5844C49.5256 35.5865 49.1554 35.3905 48.8003 34.9809ZM52.3657 24.2715C51.5326 23.3106 50.4836 23.0338 49.5123 23.5352C47.7102 24.4644 46.5531 27.7639 47.9527 32.0488C48.813 34.6814 49.5455 35.0643 49.9063 35.06C50.7248 35.0477 51.5693 33.1895 51.9075 32.0226C51.9185 31.9891 51.9337 31.9558 51.9569 31.9317C51.9641 31.9215 52.7712 30.9212 53.2429 29.5063C53.8627 27.6385 53.6362 25.9633 52.5688 24.5242C52.5043 24.4359 52.4351 24.3516 52.3657 24.2715Z" fill="#AF1049"/>
<path d="M45.4031 45.4685C45.4031 45.4685 47.5106 47.2802 48.7624 51.4409C50.0142 55.6015 54.3974 55.2239 55.2396 52.2496C56.0821 49.2709 55.1829 44.1633 48.5421 40.8235C41.9017 37.4793 45.4031 45.4685 45.4031 45.4685Z" fill="#D32463"/>
<path d="M49.5513 53.4781C49.1268 52.9885 48.7628 52.3422 48.5127 51.5131C47.3007 47.4862 45.255 45.681 45.2326 45.6644C45.2023 45.6386 45.1788 45.6069 45.1641 45.5715C45.1455 45.5316 44.7211 44.5569 44.4481 43.415C44.0637 41.8166 44.1696 40.7189 44.7632 40.1562C45.4718 39.4858 46.7473 39.6263 48.6597 40.5893C55.2175 43.8889 56.4382 48.9702 55.4899 52.3211C55.075 53.783 53.7963 54.7753 52.3063 54.7846C51.4132 54.7894 50.3705 54.423 49.5513 53.4781ZM46.1397 45.8559C46.8676 46.6956 48.1389 48.4669 49.0125 51.3643C49.4382 52.7747 50.5226 54.2751 52.3026 54.2629C53.5607 54.2541 54.6397 53.4149 54.9894 52.178C55.1872 51.4775 56.688 45.2109 48.425 41.0533C46.7777 40.2251 45.636 40.0448 45.1227 40.5338C44.2117 41.3958 45.1546 44.2252 45.6203 45.3123C45.7028 45.389 45.8897 45.5676 46.1397 45.8559Z" fill="#AF1049"/>
<path d="M44.0233 37.4593C44.0233 37.4593 41.1776 39.6058 41.0038 46.0724C40.8323 52.537 46.7697 52.8479 46.7876 46.9453C46.8077 41.0407 44.0233 37.4593 44.0233 37.4593Z" fill="#D32463"/>
<path d="M41.9783 50.3935C41.1472 49.4348 40.6965 47.8939 40.7451 46.0603C40.9203 39.5445 43.7466 37.3386 43.8689 37.2487C43.9823 37.1623 44.14 37.1779 44.2303 37.296C44.3465 37.4438 47.0671 41.0163 47.052 46.9405C47.046 48.9295 46.3761 50.444 45.2137 51.0991C44.4335 51.5391 43.5317 51.5154 42.7395 51.0359C42.4572 50.872 42.2044 50.6543 41.9783 50.3935ZM43.9808 37.849C43.3455 38.4839 41.4057 40.8389 41.2654 46.0782C41.208 48.2159 41.8585 49.9042 43.0069 50.5958C43.6346 50.9733 44.3456 50.9941 44.9559 50.6493C45.9505 50.0916 46.5251 48.7399 46.5283 46.9417C46.5441 42.0347 44.5687 38.7259 43.9808 37.849Z" fill="#AF1049"/>
<path d="M50.4577 30.1377C50.4577 30.1377 54.9599 27.4207 58.1942 30.62C61.4285 33.8194 56.5836 37.8874 49.7931 34.5411C43.0025 31.1948 50.4577 30.1377 50.4577 30.1377Z" fill="#D32463"/>
<path d="M47.1282 33.0522C46.7732 32.6426 46.6294 32.2504 46.6911 31.8642C46.9125 30.47 49.8387 29.9689 50.3725 29.8869C50.8755 29.6031 55.2229 27.3129 58.3789 30.4358C59.6062 31.6481 59.8283 33.0826 58.982 34.2732C58.3049 35.2249 57.0172 35.8603 55.4545 36.0169C54.2184 36.1388 52.2135 36.0255 49.6798 34.7755C48.4482 34.1681 47.6003 33.5967 47.1282 33.0522ZM58.235 31.0415C58.1656 30.9614 58.0939 30.8833 58.0136 30.8046C54.9577 27.7833 50.6368 30.335 50.5943 30.3599C50.5651 30.3771 50.532 30.3898 50.4973 30.3959C49.2919 30.5672 47.337 31.1399 47.2068 31.9461C47.1514 32.3027 47.4266 33.0821 49.9105 34.307C53.9537 36.3001 57.3862 35.6206 58.5592 33.9704C59.1913 33.0778 59.0661 32.0001 58.235 31.0415Z" fill="#AF1049"/>
<path d="M53.6483 35.555C53.5199 35.2776 53.3618 35.0259 53.1865 34.8052C54.3688 35.0786 55.5662 34.8981 55.8171 34.0555C56.113 33.0615 55.7816 32.4391 54.2443 31.8763C53.9577 31.7721 53.6683 31.7064 53.3874 31.6734C54.416 31.0302 55.1356 30.0536 54.716 29.2832C54.2227 28.3724 53.5464 28.1652 52.0617 28.8552C51.7844 28.9835 51.5328 29.1415 51.3122 29.3167C51.585 28.1344 51.4039 26.9368 50.5612 26.6855C49.5672 26.3891 48.945 26.7202 48.383 28.2574C48.279 28.5439 48.2133 28.8333 48.1805 29.1142C47.5368 28.0853 46.56 27.3652 45.7899 27.7844C44.8793 28.2772 44.6725 28.9535 45.3632 30.4386C45.4915 30.7161 45.6496 30.9677 45.825 31.1884C44.6426 30.915 43.4452 31.0955 43.1944 31.9382C42.8984 32.9321 43.2298 33.5546 44.7671 34.1173C45.0557 34.2238 45.3431 34.2873 45.624 34.3202C44.5955 34.9635 43.8759 35.94 44.2954 36.7104C44.7887 37.6213 45.465 37.8284 46.9497 37.1384C47.227 37.0102 47.4786 36.8522 47.6992 36.6769C47.4264 37.8592 47.6075 39.0568 48.4502 39.3081C49.4442 39.6045 50.0664 39.2734 50.6284 37.7363C50.7325 37.4497 50.7981 37.1604 50.8309 36.8794C51.4746 37.9084 52.4514 38.6285 53.2215 38.2093C54.1344 37.7144 54.3412 37.0382 53.6483 35.555Z" fill="#FFD217"/>
<path d="M44.3746 37.2869C44.2636 37.1588 44.1606 37.0077 44.0659 36.8292C43.6334 36.03 44.1656 35.1238 44.9858 34.4527C44.8806 34.4237 44.7799 34.3908 44.6795 34.3536C43.0918 33.7743 42.5895 33.0517 42.945 31.8538C43.2042 30.9839 44.2208 30.7196 45.2755 30.8272C45.2221 30.7333 45.1729 30.6396 45.1283 30.542C44.4131 29.0101 44.5712 28.1436 45.667 27.5503C46.466 27.1181 47.3724 27.6507 48.0438 28.4713C48.0727 28.3661 48.1056 28.2655 48.1428 28.1651C48.7212 26.5776 49.4436 26.0755 50.6415 26.4316C51.5115 26.6913 51.7762 27.7081 51.6691 28.7628C51.7631 28.7094 51.8567 28.6603 51.9543 28.6158C53.4858 27.9012 54.3522 28.0597 54.9461 29.1559C55.3786 29.9551 54.8464 30.8614 54.0262 31.5324C54.1314 31.5614 54.2321 31.5943 54.3325 31.6315C55.9202 32.2108 56.4225 32.9335 56.0671 34.1313C55.8078 35.0012 54.7912 35.2655 53.7365 35.1579C53.79 35.2518 53.8391 35.3455 53.8837 35.4431C54.599 36.9751 54.4408 37.8415 53.345 38.4349C52.546 38.867 51.6416 38.3367 50.9683 37.5138C50.9393 37.619 50.9064 37.7197 50.8693 37.82C50.2908 39.4075 49.5685 39.9096 48.3705 39.5535C47.5005 39.2939 47.2358 38.277 47.3429 37.2223C47.249 37.2757 47.1553 37.3248 47.0577 37.3693C45.7725 37.9706 44.9558 37.9573 44.3746 37.2869ZM45.823 34.1478C45.8507 34.1798 45.8716 34.2178 45.8814 34.2614C45.906 34.3683 45.8594 34.4809 45.7652 34.5385C44.9208 35.0662 44.1726 35.9312 44.5255 36.5831C44.9162 37.3064 45.4017 37.5707 46.8399 36.9009C47.0885 36.7857 47.324 36.6416 47.5401 36.4703C47.6264 36.4035 47.7471 36.395 47.8394 36.4552C47.9317 36.5155 47.9797 36.6262 47.9527 36.7337C47.7292 37.7049 47.8134 38.8462 48.5239 39.0559C49.312 39.2903 49.8401 39.1371 50.3839 37.6437C50.4773 37.3864 50.5414 37.1184 50.5736 36.846C50.5877 36.7376 50.6693 36.6468 50.7762 36.6223C50.8831 36.5977 50.9957 36.6444 51.0534 36.7387C51.5814 37.5834 52.4467 38.332 53.0984 37.9794C53.8214 37.589 54.0855 37.1036 53.4151 35.665C53.2997 35.4164 53.1555 35.1807 52.9841 34.9646C52.9173 34.8783 52.9087 34.7575 52.9689 34.6652C53.0291 34.5729 53.1398 34.525 53.2474 34.552C54.2186 34.776 55.3598 34.6924 55.5691 33.982C55.8031 33.1939 55.6497 32.6657 54.1561 32.1211C53.8988 32.0276 53.6308 31.9634 53.3584 31.931C53.2499 31.9168 53.1592 31.8352 53.1346 31.7283C53.11 31.6214 53.1566 31.5088 53.2508 31.4512C54.0952 30.9235 54.8434 30.0585 54.4905 29.4066C54.0998 28.6834 53.6142 28.419 52.1761 29.0888C51.9275 29.204 51.6919 29.3481 51.4759 29.5194C51.3896 29.5862 51.2688 29.5947 51.1765 29.5345C51.082 29.4762 51.0363 29.3635 51.0633 29.256C51.2868 28.2848 51.2026 27.1435 50.4944 26.9319C49.7063 26.6974 49.1782 26.8506 48.6344 28.344C48.541 28.6013 48.4769 28.8693 48.4447 29.1417C48.4305 29.2501 48.349 29.3409 48.2421 29.3654C48.1352 29.39 48.0226 29.3433 47.9649 29.249C47.4369 28.4043 46.5716 27.6557 45.9199 28.0083C45.1969 28.3987 44.9328 28.8841 45.6032 30.3227C45.7186 30.5714 45.8628 30.807 46.0341 31.0231C46.101 31.1095 46.1096 31.2303 46.0493 31.3225C45.9891 31.4148 45.8784 31.4627 45.7709 31.4357C44.7997 31.2117 43.6585 31.2954 43.4492 32.0058C43.2151 32.7938 43.3686 33.322 44.8622 33.8666C45.1195 33.9601 45.3875 34.0243 45.6599 34.0567C45.7236 34.0655 45.7813 34.0997 45.823 34.1478Z" fill="#D37F07"/>
<path d="M49.933 27.4905C49.6882 28.7006 49.4519 29.9434 49.4368 31.1828C49.4342 31.5217 49.9313 31.5637 49.9664 31.2207C50.0853 29.9994 50.0892 28.7657 50.1782 27.5424C50.1902 27.4037 49.9646 27.3468 49.933 27.4905Z" fill="#D37F07"/>
<path d="M45.8085 28.9145C46.5723 29.8834 47.1093 31.0249 47.9595 31.9269C48.2109 32.1939 48.648 31.8109 48.3894 31.5542C47.5158 30.6805 47.0166 29.4301 45.967 28.737C45.8523 28.6601 45.7258 28.8099 45.8085 28.9145Z" fill="#D37F07"/>
<path d="M43.9661 32.7359C44.5351 32.8839 45.1541 32.8402 45.7359 32.8968C46.4222 32.9631 47.0909 33.0967 47.7632 33.2392C48.1057 33.3109 48.2998 32.814 47.9426 32.7069C47.2746 32.5047 46.564 32.3873 45.8702 32.3356C45.247 32.2867 44.5404 32.234 43.9451 32.4576C43.8282 32.5029 43.8418 32.7034 43.9661 32.7359Z" fill="#D37F07"/>
<path d="M45.2736 36.628C46.4534 36.0299 47.5391 35.0967 48.4978 34.1974C48.7966 33.9183 48.3804 33.4335 48.0793 33.7146C47.1114 34.6219 46.0471 35.4364 45.0934 36.3554C44.9664 36.4815 45.102 36.7166 45.2736 36.628Z" fill="#D37F07"/>
<path d="M49.097 38.1783C49.506 37.1024 49.7767 35.8899 50.0091 34.7626C50.0781 34.4263 49.5828 34.2385 49.4873 34.5858C49.184 35.7144 48.8941 36.9556 48.8156 38.1217C48.806 38.2863 49.0411 38.331 49.097 38.1783Z" fill="#D37F07"/>
<path d="M53.6354 29.2983C53.096 29.5816 52.602 29.9497 52.1069 30.3028C51.6119 30.6558 50.9997 30.9662 50.6586 31.4783C50.5863 31.589 50.6849 31.772 50.8252 31.7306C51.3989 31.5699 51.8514 31.1215 52.3267 30.7735C52.8498 30.3881 53.4079 30.0245 53.8255 29.5222C53.9263 29.4028 53.7647 29.2302 53.6354 29.2983Z" fill="#D37F07"/>
<path d="M54.666 33.2821C54.0658 33.1813 53.4702 33.0765 52.873 32.9651C52.299 32.8575 51.6641 32.6426 51.0807 32.6674C50.7794 32.6802 50.6766 33.0698 50.9748 33.192C51.5041 33.4144 52.1602 33.4227 52.728 33.4955C53.3638 33.5775 53.9983 33.6486 54.6354 33.7135C54.9163 33.7464 54.9375 33.3273 54.666 33.2821Z" fill="#D37F07"/>
<path d="M52.5799 36.7856C52.1329 35.8587 51.5471 34.8597 50.9345 34.0283C50.7504 33.7791 50.3252 34.0555 50.4775 34.3283C50.9714 35.2306 51.6311 36.1856 52.2806 36.981C52.4109 37.1405 52.6677 36.97 52.5799 36.7856Z" fill="#D37F07"/>
<path d="M45.6371 31.263C46.2556 31.8009 46.9358 32.2852 47.6569 32.6779C47.9461 32.836 48.2229 32.4437 47.9453 32.2436C47.2673 31.7573 46.5307 31.3419 45.7724 30.9894C45.5976 30.9125 45.5176 31.1622 45.6371 31.263Z" fill="#D37F07"/>
<path d="M45.4414 34.4746C45.8378 34.5437 46.1709 34.4152 46.5423 34.2936C47.0191 34.1367 47.5003 34.008 47.9923 33.9102C48.3514 33.8393 48.247 33.2845 47.8882 33.3512C47.4795 33.425 47.0821 33.521 46.6892 33.6453C46.2608 33.7842 45.8548 34.032 45.422 34.1427C45.2338 34.1936 45.2547 34.4441 45.4414 34.4746Z" fill="#D37F07"/>
<path d="M47.772 37.0106C48.212 36.3446 48.6435 35.6779 49.0874 35.0165C49.2987 34.7011 48.844 34.4261 48.6101 34.6969C48.0841 35.3053 47.6686 36.0782 47.4631 36.8576C47.4156 37.043 47.6567 37.1826 47.772 37.0106Z" fill="#D37F07"/>
<path d="M48.1023 29.1902C48.1036 29.201 48.1007 29.2115 48.1021 29.2224C48.1014 29.2631 48.1592 29.2651 48.1619 29.2266C48.1648 29.2161 48.1634 29.2053 48.1663 29.1948C48.1713 29.1543 48.101 29.1472 48.1023 29.1902Z" fill="#D37F07"/>
<path d="M47.9176 28.8851C47.9829 29.3856 48.1437 29.8112 48.2812 30.2932C48.3981 30.7007 48.3106 31.1173 48.5217 31.4993C48.6604 31.7518 49.0718 31.6396 49.0116 31.3391C48.9361 30.9517 48.9544 30.5431 48.8307 30.1694C48.668 29.6813 48.4749 29.2276 48.2054 28.792C48.1168 28.6483 47.8916 28.7073 47.9176 28.8851Z" fill="#D37F07"/>
<path d="M50.0961 31.3887C50.4108 31.1279 50.5746 30.7255 50.7998 30.3939C51.0807 29.974 51.4695 29.6971 51.7838 29.3204C51.8963 29.1868 51.7398 28.9739 51.5784 29.0096C50.7666 29.2004 49.9502 30.4812 49.8827 31.2812C49.8702 31.3962 50.0095 31.4598 50.0961 31.3887Z" fill="#D37F07"/>
<path d="M51.3962 32.6384C52.2638 32.6597 53.4686 32.2844 54.0052 31.5588C54.143 31.3712 53.9163 31.179 53.7334 31.2453C53.3193 31.396 52.9583 31.705 52.5658 31.913C52.171 32.123 51.7686 32.3195 51.3776 32.5384C51.335 32.5632 51.3404 32.6387 51.3962 32.6384Z" fill="#D37F07"/>
<path d="M51.1748 33.4875C51.6538 33.8136 52.0744 34.2064 52.4833 34.6133C52.7819 34.9115 53.0361 35.2602 53.423 35.4338C53.579 35.5029 53.704 35.3144 53.6493 35.1774C53.4594 34.7089 52.95 34.2969 52.583 33.9659C52.2057 33.6278 51.7996 33.3626 51.3351 33.1642C51.1413 33.0838 51.009 33.3748 51.1748 33.4875Z" fill="#D37F07"/>
<path d="M49.955 34.5012C50.0083 35.593 50.3828 37.18 51.3604 37.8272C51.5592 37.9595 51.7549 37.7417 51.6852 37.5457C51.5164 37.0508 51.1432 36.6249 50.9312 36.1355C50.7006 35.6061 50.5068 35.0407 50.3685 34.4792C50.3177 34.2588 49.9426 34.2513 49.955 34.5012Z" fill="#D37F07"/>
<path d="M38.2065 27.2936C43.1724 30.8592 50.3706 39.1621 53.196 44.5834C53.196 44.5834 50.6606 50.9134 45.2822 48.2904C39.9039 45.6674 44.4277 42.6151 42.0038 39.8193C41.8789 39.6751 41.7838 39.5331 41.7143 39.393C41.5874 39.3066 41.4603 39.1924 41.3334 39.046C38.9115 36.2524 35.2485 40.2977 33.4128 34.5995C31.577 28.9012 38.2065 27.2936 38.2065 27.2936Z" fill="#FC3B77"/>
<path d="M34.3539 36.9695C33.9076 36.4548 33.5047 35.722 33.1666 34.6806C32.6426 33.055 32.7358 31.5916 33.4389 30.3328C34.8154 27.8731 38.0075 27.0734 38.1429 27.0401C38.215 27.0217 38.2933 27.038 38.3566 27.0833C43.3838 30.692 50.5662 38.9765 53.4235 44.4624C53.4574 44.5292 53.4625 44.609 53.436 44.68C53.3839 44.8094 52.1396 47.8558 49.5095 48.8696C48.1614 49.3891 46.6996 49.2738 45.167 48.5226C41.8339 46.8957 42.1255 44.9958 42.3797 43.3207C42.557 42.153 42.7275 41.0514 41.8072 39.9898C41.6881 39.8525 41.5908 39.7125 41.5131 39.5675C41.3825 39.4723 41.2557 39.3538 41.1367 39.2165C40.2164 38.1549 39.0997 38.1652 37.9207 38.1774C36.7268 38.1865 35.4191 38.1982 34.3539 36.9695ZM38.1543 27.5753C37.5846 27.7406 35.0188 28.5744 33.8929 30.5884C33.2612 31.7172 33.1866 33.0403 33.6609 34.5206C34.6809 37.684 36.1797 37.671 37.917 37.6557C39.1646 37.644 40.453 37.6331 41.5301 38.8755C41.6352 38.9968 41.7481 39.0993 41.8605 39.1781C41.8974 39.2022 41.9272 39.2365 41.9478 39.2788C42.0076 39.4032 42.0934 39.5253 42.2005 39.6488C43.2795 40.8934 43.0861 42.1673 42.8956 43.3984C42.6342 45.1159 42.4068 46.5954 45.3954 48.056C46.7933 48.7397 48.1139 48.8492 49.3231 48.3819C51.4788 47.551 52.6634 45.1334 52.9078 44.5929C50.0589 39.1999 43.0887 31.1602 38.1543 27.5753Z" fill="#AF1049"/>
<path d="M51.9702 43.4142C51.9702 43.4142 49.9199 46.4781 46.7238 44.6443C43.5297 42.8128 45.0028 36.8468 45.0028 36.8468C45.0028 36.8468 46.5116 35.5147 48.6726 37.3882C50.8314 39.2637 51.9702 43.4142 51.9702 43.4142Z" fill="#D32463"/>
<path d="M45.6572 44.098C44.8638 43.1829 44.4351 41.8152 44.4028 40.0638C44.3716 38.3275 44.732 36.8489 44.7494 36.7858C44.7616 36.7351 44.7885 36.6877 44.8297 36.652C44.8457 36.6381 46.5364 35.1924 48.843 37.1922C51.0384 39.0961 52.1738 43.1733 52.2217 43.3442C52.2422 43.4186 52.2282 43.4949 52.1872 43.5585C52.1634 43.5911 49.9633 46.801 46.5939 44.8689C46.2391 44.6676 45.9269 44.4092 45.6572 44.098ZM45.2366 36.9966C45.0754 37.7255 44.0697 42.8213 46.8533 44.4196C49.5173 45.9493 51.3139 43.8587 51.6837 43.3658C51.4791 42.6816 50.3755 39.214 48.4996 37.5862C46.7692 36.0846 45.5191 36.7957 45.2366 36.9966Z" fill="#AF1049"/>
<path d="M46.8408 35.3172C46.8408 35.3172 52.3441 41.8915 55.8297 42.0356C59.3154 42.1797 60.4022 39.3258 58.5685 37.2847C56.7365 35.2501 48.3775 33.5922 46.8408 35.3172Z" fill="#FC3B77"/>
<path d="M46.856 35.7368C46.737 35.5995 46.6659 35.5129 46.6421 35.4854C46.5591 35.3851 46.5629 35.2415 46.647 35.1446C47.1206 34.6097 48.112 34.3394 49.5866 34.3354C52.6044 34.328 57.3708 35.5659 58.7632 37.1119C59.6942 38.1442 59.9613 39.4595 59.458 40.5331C58.9067 41.7083 57.5466 42.3665 55.8198 42.2967C52.6143 42.1662 47.9252 36.97 46.856 35.7368ZM58.4214 37.5124C58.4075 37.4964 58.3917 37.4781 58.3778 37.462C57.2104 36.1617 52.7756 34.8488 49.5903 34.8571C48.472 34.8609 47.6422 35.0312 47.206 35.3412C48.1383 36.4165 52.8375 41.6521 55.8417 41.7767C57.3524 41.8376 58.5287 41.2907 58.9865 40.3127C59.3932 39.4511 59.1752 38.3818 58.4214 37.5124Z" fill="#AF1049"/>
<path d="M47.1461 35.0686C47.1461 35.0686 48.647 32.489 54.146 34.4103C59.645 36.3315 59.0756 31.0221 57.2129 29.7837C57.2129 29.7837 60.4059 31.54 60.4241 35.7563C60.4423 39.9725 55.5169 38.8284 53.0412 37.3358C50.5701 35.8392 48.6673 34.4391 47.1461 35.0686Z" fill="#FC3B77"/>
<path d="M46.9494 35.2391C46.876 35.1545 46.8651 35.0357 46.9214 34.9388C46.9874 34.8255 48.5947 32.1977 54.2341 34.1655C56.1774 34.8453 57.5303 34.6501 58.0457 33.6182C58.6317 32.4369 57.9909 30.6119 57.0729 30.0012C56.9582 29.9243 56.9221 29.7672 56.9927 29.6499C57.0655 29.5307 57.2186 29.4901 57.3405 29.5568C57.4769 29.6309 60.6685 31.4365 60.688 35.7558C60.6925 37.0824 60.2379 38.0135 59.3344 38.5284C57.5099 39.5611 54.4961 38.515 52.9114 37.5604C52.5987 37.3707 52.2923 37.1835 51.9963 36.9993C50.0164 35.7782 48.4518 34.8143 47.249 35.312C47.1431 35.3517 47.0248 35.3261 46.9494 35.2391C46.9494 35.2391 46.9514 35.2414 46.9494 35.2391ZM58.5703 31.3079C58.85 32.1434 58.8855 33.0945 58.51 33.8489C58.1368 34.6012 57.0607 35.7025 54.062 34.6554C50.548 33.4298 48.7443 34.0798 47.9333 34.6506C49.1721 34.6426 50.5763 35.5092 52.2685 36.5509C52.5625 36.7328 52.8647 36.9197 53.1797 37.1075C54.9617 38.1835 57.635 38.8876 59.0772 38.07C59.806 37.6586 60.1705 36.8777 60.1689 35.753C60.1584 33.6942 59.3562 32.2376 58.5703 31.3079Z" fill="#AF1049"/>
<path d="M45.0021 36.8469C45.0021 36.8469 46.1124 34.6299 48.2125 35.9111C50.3126 37.1923 53.6126 41.9136 56.7247 41.3957C59.8367 40.8778 59.161 38.4259 59.161 38.4259C59.161 38.4259 62.0187 40.4608 60.1099 44.4642C58.8238 47.1621 53.5946 47.3955 51.1123 43.8208C48.9982 40.7724 48.2308 35.1699 45.0021 36.8469Z" fill="#FC3B77"/>
<path d="M44.8058 37.0173C44.7363 36.9372 44.7229 36.8247 44.7703 36.7315C44.7927 36.688 45.3309 35.6363 46.3847 35.3318C47.0069 35.1531 47.6679 35.2733 48.3487 35.689C49.0276 36.1024 49.8256 36.8612 50.6699 37.6641C52.453 39.3604 54.6742 41.4743 56.6854 41.1374C57.6432 40.9763 58.3106 40.6141 58.6658 40.0536C59.134 39.3231 58.9135 38.5004 58.9118 38.4938C58.8829 38.3866 58.923 38.2757 59.0133 38.2135C59.1035 38.1513 59.2237 38.1513 59.3137 38.2135C59.3444 38.235 62.3265 40.4227 60.3469 44.5755C59.7647 45.7936 58.4153 46.6027 56.732 46.7356C54.9427 46.8802 52.4717 46.2292 50.9026 43.9667C50.2466 43.0205 49.7246 41.8501 49.2192 40.7173C48.4249 38.9372 47.673 37.2567 46.5905 36.8767C46.1549 36.7253 45.6762 36.7877 45.1279 37.0747C45.0277 37.1255 44.9045 37.1081 44.8242 37.0294C44.8157 37.0287 44.8097 37.0219 44.8058 37.0173ZM47.8802 37.2093C48.5745 38.01 49.1205 39.2359 49.6911 40.5085C50.1852 41.619 50.6983 42.7653 51.3271 43.6708C52.7716 45.7528 55.0427 46.3487 56.6873 46.2174C58.1852 46.097 59.3743 45.3987 59.8758 44.3508C61.1897 41.5926 60.157 39.8469 59.482 39.0776C59.469 39.4415 59.383 39.8967 59.1032 40.3317C58.6636 41.0213 57.8769 41.463 56.7672 41.6476C54.4998 42.0263 52.1762 39.8128 50.3087 38.0375C49.4865 37.2554 48.7085 36.5152 48.0771 36.1288C47.5258 35.7932 47.0051 35.6916 46.5275 35.8292C46.2011 35.9239 45.9343 36.1151 45.7292 36.3129C46.09 36.2486 46.4339 36.271 46.7584 36.3865C47.1769 36.5366 47.547 36.8249 47.8802 37.2093Z" fill="#AF1049"/>
<path d="M39.2302 28.7188C39.2302 28.7188 35.9065 30.3139 37.2686 33.7377C38.6287 37.1593 44.7432 36.5471 44.7432 36.5471C44.7432 36.5471 46.2758 35.2424 44.7277 32.8375C43.1772 30.4346 39.2302 28.7188 39.2302 28.7188Z" fill="#D32463"/>
<path d="M37.6578 34.8708C37.388 34.5597 37.1765 34.2141 37.0252 33.8363C35.5902 30.2312 39.0799 28.5042 39.1156 28.4853C39.1844 28.4537 39.2618 28.4507 39.3326 28.4815C39.4972 28.5512 43.3719 30.2576 44.9433 32.6985C45.7956 34.0235 45.753 35.0462 45.5626 35.6722C45.3526 36.3632 44.9272 36.732 44.9089 36.7478C44.87 36.7815 44.817 36.8035 44.7651 36.8084C44.7025 36.8146 43.1834 36.9614 41.4711 36.6866C39.7465 36.4023 38.4512 35.786 37.6578 34.8708ZM39.2372 29.0091C38.6965 29.3095 36.3726 30.7872 37.509 33.6412C38.6962 36.6276 43.8877 36.3507 44.6278 36.2942C44.8713 36.0391 45.7538 34.9132 44.5049 32.9783C43.1615 30.8928 39.8855 29.3087 39.2372 29.0091Z" fill="#AF1049"/>
<path d="M46.5156 34.942C46.5156 34.942 40.7881 28.562 41.1398 25.0912C41.4914 21.6203 44.4705 20.9492 46.231 23.0537C47.9873 25.158 48.4431 33.6677 46.5156 34.942Z" fill="#FC3B77"/>
<path d="M46.1043 34.8696C45.0372 33.6387 40.5564 28.2578 40.8818 25.0663C41.0576 23.3469 41.9019 22.0939 43.1435 21.7149C44.2776 21.3689 45.5398 21.8175 46.4316 22.8878C47.7668 24.4834 48.3141 29.3791 47.8788 32.3654C47.6677 33.8268 47.2575 34.7675 46.6609 35.1605C46.555 35.2324 46.4104 35.2134 46.3228 35.117C46.299 35.0896 46.2213 35.0046 46.1043 34.8696ZM45.9867 23.1693C45.233 22.2999 44.2054 21.9324 43.2949 22.2128C42.2595 22.5294 41.5513 23.6162 41.3996 25.1183C41.097 28.1098 45.6133 33.5039 46.5456 34.5793C46.9163 34.1937 47.2028 33.3923 47.3628 32.2877C47.8227 29.1358 47.15 24.5573 46.0303 23.2197C46.0165 23.2036 46.0006 23.1853 45.9867 23.1693Z" fill="#AF1049"/>
<path d="M46.8068 34.6773C46.8068 34.6773 49.5731 33.5574 48.4511 27.8415C47.3291 22.1257 52.504 23.4422 53.4658 25.4617C53.4658 25.4617 52.18 22.0519 48.009 21.4361C43.8379 20.8202 44.272 25.858 45.3985 28.5203C46.5295 31.1787 47.6456 33.2608 46.8068 34.6773Z" fill="#FC3B77"/>
<path d="M46.6102 34.8479C46.6102 34.8479 46.6082 34.8456 46.6102 34.8479C46.5368 34.7632 46.5262 34.6401 46.5825 34.5433C47.248 33.4213 46.5134 31.7377 45.5855 29.6047C45.445 29.2856 45.3052 28.958 45.1597 28.6192C44.4395 26.9152 43.8294 23.7812 45.1124 22.1239C45.7482 21.3002 46.7363 20.9846 48.0489 21.1771C52.3221 21.8046 53.6565 25.2243 53.7106 25.3698C53.7593 25.4999 53.6974 25.6458 53.569 25.701C53.4407 25.7562 53.2903 25.6982 53.2327 25.5717C52.7583 24.5764 51.0407 23.681 49.7902 24.0959C48.6979 24.4577 48.3129 25.7693 48.7079 27.7913C49.8584 33.6508 47.027 34.8712 46.9055 34.9205C46.8019 34.9582 46.6816 34.9302 46.6102 34.8479ZM52.1413 23.897C51.3302 22.9892 50.004 21.9908 47.9737 21.6911C46.861 21.5257 46.036 21.7801 45.5254 22.4432C44.5116 23.7549 44.8275 26.4987 45.6419 28.4176C45.7854 28.7541 45.9275 29.0797 46.0637 29.3985C46.8532 31.2147 47.5122 32.7234 47.3332 33.9446C48.0118 33.2119 48.9054 31.5074 48.1966 27.8899C47.5833 24.7707 48.8281 23.864 49.6257 23.6012C50.4214 23.3362 51.3559 23.5039 52.1413 23.897Z" fill="#AF1049"/>
<path d="M44.7426 36.5471C44.7426 36.5471 47.0945 35.7625 46.1241 33.5019C45.1537 31.2414 40.9481 27.3051 41.902 24.298C42.8579 21.2932 45.1873 22.3074 45.1873 22.3074C45.1873 22.3074 43.5781 19.19 39.3446 20.5119C36.4915 21.4023 35.5189 26.5456 38.7056 29.5098C41.4234 32.0348 46.8605 33.5889 44.7426 36.5471Z" fill="#FC3B77"/>
<path d="M44.5459 36.7176C44.5419 36.7131 44.5359 36.7062 44.532 36.7016C44.4654 36.611 44.4634 36.4885 44.5302 36.3946C44.89 35.8903 45.0216 35.4275 44.9336 34.9748C44.7132 33.8474 43.154 32.8667 41.5045 31.8281C40.4549 31.1672 39.3703 30.4844 38.5267 29.7009C36.5095 27.8269 36.2155 25.2885 36.6124 23.5378C36.9869 21.8906 37.9772 20.6673 39.2633 20.2657C43.6548 18.895 45.3975 22.1572 45.4144 22.1906C45.4633 22.2885 45.4485 22.4055 45.3719 22.488C45.2975 22.5686 45.1778 22.5922 45.08 22.5487C45.0737 22.5461 44.2775 22.2145 43.4945 22.5727C42.8933 22.8495 42.4404 23.4545 42.1474 24.3778C41.5287 26.3208 43.3043 28.8171 44.7326 30.8249C45.4077 31.7746 46.0437 32.6699 46.3586 33.4028C46.6735 34.1357 46.6988 34.807 46.4337 35.3976C45.9848 36.3999 44.8697 36.7816 44.8192 36.7973C44.7248 36.827 44.6153 36.7977 44.5459 36.7176ZM44.5538 21.8587C43.8755 21.0762 42.292 19.8642 39.4235 20.76C38.3151 21.1078 37.4552 22.1859 37.1236 23.6516C36.7604 25.2609 37.0302 27.5959 38.8844 29.3187C39.6916 30.0696 40.7557 30.738 41.7827 31.3866C43.5287 32.4858 45.1802 33.5267 45.4429 34.8739C45.5093 35.2091 45.4847 35.5551 45.3698 35.9031C45.597 35.7262 45.8241 35.4892 45.9642 35.1794C46.1658 34.7282 46.139 34.1983 45.885 33.605C45.592 32.9252 44.9696 32.0501 44.3121 31.1254C42.8195 29.0249 40.9579 26.4109 41.6543 24.2202C41.9944 23.1479 42.5451 22.434 43.2881 22.0944C43.7604 21.8813 44.2212 21.8585 44.5833 21.8973C44.5777 21.8861 44.5657 21.8724 44.5538 21.8587Z" fill="#AF1049"/>
<path d="M42.1412 29.4249C42.1412 29.4249 39.5452 27.2391 40.6127 24.5663C41.676 21.8932 43.0888 21.3697 42.3525 21.1904C41.6163 21.0112 38.7552 20.8066 37.8202 24.3022C36.8852 27.7979 39.897 29.3867 40.9627 30.2141C42.0285 31.0414 43.5676 31.3382 42.1412 29.4249Z" fill="#FF88B9"/>
<path d="M53.0537 41.204C51.8993 39.8724 50.1193 39.4318 51.2407 42.0744C52.3664 44.7174 54.9137 45.7751 56.8728 45.4753C58.8297 45.1774 59.9748 43.1346 59.8817 41.8167C59.7886 40.4988 57.2618 43.5029 55.3844 42.6819C53.507 41.8609 53.0537 41.204 53.0537 41.204Z" fill="#FF88B9"/>
<path d="M37.3812 35.7717C37.3812 35.7717 35.1523 33.7367 35.9148 31.7932C36.6796 29.8477 34.8267 30.4041 34.2895 31.8036C33.7523 33.203 33.706 34.7621 35.1169 35.9875C36.5281 37.2087 38.3212 36.5879 37.3812 35.7717Z" fill="#FF88B9"/>
<path d="M43.783 43.2902C43.783 43.2902 44.6766 45.6654 46.4477 46.2299C48.2189 46.7943 50.6709 45.7185 50.5691 46.2757C50.4653 46.8305 47.3146 48.9809 45.0194 47.0034C42.7218 45.0278 43.3208 42.7571 43.783 43.2902Z" fill="#FF88B9"/>
<path d="M30.3349 27.2008C32.071 27.5031 33.7559 27.7416 35.2865 28.6708C35.7515 28.953 36.1709 28.3049 35.7503 27.9722C34.2286 26.7667 32.2305 26.6474 30.3675 26.7117C30.0553 26.7258 30.0233 27.1463 30.3349 27.2008Z" fill="#AF1049"/>
<path d="M52.5674 52.9469C53.5648 51.2005 52.5699 48.8931 52.1182 47.1247C51.9868 46.6174 51.1739 46.7932 51.3287 47.2721C51.9166 49.0868 52.657 50.8695 52.2667 52.7988C52.2375 52.9684 52.4644 53.1284 52.5674 52.9469Z" fill="#AF1049"/>
<path d="M31.8397 36.5001C32.1615 36.5016 32.4804 36.5137 32.8025 36.511C33.0881 36.5078 33.54 36.4006 33.8034 36.5289C34.0214 36.6325 34.2499 36.4063 34.2391 36.1952C34.2264 35.9818 33.9737 35.7921 33.7676 35.9147C33.5189 36.0622 33.0556 35.999 32.7744 36.0304C32.4564 36.0656 32.1369 36.1222 31.8203 36.1682C31.6337 36.1978 31.6466 36.4991 31.8397 36.5001Z" fill="#AF1049"/>
<path d="M43.6133 50.1219C43.827 49.8325 43.945 49.4696 44.1053 49.1463C44.2806 48.794 44.4683 48.4469 44.6416 48.0923C44.8496 47.6715 44.2551 47.3693 44.059 47.8039C43.8931 48.1761 43.7502 48.5565 43.6136 48.9395C43.4882 49.2846 43.3215 49.6375 43.2783 50.0036C43.2558 50.1994 43.511 50.2627 43.6133 50.1219Z" fill="#AF1049"/>
<path d="M39.14 32.6118C40.2378 32.4736 41.3747 32.6622 42.3935 33.0934C42.8767 33.2997 43.3389 33.5602 43.7584 33.8778C44.1638 34.1836 44.4738 34.5921 44.8869 34.8792C45.0772 35.0108 45.3008 34.7929 45.2162 34.5937C44.8033 33.6091 43.5363 32.8962 42.581 32.5381C41.4397 32.1089 40.268 32.0787 39.0868 32.3333C38.9081 32.3721 38.9602 32.6355 39.14 32.6118Z" fill="#AF1049"/>
<path d="M48.4288 43.234C49.0026 41.923 49.1247 40.114 48.5521 38.7789C48.0601 37.6385 46.8244 36.0608 45.4599 36.0855C45.1635 36.0901 45.0967 36.4566 45.3604 36.5806C46.5046 37.1195 47.5174 37.9967 48.0592 39.1622C48.5557 40.2385 48.4803 41.9951 48.1251 43.1286C48.0616 43.3279 48.3468 43.4213 48.4288 43.234Z" fill="#AF1049"/>
<path d="M46.734 35.2774C46.8646 35.1 47.0465 34.9864 47.262 34.9439C47.1742 34.7595 47.0842 34.5771 46.9944 34.3904C46.7398 34.5911 46.4926 34.7172 46.1999 34.8508C46.3637 34.9612 46.5295 35.0739 46.6911 35.1864C46.69 35.1713 46.6889 35.1562 46.6902 35.1391C46.6841 34.9519 46.5346 34.761 46.3228 34.8123C46.3097 34.8157 46.2966 34.8191 46.2834 34.8224C45.849 34.9266 45.9847 35.6144 46.4112 35.5011C46.8204 35.3909 47.1974 35.1281 47.4671 34.8062C47.6829 34.5469 47.3274 34.2339 47.0644 34.3417C46.7238 34.4848 46.48 34.7442 46.3381 35.0796C46.2414 35.3237 46.5936 35.4713 46.734 35.2774Z" fill="#AF1049"/>
<path d="M47.8955 23.4303C47.1024 23.2963 45.739 23.5487 45.4665 24.4541C45.4298 24.5781 45.5526 24.6921 45.6744 24.6385C46.0114 24.4867 46.2724 24.1963 46.6063 24.027C47.0005 23.8256 47.4355 23.7129 47.8787 23.6974C48.0507 23.6925 48.0694 23.4599 47.8955 23.4303Z" fill="#AF1049"/>
<path d="M47.6434 24.7751C46.9962 24.8232 46.1546 25.1601 45.9185 25.8256C45.8462 26.0286 46.0916 26.1685 46.2524 26.0491C46.4702 25.8844 46.632 25.6599 46.8577 25.5044C47.1173 25.3233 47.4026 25.2042 47.7139 25.1428C47.9533 25.0955 47.8784 24.7597 47.6434 24.7751Z" fill="#AF1049"/>
<path d="M55.9141 35.2899C55.7894 35.5343 55.7702 35.8355 55.6807 36.0973C55.583 36.3865 55.4043 36.6656 55.3361 36.9612C55.3051 37.0963 55.4755 37.2652 55.5942 37.1342C55.8197 36.8906 55.921 36.5223 55.993 36.2034C56.0557 35.9246 56.1364 35.5741 56.0422 35.2991C56.0222 35.2483 55.9387 35.2445 55.9141 35.2899Z" fill="#AF1049"/>
<path d="M57.1159 35.4382C57.0496 35.8283 56.9352 36.2 56.7913 36.5652C56.6732 36.868 56.4212 37.1826 56.413 37.5104C56.4107 37.6325 56.5477 37.7582 56.6688 37.6853C56.9852 37.4912 57.1149 37.0541 57.2249 36.7143C57.3565 36.3116 57.419 35.8848 57.4448 35.4617C57.4557 35.2478 57.1519 35.2347 57.1159 35.4382Z" fill="#AF1049"/>
</svg>
