<svg width="219" height="33" viewBox="0 0 219 33" fill="none" xmlns="http://www.w3.org/2000/svg">
<path d="M30.9375 13.4059H19.8516L16.5 3.09338L13.1484 13.4059H2.0625L11.0859 19.5934L7.60547 29.9059L16.5 23.4606L25.3945 29.9059L21.9141 19.5934L30.9375 13.4059Z" fill="#FCD226" stroke="#FFC100" stroke-width="1.5" stroke-linejoin="round"/>
<path d="M77 13.4059H66.25L63 3.09338L59.75 13.4059H49L57.75 19.5934L54.375 29.9059L63 23.4606L71.625 29.9059L68.25 19.5934L77 13.4059Z" fill="#FCD226" stroke="#FFC100" stroke-width="1.5" stroke-linejoin="round"/>
<path d="M123.937 13.4059H112.852L109.5 3.09338L106.148 13.4059H95.0625L104.086 19.5934L100.605 29.9059L109.5 23.4606L118.395 29.9059L114.914 19.5934L123.937 13.4059Z" fill="#FCD226" stroke="#FFC100" stroke-width="1.5" stroke-linejoin="round"/>
<path d="M170 13.4059H159.25L156 3.09338L152.75 13.4059H142L150.75 19.5934L147.375 29.9059L156 23.4606L164.625 29.9059L161.25 19.5934L170 13.4059Z" fill="#FCD226" stroke="#FFC100" stroke-width="1.5" stroke-linejoin="round"/>
<path d="M216.937 13.4059H205.852L202.5 3.09338L199.148 13.4059H188.062L197.086 19.5934L193.605 29.9059L202.5 23.4606L211.395 29.9059L207.914 19.5934L216.937 13.4059Z" fill="#F0F0F3" stroke="#FFC100" stroke-width="1.5" stroke-linejoin="round"/>
</svg>
